<?xml version="1.0" encoding="UTF-8"?>
<svg version="1.1" xmlns="http://www.w3.org/2000/svg" width="1024" height="1024">
<path d="M0 0 C11.38773213 9.89839091 15.28770626 26.18911053 17.75 40.5625 C17.79312815 42.22860856 17.80796247 43.89684153 17.75 45.5625 C18.41 45.8925 19.07 46.2225 19.75 46.5625 C20.02772214 48.33297863 20.2865616 50.10778133 20.46875 51.890625 C20.82462385 55.27142662 21.28271971 58.63283319 21.75 62 C21.915 63.21558594 22.08 64.43117188 22.25 65.68359375 C22.44597096 68.45036453 22.44597096 68.45036453 23.75 69.5625 C25.67224938 69.47256235 27.59147753 69.31659928 29.50708008 69.13330078 C36.23369854 68.56273505 42.88900722 68.41728572 49.63671875 68.4296875 C51.40955986 68.42825241 51.40955986 68.42825241 53.21821594 68.42678833 C55.70138604 68.42611276 58.18455798 68.42792317 60.66772461 68.43212891 C64.41068622 68.4374618 68.15352654 68.43217484 71.89648438 68.42578125 C83.6984187 68.42284274 95.44547829 68.5357733 107.22192383 69.34814453 C110.71871887 69.61294064 110.71871887 69.61294064 114.1003418 69.46826172 C116.75 69.5625 116.75 69.5625 118.75 71.5625 C120.72217155 72.17480627 120.72217155 72.17480627 123.00390625 72.5625 C123.85919922 72.7275 124.71449219 72.8925 125.59570312 73.0625 C126.49224609 73.2275 127.38878906 73.3925 128.3125 73.5625 C130.06398339 73.89487935 131.81528704 74.22820729 133.56640625 74.5625 C134.85828857 74.80806641 134.85828857 74.80806641 136.17626953 75.05859375 C154.29731798 78.60648258 171.86001238 86.18989012 187.75 95.5625 C188.74 94.5725 188.74 94.5725 189.75 93.5625 C189.81316406 94.15546875 189.87632812 94.7484375 189.94140625 95.359375 C191.08976048 98.48822421 192.83068372 99.16171696 195.6875 100.8125 C223.23448249 117.53999583 247.67596994 146.63469842 257.75 177.5625 C257.75 178.5525 257.75 179.5425 257.75 180.5625 C258.45769531 180.69527344 259.16539062 180.82804688 259.89453125 180.96484375 C261.7596996 181.35522782 263.61387869 181.80378594 265.44921875 182.31640625 C280.00663286 186.25547125 294.67419612 186.39927284 308.2109375 179.265625 C314.69391619 175.19540537 319.62572093 169.65681793 324.57763672 163.89331055 C330.05799777 157.67952716 336.08419375 154.0451932 344.45703125 153.46875 C351.05770077 153.73862405 356.46940877 156.35022697 361.25 160.83203125 C366.96265899 167.42241649 369.07762431 175.81929656 368.625 184.375 C366.90413423 199.94101314 358.47962834 212.515893 346.75 222.5625 C343.22042185 225.18286699 339.59620603 227.43782528 335.75 229.5625 C334.92242188 230.02398438 334.09484375 230.48546875 333.2421875 230.9609375 C312.44423144 241.455319 288.68126834 240.46616034 266.75 234.5625 C266.09 234.2325 265.43 233.9025 264.75 233.5625 C264.60304688 234.531875 264.45609375 235.50125 264.3046875 236.5 C262.27068129 248.99191285 258.8487019 260.58606287 252.3125 271.5 C249.3373255 276.76496849 249.35119299 279.79457972 250.75 285.5625 C254.52299015 302.91047534 257.14450161 322.47006668 247.75 338.5625 C242.84305756 345.14013952 237.79925335 350.31553528 229.75 352.5625 C214.22185575 354.16594968 202.03614967 349.45284603 188.75 341.5625 C188.75 340.9025 188.75 340.2425 188.75 339.5625 C188.16476562 339.29566406 187.57953125 339.02882813 186.9765625 338.75390625 C184.70269824 337.53718941 183.03834086 336.22200677 181.125 334.5 C180.43664062 333.88382813 179.74828125 333.26765625 179.0390625 332.6328125 C178.28367187 331.94960938 177.52828125 331.26640625 176.75 330.5625 C175.89148438 329.79679687 175.03296875 329.03109375 174.1484375 328.2421875 C167.02331122 321.8737118 167.02331122 321.8737118 164.75 319.28515625 C162.89584951 317.35741685 162.89584951 317.35741685 160.453125 317.3203125 C157.87957408 317.70552554 155.31395819 318.1177712 152.75 318.5625 C152.02941406 318.59730469 151.30882812 318.63210938 150.56640625 318.66796875 C148.17337014 318.9152025 146.7972178 319.27064978 144.75 320.5625 C142.7450261 323.41726417 141.14994328 326.37612045 139.515625 329.45703125 C134.79909005 337.75270665 127.02993264 343.10193023 118.75 347.5625 C118.09 347.5625 117.43 347.5625 116.75 347.5625 C116.42 348.2225 116.09 348.8825 115.75 349.5625 C106.30129365 353.28730648 93.06653493 354.68391313 83.25 351.4375 C76.90322842 348.0374438 72.46733889 345.15161204 69.0625 338.6875 C67.76209035 336.40521119 67.76209035 336.40521119 65.75 334.5625 C62.94071057 334.02550688 62.94071057 334.02550688 59.796875 334.24609375 C58.63454346 334.28347656 57.47221191 334.32085938 56.2746582 334.359375 C51.06931768 334.65935722 45.8807486 335.03603215 40.6875 335.5 C22.67473096 336.98653519 4.6351709 337.61927264 -13.4375 337.6875 C-14.37464844 337.69434814 -15.31179688 337.70119629 -16.27734375 337.70825195 C-20.59030065 337.70634018 -24.7586261 337.55819248 -29.03125 336.94921875 C-36.96652255 335.7503496 -36.96652255 335.7503496 -44.328125 338.48828125 C-46.32617653 340.37442006 -48.19467857 342.24467204 -50.0546875 344.25390625 C-64.41086005 359.72892098 -86.02272518 370.44618931 -106.25 375.5625 C-107.03246094 375.76101563 -107.81492187 375.95953125 -108.62109375 376.1640625 C-118.86180501 377.71614652 -131.2655798 378.30878542 -140.25 372.5625 C-144.8087717 368.79655816 -148.36872037 364.20633889 -150.25 358.5625 C-151.48363281 358.43294922 -151.48363281 358.43294922 -152.7421875 358.30078125 C-164.38039921 356.8359255 -173.09273329 353.13518307 -181.25 344.5625 C-182.74174589 342.61790268 -183.9782324 340.66580795 -185.25 338.5625 C-185.91 337.9025 -186.57 337.2425 -187.25 336.5625 C-188.17338124 334.54225376 -189.04249311 332.49685914 -189.875 330.4375 C-190.32101562 329.34179688 -190.76703125 328.24609375 -191.2265625 327.1171875 C-191.56429687 326.27414062 -191.90203125 325.43109375 -192.25 324.5625 C-192.91 324.8925 -193.57 325.2225 -194.25 325.5625 C-194.58 323.5825 -194.91 321.6025 -195.25 319.5625 C-196.60025269 319.12550781 -196.60025269 319.12550781 -197.9777832 318.6796875 C-219.95725789 311.54717624 -241.37117057 304.57052387 -261.25 292.5625 C-262.4388552 291.88971529 -263.62899119 291.21918944 -264.8203125 290.55078125 C-273.72202982 285.39021848 -281.53279275 278.76984572 -289.3046875 272.078125 C-291.16084223 270.49276208 -293.05829753 268.95341461 -295.0078125 267.484375 C-297.33123344 265.49287134 -297.99908071 264.28911315 -299.25 261.5625 C-301.33697218 258.6365086 -303.45600718 255.74237617 -305.6171875 252.87109375 C-308.2949178 249.21892314 -310.05531738 246.001832 -311.25 241.5625 C-311.745 242.5525 -311.745 242.5525 -312.25 243.5625 C-313.24 243.2325 -314.23 242.9025 -315.25 242.5625 C-314.59 241.5725 -313.93 240.5825 -313.25 239.5625 C-313.61967446 237.39320962 -313.61967446 237.39320962 -314.5859375 235.11328125 C-314.90820312 234.26572266 -315.23046875 233.41816406 -315.5625 232.54492188 C-315.913125 231.66384766 -316.26375 230.78277344 -316.625 229.875 C-317.13933594 228.53598633 -317.13933594 228.53598633 -317.6640625 227.16992188 C-318.51399927 224.96244721 -319.37630501 222.76065585 -320.25 220.5625 C-320.91 220.5625 -321.57 220.5625 -322.25 220.5625 C-322.25 219.9025 -322.25 219.2425 -322.25 218.5625 C-321.59 218.5625 -320.93 218.5625 -320.25 218.5625 C-320.3635629 216.91583797 -320.49117381 215.27013918 -320.625 213.625 C-320.69460938 212.70847656 -320.76421875 211.79195312 -320.8359375 210.84765625 C-320.97257813 210.09355469 -321.10921875 209.33945312 -321.25 208.5625 C-321.91 208.2325 -322.57 207.9025 -323.25 207.5625 C-323.98950503 173.91502134 -317.69230891 144.95216262 -301.28393555 115.45922852 C-300.58216886 114.17185534 -299.91390066 112.86576422 -299.27685547 111.54516602 C-298.22858822 109.52115785 -297.0462198 107.78617892 -295.68359375 105.9609375 C-294.9555957 104.97867188 -294.9555957 104.97867188 -294.21289062 103.9765625 C-293.70951172 103.30367188 -293.20613281 102.63078125 -292.6875 101.9375 C-291.68485453 100.59214597 -290.68349084 99.24583544 -289.68359375 97.8984375 C-289.24072021 97.30595215 -288.79784668 96.7134668 -288.34155273 96.10302734 C-285.88752512 92.63961553 -285.98897435 89.3731901 -285.8203125 85.265625 C-285.74872309 83.74436052 -285.67659886 82.22312113 -285.60400391 80.7019043 C-285.56704407 79.90327972 -285.53008423 79.10465515 -285.49200439 78.28182983 C-284.28436971 52.79519436 -282.74038788 28.33289812 -270.25 5.5625 C-269.59 5.5625 -268.93 5.5625 -268.25 5.5625 C-268.25 4.9025 -268.25 4.2425 -268.25 3.5625 C-262.05091991 -0.13056899 -257.0234064 -1.63481622 -249.8984375 0.15234375 C-234.6159515 5.16185955 -220.81115338 14.51763911 -207.40966797 23.17382812 C-201.45776334 27.08882333 -201.45776334 27.08882333 -195.25 30.5625 C-194.29287109 31.66271484 -194.29287109 31.66271484 -193.31640625 32.78515625 C-189.73422465 34.86145259 -189.09593922 34.64852733 -185.21484375 33.74609375 C-183.19979174 33.18496347 -181.19086339 32.6015288 -179.1875 32 C-177.02281585 31.40420785 -174.8560979 30.81576031 -172.6875 30.234375 C-171.6046875 29.94369141 -170.521875 29.65300781 -169.40625 29.35351562 C-143.25456199 22.79941065 -113.80805384 22.42941446 -87.38793945 27.54614258 C-78.78686683 29.2878027 -78.78686683 29.2878027 -70.5546875 27.12890625 C-69.75289062 26.46761719 -68.95109375 25.80632812 -68.125 25.125 C-53.543403 13.73250055 -18.9055866 -13.11077079 0 0 Z " fill="#2A2D35" transform="translate(507.25,322.4375)"/>
<path d="M0 0 C6.01272223 5.78951212 8.50543371 13.37222479 8.78515625 21.61328125 C7.94009744 37.10602601 0.41248003 49.77702833 -10.6484375 60.3359375 C-14.91335687 63.98890651 -19.40760468 66.90943282 -24.31640625 69.62109375 C-25.55777344 70.31332031 -25.55777344 70.31332031 -26.82421875 71.01953125 C-47.62217481 81.51391275 -71.38513791 80.52475409 -93.31640625 74.62109375 C-93.97640625 74.29109375 -94.63640625 73.96109375 -95.31640625 73.62109375 C-95.97640625 75.60109375 -96.63640625 77.58109375 -97.31640625 79.62109375 C-97.64640625 79.62109375 -97.97640625 79.62109375 -98.31640625 79.62109375 C-98.24421875 79.0384375 -98.17203125 78.45578125 -98.09765625 77.85546875 C-96.93421544 67.5784083 -97.20779851 57.64767682 -98.19140625 47.37109375 C-98.30899292 46.11159912 -98.30899292 46.11159912 -98.42895508 44.82666016 C-98.96860316 39.58953852 -99.96935206 34.70872818 -101.31640625 29.62109375 C-101.56640625 26.74609375 -101.56640625 26.74609375 -101.31640625 24.62109375 C-99.31640625 22.62109375 -99.31640625 22.62109375 -97.36328125 22.609375 C-96.6053125 22.71636719 -95.84734375 22.82335937 -95.06640625 22.93359375 C-94.31875 23.03285156 -93.57109375 23.13210938 -92.80078125 23.234375 C-91.04834765 23.50715948 -89.30102359 23.81381511 -87.55859375 24.14453125 C-72.99910094 26.28460128 -59.13585577 24.96997743 -47.01953125 16.01953125 C-42.84372617 12.3144094 -39.12521155 8.18433903 -35.48876953 3.9519043 C-30.84836549 -1.30951284 -26.14459425 -4.21380556 -19.44140625 -6.25390625 C-11.85961005 -6.5571781 -5.84519245 -4.9043164 0 0 Z " fill="#272A32" transform="translate(867.31640625,482.37890625)"/>
<path d="M0 0 C-0.99 0.33 -1.98 0.66 -3 1 C-3.37125 2.2065625 -3.37125 2.2065625 -3.75 3.4375 C-7.81631479 15.02649714 -18.13808552 24.58206664 -29 30 C-29.66 30 -30.32 30 -31 30 C-31.33 30.66 -31.66 31.32 -32 32 C-41.44870635 35.72480648 -54.68346507 37.12141313 -64.5 33.875 C-70.70318748 30.55186385 -75.23003072 27.69991832 -78.53125 21.35546875 C-80.37270699 18.51436367 -81.29029371 17.22979927 -84.54248047 16.17675781 C-87.52055055 15.89061054 -90.38477094 15.85454526 -93.375 15.9375 C-94.39722656 15.93041016 -95.41945313 15.92332031 -96.47265625 15.91601562 C-98.98461475 15.9042775 -101.4890993 15.93342067 -104 16 C-104 15.67 -104 15.34 -104 15 C-99.0107374 14.29623934 -94.13824079 13.89212689 -89.10375977 13.76098633 C-66.09504975 13.11160783 -43.34087355 9.58602431 -20.83618164 4.9309082 C-19.61793701 4.68042725 -18.39969238 4.42994629 -17.14453125 4.171875 C-16.07565674 3.9459668 -15.00678223 3.72005859 -13.90551758 3.48730469 C-11.20215876 3.03390546 -8.73365509 2.90537712 -6 3 C-6.495 2.01 -6.495 2.01 -7 1 C-4.53721199 -0.231394 -2.7204945 -0.07159196 0 0 Z " fill="#1E1F26" transform="translate(655,640)"/>
<path d="M0 0 C4.70521455 3.77407735 7.65464388 7.23910615 8.35546875 13.44140625 C8.62064778 20.03773474 8.08513008 25.31525345 4.04296875 30.67578125 C0.07446972 34.92696788 -4.22483902 37.34344033 -10.0078125 38.046875 C-17.36017066 38.19656373 -22.39051795 37.70625994 -27.95703125 32.67578125 C-33.61621634 26.56981839 -34.36909757 21.99611908 -34.1953125 13.80078125 C-33.73831767 7.80740646 -31.38715127 4.9007025 -27.14453125 0.92578125 C-18.75843136 -6.00652396 -8.92299401 -6.03771451 0 0 Z " fill="#FCDE4F" transform="translate(418.95703125,467.32421875)"/>
<path d="M0 0 C4.82441244 2.91775842 8.89506983 7.94115411 10.95703125 13.18359375 C11.8564346 20.50431867 11.54412869 27.19636482 6.95703125 33.18359375 C3.05000829 37.24156987 -0.16041675 39.98346998 -5.96875 40.38671875 C-18.46912624 40.55973434 -18.46912624 40.55973434 -23.87890625 35.44921875 C-28.7899599 30.27757858 -30.54468424 25.95631935 -31.48046875 18.87109375 C-30.73864593 12.61858709 -28.06133883 7.25507883 -23.66796875 2.74609375 C-15.7629343 -1.9592839 -8.61094452 -3.5496793 0 0 Z " fill="#FCDE4F" transform="translate(278.04296875,464.81640625)"/>
<path d="M0 0 C1.98046875 0.15625 1.98046875 0.15625 4 1 C5.23828125 2.59375 5.23828125 2.59375 6.3125 4.5 C8.3707116 7.58731741 8.78535264 7.93221662 12.5625 9.125 C15.8960335 9.22973036 15.8960335 9.22973036 18.25 7.9375 C20.43908586 5.51386923 21.67890167 2.97247124 23 0 C25.1875 0.0625 25.1875 0.0625 28 1 C29.234375 2.58984375 29.234375 2.58984375 30.4375 4.5 C32.2773327 7.3030053 32.71810565 7.89428962 36 9.125 C39.66645867 8.97223089 41.18829436 8.35575337 44 6 C45.82629794 2.93319201 45.82629794 2.93319201 47 0 C50.875 0.875 50.875 0.875 52 2 C52.40018154 6.08185169 52.22716493 8.52749695 50.4375 12.25 C46.70957439 16.45586479 43.07097597 17.73642124 37.5625 18.4375 C33.61954902 17.95327795 31.22324043 16.75419872 27.89453125 14.6796875 C25.95991914 13.75222937 25.95991914 13.75222937 23.90234375 14.8125 C23.27457031 15.204375 22.64679688 15.59625 22 16 C17.75896451 18.12051775 13.676623 18.83388314 9 18 C4.56859991 16.15622103 1.66759508 14.00139262 -1 10 C-1.98053475 7.05839574 -2.42550312 5.06362245 -2 2 C-1.34 1.34 -0.68 0.68 0 0 Z " fill="#F9E150" transform="translate(310,504)"/>
<path d="M0 0 C3.41027555 1.70513777 4.45079519 5.55932821 6.0625 8.875 C6.42666016 9.60847656 6.79082031 10.34195313 7.16601562 11.09765625 C8.62231279 14.05332037 9.95598559 16.86795677 11 20 C11.99 20 12.98 20 14 20 C14.268125 20.639375 14.53625 21.27875 14.8125 21.9375 C15.88667752 24.33131686 15.88667752 24.33131686 19 25 C19.33 25.66 19.66 26.32 20 27 C22.02463255 27.65213292 22.02463255 27.65213292 24 28 C24 28.66 24 29.32 24 30 C30.27 30.66 36.54 31.32 43 32 C43.495 34.475 43.495 34.475 44 37 C30.24162413 34.90039673 17.64826773 31.97006329 8.6875 20.2890625 C7.75479724 18.88315025 6.87297149 17.44376054 6 16 C5.34 15.34 4.68 14.68 4 14 C1.59028041 9.52355011 -0.67089255 5.19941727 0 0 Z " fill="#18191C" transform="translate(316,645)"/>
<path d="M0 0 C21.78 0 43.56 0 66 0 C66 0.33 66 0.66 66 1 C43.90297841 2.91948253 22.12790194 3.79849421 0 2 C0 1.34 0 0.68 0 0 Z " fill="#1A1A1F" transform="translate(467,657)"/>
<path d="M0 0 C2.90528987 2.62383991 4.85225057 5.68034324 7 8.9375 C17.30042195 24.0623314 30.55781419 35.31799461 46 45 C44.33984375 45.734375 44.33984375 45.734375 42 46 C39.44140625 44.515625 39.44140625 44.515625 36.5625 42.25 C35.78894165 41.647323 35.78894165 41.647323 34.99975586 41.0324707 C29.85786839 36.98618 24.87037644 32.74621103 19.91015625 28.48046875 C18.06631858 26.90887557 16.18131273 25.38337172 14.24609375 23.92578125 C11.91781256 21.92953321 11.25782303 20.73015852 10 18 C9.22516271 16.88211031 8.4282083 15.77942282 7.6171875 14.6875 C7.17246094 14.08679688 6.72773438 13.48609375 6.26953125 12.8671875 C5.3370388 11.61864019 4.3994937 10.37385121 3.45703125 9.1328125 C0.9458437 5.72111164 0 4.36068489 0 0 Z " fill="#191A1E" transform="translate(198,566)"/>
<path d="M0 0 C4.75786582 0.41981169 7.87079086 2.51735402 11 6 C16.79269784 14.83056218 17.78624557 23.76144751 16 34 C14.11424422 41.01090391 11.15064105 47.06322243 7 53 C6 50 6 50 7.1796875 47.22265625 C7.73914063 46.17980469 8.29859375 45.13695312 8.875 44.0625 C13.79670053 34.82572714 14.89549644 24.09482547 12.1640625 13.87109375 C9.71915181 8.49721287 6.49366185 5.26850764 1.57421875 2.05859375 C1.05472656 1.70925781 0.53523437 1.35992187 0 1 C0 0.67 0 0.34 0 0 Z " fill="#1E1E22" transform="translate(859,479)"/>
<path d="M0 0 C6.65686814 -0.0505916 13.31368694 -0.0856876 19.97070312 -0.10986328 C22.23667249 -0.11993859 24.50262881 -0.13359918 26.76855469 -0.15087891 C30.02021501 -0.17506011 33.27170387 -0.18646763 36.5234375 -0.1953125 C38.05005508 -0.21079636 38.05005508 -0.21079636 39.60751343 -0.22659302 C40.54833771 -0.22674408 41.48916199 -0.22689514 42.45849609 -0.22705078 C43.28900482 -0.231492 44.11951355 -0.23593323 44.97518921 -0.24050903 C47 0 47 0 49 2 C51.84214604 2.62293612 54.68771313 3.0182365 57.56640625 3.4375 C58.77103516 3.7159375 58.77103516 3.7159375 60 4 C60.495 4.99 60.495 4.99 61 6 C55.1965207 6.17347357 49.7342747 5.47024731 44 4.625 C29.39504074 2.57848388 14.71539012 1.80666 0 1 C0 0.67 0 0.34 0 0 Z " fill="#1A1A1E" transform="translate(577,392)"/>
<path d="M0 0 C1.54571278 2.31856917 2.79618552 4.50638429 4 7 C4.74338623 6.9285376 5.48677246 6.8570752 6.25268555 6.78344727 C15.46246896 5.97803964 24.57887497 5.88218383 33.8125 5.9375 C35.29492034 5.94253176 36.77734236 5.94709166 38.25976562 5.95117188 C41.8398795 5.9620293 45.41992843 5.97919865 49 6 C49 6.66 49 7.32 49 8 C47.71706055 8.03758423 47.71706055 8.03758423 46.40820312 8.07592773 C24.18785727 8.69486054 24.18785727 8.69486054 2 10 C0.05841983 6.48375245 -0.18311068 4.0284349 0 0 Z " fill="#18191E" transform="translate(527,385)"/>
<path d="M0 0 C-1.15664532 3.46993597 -1.61539421 3.64635333 -4.69140625 5.3046875 C-5.46307129 5.72121582 -6.23473633 6.13774414 -7.02978516 6.56689453 C-22.70657402 14.66369757 -35.24588275 18.98878128 -53 18 C-53 17.67 -53 17.34 -53 17 C-51.36804688 16.85304688 -51.36804688 16.85304688 -49.703125 16.703125 C-40.65540243 15.81437098 -32.4879402 14.42417561 -24 11 C-22.82308594 10.53207031 -21.64617187 10.06414063 -20.43359375 9.58203125 C-14.98557265 7.33465033 -5.55048531 0 0 0 Z " fill="#18191D" transform="translate(437,680)"/>
<path d="M0 0 C0 0.33 0 0.66 0 1 C-4.0730403 1.97685365 -7.868207 2.11545444 -12.05078125 2.09765625 C-12.70958786 2.0962413 -13.36839447 2.09482635 -14.04716492 2.09336853 C-16.13565762 2.087805 -18.22404011 2.07525947 -20.3125 2.0625 C-21.73502449 2.05748028 -23.15755066 2.0529182 -24.58007812 2.04882812 C-28.05342077 2.03784757 -31.52669961 2.02060835 -35 2 C-35 1.34 -35 0.68 -35 0 C-10.28808594 -1.9140625 -10.28808594 -1.9140625 0 0 Z " fill="#202126" transform="translate(396,348)"/>
<path d="M0 0 C0.62003906 0.18933105 1.24007813 0.37866211 1.87890625 0.57373047 C-1.18596133 3.0031053 -4.30254624 5.35546612 -7.43359375 7.69873047 C-8.29533203 8.38322266 -9.15707031 9.06771484 -10.04492188 9.77294922 C-16.57833891 14.58193276 -16.57833891 14.58193276 -21.24365234 14.55712891 C-23.95739536 14.06372109 -26.50723171 13.44805585 -29.12109375 12.57373047 C-29.12109375 12.24373047 -29.12109375 11.91373047 -29.12109375 11.57373047 C-28.38246094 11.59435547 -27.64382813 11.61498047 -26.8828125 11.63623047 C-16.83061739 11.43186564 -11.3899402 7.22388661 -4.05859375 0.75341797 C-2.12109375 -0.42626953 -2.12109375 -0.42626953 0 0 Z " fill="#191A1F" transform="translate(451.12109375,340.42626953125)"/>
<path d="M0 0 C4.46967202 0.53073769 7.55746856 1.61423095 11.3984375 3.94140625 C12.85830078 4.81635742 12.85830078 4.81635742 14.34765625 5.70898438 C15.84619141 6.62647461 15.84619141 6.62647461 17.375 7.5625 C18.90833984 8.48579102 18.90833984 8.48579102 20.47265625 9.42773438 C22.98703074 10.94340872 25.4957624 12.46765568 28 14 C27.67 14.99 27.34 15.98 27 17 C26.22398437 16.5153125 25.44796875 16.030625 24.6484375 15.53125 C16.53538669 10.49689866 8.31722128 5.68856852 0 1 C0 0.67 0 0.34 0 0 Z " fill="#1B1D21" transform="translate(268,329)"/>
<path d="M0 0 C4.878012 0.47950212 8.11894603 2.90560888 11.9375 5.75 C12.53240234 6.18054688 13.12730469 6.61109375 13.74023438 7.0546875 C17.62466908 9.8905371 21.33381764 12.88794291 25 16 C24.67 16.99 24.34 17.98 24 19 C23.02160156 18.20335937 22.04320312 17.40671875 21.03515625 16.5859375 C11.53523425 8.88299365 11.53523425 8.88299365 1.44140625 1.98828125 C0.96574219 1.66214844 0.49007812 1.33601563 0 1 C0 0.67 0 0.34 0 0 Z " fill="#1A1B1E" transform="translate(698,422)"/>
<path d="M0 0 C0.66 0 1.32 0 2 0 C2 0.66 2 1.32 2 2 C8.27 2.66 14.54 3.32 21 4 C21.33 5.65 21.66 7.3 22 9 C19.43621536 8.54809906 16.87414878 8.08872754 14.3125 7.625 C13.59126953 7.49867188 12.87003906 7.37234375 12.12695312 7.2421875 C8.23190274 6.53076277 4.56282104 5.80881684 1 4 C0.1875 1.875 0.1875 1.875 0 0 Z " fill="#1E1E23" transform="translate(338,673)"/>
<path d="M0 0 C0.33 0.99 0.66 1.98 1 3 C-3.30197319 9.50640045 -9.30320784 15.22381719 -17 17 C-20.00888625 17.14797801 -22.99064938 17.12037402 -26 17 C-26 16.34 -26 15.68 -26 15 C-25.23816406 14.92523437 -24.47632813 14.85046875 -23.69140625 14.7734375 C-15.33433523 13.70924119 -8.92982856 11.60324989 -3.3359375 5.05078125 C-2.15038383 3.41816125 -1.06318949 1.71482176 0 0 Z " fill="#18181C" transform="translate(754,658)"/>
<path d="M0 0 C5.80779503 0.50172051 10.10504348 2.19693494 15.25 4.875 C15.95640625 5.22691406 16.6628125 5.57882812 17.390625 5.94140625 C20.77084152 7.66352413 23.39352103 9.19738797 26 12 C25.01 12.495 25.01 12.495 24 13 C22.32348633 12.33496094 22.32348633 12.33496094 20.33203125 11.234375 C19.60306641 10.83863281 18.87410156 10.44289063 18.12304688 10.03515625 C17.36056641 9.61105469 16.59808594 9.18695313 15.8125 8.75 C10.62275784 5.89631698 5.48721385 3.23849254 0 1 C0 0.67 0 0.34 0 0 Z " fill="#1B1C20" transform="translate(670,408)"/>
<path d="M0 0 C5.16972186 3.38493693 10.08059635 7.04045347 15 10.78125 C17.94579396 12.95991011 20.93581804 14.99369038 24 17 C22.359375 17.75 22.359375 17.75 20 18 C17.265625 16.375 17.265625 16.375 14.25 14 C13.7250293 13.58935303 13.20005859 13.17870605 12.65917969 12.75561523 C2.81970952 4.99386805 2.81970952 4.99386805 0 2 C0 1.34 0 0.68 0 0 Z " fill="#17171B" transform="translate(220,594)"/>
<path d="M0 0 C1.32 0 2.64 0 4 0 C2.32570492 4.64980861 -0.04958866 8.79189493 -2.5 13.0625 C-3.30293767 14.4695649 -4.1050476 15.87710254 -4.90625 17.28515625 C-5.43702148 18.21146851 -5.43702148 18.21146851 -5.97851562 19.15649414 C-7.04337688 21.07828366 -8.03072934 23.02851436 -9 25 C-9.82268756 22.65543848 -10.15182986 21.42516616 -9.30322266 19.04882812 C-8.9272998 18.38302734 -8.55137695 17.71722656 -8.1640625 17.03125 C-7.75929687 16.29519531 -7.35453125 15.55914062 -6.9375 14.80078125 C-6.2878125 13.66189453 -6.2878125 13.66189453 -5.625 12.5 C-4.77997148 10.99175213 -3.93868571 9.48139985 -3.1015625 7.96875 C-2.72338379 7.30294922 -2.34520508 6.63714844 -1.95556641 5.95117188 C-0.98942472 3.97840633 -0.4511466 2.14399203 0 0 Z " fill="#1B1C20" transform="translate(208,432)"/>
<path d="M0 0 C0.88734283 2.91741406 1.03297323 4.98576486 0.4765625 7.9765625 C0.34290283 8.72566895 0.20924316 9.47477539 0.0715332 10.24658203 C-0.07582275 11.03145996 -0.22317871 11.81633789 -0.375 12.625 C-1.52523129 19.0800487 -2.47246218 25.45853107 -3 32 C-3.33 32 -3.66 32 -4 32 C-4.63591757 9.27183513 -4.63591757 9.27183513 0 0 Z " fill="#131417" transform="translate(190,478)"/>
<path d="M0 0 C3.27381995 1.28117007 6.47069744 2.65271307 9.64453125 4.1640625 C10.90620117 4.76347656 10.90620117 4.76347656 12.19335938 5.375 C13.05767578 5.7875 13.92199219 6.2 14.8125 6.625 C15.69615234 7.04523437 16.57980469 7.46546875 17.49023438 7.8984375 C19.66081018 8.93092761 21.83070552 9.9648212 24 11 C24 11.33 24 11.66 24 12 C18.17086246 11.49511407 13.80454743 9.78631443 8.625 7.125 C7.90183594 6.77308594 7.17867187 6.42117188 6.43359375 6.05859375 C1.12676222 3.38028665 1.12676222 3.38028665 0 0 Z " fill="#191A1E" transform="translate(248,614)"/>
<path d="M0 0 C3.57107403 1.33040013 6.70226642 2.92889527 9.9375 4.9375 C13.55911068 7.15160877 17.16544372 9.18363124 21 11 C21 11.33 21 11.66 21 12 C14.02013687 11.68978386 8.92708478 8.5048042 3 5 C3 4.34 3 3.68 3 3 C2.01 2.67 1.02 2.34 0 2 C0 1.34 0 0.68 0 0 Z " fill="#1D1E21" transform="translate(693,659)"/>
<path d="M0 0 C4.46040671 8.53295197 5.44338966 16.44248956 5 26 C4.67 26 4.34 26 4 26 C3.80664062 24.94941406 3.61328125 23.89882813 3.4140625 22.81640625 C3.15135852 21.39837876 2.88831567 19.98041403 2.625 18.5625 C2.4899707 17.83345459 2.35494141 17.10440918 2.21582031 16.35327148 C1.47606326 12.40013982 0.67773803 8.47679197 -0.25 4.5625 C-0.4975 3.386875 -0.745 2.21125 -1 1 C-0.67 0.67 -0.34 0.34 0 0 Z " fill="#15161A" transform="translate(754,598)"/>
<path d="M0 0 C0.33 0.99 0.66 1.98 1 3 C-10.26656082 14.67460527 -10.26656082 14.67460527 -16 18 C-18.1953125 17.61328125 -18.1953125 17.61328125 -20 17 C-19.35933594 16.56429687 -18.71867188 16.12859375 -18.05859375 15.6796875 C-7.97073385 8.97062751 -7.97073385 8.97062751 0 0 Z " fill="#17171C" transform="translate(863,532)"/>
<path d="M0 0 C-3.77480053 3.04355645 -7.91974724 5.36526811 -12.125 7.75 C-12.85332031 8.17410156 -13.58164062 8.59820312 -14.33203125 9.03515625 C-16.18644777 10.08747764 -18.09039837 11.05149458 -20 12 C-20.66 11.67 -21.32 11.34 -22 11 C-19.24431088 7.81184872 -15.73248732 5.88624271 -12.125 3.8125 C-11.51269531 3.44447266 -10.90039062 3.07644531 -10.26953125 2.69726562 C-6.70718739 0.64148047 -4.13202081 -0.47918873 0 0 Z " fill="#191A1F" transform="translate(478,326)"/>
<path d="M0 0 C0.33 1.32 0.66 2.64 1 4 C0.01 3.67 -0.98 3.34 -2 3 C-3.69867188 2.85222064 -5.40177489 2.75252934 -7.10546875 2.68359375 C-8.57983398 2.62075195 -8.57983398 2.62075195 -10.08398438 2.55664062 C-11.10814453 2.51732422 -12.13230469 2.47800781 -13.1875 2.4375 C-14.22326172 2.39431641 -15.25902344 2.35113281 -16.32617188 2.30664062 C-18.8839819 2.20055634 -21.44188845 2.09849854 -24 2 C-24 1.67 -24 1.34 -24 1 C-16.02509872 -0.32915021 -8.05813281 -0.08801359 0 0 Z " fill="#16171A" transform="translate(575,654)"/>
<path d="M0 0 C0.33 0 0.66 0 1 0 C0.41633235 9.67398084 -0.22250455 19.33920544 -1 29 C-1.33 29 -1.66 29 -2 29 C-2.05837668 25.29173349 -2.09372277 21.5835863 -2.125 17.875 C-2.15013672 16.30492187 -2.15013672 16.30492187 -2.17578125 14.703125 C-2.20929909 9.40730664 -2.17213685 4.9428941 0 0 Z " fill="#0F1014" transform="translate(226,365)"/>
<path d="M0 0 C0.66 0 1.32 0 2 0 C4.97 5.61 7.94 11.22 11 17 C10.34 17.66 9.68 18.32 9 19 C7.68200981 16.58618654 6.37049082 14.16922404 5.0625 11.75 C4.68931641 11.06808594 4.31613281 10.38617188 3.93164062 9.68359375 C3.57392578 9.01972656 3.21621094 8.35585938 2.84765625 7.671875 C2.3527771 6.76066895 2.3527771 6.76066895 1.84790039 5.83105469 C0.95802309 3.90935018 0.44858489 2.06548422 0 0 Z " fill="#151619" transform="translate(748,470)"/>
<path d="M0 0 C0.33 0 0.66 0 1 0 C1.94220126 5.52708611 2.12116149 10.83758352 2.0625 16.4375 C2.05798828 17.26443359 2.05347656 18.09136719 2.04882812 18.94335938 C2.03715811 20.96227146 2.01922718 22.98114574 2 25 C1.67 25 1.34 25 1 25 C1 19.72 1 14.44 1 9 C0.34 9 -0.32 9 -1 9 C-1.33 9.99 -1.66 10.98 -2 12 C-2.28571429 3.42857143 -2.28571429 3.42857143 0 0 Z " fill="#404147" transform="translate(759,617)"/>
<path d="M0 0 C3.3702985 1.12343283 4.32859216 2.17895994 6.625 4.8125 C7.54152344 5.84310547 7.54152344 5.84310547 8.4765625 6.89453125 C9.99653007 8.99520438 10.57890154 10.46771872 11 13 C10.54109375 12.59007812 10.0821875 12.18015625 9.609375 11.7578125 C8.68898437 10.94957031 8.68898437 10.94957031 7.75 10.125 C7.14671875 9.59132813 6.5434375 9.05765625 5.921875 8.5078125 C4.02581254 7.0202513 2.18709995 5.99677564 0 5 C0 3.35 0 1.7 0 0 Z " fill="#222327" transform="translate(209,583)"/>
<path d="M0 0 C3.53383267 0.57599916 5.16912771 1.8109395 7.625 4.375 C8.51058594 5.28378906 8.51058594 5.28378906 9.4140625 6.2109375 C11 8 11 8 13 11 C12.67 11.99 12.34 12.98 12 14 C10.56041153 12.41856529 9.12341355 10.83477221 7.6875 9.25 C6.88699219 8.36828125 6.08648438 7.4865625 5.26171875 6.578125 C3.39083089 4.44550672 1.65915714 2.29812057 0 0 Z " fill="#19191D" transform="translate(724,442)"/>
<path d="M0 0 C2.3125 3.0625 2.3125 3.0625 4 6 C3.4225 5.690625 2.845 5.38125 2.25 5.0625 C-2.31156817 2.90842614 -7.03335717 2.57944166 -12 2 C-7.85345405 -0.76436397 -4.81609655 -1.80603621 0 0 Z " fill="#18191D" transform="translate(672,637)"/>
<path d="M0 0 C0.33 0.66 0.66 1.32 1 2 C1.66 2 2.32 2 3 2 C4.69832609 7.83799592 5.25287193 12.93107371 5 19 C4.67 19 4.34 19 4 19 C3.32900016 16.39688008 2.66304662 13.79264602 2 11.1875 C1.80921875 10.44951172 1.6184375 9.71152344 1.421875 8.95117188 C0.64737086 5.89464659 0 3.16626522 0 0 Z " fill="#17171A" transform="translate(518,344)"/>
<path d="M0 0 C0.33 0 0.66 0 1 0 C1.33801152 2.54112232 1.67053379 5.08276746 2 7.625 C2.09539062 8.33785156 2.19078125 9.05070313 2.2890625 9.78515625 C2.81606101 13.88821609 3.10466984 17.85245742 3 22 C1.07136286 20.15741754 0.07990406 18.65121023 -0.24755859 15.98242188 C-0.29505495 13.56572541 -0.26111304 11.16601788 -0.1875 8.75 C-0.17396484 7.90953125 -0.16042969 7.0690625 -0.14648438 6.203125 C-0.11123464 4.13514062 -0.0574302 2.06748729 0 0 Z " fill="#101115" transform="translate(186,519)"/>
<path d="M0 0 C1 2 1 2 0.00390625 5.2578125 C-0.46889984 6.5497052 -0.94971969 7.83868638 -1.4375 9.125 C-1.68048828 9.78371094 -1.92347656 10.44242187 -2.17382812 11.12109375 C-2.77578321 12.74991338 -3.38702412 14.37529575 -4 16 C-4.33 16 -4.66 16 -5 16 C-4.24228029 4.24228029 -4.24228029 4.24228029 0 0 Z " fill="#16171B" transform="translate(197,458)"/>
<path d="M0 0 C5.36095277 1.58921525 10.70843973 3.18972938 16 5 C16 5.33 16 5.66 16 6 C10.38542449 5.6381718 5.88511386 5.05319616 1 2 C0.67 1.34 0.34 0.68 0 0 Z " fill="#141518" transform="translate(280,629)"/>
<path d="M0 0 C0 0.66 0 1.32 0 2 C-9.22551253 6.59225513 -9.22551253 6.59225513 -15 6 C-12.61874536 3.61874536 -10.66142433 2.99813759 -7.5 1.875 C-6.5203125 1.52179687 -5.540625 1.16859375 -4.53125 0.8046875 C-2 0 -2 0 0 0 Z " fill="#1A1B20" transform="translate(841,551)"/>
<path d="M0 0 C-1.13177241 3.39531723 -2.03312013 4.12550184 -4.8125 6.25 C-5.49957031 6.79140625 -6.18664062 7.3328125 -6.89453125 7.890625 C-9 9 -9 9 -11.26171875 8.671875 C-11.83535156 8.45015625 -12.40898437 8.2284375 -13 8 C-11.2126038 6.66094733 -9.41995047 5.32890934 -7.625 4 C-6.62726563 3.2575 -5.62953125 2.515 -4.6015625 1.75 C-2 0 -2 0 0 0 Z " fill="#16171A" transform="translate(451,670)"/>
<path d="M0 0 C3.63195496 2.42130331 4.11078474 4.11929096 5.6875 8.125 C6.12449219 9.22070312 6.56148437 10.31640625 7.01171875 11.4453125 C7.50091797 12.70988281 7.50091797 12.70988281 8 14 C5.41677141 12.9960141 4.20637996 12.33568593 2.734375 9.94140625 C2.40953125 9.15636719 2.0846875 8.37132812 1.75 7.5625 C1.41484375 6.78003906 1.0796875 5.99757813 0.734375 5.19140625 C0 3 0 3 0 0 Z " fill="#151618" transform="translate(759,491)"/>
<path d="M0 0 C0.66 0.33 1.32 0.66 2 1 C-0.97 7.93 -0.97 7.93 -4 15 C-4.33 15 -4.66 15 -5 15 C-4.56826496 8.84777564 -3.34594658 5.18082051 0 0 Z " fill="#15171B" transform="translate(235,332)"/>
<path d="M0 0 C3.66666667 3.66666667 7.33333333 7.33333333 11 11 C7.49053006 10.69918829 6.02211769 10.0180963 3.25 7.75 C0.9819037 4.97788231 0.30081171 3.50946994 0 0 Z " fill="#18191C" transform="translate(360,684)"/>
<path d="M0 0 C2.8203125 -0.29296875 2.8203125 -0.29296875 6.125 -0.1875 C7.76855469 -0.14689453 7.76855469 -0.14689453 9.4453125 -0.10546875 C10.28835938 -0.07066406 11.13140625 -0.03585937 12 0 C11.01 0.33 10.02 0.66 9 1 C9 1.66 9 2.32 9 3 C5.37 3 1.74 3 -2 3 C-1.34 2.01 -0.68 1.02 0 0 Z " fill="#3B3431" transform="translate(402,505)"/>
<path d="M0 0 C3.96618775 2.86446893 6.62294981 5.70302465 9 10 C8.67 10.99 8.34 11.98 8 13 C6.66094733 11.2126038 5.32890934 9.41995047 4 7.625 C3.2575 6.62726563 2.515 5.62953125 1.75 4.6015625 C0 2 0 2 0 0 Z " fill="#17181B" transform="translate(738,456)"/>
<path d="M0 0 C0.78375 0.04125 1.5675 0.0825 2.375 0.125 C1.385 0.455 0.395 0.785 -0.625 1.125 C-1.35580266 3.10246603 -2.01921747 5.10572489 -2.625 7.125 C-3.615 8.61 -3.615 8.61 -4.625 10.125 C-5.285 10.125 -5.945 10.125 -6.625 10.125 C-6.295 9.361875 -5.965 8.59875 -5.625 7.8125 C-4.45063314 5.13430865 -4.45063314 5.13430865 -4.625 2.125 C-2.625 0.125 -2.625 0.125 0 0 Z " fill="#15161A" transform="translate(652.625,639.875)"/>
<path d="M0 0 C0.70125 0.721875 1.4025 1.44375 2.125 2.1875 C4.92805452 4.99854043 7.93470565 7.47964687 11 10 C11.66 10.66 12.32 11.32 13 12 C8.57649669 11.49445676 6.21928398 10.04984798 3 7 C0 2.65517241 0 2.65517241 0 0 Z " fill="#151328" transform="translate(248,493)"/>
<path d="M0 0 C5.44208234 0.34013015 8.93668198 3.70296528 13 7 C12.01 7.33 11.02 7.66 10 8 C7.51953125 6.6015625 7.51953125 6.6015625 4.8125 4.625 C3.91144531 3.97789062 3.01039063 3.33078125 2.08203125 2.6640625 C1.39496094 2.11492187 0.70789063 1.56578125 0 1 C0 0.67 0 0.34 0 0 Z " fill="#191A1E" transform="translate(297,346)"/>
<path d="M0 0 C8.57142857 -0.14285714 8.57142857 -0.14285714 12 1 C12 1.66 12 2.32 12 3 C8.04 2.67 4.08 2.34 0 2 C0 1.34 0 0.68 0 0 Z " fill="#26282C" transform="translate(247,322)"/>
<path d="M0 0 C0.66 0 1.32 0 2 0 C2 0.66 2 1.32 2 2 C2.99 2.33 3.98 2.66 5 3 C4.34 3 3.68 3 3 3 C2.71125 3.639375 2.4225 4.27875 2.125 4.9375 C1 7 1 7 -1 8 C-1.625 5.125 -1.625 5.125 -2 2 C-1.34 1.34 -0.68 0.68 0 0 Z " fill="#27272B" transform="translate(314,640)"/>
<path d="M0 0 C0.02712066 1.43739513 0.04645067 2.87493863 0.0625 4.3125 C0.07410156 5.11300781 0.08570313 5.91351563 0.09765625 6.73828125 C0 9 0 9 -1 12 C-1.66 12 -2.32 12 -3 12 C-3 8.37 -3 4.74 -3 1 C-1 0 -1 0 0 0 Z " fill="#383533" transform="translate(292,480)"/>
<path d="M0 0 C3.77350192 1.70743165 5.22440837 3.182478 7 7 C7.1875 9.8125 7.1875 9.8125 7 12 C3.95950199 8.35140239 2.03481238 4.2555467 0 0 Z " fill="#17171B" transform="translate(510,328)"/>
<path d="M0 0 C0.99 0.33 1.98 0.66 3 1 C-0.96 4.465 -0.96 4.465 -5 8 C-5.66 7.67 -6.32 7.34 -7 7 C-4.66666667 4.66666667 -2.33333333 2.33333333 0 0 Z " fill="#1B1D21" transform="translate(824,495)"/>
<path d="M0 0 C0.66 0.33 1.32 0.66 2 1 C-0.97 3.97 -3.94 6.94 -7 10 C-7 8 -7 6 -7 4 C-1.7265625 0.77734375 -1.7265625 0.77734375 0 0 Z " fill="#2E313A" transform="translate(838,483)"/>
<path d="M0 0 C0.08096803 1.45742463 0.13917774 2.91612807 0.1875 4.375 C0.22230469 5.18710937 0.25710938 5.99921875 0.29296875 6.8359375 C0.19628906 7.55007813 0.09960938 8.26421875 0 9 C-0.99 9.66 -1.98 10.32 -3 11 C-3 7.7 -3 4.4 -3 1 C-1 0 -1 0 0 0 Z " fill="#373133" transform="translate(385,478)"/>
<path d="M0 0 C1.64666203 0.1135629 3.29236082 0.24117381 4.9375 0.375 C5.85402344 0.44460938 6.77054688 0.51421875 7.71484375 0.5859375 C8.84599609 0.79089844 8.84599609 0.79089844 10 1 C10.33 1.66 10.66 2.32 11 3 C6.83861737 3.08159574 3.0527516 2.98248524 -1 2 C-0.67 1.34 -0.34 0.68 0 0 Z " fill="#1D1D21" transform="translate(627,395)"/>
<path d="M0 0 C1.29608947 0.93137592 2.58671632 1.8703566 3.875 2.8125 C4.59429688 3.33457031 5.31359375 3.85664062 6.0546875 4.39453125 C8 6 8 6 10 9 C6.71245489 8.42110619 5.06327505 7.45171589 2.75 5.0625 C2.22921875 4.53785156 1.7084375 4.01320313 1.171875 3.47265625 C0 2 0 2 0 0 Z " fill="#151619" transform="translate(682,649)"/>
<path d="M0 0 C4.05606165 0.46800711 7.46588679 0.87953208 11 3 C10.67 3.66 10.34 4.32 10 5 C5.05 3.02 5.05 3.02 0 1 C0 0.67 0 0.34 0 0 Z " fill="#191B1F" transform="translate(658,403)"/>
<path d="M0 0 C3.96 0 7.92 0 12 0 C11.67 0.99 11.34 1.98 11 3 C9.741875 2.87625 8.48375 2.7525 7.1875 2.625 C6.12595703 2.52058594 6.12595703 2.52058594 5.04296875 2.4140625 C3 2 3 2 0 0 Z " fill="#1D1F21" transform="translate(646,400)"/>
<path d="M0 0 C3.79588866 0.54226981 5.47211993 2.20127563 8 5 C7.67 5.99 7.34 6.98 7 8 C5.83035398 6.8572081 4.66435444 5.71068285 3.5 4.5625 C2.8503125 3.92441406 2.200625 3.28632812 1.53125 2.62890625 C0 1 0 1 0 0 Z " fill="#232327" transform="translate(674,643)"/>
<path d="M0 0 C-3.82517513 2.39073445 -7.59665524 2.55966552 -12 3 C-12 2.34 -12 1.68 -12 1 C-8.0186217 -0.3271261 -4.14954773 -0.06915913 0 0 Z " fill="#17181C" transform="translate(340,353)"/>
<path d="M0 0 C0.33 0 0.66 0 1 0 C1.125 7.625 1.125 7.625 0 11 C-0.66 11 -1.32 11 -2 11 C-1.125 3.375 -1.125 3.375 0 0 Z " fill="#17171B" transform="translate(768,564)"/>
<path d="M0 0 C2.09782787 2.09782787 2.6509396 3.3799207 3.625 6.125 C4.01558594 7.21167969 4.01558594 7.21167969 4.4140625 8.3203125 C4.70410156 9.15175781 4.70410156 9.15175781 5 10 C4.01 10 3.02 10 2 10 C0.39644899 6.49223216 -0.22036864 3.85645121 0 0 Z " fill="#15171B" transform="translate(192,552)"/>
<path d="M0 0 C2.97 1.65 5.94 3.3 9 5 C7.68 5.33 6.36 5.66 5 6 C2.25 4.1875 2.25 4.1875 0 2 C0 1.34 0 0.68 0 0 Z " fill="#131317" transform="translate(583,667)"/>
<path d="M0 0 C1.4800841 0.11362262 2.95910074 0.24122908 4.4375 0.375 C5.26121094 0.44460938 6.08492187 0.51421875 6.93359375 0.5859375 C7.95646484 0.79089844 7.95646484 0.79089844 9 1 C9.33 1.66 9.66 2.32 10 3 C8.5199159 2.88637738 7.04089926 2.75877092 5.5625 2.625 C4.73878906 2.55539062 3.91507813 2.48578125 3.06640625 2.4140625 C2.38449219 2.27742188 1.70257812 2.14078125 1 2 C0.67 1.34 0.34 0.68 0 0 Z " fill="#151519" transform="translate(768,505)"/>
<path d="M0 0 C0.75 1.625 0.75 1.625 1 4 C-0.9375 7.25 -0.9375 7.25 -3 10 C-4 7 -4 7 -3.22265625 5.17578125 C-2.1484375 3.45052083 -1.07421875 1.72526042 0 0 Z " fill="#16171B" transform="translate(869,522)"/>
<path d="M0 0 C3.63 0.66 7.26 1.32 11 2 C11 2.33 11 2.66 11 3 C9.54257537 3.08096803 8.08387193 3.13917774 6.625 3.1875 C5.81289063 3.22230469 5.00078125 3.25710938 4.1640625 3.29296875 C3.44992187 3.19628906 2.73578125 3.09960938 2 3 C1.34 2.01 0.68 1.02 0 0 Z " fill="#131316" transform="translate(715,671)"/>
<path d="M0 0 C-1.15173355 2.46800047 -2.04783565 4.04783565 -4 6 C-4.99 5.67 -5.98 5.34 -7 5 C-2.25 0 -2.25 0 0 0 Z " fill="#18181C" transform="translate(459,663)"/>
<path d="M0 0 C4.95 0.99 4.95 0.99 10 2 C10 2.33 10 2.66 10 3 C8.72125 3.061875 7.4425 3.12375 6.125 3.1875 C5.40570313 3.22230469 4.68640625 3.25710938 3.9453125 3.29296875 C3.30335938 3.19628906 2.66140625 3.09960938 2 3 C1.34 2.01 0.68 1.02 0 0 Z " fill="#121316" transform="translate(303,637)"/>
<path d="M0 0 C1.65 0.33 3.3 0.66 5 1 C4.67 1.66 4.34 2.32 4 3 C3.01 3 2.02 3 1 3 C0.34 3.66 -0.32 4.32 -1 5 C-0.67 3.35 -0.34 1.7 0 0 Z " fill="#F7EC5D" transform="translate(333,504)"/>
<path d="M0 0 C0.33 0 0.66 0 1 0 C1.33 2.64 1.66 5.28 2 8 C1.34 8 0.68 8 0 8 C0 9.65 0 11.3 0 13 C-0.33 13 -0.66 13 -1 13 C-0.67 8.71 -0.34 4.42 0 0 Z " fill="#323338" transform="translate(226,357)"/>
<path d="M0 0 C1.32 0.33 2.64 0.66 4 1 C1.36 2.65 -1.28 4.3 -4 6 C-3 2 -3 2 0 0 Z " fill="#181A1E" transform="translate(242,324)"/>
<path d="M0 0 C0.33 0 0.66 0 1 0 C1 1.65 1 3.3 1 5 C0.67 5 0.34 5 0 5 C0 3.35 0 1.7 0 0 Z " fill="#3F4044" transform="translate(184,492)"/>
<path d="M0 0 C1.485 0.99 1.485 0.99 3 2 C2.01 2 1.02 2 0 2 C0 1.34 0 0.68 0 0 Z " fill="#3F3F44" transform="translate(200,576)"/>
<path d="M0 0 C0.66 0 1.32 0 2 0 C1.67 0.66 1.34 1.32 1 2 C0.67 1.34 0.34 0.68 0 0 Z " fill="#3C3D42" transform="translate(265,626)"/>
<path d="M0 0 C0.99 0.495 0.99 0.495 2 1 C1.01 1.495 1.01 1.495 0 2 C0 1.34 0 0.68 0 0 Z " fill="#404044" transform="translate(184,544)"/>
<path d="M0 0 C0.99 0.495 0.99 0.495 2 1 C1.01 1.495 1.01 1.495 0 2 C0 1.34 0 0.68 0 0 Z " fill="#3D3E42" transform="translate(747,464)"/>
<path d="M0 0 C0.66 0.66 1.32 1.32 2 2 C1.34 2 0.68 2 0 2 C0 1.34 0 0.68 0 0 Z " fill="#3E3E41" transform="translate(317,353)"/>
<path d="M0 0 C3 1 3 1 3 1 Z " fill="#3F3F43" transform="translate(328,352)"/>
<path d="M0 0 C0.33 0.66 0.66 1.32 1 2 C0.34 1.67 -0.32 1.34 -1 1 C-0.67 0.67 -0.34 0.34 0 0 Z " fill="#3E3F43" transform="translate(326,352)"/>
<path d="" fill="#3F3F43" transform="translate(0,0)"/>
<path d="M0 0 C2 1 2 1 2 1 Z " fill="#404144" transform="translate(398,699)"/>
<path d="M0 0 C2 1 2 1 2 1 Z " fill="#404144" transform="translate(722,676)"/>
<path d="M0 0 C2 1 2 1 2 1 Z " fill="#333336" transform="translate(598,676)"/>
<path d="M0 0 C2 1 2 1 2 1 Z " fill="#3E3F43" transform="translate(707,671)"/>
<path d="M0 0 C2 1 2 1 2 1 Z " fill="#343337" transform="translate(581,671)"/>
<path d="M0 0 C2 1 2 1 2 1 Z " fill="#3D3F43" transform="translate(696,665)"/>
<path d="" fill="#3B3D40" transform="translate(0,0)"/>
<path d="M0 0 C2 1 2 1 2 1 Z " fill="#3B3B40" transform="translate(525,660)"/>
<path d="M0 0 C2 1 2 1 2 1 Z " fill="#3C3C40" transform="translate(542,659)"/>
<path d="M0 0 C2 1 2 1 2 1 Z " fill="#37373B" transform="translate(674,646)"/>
<path d="M0 0 C2 1 2 1 2 1 Z " fill="#38373C" transform="translate(654,643)"/>
<path d="" fill="#3F3F43" transform="translate(0,0)"/>
<path d="" fill="#404145" transform="translate(0,0)"/>
<path d="" fill="#3F3F42" transform="translate(0,0)"/>
<path d="M0 0 C2 1 2 1 2 1 Z " fill="#3A3A3C" transform="translate(780,505)"/>
<path d="M0 0 C2 1 2 1 2 1 Z " fill="#363537" transform="translate(773,504)"/>
<path d="" fill="#3B3C3F" transform="translate(0,0)"/>
<path d="" fill="#414145" transform="translate(0,0)"/>
<path d="" fill="#424246" transform="translate(0,0)"/>
<path d="M0 0 C2 1 2 1 2 1 Z " fill="#3E3F40" transform="translate(660,401)"/>
<path d="M0 0 C2 1 2 1 2 1 Z " fill="#434346" transform="translate(386,345)"/>
<path d="M0 0 C2 1 2 1 2 1 Z " fill="#404246" transform="translate(244,321)"/>
<path d="" fill="#616261" transform="translate(0,0)"/>
<path d="" fill="#5E5F5F" transform="translate(0,0)"/>
<path d="" fill="#3E3F43" transform="translate(0,0)"/>
<path d="" fill="#3A3B40" transform="translate(0,0)"/>
<path d="" fill="#3E3E43" transform="translate(0,0)"/>
<path d="" fill="#3E3F41" transform="translate(0,0)"/>
<path d="" fill="#414143" transform="translate(0,0)"/>
<path d="" fill="#3E4043" transform="translate(0,0)"/>
<path d="" fill="#3D3D3F" transform="translate(0,0)"/>
<path d="" fill="#3E3E41" transform="translate(0,0)"/>
<path d="" fill="#373739" transform="translate(0,0)"/>
<path d="" fill="#424247" transform="translate(0,0)"/>
<path d="" fill="#35363A" transform="translate(0,0)"/>
<path d="" fill="#343238" transform="translate(0,0)"/>
<path d="" fill="#333538" transform="translate(0,0)"/>
<path d="" fill="#343237" transform="translate(0,0)"/>
<path d="" fill="#403F43" transform="translate(0,0)"/>
<path d="" fill="#38343C" transform="translate(0,0)"/>
<path d="" fill="#35383B" transform="translate(0,0)"/>
<path d="" fill="#343539" transform="translate(0,0)"/>
<path d="" fill="#3B3F43" transform="translate(0,0)"/>
<path d="" fill="#424143" transform="translate(0,0)"/>
<path d="" fill="#404143" transform="translate(0,0)"/>
<path d="" fill="#353539" transform="translate(0,0)"/>
<path d="" fill="#3C3D41" transform="translate(0,0)"/>
<path d="" fill="#343438" transform="translate(0,0)"/>
<path d="" fill="#403F43" transform="translate(0,0)"/>
<path d="" fill="#3E3D43" transform="translate(0,0)"/>
<path d="" fill="#383A3C" transform="translate(0,0)"/>
<path d="" fill="#3C3B41" transform="translate(0,0)"/>
<path d="" fill="#3D3E42" transform="translate(0,0)"/>
<path d="" fill="#373B40" transform="translate(0,0)"/>
<path d="" fill="#37373B" transform="translate(0,0)"/>
<path d="" fill="#3C3A3E" transform="translate(0,0)"/>
<path d="" fill="#3A393F" transform="translate(0,0)"/>
<path d="" fill="#343439" transform="translate(0,0)"/>
<path d="" fill="#37383C" transform="translate(0,0)"/>
<path d="" fill="#393A3F" transform="translate(0,0)"/>
<path d="" fill="#3A3A40" transform="translate(0,0)"/>
<path d="" fill="#34333B" transform="translate(0,0)"/>
<path d="" fill="#3D3C41" transform="translate(0,0)"/>
<path d="" fill="#3C3A3F" transform="translate(0,0)"/>
<path d="" fill="#3E3E42" transform="translate(0,0)"/>
<path d="" fill="#3F3E43" transform="translate(0,0)"/>
<path d="" fill="#3F4043" transform="translate(0,0)"/>
<path d="" fill="#3D3E41" transform="translate(0,0)"/>
<path d="" fill="#3E3F45" transform="translate(0,0)"/>
<path d="" fill="#3F3F43" transform="translate(0,0)"/>
<path d="" fill="#3F4142" transform="translate(0,0)"/>
<path d="" fill="#3A3A40" transform="translate(0,0)"/>
<path d="" fill="#3F3F43" transform="translate(0,0)"/>
<path d="" fill="#3C3D42" transform="translate(0,0)"/>
<path d="" fill="#393C42" transform="translate(0,0)"/>
<path d="" fill="#3E3F42" transform="translate(0,0)"/>
<path d="" fill="#3E4043" transform="translate(0,0)"/>
<path d="" fill="#3D3D42" transform="translate(0,0)"/>
<path d="" fill="#3C3C40" transform="translate(0,0)"/>
<path d="" fill="#403F44" transform="translate(0,0)"/>
<path d="" fill="#3F4044" transform="translate(0,0)"/>
<path d="" fill="#3E3E43" transform="translate(0,0)"/>
<path d="" fill="#3D3F41" transform="translate(0,0)"/>
<path d="" fill="#3E4042" transform="translate(0,0)"/>
<path d="" fill="#3F3C42" transform="translate(0,0)"/>
<path d="" fill="#404044" transform="translate(0,0)"/>
<path d="" fill="#3F4244" transform="translate(0,0)"/>
<path d="" fill="#3F4046" transform="translate(0,0)"/>
<path d="" fill="#403E43" transform="translate(0,0)"/>
<path d="" fill="#3E3E44" transform="translate(0,0)"/>
<path d="" fill="#383A3E" transform="translate(0,0)"/>
<path d="" fill="#3F3E40" transform="translate(0,0)"/>
<path d="" fill="#404143" transform="translate(0,0)"/>
<path d="" fill="#403F41" transform="translate(0,0)"/>
<path d="" fill="#424147" transform="translate(0,0)"/>
<path d="" fill="#3B3B40" transform="translate(0,0)"/>
<path d="" fill="#3B3C40" transform="translate(0,0)"/>
<path d="" fill="#3A393D" transform="translate(0,0)"/>
<path d="" fill="#434346" transform="translate(0,0)"/>
<path d="" fill="#404043" transform="translate(0,0)"/>
<path d="" fill="#434046" transform="translate(0,0)"/>
<path d="" fill="#444646" transform="translate(0,0)"/>
<path d="" fill="#444547" transform="translate(0,0)"/>
<path d="" fill="#3D3E40" transform="translate(0,0)"/>
<path d="" fill="#424247" transform="translate(0,0)"/>
<path d="" fill="#424346" transform="translate(0,0)"/>
<path d="" fill="#3C3B40" transform="translate(0,0)"/>
<path d="" fill="#48484B" transform="translate(0,0)"/>
<path d="" fill="#3E3E43" transform="translate(0,0)"/>
<path d="" fill="#3E3C41" transform="translate(0,0)"/>
<path d="" fill="#424043" transform="translate(0,0)"/>
<path d="" fill="#3E4043" transform="translate(0,0)"/>
<path d="" fill="#3C3D40" transform="translate(0,0)"/>
<path d="" fill="#3E3D40" transform="translate(0,0)"/>
<path d="" fill="#3C3F43" transform="translate(0,0)"/>
<path d="" fill="#3D4144" transform="translate(0,0)"/>
<path d="" fill="#3C3E40" transform="translate(0,0)"/>
<path d="" fill="#403F43" transform="translate(0,0)"/>
<path d="" fill="#414046" transform="translate(0,0)"/>
<path d="" fill="#444245" transform="translate(0,0)"/>
<path d="" fill="#3E3E42" transform="translate(0,0)"/>
<path d="" fill="#3D3E41" transform="translate(0,0)"/>
<path d="" fill="#414046" transform="translate(0,0)"/>
<path d="" fill="#3E3D3F" transform="translate(0,0)"/>
<path d="" fill="#3E4043" transform="translate(0,0)"/>
<path d="" fill="#403E41" transform="translate(0,0)"/>
<path d="" fill="#3E3E42" transform="translate(0,0)"/>
<path d="" fill="#424348" transform="translate(0,0)"/>
<path d="" fill="#3E3F42" transform="translate(0,0)"/>
<path d="" fill="#3D3E42" transform="translate(0,0)"/>
<path d="" fill="#414144" transform="translate(0,0)"/>
<path d="" fill="#3F3E43" transform="translate(0,0)"/>
<path d="" fill="#3F3E42" transform="translate(0,0)"/>
<path d="" fill="#3C3B3E" transform="translate(0,0)"/>
<path d="" fill="#3B3C3E" transform="translate(0,0)"/>
<path d="" fill="#414146" transform="translate(0,0)"/>
<path d="" fill="#5C5D5F" transform="translate(0,0)"/>
<path d="" fill="#414449" transform="translate(0,0)"/>
<path d="" fill="#424246" transform="translate(0,0)"/>
<path d="" fill="#3D3E40" transform="translate(0,0)"/>
<path d="" fill="#404040" transform="translate(0,0)"/>
<path d="" fill="#626264" transform="translate(0,0)"/>
<path d="" fill="#3D3E43" transform="translate(0,0)"/>
<path d="" fill="#3F4044" transform="translate(0,0)"/>
<path d="" fill="#3F4143" transform="translate(0,0)"/>
<path d="" fill="#3D3F42" transform="translate(0,0)"/>
<path d="" fill="#424144" transform="translate(0,0)"/>
<path d="" fill="#403F43" transform="translate(0,0)"/>
<path d="" fill="#414144" transform="translate(0,0)"/>
<path d="" fill="#3D3E41" transform="translate(0,0)"/>
<path d="" fill="#414448" transform="translate(0,0)"/>
<path d="" fill="#424347" transform="translate(0,0)"/>
<path d="" fill="#413E41" transform="translate(0,0)"/>
<path d="" fill="#404145" transform="translate(0,0)"/>
<path d="" fill="#414145" transform="translate(0,0)"/>
<path d="" fill="#414245" transform="translate(0,0)"/>
<path d="" fill="#434246" transform="translate(0,0)"/>
<path d="" fill="#3D3E3F" transform="translate(0,0)"/>
<path d="" fill="#3F3F42" transform="translate(0,0)"/>
<path d="" fill="#434142" transform="translate(0,0)"/>
<path d="" fill="#414345" transform="translate(0,0)"/>
<path d="" fill="#3F3F43" transform="translate(0,0)"/>
<path d="" fill="#3F3F42" transform="translate(0,0)"/>
<path d="" fill="#414343" transform="translate(0,0)"/>
<path d="" fill="#424344" transform="translate(0,0)"/>
<path d="" fill="#414349" transform="translate(0,0)"/>
<path d="" fill="#424244" transform="translate(0,0)"/>
<path d="" fill="#414146" transform="translate(0,0)"/>
<path d="" fill="#424348" transform="translate(0,0)"/>
<path d="" fill="#3F3F42" transform="translate(0,0)"/>
<path d="" fill="#454449" transform="translate(0,0)"/>
<path d="" fill="#424447" transform="translate(0,0)"/>
<path d="" fill="#414549" transform="translate(0,0)"/>
<path d="" fill="#636364" transform="translate(0,0)"/>
<path d="" fill="#646464" transform="translate(0,0)"/>
</svg>
