<?xml version="1.0" encoding="UTF-8"?>
<svg version="1.1" xmlns="http://www.w3.org/2000/svg" width="1024" height="1024">
<path d="M0 0 C13.06378048 10.53729463 15.12086022 33.48671297 17.86523438 49.12084961 C18.2578406 51.35716059 18.65945114 53.59172134 19.0625 55.82617188 C21 66.65315971 21 66.65315971 21 69 C45.42 69 69.84 69 95 69 C95 69.33 95 69.66 95 70 C95.75506836 70.10546143 96.51013672 70.21092285 97.28808594 70.31958008 C100.77635348 70.81063393 104.26314545 71.31151515 107.75 71.8125 C109.53083984 72.0609668 109.53083984 72.0609668 111.34765625 72.31445312 C118.13597422 73.29746092 124.68641939 74.5547424 131.29003906 76.4206543 C134.06265432 77.11783797 134.06265432 77.11783797 137.21777344 76.96020508 C140 77 140 77 142 79 C143.38640757 79.60862331 144.80045934 80.15536016 146.2265625 80.6640625 C147.08556152 80.97722412 147.94456055 81.29038574 148.82958984 81.61303711 C149.7520752 81.94698486 150.67456055 82.28093262 151.625 82.625 C177.27390658 92.17623907 199.28123932 106.06458734 219 125 C219.8353125 125.80026611 219.8353125 125.80026611 220.6875 126.61669922 C238.63534714 144.13462821 253.91269911 169.0806738 260.49609375 193.34765625 C262.26886117 199.48200378 265.57872491 201.86400087 271 205 C281.64036614 210.24030044 291.75353402 211.41668189 303.140625 208.03515625 C311.37789004 205.05308626 318.11378669 200.42689978 324.7109375 194.734375 C327.06493821 192.95079767 329.2686511 192.07001297 332 191 C332.33 190.34 332.66 189.68 333 189 C340.79595239 188.34933319 346.80463093 188.1898923 353.12890625 193.1796875 C359.54744489 199.4240278 361.35809577 206.17381684 362 215 C362.15121571 227.43749241 357.39933585 238.92818985 349 248 C338.41124713 257.65184056 338.41124713 257.65184056 332 259 C331.67 259.66 331.34 260.32 331 261 C310.0897888 271.98898333 284.85453342 268.07820478 263 263 C263.45890625 264.06734375 263.9178125 265.1346875 264.390625 266.234375 C272.70845499 286.16907078 279.60285107 311.98446381 271 333 C266.63344099 342.07273927 260.66895818 347.97618666 251.484375 352.140625 C243.85688582 354.77906465 235.86931887 353.97244435 228 353 C228 352.34 228 351.68 228 351 C226.845 350.690625 225.69 350.38125 224.5 350.0625 C210.69090387 345.37302604 199.4097076 336.63091244 188.55541992 327.1640625 C186.88521696 325.78660009 186.88521696 325.78660009 184 325 C182.17578125 323.15234375 182.17578125 323.15234375 180.3125 320.9375 C179.68988281 320.20402344 179.06726563 319.47054688 178.42578125 318.71484375 C177.95527344 318.14894531 177.48476563 317.58304688 177 317 C176.0527002 317.26216309 175.10540039 317.52432617 174.12939453 317.79443359 C170.57063667 318.77829763 167.01060455 319.75748208 163.45019531 320.73535156 C161.91762441 321.15695339 160.38538881 321.57977627 158.85351562 322.00390625 C143.40253498 326.28015677 143.40253498 326.28015677 135.87841797 327.62744141 C133.78581315 328.00160541 133.78581315 328.00160541 131 329 C130.28655393 330.30889913 129.62375311 331.64605972 129 333 C118.68327805 346.4182681 99.34295334 354.60721722 82.98828125 356.75390625 C69.72688483 357.84602125 54.08864318 357.50204284 43 349 C41.98046875 346.8359375 41.98046875 346.8359375 41 344 C39.71248531 341.31005298 38.35731163 338.65532323 37 336 C36.03739258 336.01047363 35.07478516 336.02094727 34.08300781 336.03173828 C16.07145871 336.2092058 -1.88780877 336.15436479 -19.875 335.125 C-20.62238434 335.08437439 -21.36976868 335.04374878 -22.13980103 335.00189209 C-29.51185945 334.59664572 -36.81095709 334.08476385 -44.12890625 333.0703125 C-55.80774758 331.03446295 -55.80774758 331.03446295 -66.4440918 334.98388672 C-68.53220871 336.76696097 -70.48431203 338.66561343 -72.43652344 340.59521484 C-75.20763643 343.08506246 -78.37358254 344.83580997 -81.625 346.625 C-82.28806152 346.99044922 -82.95112305 347.35589844 -83.63427734 347.73242188 C-103.57749565 358.41307054 -128.47870903 368.73375884 -151.4765625 363.7734375 C-156.47146744 362.2424914 -160.65248204 359.89834531 -165 357 C-167.8294036 356.79686333 -170.60561532 356.68244423 -173.4375 356.625 C-189.22677054 355.98657317 -201.89084496 350.11385673 -212.86328125 338.58984375 C-219.1808332 330.932555 -226 321.20775831 -226 311 C-226.66 310.67 -227.32 310.34 -228 310 C-228.13567383 309.35377686 -228.27134766 308.70755371 -228.41113281 308.04174805 C-228.60545898 307.36797119 -228.79978516 306.69419434 -229 306 C-231.61228657 304.7266594 -234.01817735 303.73833778 -236.75 302.8125 C-237.46671875 302.55275391 -238.1834375 302.29300781 -238.921875 302.02539062 C-242.58343758 300.7229782 -246.15256505 299.62861634 -250 299 C-250 298.34 -250 297.68 -250 297 C-250.81984375 296.76539063 -251.6396875 296.53078125 -252.484375 296.2890625 C-256.71301912 294.73855966 -260.38874408 292.67243218 -264.25 290.375 C-265.00289307 289.92842041 -265.75578613 289.48184082 -266.53149414 289.02172852 C-272.43327698 285.46034068 -277.82721558 281.56632004 -283 277 C-283.85078125 276.2575 -284.7015625 275.515 -285.578125 274.75 C-288.08227728 272.53075127 -290.54635203 270.27482278 -293 268 C-293.92425781 267.17435547 -293.92425781 267.17435547 -294.8671875 266.33203125 C-301.83117241 259.83338174 -307.40012342 251.29724573 -312 243 C-312 242.34 -312 241.68 -312 241 C-312.99 240.67 -313.98 240.34 -315 240 C-315 238.68 -315 237.36 -315 236 C-315.76168223 233.20155226 -316.83993838 230.52051006 -317.875 227.8125 C-318.27912109 226.70745117 -318.27912109 226.70745117 -318.69140625 225.58007812 C-319.9467572 221.5649351 -319.9467572 221.5649351 -323 219 C-322.814375 218.29875 -322.62875 217.5975 -322.4375 216.875 C-321.94189729 213.61818218 -322.45487488 211.24361669 -323 208 C-325.32290656 169.19569883 -316.59800442 130.82112845 -292.18701172 99.68774414 C-286.70085401 92.25633358 -285.97126953 85.59997282 -285.84677124 76.69668579 C-285.7879396 72.81845986 -285.61151069 68.94517717 -285.4453125 65.0703125 C-285.41432968 64.2969606 -285.38334686 63.5236087 -285.35142517 62.7268219 C-284.5118159 43.4362154 -282.2781907 18.17901053 -269 3 C-264.89344018 -0.29019552 -260.49622836 -1.69916617 -255.17578125 -1.37890625 C-234.89224746 2.15341471 -214.65110637 17.31365575 -198.71899414 29.61035156 C-195.8376763 31.80712571 -193.59780566 33.44431461 -190 34 C-187.12313724 33.34913952 -184.33335408 32.61685946 -181.5 31.8125 C-161.97490714 26.71564581 -142.56666256 24.58614131 -122.4375 24.5 C-121.60199615 24.49553864 -120.76649231 24.49107727 -119.90567017 24.48648071 C-108.96273438 24.4741643 -99.08317379 25.57287131 -88.375 27.875 C-80.13188362 29.51537215 -74.96049474 29.42915544 -67.73974609 24.88085938 C-64.25034797 22.37083854 -60.90698799 19.71094749 -57.58105469 16.98925781 C-53.24440501 13.64693644 -48.52690273 11.03080587 -43.75 8.375 C-42.4818042 7.64990234 -42.4818042 7.64990234 -41.18798828 6.91015625 C-29.0204707 0.0333901 -13.57995368 -7.99836255 0 0 Z " fill="#2A2E36" transform="translate(508,323)"/>
<path d="M0 0 C32.5932118 9.76317086 60.60319602 42.40530898 76.421875 71.078125 C81.57675311 80.74254958 86.62101021 90.74984074 89.49609375 101.34765625 C91.26886117 107.48200378 94.57872491 109.86400087 100 113 C110.64036614 118.24030044 120.75353402 119.41668189 132.140625 116.03515625 C140.37789004 113.05308626 147.11378669 108.42689978 153.7109375 102.734375 C156.06493821 100.95079767 158.2686511 100.07001297 161 99 C161.33 98.34 161.66 97.68 162 97 C169.79595239 96.34933319 175.80463093 96.1898923 182.12890625 101.1796875 C188.54744489 107.4240278 190.35809577 114.17381684 191 123 C191.15121571 135.43749241 186.39933585 146.92818985 178 156 C167.41124713 165.65184056 167.41124713 165.65184056 161 167 C160.67 167.66 160.34 168.32 160 169 C139.0897888 179.98898333 113.85453342 176.07820478 92 171 C92.21205078 171.51385254 92.42410156 172.02770508 92.64257812 172.55712891 C93.60590325 174.90880667 94.55302166 177.26669487 95.5 179.625 C96.00080078 180.83736328 96.00080078 180.83736328 96.51171875 182.07421875 C98.2943974 186.54910596 99.44472921 190.09209554 99 195 C97.31395721 192.47093582 96.34362917 190.5290921 95.30859375 187.7265625 C95.00373047 186.9015625 94.69886719 186.0765625 94.38476562 185.2265625 C94.07216797 184.36804688 93.75957031 183.50953125 93.4375 182.625 C93.12103516 181.77421875 92.80457031 180.9234375 92.47851562 180.046875 C91.00699778 176.03534865 89.76553917 172.21441149 89 168 C89.99 168 90.98 168 92 168 C93.78025399 151.1511676 93.76266908 134.54319332 90.65625 117.87109375 C90 114 90 114 90.0078125 111.2109375 C89.99901168 108.720306 89.48392784 107.40084784 88.375 105.1875 C86.7306159 101.72173211 85.35027119 98.24024323 84.08154297 94.61987305 C78.44167886 78.69612404 70.26909127 64.3669338 60 51 C59.3915625 50.16855469 58.783125 49.33710938 58.15625 48.48046875 C42.84889403 28.23850461 22.54528015 13.27264007 0 2 C0 1.34 0 0.68 0 0 Z " fill="#26272E" transform="translate(679,415)"/>
<path d="M0 0 C1.81161662 2.71742493 2.80159732 5.12766002 3.85083008 8.19067383 C14.37584228 38.6464124 38.65151271 60.01467954 67.04296875 74.00683594 C71.62880052 76.17335317 76.29568947 78.10813871 81 80 C81.61601074 80.2573291 82.23202148 80.5146582 82.86669922 80.77978516 C105.16650814 90.08266449 129.33863352 93.78379394 153 98 C153.29189209 97.21753906 153.58378418 96.43507813 153.88452148 95.62890625 C156.98281038 88.32700763 165.90734339 83.01567334 173 80 C174.65736115 79.6231142 176.32329453 79.27847381 178 79 C177.63648438 79.42047607 177.27296875 79.84095215 176.8984375 80.27416992 C159.08717383 99.06845222 159.08717383 99.06845222 151.7578125 122.59375 C152.23933948 127.37795358 153.13720637 131.86654405 156.37109375 135.5703125 C161.20422312 139.44145209 167.05986491 140.67877646 173 142 C173 142.33 173 142.66 173 143 C165.11098121 143.56350134 160.47578044 141.31718696 154 137 C151.1705964 136.79686333 148.39438468 136.68244423 145.5625 136.625 C129.77322946 135.98657317 117.10915504 130.11385673 106.13671875 118.58984375 C99.8191668 110.932555 93 101.20775831 93 91 C92.34 90.67 91.68 90.34 91 90 C90.86432617 89.35377686 90.72865234 88.70755371 90.58886719 88.04174805 C90.39454102 87.36797119 90.20021484 86.69419434 90 86 C87.38771343 84.7266594 84.98182265 83.73833778 82.25 82.8125 C81.53328125 82.55275391 80.8165625 82.29300781 80.078125 82.02539062 C76.41656242 80.7229782 72.84743495 79.62861634 69 79 C69 78.34 69 77.68 69 77 C68.18015625 76.76539063 67.3603125 76.53078125 66.515625 76.2890625 C62.28698088 74.73855966 58.61125592 72.67243218 54.75 70.375 C53.99710693 69.92842041 53.24421387 69.48184082 52.46850586 69.02172852 C46.56672302 65.46034068 41.17278442 61.56632004 36 57 C35.14921875 56.2575 34.2984375 55.515 33.421875 54.75 C30.91772272 52.53075127 28.45364797 50.27482278 26 48 C25.38382813 47.44957031 24.76765625 46.89914062 24.1328125 46.33203125 C17.16882759 39.83338174 11.59987658 31.29724573 7 23 C7 22.34 7 21.68 7 21 C6.01 20.67 5.02 20.34 4 20 C4 18.68 4 17.36 4 16 C3.39102702 14.35251059 2.71891077 12.72757192 2 11.125 C0.36662665 7.23711133 -0.45018859 4.27679156 0 0 Z " fill="#1C1E24" transform="translate(189,543)"/>
<path d="M0 0 C1.32451172 0.01353516 1.32451172 0.01353516 2.67578125 0.02734375 C3.67158203 0.04474609 3.67158203 0.04474609 4.6875 0.0625 C4.6875 0.7225 4.6875 1.3825 4.6875 2.0625 C4.0275 2.0625 3.3675 2.0625 2.6875 2.0625 C2.41421875 2.65675781 2.1409375 3.25101563 1.859375 3.86328125 C-4.48769514 15.77461621 -20.27596275 22.80189601 -32.5 26.91015625 C-49.73841493 32.12053781 -67.08968291 31.38084407 -83.38671875 23.5390625 C-85.85546753 21.64618819 -86.34125338 19.98502943 -87.3125 17.0625 C-88.34654057 14.96800177 -89.42386259 12.90103053 -90.5078125 10.83203125 C-91.3125 9.0625 -91.3125 9.0625 -91.3125 7.0625 C-84.64708567 6.33615284 -77.98514475 5.92005671 -71.2890625 5.6328125 C-70.46672119 5.59741867 -69.64437988 5.56202484 -68.79711914 5.52555847 C-67.06889286 5.45149369 -65.34066196 5.3775368 -63.61242676 5.30368042 C-35.47900513 4.34388849 -35.47900513 4.34388849 -7.64282227 0.52587891 C-5.04139597 0.00859162 -2.64935831 -0.03532478 0 0 Z " fill="#1D1F24" transform="translate(636.3125,649.9375)"/>
<path d="M0 0 C4.33139054 3.12771991 7.85981267 7.36884587 9.85546875 12.33984375 C10.75735268 19.68075942 10.40219067 26.31019099 5.85546875 32.33984375 C1.88696972 36.59103038 -2.41233902 39.00750283 -8.1953125 39.7109375 C-15.55472598 39.86076987 -20.56895556 39.3647453 -26.14453125 34.33984375 C-31.66446912 28.52938283 -32.61576099 23.08387104 -32.453125 15.27734375 C-31.8380821 9.42275814 -29.03581846 5.97200399 -24.76953125 2.02734375 C-17.37734747 -3.84568362 -8.23542802 -4.6190724 0 0 Z " fill="#FCDF53" transform="translate(417.14453125,465.66015625)"/>
<path d="M0 0 C4.60509641 2.9196822 8.07696908 7.29052669 10.11328125 12.33984375 C11.01421947 19.67306182 10.66669298 26.31984235 6.11328125 32.33984375 C2.39983061 36.22208761 -1.50441364 39.1028444 -6.91015625 39.640625 C-19.34661801 39.68410913 -19.34661801 39.68410913 -24.72265625 34.60546875 C-29.6337099 29.43382858 -31.38843424 25.11256935 -32.32421875 18.02734375 C-31.58239593 11.77483709 -28.90508883 6.41132883 -24.51171875 1.90234375 C-15.90489905 -3.22076322 -9.02024915 -4.37770296 0 0 Z " fill="#FCDF53" transform="translate(278.88671875,465.66015625)"/>
<path d="M0 0 C2.125 1.4375 2.125 1.4375 3.9375 4.5 C5.90500601 7.74912551 5.90500601 7.74912551 9.625 8.5 C13.01208037 8.67922239 13.01208037 8.67922239 15.375 7.375 C17.56408586 4.95136923 18.80390167 2.40997124 20.125 -0.5625 C22.3125 -0.5 22.3125 -0.5 25.125 0.4375 C26.359375 2.02734375 26.359375 2.02734375 27.5625 3.9375 C29.4023327 6.7405053 29.84310565 7.33178962 33.125 8.5625 C36.75097789 8.41141759 38.34202744 7.7566438 41.125 5.4375 C41.79849161 3.77357955 42.4659159 2.10717972 43.125 0.4375 C45.125 -0.5 45.125 -0.5 47.125 -0.5625 C49.125 1.4375 49.125 1.4375 49.5 4.6875 C49.05139274 9.17357262 48.10664834 11.07358905 45.125 14.4375 C40.36603175 17.13125561 36.55890817 18.10482206 31.125 17.4375 C28.99864538 16.44227011 27.01187687 15.358853 25.01953125 14.1171875 C23.08491914 13.18972937 23.08491914 13.18972937 21.02734375 14.25 C20.39957031 14.641875 19.77179688 15.03375 19.125 15.4375 C14.88396451 17.55801775 10.801623 18.27138314 6.125 17.4375 C1.72116472 15.60518996 -1.19458523 13.40657559 -3.9375 9.5 C-5.01156175 5.99139827 -4.93213593 3.93418038 -3.875 0.4375 C-1.875 -0.5625 -1.875 -0.5625 0 0 Z " fill="#F8E154" transform="translate(312.875,504.5625)"/>
<path d="M0 0 C0.99 0.495 0.99 0.495 2 1 C2 1.66 2 2.32 2 3 C26.42 3 50.84 3 76 3 C76 3.33 76 3.66 76 4 C77.13179687 4.12117188 78.26359375 4.24234375 79.4296875 4.3671875 C80.91151031 4.53600276 82.39327842 4.70529855 83.875 4.875 C84.62136719 4.95363281 85.36773438 5.03226562 86.13671875 5.11328125 C91.7734375 5.7734375 91.7734375 5.7734375 94 8 C90.68727224 7.85908107 87.37488029 7.71134606 84.0625 7.5625 C83.13630859 7.52318359 82.21011719 7.48386719 81.25585938 7.44335938 C79.87817383 7.38051758 79.87817383 7.38051758 78.47265625 7.31640625 C77.64000244 7.27974854 76.80734863 7.24309082 75.94946289 7.20532227 C73.51666975 7.03596716 71.13025974 6.78193733 68.7109375 6.48852539 C64.17712444 5.97159651 59.71202936 5.85498568 55.15234375 5.8671875 C54.3373793 5.86623077 53.52241486 5.86527405 52.68275452 5.86428833 C50.96762006 5.8636125 49.25248295 5.86542476 47.53735352 5.86962891 C44.96820024 5.87493658 42.39922571 5.86968872 39.83007812 5.86328125 C22.95119048 4.80935046 22.95119048 4.80935046 7 8 C7.31582031 8.95132812 7.63164063 9.90265625 7.95703125 10.8828125 C9.27530936 15.51132999 9.48888776 20.08663941 9.6875 24.875 C9.73455078 25.72191406 9.78160156 26.56882812 9.83007812 27.44140625 C10.09369993 33.08550585 9.75233058 38.39994529 9 44 C8.34 43.67 7.68 43.34 7 43 C6.40497158 40.34305797 5.93357992 37.74983105 5.52734375 35.0625 C5.39936905 34.267229 5.27139435 33.47195801 5.13954163 32.65258789 C4.73043358 30.10298291 4.33329678 27.55170255 3.9375 25 C3.53647768 22.44860636 3.13292753 19.89767048 2.7247467 17.34741211 C2.47085975 15.75780302 2.22144046 14.16747305 1.97679138 12.57641602 C1.68246212 8.98562358 1.68246212 8.98562358 0 6 C-0.04080783 4.00041636 -0.04254356 1.99954746 0 0 Z " fill="#18191C" transform="translate(527,389)"/>
<path d="M0 0 C4.54926445 6.82389668 2.51302506 18.69991725 1.5703125 26.6015625 C-0.75930322 37.50186323 -6.27196938 45.58504069 -15.5703125 51.66015625 C-24.73018533 56.71134014 -33.86494278 56.25243103 -44 55 C-44 54.34 -44 53.68 -44 53 C-45.155 52.690625 -46.31 52.38125 -47.5 52.0625 C-61.30909613 47.37302604 -72.5902924 38.63091244 -83.44458008 29.1640625 C-85.11478304 27.78660009 -85.11478304 27.78660009 -88 27 C-89.82421875 25.15234375 -89.82421875 25.15234375 -91.6875 22.9375 C-92.31011719 22.20402344 -92.93273437 21.47054687 -93.57421875 20.71484375 C-94.04472656 20.14894531 -94.51523437 19.58304688 -95 19 C-96.08099976 19.31807617 -96.08099976 19.31807617 -97.18383789 19.64257812 C-100.47397884 20.60474677 -103.76811338 21.55247514 -107.0625 22.5 C-108.19623047 22.83386719 -109.32996094 23.16773438 -110.49804688 23.51171875 C-116.14666289 25.12560904 -121.11443288 26.47836249 -127 26 C-124 24 -124 24 -121 24 C-121 23.34 -121 22.68 -121 22 C-120.24976563 21.89042969 -119.49953125 21.78085937 -118.7265625 21.66796875 C-112.73493209 20.73979427 -107.0836678 19.57543109 -101.3515625 17.5859375 C-98.35692388 16.83976509 -96.07748469 16.62080279 -93 17 C-90.54296875 18.94140625 -90.54296875 18.94140625 -88.1875 21.5625 C-83.73663746 26.27090503 -79.27446313 30.24838938 -74 34 C-73.45714355 34.38687988 -72.91428711 34.77375977 -72.35498047 35.17236328 C-59.87340657 43.98987091 -43.1144526 55.6456564 -27 53 C-18.37372657 50.86880303 -11.29847819 47.23380978 -6.46875 39.5703125 C-1.65185697 30.35660432 -0.65579086 22.3523152 -0.375 12.0625 C-0.33632813 10.90169922 -0.29765625 9.74089844 -0.2578125 8.54492188 C-0.16404613 5.69676831 -0.07834083 2.84861262 0 0 Z " fill="#161619" transform="translate(780,621)"/>
<path d="M0 0 C32.5932118 9.76317086 60.60319602 42.40530898 76.421875 71.078125 C81.57560575 80.74039848 86.62875826 90.74661499 89.484375 101.34765625 C90.63566034 105.33952869 91.70646959 107.48373647 95.25 109.875 C96.03761719 110.42027344 96.82523438 110.96554687 97.63671875 111.52734375 C100.71912586 113.44811645 103.79260761 115.29394022 107 117 C104 118 104 118 101.94921875 117.1796875 C101.20285156 116.74914062 100.45648437 116.31859375 99.6875 115.875 C98.94886719 115.45992187 98.21023438 115.04484375 97.44921875 114.6171875 C90.07692616 109.74935794 87.92735073 106.3768559 85.3125 98 C79.48458667 80.80005902 71.10831796 65.3411956 60 51 C59.39285156 50.17113281 58.78570313 49.34226562 58.16015625 48.48828125 C42.86418721 28.23869423 22.54285271 13.27142636 0 2 C0 1.34 0 0.68 0 0 Z " fill="#131417" transform="translate(679,415)"/>
<path d="M0 0 C0.99534004 0.10228409 0.99534004 0.10228409 2.01078796 0.20663452 C3.43591393 0.3543223 4.86030374 0.50925894 6.28393555 0.67071533 C10.06048906 1.09648294 13.84302486 1.46201412 17.625 1.8359375 C18.75121262 1.94940018 18.75121262 1.94940018 19.900177 2.06515503 C29.65388099 3.03798621 39.40347985 3.41234204 49.19921875 3.671875 C49.97996765 3.69272156 50.76071655 3.71356812 51.56512451 3.73504639 C64.44247172 4.07723825 77.32054897 4.38416102 90.19921875 4.671875 C90.19921875 5.001875 90.19921875 5.331875 90.19921875 5.671875 C83.48473725 6.89714535 76.82260427 6.86382714 70.01171875 6.859375 C68.70960449 6.85856934 67.40749023 6.85776367 66.06591797 6.85693359 C55.63491795 6.81119178 45.23787166 6.37637504 34.82421875 5.796875 C34.06202026 5.75634003 33.29982178 5.71580505 32.51452637 5.67404175 C24.98095277 5.26893449 17.51700489 4.77999474 10.0390625 3.7421875 C-1.62353927 1.70713184 -1.62353927 1.70713184 -12.24487305 5.65576172 C-14.33298996 7.43883597 -16.28509328 9.33748843 -18.23730469 11.26708984 C-21.00843417 13.75695228 -24.17439717 15.50758383 -27.42578125 17.296875 C-28.08449219 17.66014893 -28.74320312 18.02342285 -29.421875 18.39770508 C-34.76110615 21.25809863 -40.23964369 23.77548877 -45.80078125 26.171875 C-46.57760254 26.51041504 -47.35442383 26.84895508 -48.15478516 27.19775391 C-53.08423199 29.24435933 -57.47814936 30.23638694 -62.80078125 30.671875 C-60.73586271 28.60695646 -59.74081113 28.15862933 -57.046875 27.26171875 C-56.28334717 26.9989917 -55.51981934 26.73626465 -54.7331543 26.46557617 C-53.49819214 26.04175659 -53.49819214 26.04175659 -52.23828125 25.609375 C-36.81175587 20.09373764 -21.08847894 12.3866015 -9.04736328 1.01611328 C-5.84119589 -0.90229116 -3.68391949 -0.40935153 0 0 Z " fill="#151518" transform="translate(453.80078125,652.328125)"/>
<path d="M0 0 C1.81161662 2.71742493 2.80159732 5.12766002 3.85083008 8.19067383 C14.37584228 38.6464124 38.65151271 60.01467954 67.04296875 74.00683594 C75.174487 77.84846714 83.55263435 81.07657216 92.03735352 84.04785156 C96.893701 85.787402 96.893701 85.787402 98 88 C97.01 88 96.02 88 95 88 C95 88.99 95 89.98 95 91 C93.02 90.505 93.02 90.505 91 90 C90.90557617 89.37440186 90.81115234 88.74880371 90.71386719 88.10424805 C90.47829102 87.40984619 90.24271484 86.71544434 90 86 C87.38771343 84.7266594 84.98182265 83.73833778 82.25 82.8125 C81.53328125 82.55275391 80.8165625 82.29300781 80.078125 82.02539062 C76.41656242 80.7229782 72.84743495 79.62861634 69 79 C69 78.34 69 77.68 69 77 C68.18015625 76.76539063 67.3603125 76.53078125 66.515625 76.2890625 C62.28698088 74.73855966 58.61125592 72.67243218 54.75 70.375 C53.99710693 69.92842041 53.24421387 69.48184082 52.46850586 69.02172852 C46.56672302 65.46034068 41.17278442 61.56632004 36 57 C35.14921875 56.2575 34.2984375 55.515 33.421875 54.75 C30.91772272 52.53075127 28.45364797 50.27482278 26 48 C25.38382813 47.44957031 24.76765625 46.89914062 24.1328125 46.33203125 C17.16882759 39.83338174 11.59987658 31.29724573 7 23 C7 22.34 7 21.68 7 21 C6.01 20.67 5.02 20.34 4 20 C4 18.68 4 17.36 4 16 C3.39102702 14.35251059 2.71891077 12.72757192 2 11.125 C0.36662665 7.23711133 -0.45018859 4.27679156 0 0 Z " fill="#131417" transform="translate(189,543)"/>
<path d="M0 0 C0.99 0.495 0.99 0.495 2 1 C0.71283353 2.00578589 -0.57988658 3.00446798 -1.875 4 C-2.59429688 4.556875 -3.31359375 5.11375 -4.0546875 5.6875 C-6 7 -6 7 -8 7 C-8.33 7.66 -8.66 8.32 -9 9 C-29.9102112 19.98898333 -55.14546658 16.07820478 -77 11 C-76.78794922 11.51385254 -76.57589844 12.02770508 -76.35742188 12.55712891 C-75.39409675 14.90880667 -74.44697834 17.26669487 -73.5 19.625 C-73.16613281 20.43324219 -72.83226562 21.24148438 -72.48828125 22.07421875 C-70.7056026 26.54910596 -69.55527079 30.09209554 -70 35 C-71.68604279 32.47093582 -72.65637083 30.5290921 -73.69140625 27.7265625 C-73.99626953 26.9015625 -74.30113281 26.0765625 -74.61523438 25.2265625 C-74.92783203 24.36804688 -75.24042969 23.50953125 -75.5625 22.625 C-75.87896484 21.77421875 -76.19542969 20.9234375 -76.52148438 20.046875 C-77.99300222 16.03534865 -79.23446083 12.21441149 -80 8 C-75.197327 7.77165205 -71.35462491 8.60632757 -66.75 9.9375 C-47.10584508 15.16891108 -24.95956851 14.58790044 -7.046875 4.3046875 C-5.32178858 3.24499156 -3.61202069 2.15954239 -1.92578125 1.0390625 C-1.29027344 0.69617188 -0.65476562 0.35328125 0 0 Z " fill="#121215" transform="translate(848,575)"/>
<path d="M0 0 C0.33 0 0.66 0 1 0 C1.04749491 3.68349407 1.05902733 7.36347042 1.01953125 11.046875 C0.98417812 14.48236771 1.06704318 17.89528338 1.19921875 21.328125 C1.47506736 35.27641609 -2.01402634 42.99452816 -10.44287109 53.90039062 C-12.85336286 57.15066174 -14.85312121 60.5894675 -16.8125 64.125 C-17.17230957 64.77194824 -17.53211914 65.41889648 -17.90283203 66.08544922 C-23.11959357 75.68189194 -27.2194235 85.76754144 -31 96 C-31.33 96 -31.66 96 -32 96 C-31.49597849 90.17790536 -30.31963171 85.59974207 -27.875 80.3125 C-27.56369141 79.62260986 -27.25238281 78.93271973 -26.93164062 78.22192383 C-21.76685644 66.9401958 -15.92348229 55.45388693 -8.17529297 45.70385742 C-1.81262652 37.22001578 -1.82692069 29.12200506 -1.625 18.9375 C-1.54654993 16.53514711 -1.45902563 14.13328235 -1.36898804 11.7313385 C-1.31668299 10.24809401 -1.27290682 8.76451814 -1.23867798 7.28074646 C-1.10629397 2.21258795 -1.10629397 2.21258795 0 0 Z " fill="#212226" transform="translate(224,377)"/>
<path d="M0 0 C12.2264036 9.86186328 14.36477461 30.30170215 17.25 44.8125 C17.5130896 46.10111938 17.5130896 46.10111938 17.78149414 47.41577148 C18.9089453 53.33389507 19.20239859 58.98185463 19 65 C18.67 65 18.34 65 18 65 C17.8141333 63.99324219 17.6282666 62.98648438 17.43676758 61.94921875 C16.72899384 58.13028124 16.00821061 54.3138861 15.28393555 50.49804688 C14.97517254 48.86197069 14.66970776 47.22526779 14.36791992 45.58789062 C10.6509832 21.68779251 10.6509832 21.68779251 -2 2 C-4.88265149 1.03911617 -6.67662271 0.88329059 -9.66796875 0.90234375 C-10.56064453 0.90556641 -11.45332031 0.90878906 -12.37304688 0.91210938 C-13.30181641 0.92048828 -14.23058594 0.92886719 -15.1875 0.9375 C-16.59805664 0.94426758 -16.59805664 0.94426758 -18.03710938 0.95117188 C-20.35813712 0.96295374 -22.67903644 0.97940442 -25 1 C-25 0.34 -25 -0.32 -25 -1 C-16.48159796 -3.47808059 -7.99556383 -4.70925158 0 0 Z " fill="#111215" transform="translate(508,323)"/>
<path d="M0 0 C2.64 0 5.28 0 8 0 C7.34 0.66 6.68 1.32 6 2 C6.31582031 2.95132812 6.63164063 3.90265625 6.95703125 4.8828125 C8.27530936 9.51132999 8.48888776 14.08663941 8.6875 18.875 C8.73455078 19.72191406 8.78160156 20.56882812 8.83007812 21.44140625 C9.09369993 27.08550585 8.75233058 32.39994529 8 38 C7.34 37.67 6.68 37.34 6 37 C5.39262521 34.34325957 4.9093724 31.75066203 4.4921875 29.0625 C4.36184113 28.267229 4.23149475 27.47195801 4.09719849 26.65258789 C3.68144876 24.10299809 3.27821217 21.55159951 2.875 19 C2.59584924 17.27851638 2.31591145 15.55716018 2.03515625 13.8359375 C0 1.29306234 0 1.29306234 0 0 Z " fill="#1C1E24" transform="translate(528,395)"/>
<path d="M0 0 C8.05814065 -0.61897524 14.62709349 -1.04502751 21.1640625 4.1796875 C27.44004721 10.40225957 29.50809804 17.21603643 30 26 C29.72500623 28.00885279 29.40670664 30.01362118 29 32 C28.67 32 28.34 32 28 32 C27.90203125 31.01 27.8040625 30.02 27.703125 29 C26.33723348 16.19189719 26.33723348 16.19189719 18.9375 6.0625 C13.63496194 2.33944136 8.30064295 2.12538245 2 3 C-1.38661366 4.53473629 -4.10561474 6.68644416 -7 9 C-19.40777214 18.29247784 -19.40777214 18.29247784 -26 21 C-26.99 20.67 -27.98 20.34 -29 20 C-27.65808594 19.27296875 -27.65808594 19.27296875 -26.2890625 18.53125 C-19.40713292 14.73754933 -13.14328816 10.84909993 -7.18359375 5.6640625 C-4.87740018 3.90656973 -2.72758817 2.94914316 0 2 C0 1.34 0 0.68 0 0 Z " fill="#151618" transform="translate(840,512)"/>
<path d="M0 0 C5.31029829 0.5106056 9.49754834 1.84889508 14.25 4.3125 C14.93255859 4.66151367 15.61511719 5.01052734 16.31835938 5.37011719 C54.06390983 25.12781966 54.06390983 25.12781966 59 35 C54.67973366 33.5251781 51.30834649 31.20439241 47.6875 28.5 C33.08605165 17.87372383 17.01940151 7.27569114 0 1 C0 0.67 0 0.34 0 0 Z " fill="#141519" transform="translate(257,324)"/>
<path d="M0 0 C-1.15113281 0.58265625 -2.30226563 1.1653125 -3.48828125 1.765625 C-18.6535157 9.53796844 -33.53343585 17.96620743 -46.7734375 28.76953125 C-49 30 -49 30 -51.7890625 29.69921875 C-52.51867187 29.46847656 -53.24828125 29.23773438 -54 29 C-53.42757568 28.72849121 -52.85515137 28.45698242 -52.26538086 28.17724609 C-49.96107604 26.97977246 -47.89171111 25.63708391 -45.75390625 24.1640625 C-33.50610451 15.81366793 -21.0474087 8.04693794 -8 1 C-7.33492432 0.60135742 -6.66984863 0.20271484 -5.98461914 -0.20800781 C-3.56917465 -1.17192735 -2.40749015 -0.85981791 0 0 Z " fill="#141518" transform="translate(482,325)"/>
<path d="M0 0 C4.54926445 6.82389668 2.51302506 18.69991725 1.5703125 26.6015625 C-0.78418785 37.61829872 -6.44596313 45.62116524 -15.66796875 51.953125 C-18 53 -18 53 -20.30078125 52.671875 C-21.14189453 52.33929687 -21.14189453 52.33929687 -22 52 C-21.43152344 51.731875 -20.86304688 51.46375 -20.27734375 51.1875 C-11.22530413 46.59347655 -6.21362257 40.8180651 -2.7265625 31.296875 C-1.41831645 27.16112943 -0.83913207 23.49569805 -0.68359375 19.140625 C-0.64169922 18.02558594 -0.59980469 16.91054688 -0.55664062 15.76171875 C-0.51732422 14.60285156 -0.47800781 13.44398438 -0.4375 12.25 C-0.39431641 11.07566406 -0.35113281 9.90132812 -0.30664062 8.69140625 C-0.20065206 5.79438549 -0.09858362 2.89728065 0 0 Z " fill="#111114" transform="translate(780,621)"/>
<path d="M0 0 C0.33 0 0.66 0 1 0 C1.12605202 7.3110169 1.12605202 7.3110169 0.51367188 10.65820312 C-0.05847176 14.38039996 -0.22552589 18.04784276 -0.31640625 21.8046875 C-0.33718735 22.5286673 -0.35796844 23.25264709 -0.37937927 23.99856567 C-0.44428853 26.29062239 -0.50348437 28.58278474 -0.5625 30.875 C-0.60574112 32.43751053 -0.64935711 34.00001072 -0.69335938 35.5625 C-0.79990896 39.37489426 -0.90133795 43.1873938 -1 47 C-1.66 46.67 -2.32 46.34 -3 46 C-3.0501139 41.66244955 -3.08605039 37.32506056 -3.10986328 32.98730469 C-3.11980927 31.51722267 -3.13337091 30.04715984 -3.15087891 28.57714844 C-3.40333333 6.80666667 -3.40333333 6.80666667 0 0 Z " fill="#131317" transform="translate(188,485)"/>
<path d="M0 0 C2.51736963 3.00147917 4.74427497 6.09480489 6.875 9.375 C14.84169093 21.31515216 24.19302042 27.70034098 38 32 C38 32.33 38 32.66 38 33 C27.24749029 32.8207915 19.33625621 27.53840447 11.6875 20.25 C0 7.9016559 0 7.9016559 0 0 Z " fill="#0E0E10" transform="translate(286,644)"/>
<path d="M0 0 C0.66 0.33 1.32 0.66 2 1 C1.03900391 2.670625 1.03900391 2.670625 0.05859375 4.375 C-7.062034 16.8882024 -13.00630987 29.49467684 -18 43 C-18.33 43 -18.66 43 -19 43 C-18.49596197 37.17771455 -17.31931043 32.60003021 -14.875 27.3125 C-14.5658667 26.62623535 -14.2567334 25.9399707 -13.93823242 25.23291016 C-9.92313748 16.45147622 -5.43859338 7.98608265 0 0 Z " fill="#121316" transform="translate(211,430)"/>
<path d="M0 0 C6.12848768 -0.3535666 11.1742954 0.65470531 17.0703125 2.34375 C20.02696406 3.12294289 20.02696406 3.12294289 23.2421875 2.96875 C26 3 26 3 28 5 C29.5207704 5.75214998 31.06557295 6.45667412 32.625 7.125 C33.44226563 7.47820312 34.25953125 7.83140625 35.1015625 8.1953125 C35.72804688 8.46085937 36.35453125 8.72640625 37 9 C32.93072383 10.68952226 29.6093385 9.1246699 25.6875 7.75 C18.81918372 5.4507592 12.0477217 3.89976699 4.9140625 2.67578125 C2 2 2 2 0 0 Z " fill="#16171A" transform="translate(622,397)"/>
<path d="M0 0 C3.0223636 -0.13587049 6.03853888 -0.23450542 9.0625 -0.3125 C10.33383789 -0.3753418 10.33383789 -0.3753418 11.63085938 -0.43945312 C17.19086724 -0.54678918 20.12678679 0.24041756 24.41625977 3.78198242 C26.73477362 5.56509721 29.11779926 6.15108872 31.9375 6.8125 C32.89527344 7.04582031 33.85304688 7.27914062 34.83984375 7.51953125 C35.55269531 7.67808594 36.26554687 7.83664062 37 8 C37 8.33 37 8.66 37 9 C29.11098121 9.56350134 24.47578044 7.31718696 18 3 C15.97457852 2.63648496 15.97457852 2.63648496 13.76953125 2.5859375 C12.96708984 2.54726563 12.16464844 2.50859375 11.33789062 2.46875 C10.08782227 2.42234375 10.08782227 2.42234375 8.8125 2.375 C7.96751953 2.33632813 7.12253906 2.29765625 6.25195312 2.2578125 C4.16832476 2.16363721 2.08419247 2.08073325 0 2 C0 1.34 0 0.68 0 0 Z " fill="#0F1012" transform="translate(325,677)"/>
<path d="M0 0 C0.33 0.66 0.66 1.32 1 2 C-0.21236328 2.14695312 -0.21236328 2.14695312 -1.44921875 2.296875 C-9.66437338 3.21089001 -9.66437338 3.21089001 -16 8 C-19.34582807 13.38535047 -22.33716091 18.84749535 -24 25 C-24.33 25 -24.66 25 -25 25 C-24.68210451 16.41682174 -20.94618718 10.44919474 -15.4375 4 C-10.377816 -0.15153559 -6.31440138 -0.2140475 0 0 Z " fill="#0F1014" transform="translate(255,322)"/>
<path d="M0 0 C2.5 2.6875 2.5 2.6875 4 5 C1 5 1 5 -0.5 3.5625 C-0.995 3.046875 -1.49 2.53125 -2 2 C-4.88265149 1.03911617 -6.67662271 0.88329059 -9.66796875 0.90234375 C-10.56064453 0.90556641 -11.45332031 0.90878906 -12.37304688 0.91210938 C-13.30181641 0.92048828 -14.23058594 0.92886719 -15.1875 0.9375 C-16.59805664 0.94426758 -16.59805664 0.94426758 -18.03710938 0.95117188 C-20.35813712 0.96295374 -22.67903644 0.97940442 -25 1 C-25 0.34 -25 -0.32 -25 -1 C-16.45052739 -3.48711931 -8.05578056 -4.65525919 0 0 Z " fill="#1D1E22" transform="translate(508,323)"/>
<path d="M0 0 C0.33 0 0.66 0 1 0 C1.1574163 12.36592489 0.67707648 24.65415863 0 37 C-0.33 37 -0.66 37 -1 37 C-2.764 5.528 -2.764 5.528 0 0 Z " fill="#0D0E11" transform="translate(224,377)"/>
<path d="M0 0 C0 3 0 3 -1.6171875 4.83203125 C-6.90350146 9.4689883 -12.4362759 14.29062166 -19 17 C-21.29296875 16.65234375 -21.29296875 16.65234375 -23 16 C-22.09378906 15.5153125 -21.18757812 15.030625 -20.25390625 14.53125 C-12.70109336 10.40511864 -6.15122852 6.11868233 0 0 Z " fill="#0E0E11" transform="translate(635,655)"/>
<path d="M0 0 C1.30710937 -0.00386719 1.30710937 -0.00386719 2.640625 -0.0078125 C3.54296875 -0.00007812 4.4453125 0.00765625 5.375 0.015625 C6.27734375 0.00789062 7.1796875 0.00015625 8.109375 -0.0078125 C8.98078125 -0.00523437 9.8521875 -0.00265625 10.75 0 C11.93722656 0.00338379 11.93722656 0.00338379 13.1484375 0.00683594 C15.60419493 0.29226388 17.24454224 1.04109819 19.375 2.265625 C9.94630123 3.58930841 0.81843382 2.98523016 -8.625 2.265625 C-5.62366244 0.54054114 -3.45065948 0.00983494 0 0 Z " fill="#1A1A1E" transform="translate(798.625,587.734375)"/>
<path d="M0 0 C0.33 0.66 0.66 1.32 1 2 C-0.21236328 2.18175781 -0.21236328 2.18175781 -1.44921875 2.3671875 C-2.51785156 2.53476562 -3.58648437 2.70234375 -4.6875 2.875 C-5.74324219 3.03742188 -6.79898438 3.19984375 -7.88671875 3.3671875 C-10.79794914 3.95893069 -13.28955607 4.8031806 -16 6 C-16 5.34 -16 4.68 -16 4 C-10.4174808 0.67424388 -6.50313209 -0.46450943 0 0 Z " fill="#1B1C20" transform="translate(255,322)"/>
<path d="M0 0 C0.66 0 1.32 0 2 0 C2.32613281 0.67546875 2.65226563 1.3509375 2.98828125 2.046875 C3.42527344 2.93890625 3.86226562 3.8309375 4.3125 4.75 C4.74175781 5.63171875 5.17101562 6.5134375 5.61328125 7.421875 C6.90103146 9.81600215 8.30915754 11.87776958 10 14 C6.8260218 13.06114258 5.31635357 12.462423 3.41796875 9.6875 C3.01191406 8.800625 2.60585938 7.91375 2.1875 7 C1.76855469 6.113125 1.34960938 5.22625 0.91796875 4.3125 C0 2 0 2 0 0 Z " fill="#0D0D0F" transform="translate(545,657)"/>
<path d="M0 0 C5.96564796 0.50771472 10.63809899 2.38592128 16 5 C16 5.66 16 6.32 16 7 C10.3856009 5.43551329 5.13189662 3.83604813 0 1 C0 0.67 0 0.34 0 0 Z " fill="#141417" transform="translate(662,408)"/>
<path d="M0 0 C0.66 0 1.32 0 2 0 C0.04643572 5.69789582 -3.01913651 9.62012835 -8 13 C-8.66 12.67 -9.32 12.34 -10 12 C-9.36191406 11.30132813 -8.72382812 10.60265625 -8.06640625 9.8828125 C-7.24011719 8.97273437 -6.41382813 8.06265625 -5.5625 7.125 C-4.73878906 6.22007812 -3.91507813 5.31515625 -3.06640625 4.3828125 C-0.99092058 2.18862073 -0.99092058 2.18862073 0 0 Z " fill="#111114" transform="translate(861,561)"/>
<path d="M0 0 C-3.21561653 3.21561653 -5.12843777 3.97094793 -9.75 4.125 C-11.35875 4.063125 -11.35875 4.063125 -13 4 C-10 2 -10 2 -7 2 C-7 1.34 -7 0.68 -7 0 C-3.86650268 -1.04449911 -3.01031744 -0.93423645 0 0 Z " fill="#1E2125" transform="translate(666,643)"/>
<path d="M0 0 C0.33 0 0.66 0 1 0 C1.31416607 5.23610116 0.77647622 8.51492303 -2 13 C-2.99 13.495 -2.99 13.495 -4 14 C-3.52188823 12.22888156 -3.0424722 10.45811517 -2.5625 8.6875 C-2.29566406 7.70136719 -2.02882813 6.71523438 -1.75390625 5.69921875 C-1.21920575 3.78482474 -0.62855462 1.88566385 0 0 Z " fill="#101113" transform="translate(867,545)"/>
<path d="M0 0 C0.33 0 0.66 0 1 0 C1.08333357 4.8333472 0.95261487 9.23692563 0 14 C-2 12 -2 12 -2.01171875 9.6875 C-1.90472656 8.800625 -1.79773438 7.91375 -1.6875 7 C-1.58824219 6.113125 -1.48898438 5.22625 -1.38671875 4.3125 C-1 2 -1 2 0 0 Z " fill="#131418" transform="translate(188,485)"/>
<path d="M0 0 C4.03174806 0.27489191 5.56894631 0.53491576 8.375 3.5625 C8.91125 4.366875 9.4475 5.17125 10 6 C7 6 7 6 5.5625 4.625 C5.046875 4.08875 4.53125 3.5525 4 3 C1.90010348 1.82425289 1.90010348 1.82425289 0 1 C0 0.67 0 0.34 0 0 Z " fill="#18181C" transform="translate(502,322)"/>
<path d="M0 0 C1.65 0 3.3 0 5 0 C5.33 0.66 5.66 1.32 6 2 C5.01 2 4.02 2 3 2 C3 2.99 3 3.98 3 5 C1.68 4.67 0.36 4.34 -1 4 C-0.67 2.68 -0.34 1.36 0 0 Z " fill="#16171B" transform="translate(281,629)"/>
<path d="M0 0 C1.94268841 2.91403262 3.46395304 5.85808576 5 9 C4.01 9 3.02 9 2 9 C0.93347808 6.69631264 -0.06421005 4.35981813 -1 2 C-0.67 1.34 -0.34 0.68 0 0 Z " fill="#17171C" transform="translate(767,515)"/>
<path d="M0 0 C1.54571278 2.31856917 2.79618552 4.50638429 4 7 C3.34 7.66 2.68 8.32 2 9 C1.896875 8.360625 1.79375 7.72125 1.6875 7.0625 C1.460625 6.381875 1.23375 5.70125 1 5 C0.01 4.67 -0.98 4.34 -2 4 C-1.34 2.68 -0.68 1.36 0 0 Z " fill="#1D1E22" transform="translate(195,559)"/>
<path d="M0 0 C3.14737182 0.69941596 6.02588876 1.76078698 9 3 C9 3.33 9 3.66 9 4 C2.25 3.125 2.25 3.125 0 2 C0 1.34 0 0.68 0 0 Z " fill="#0D0E0F" transform="translate(557,673)"/>
<path d="M0 0 C1.65 0.33 3.3 0.66 5 1 C5 1.99 5 2.98 5 4 C4.01 3.34 3.02 2.68 2 2 C1.01 2.99 0.02 3.98 -1 5 C-0.67 3.35 -0.34 1.7 0 0 Z " fill="#F4ED63" transform="translate(333,504)"/>
<path d="M0 0 C0.66 1.32 1.32 2.64 2 4 C1.34 3.67 0.68 3.34 0 3 C0 2.01 0 1.02 0 0 Z " fill="#2F2F34" transform="translate(281,640)"/>
<path d="M0 0 C0.99 0.33 1.98 0.66 3 1 C2.01 1.33 1.02 1.66 0 2 C0 1.34 0 0.68 0 0 Z " fill="#3B3C42" transform="translate(200,576)"/>
<path d="M0 0 C0.66 0 1.32 0 2 0 C2 0.66 2 1.32 2 2 C1.34 2 0.68 2 0 2 C0 1.34 0 0.68 0 0 Z " fill="#313035" transform="translate(544,664)"/>
<path d="M0 0 C0.99 0.33 1.98 0.66 3 1 C2.01 1 1.02 1 0 1 C0 0.67 0 0.34 0 0 Z " fill="#3A3C40" transform="translate(259,622)"/>
<path d="M0 0 C3 1 3 1 3 1 Z " fill="#3A3B3F" transform="translate(488,659)"/>
<path d="M0 0 C3 1 3 1 3 1 Z " fill="#3B3B42" transform="translate(447,655)"/>
<path d="M0 0 C3 1 3 1 3 1 Z " fill="#36373A" transform="translate(813,591)"/>
<path d="M0 0 C3 1 3 1 3 1 Z " fill="#39383C" transform="translate(825,589)"/>
<path d="M0 0 C0.99 0.495 0.99 0.495 2 1 C1.01 1.495 1.01 1.495 0 2 C0 1.34 0 0.68 0 0 Z " fill="#3D3D42" transform="translate(184,544)"/>
<path d="M0 0 C3 1 3 1 3 1 Z " fill="#323336" transform="translate(789,531)"/>
<path d="" fill="#3C3E43" transform="translate(0,0)"/>
<path d="M0 0 C0.66 0.66 1.32 1.32 2 2 C1.34 2 0.68 2 0 2 C0 1.34 0 0.68 0 0 Z " fill="#3E4043" transform="translate(200,442)"/>
<path d="M0 0 C2 1 2 1 2 1 Z " fill="#3B3D41" transform="translate(753,677)"/>
<path d="M0 0 C2 1 2 1 2 1 Z " fill="#303035" transform="translate(313,676)"/>
<path d="" fill="#383A3F" transform="translate(0,0)"/>
<path d="M0 0 C2 1 2 1 2 1 Z " fill="#393B3E" transform="translate(668,645)"/>
<path d="" fill="#2E2F34" transform="translate(0,0)"/>
<path d="" fill="#3C3C40" transform="translate(0,0)"/>
<path d="" fill="#37363D" transform="translate(0,0)"/>
<path d="M0 0 C2 1 2 1 2 1 Z " fill="#343438" transform="translate(784,590)"/>
<path d="M0 0 C2 1 2 1 2 1 Z " fill="#3D3D41" transform="translate(193,565)"/>
<path d="" fill="#3D3F43" transform="translate(0,0)"/>
<path d="" fill="#3E4045" transform="translate(0,0)"/>
<path d="" fill="#3E4044" transform="translate(0,0)"/>
<path d="M0 0 C2 1 2 1 2 1 Z " fill="#3A3C40" transform="translate(710,432)"/>
<path d="M0 0 C2 1 2 1 2 1 Z " fill="#3A3C41" transform="translate(699,424)"/>
<path d="M0 0 C2 1 2 1 2 1 Z " fill="#3B3B3F" transform="translate(686,416)"/>
<path d="M0 0 C2 1 2 1 2 1 Z " fill="#3B3C41" transform="translate(669,408)"/>
<path d="M0 0 C2 1 2 1 2 1 Z " fill="#3A3C40" transform="translate(606,392)"/>
<path d="M0 0 C2 1 2 1 2 1 Z " fill="#3D3E43" transform="translate(323,354)"/>
<path d="" fill="#3C3D41" transform="translate(0,0)"/>
<path d="M0 0 C2 1 2 1 2 1 Z " fill="#3C3C40" transform="translate(310,352)"/>
<path d="M0 0 C2 1 2 1 2 1 Z " fill="#3F4145" transform="translate(244,321)"/>
<path d="" fill="#646564" transform="translate(0,0)"/>
<path d="" fill="#5C5E5D" transform="translate(0,0)"/>
<path d="" fill="#393B3E" transform="translate(0,0)"/>
<path d="" fill="#3B3A3F" transform="translate(0,0)"/>
<path d="" fill="#37363C" transform="translate(0,0)"/>
<path d="" fill="#35343A" transform="translate(0,0)"/>
<path d="" fill="#3B3A40" transform="translate(0,0)"/>
<path d="" fill="#3D3C40" transform="translate(0,0)"/>
<path d="" fill="#35363C" transform="translate(0,0)"/>
<path d="" fill="#3D3F41" transform="translate(0,0)"/>
<path d="" fill="#2F2E31" transform="translate(0,0)"/>
<path d="" fill="#2F3033" transform="translate(0,0)"/>
<path d="" fill="#323335" transform="translate(0,0)"/>
<path d="" fill="#302F33" transform="translate(0,0)"/>
<path d="" fill="#3E3F44" transform="translate(0,0)"/>
<path d="" fill="#2F2D33" transform="translate(0,0)"/>
<path d="" fill="#2E2E31" transform="translate(0,0)"/>
<path d="" fill="#323134" transform="translate(0,0)"/>
<path d="" fill="#3D3A40" transform="translate(0,0)"/>
<path d="" fill="#3D3F43" transform="translate(0,0)"/>
<path d="" fill="#3D3E43" transform="translate(0,0)"/>
<path d="" fill="#3D3D43" transform="translate(0,0)"/>
<path d="" fill="#302F33" transform="translate(0,0)"/>
<path d="" fill="#303235" transform="translate(0,0)"/>
<path d="" fill="#383A3D" transform="translate(0,0)"/>
<path d="" fill="#3B3D42" transform="translate(0,0)"/>
<path d="" fill="#3B3C42" transform="translate(0,0)"/>
<path d="" fill="#3A3A3F" transform="translate(0,0)"/>
<path d="" fill="#2D2C32" transform="translate(0,0)"/>
<path d="" fill="#313236" transform="translate(0,0)"/>
<path d="" fill="#3A3A3F" transform="translate(0,0)"/>
<path d="" fill="#303134" transform="translate(0,0)"/>
<path d="" fill="#3B3C41" transform="translate(0,0)"/>
<path d="" fill="#38383D" transform="translate(0,0)"/>
<path d="" fill="#37363C" transform="translate(0,0)"/>
<path d="" fill="#36373A" transform="translate(0,0)"/>
<path d="" fill="#3A393E" transform="translate(0,0)"/>
<path d="" fill="#37383F" transform="translate(0,0)"/>
<path d="" fill="#3A3C3E" transform="translate(0,0)"/>
<path d="" fill="#3A3A3F" transform="translate(0,0)"/>
<path d="" fill="#3B3B3F" transform="translate(0,0)"/>
<path d="" fill="#2F2E31" transform="translate(0,0)"/>
<path d="" fill="#3E3D43" transform="translate(0,0)"/>
<path d="" fill="#3B3B42" transform="translate(0,0)"/>
<path d="" fill="#3B3D3F" transform="translate(0,0)"/>
<path d="" fill="#2F2F35" transform="translate(0,0)"/>
<path d="" fill="#302F35" transform="translate(0,0)"/>
<path d="" fill="#3B3D40" transform="translate(0,0)"/>
<path d="" fill="#39393E" transform="translate(0,0)"/>
<path d="" fill="#3B3B3F" transform="translate(0,0)"/>
<path d="" fill="#38373C" transform="translate(0,0)"/>
<path d="" fill="#303133" transform="translate(0,0)"/>
<path d="" fill="#36393E" transform="translate(0,0)"/>
<path d="" fill="#393B3F" transform="translate(0,0)"/>
<path d="" fill="#2C2D32" transform="translate(0,0)"/>
<path d="" fill="#393A3C" transform="translate(0,0)"/>
<path d="" fill="#37363E" transform="translate(0,0)"/>
<path d="" fill="#37373B" transform="translate(0,0)"/>
<path d="" fill="#393A40" transform="translate(0,0)"/>
<path d="" fill="#383B3D" transform="translate(0,0)"/>
<path d="" fill="#3A3B3F" transform="translate(0,0)"/>
<path d="" fill="#656566" transform="translate(0,0)"/>
<path d="" fill="#3B3D40" transform="translate(0,0)"/>
<path d="" fill="#3C3C40" transform="translate(0,0)"/>
<path d="" fill="#3C3C40" transform="translate(0,0)"/>
<path d="" fill="#39393E" transform="translate(0,0)"/>
<path d="" fill="#3D3E3F" transform="translate(0,0)"/>
<path d="" fill="#39383C" transform="translate(0,0)"/>
<path d="" fill="#3D3D43" transform="translate(0,0)"/>
<path d="" fill="#3D3E42" transform="translate(0,0)"/>
<path d="" fill="#3A3C40" transform="translate(0,0)"/>
<path d="" fill="#3B3F40" transform="translate(0,0)"/>
<path d="" fill="#36383C" transform="translate(0,0)"/>
<path d="" fill="#3D3C41" transform="translate(0,0)"/>
<path d="" fill="#353437" transform="translate(0,0)"/>
<path d="" fill="#38383C" transform="translate(0,0)"/>
<path d="" fill="#343438" transform="translate(0,0)"/>
<path d="" fill="#3D3E42" transform="translate(0,0)"/>
<path d="" fill="#3A393E" transform="translate(0,0)"/>
<path d="" fill="#3C4042" transform="translate(0,0)"/>
<path d="" fill="#393A3D" transform="translate(0,0)"/>
<path d="" fill="#3C3B41" transform="translate(0,0)"/>
<path d="" fill="#36383D" transform="translate(0,0)"/>
<path d="" fill="#3C3A3E" transform="translate(0,0)"/>
<path d="" fill="#3C3D43" transform="translate(0,0)"/>
<path d="" fill="#3E3C42" transform="translate(0,0)"/>
<path d="" fill="#3A3B42" transform="translate(0,0)"/>
<path d="" fill="#3E3F43" transform="translate(0,0)"/>
<path d="" fill="#3D3F41" transform="translate(0,0)"/>
<path d="" fill="#3D3E40" transform="translate(0,0)"/>
<path d="" fill="#3C3D40" transform="translate(0,0)"/>
<path d="" fill="#3F4044" transform="translate(0,0)"/>
<path d="" fill="#37383C" transform="translate(0,0)"/>
<path d="" fill="#3E3E43" transform="translate(0,0)"/>
<path d="" fill="#37373B" transform="translate(0,0)"/>
<path d="" fill="#35383C" transform="translate(0,0)"/>
<path d="" fill="#3A3A3D" transform="translate(0,0)"/>
<path d="" fill="#444141" transform="translate(0,0)"/>
<path d="" fill="#3C3B40" transform="translate(0,0)"/>
<path d="" fill="#3D3E42" transform="translate(0,0)"/>
<path d="" fill="#3E3F42" transform="translate(0,0)"/>
<path d="" fill="#403E45" transform="translate(0,0)"/>
<path d="" fill="#3C3B40" transform="translate(0,0)"/>
<path d="" fill="#3D3B42" transform="translate(0,0)"/>
<path d="" fill="#555657" transform="translate(0,0)"/>
<path d="" fill="#373A3E" transform="translate(0,0)"/>
<path d="" fill="#3F3E42" transform="translate(0,0)"/>
<path d="" fill="#3D3F42" transform="translate(0,0)"/>
<path d="" fill="#373B3E" transform="translate(0,0)"/>
<path d="" fill="#3B3E42" transform="translate(0,0)"/>
<path d="" fill="#3C3F41" transform="translate(0,0)"/>
<path d="" fill="#3D3D3E" transform="translate(0,0)"/>
<path d="" fill="#636364" transform="translate(0,0)"/>
<path d="" fill="#3D3E41" transform="translate(0,0)"/>
<path d="" fill="#3C3F42" transform="translate(0,0)"/>
<path d="" fill="#3C3D40" transform="translate(0,0)"/>
<path d="" fill="#3A3A43" transform="translate(0,0)"/>
<path d="" fill="#3B3D42" transform="translate(0,0)"/>
<path d="" fill="#3A3E42" transform="translate(0,0)"/>
<path d="" fill="#3C3C42" transform="translate(0,0)"/>
<path d="" fill="#3D3F43" transform="translate(0,0)"/>
<path d="" fill="#3C3D41" transform="translate(0,0)"/>
<path d="" fill="#3B3E41" transform="translate(0,0)"/>
<path d="" fill="#403F42" transform="translate(0,0)"/>
<path d="" fill="#3D3D44" transform="translate(0,0)"/>
<path d="" fill="#3E3F43" transform="translate(0,0)"/>
<path d="" fill="#3E3F44" transform="translate(0,0)"/>
<path d="" fill="#3F4146" transform="translate(0,0)"/>
<path d="" fill="#3E3F41" transform="translate(0,0)"/>
<path d="" fill="#404347" transform="translate(0,0)"/>
<path d="" fill="#3E3F42" transform="translate(0,0)"/>
<path d="" fill="#3F4044" transform="translate(0,0)"/>
<path d="" fill="#3A3A3E" transform="translate(0,0)"/>
<path d="" fill="#39393E" transform="translate(0,0)"/>
<path d="" fill="#5E5F60" transform="translate(0,0)"/>
<path d="" fill="#3D3B40" transform="translate(0,0)"/>
<path d="" fill="#3D3D3F" transform="translate(0,0)"/>
<path d="" fill="#3D4147" transform="translate(0,0)"/>
<path d="" fill="#646466" transform="translate(0,0)"/>
<path d="" fill="#3F4144" transform="translate(0,0)"/>
<path d="" fill="#414044" transform="translate(0,0)"/>
<path d="" fill="#404044" transform="translate(0,0)"/>
<path d="" fill="#3C3C42" transform="translate(0,0)"/>
<path d="" fill="#3D3B3F" transform="translate(0,0)"/>
<path d="" fill="#3E3F44" transform="translate(0,0)"/>
<path d="" fill="#3C3D43" transform="translate(0,0)"/>
<path d="" fill="#404145" transform="translate(0,0)"/>
<path d="" fill="#3F4144" transform="translate(0,0)"/>
<path d="" fill="#3A3E43" transform="translate(0,0)"/>
<path d="" fill="#414146" transform="translate(0,0)"/>
<path d="" fill="#3B3C3F" transform="translate(0,0)"/>
<path d="" fill="#3F4044" transform="translate(0,0)"/>
<path d="" fill="#414041" transform="translate(0,0)"/>
<path d="" fill="#3F4144" transform="translate(0,0)"/>
<path d="" fill="#3C3D42" transform="translate(0,0)"/>
<path d="" fill="#3D3D40" transform="translate(0,0)"/>
<path d="" fill="#3F4142" transform="translate(0,0)"/>
<path d="" fill="#3F4047" transform="translate(0,0)"/>
<path d="" fill="#3F4042" transform="translate(0,0)"/>
<path d="" fill="#3E3F44" transform="translate(0,0)"/>
<path d="" fill="#404146" transform="translate(0,0)"/>
<path d="" fill="#434248" transform="translate(0,0)"/>
<path d="" fill="#3E4347" transform="translate(0,0)"/>
<path d="" fill="#656566" transform="translate(0,0)"/>
</svg>
