<?xml version="1.0" encoding="UTF-8"?>
<svg version="1.1" xmlns="http://www.w3.org/2000/svg" width="1024" height="1024">
<path d="M0 0 C1.27729965 0.94327778 2.52685839 1.92498236 3.75 2.9375 C4.47445313 3.50339844 5.19890625 4.06929688 5.9453125 4.65234375 C9.9156007 7.90399556 11.94324396 10.0987166 13.75 14.9375 C15.04569146 17.34457012 16.35805355 19.73691464 17.6875 22.125 C20.56909361 27.36624789 22.79024357 32.29379778 24.08203125 38.1796875 C24.30246094 38.75976562 24.52289062 39.33984375 24.75 39.9375 C25.74 40.2675 26.73 40.5975 27.75 40.9375 C27.75 41.9275 27.75 42.9175 27.75 43.9375 C29.7084488 43.79322556 31.66675252 43.64698162 33.625 43.5 C34.71554687 43.41878906 35.80609375 43.33757812 36.9296875 43.25390625 C39.72966515 43.02200626 42.50908536 42.74646576 45.30078125 42.44140625 C51.87589837 41.77831189 58.45975647 41.53439207 65.0625 41.3125 C66.0563974 41.27881317 66.0563974 41.27881317 67.07037354 41.2444458 C77.4376108 40.90846048 87.75906785 40.95503165 98.125 41.3125 C99.37837158 41.35552246 100.63174316 41.39854492 101.9230957 41.44287109 C110.61310524 41.80060524 110.61310524 41.80060524 111.75 42.9375 C113.52422901 43.23655077 115.30797055 43.47941954 117.09375 43.69921875 C159.93211213 49.2278314 199.7034101 61.59783841 233.91015625 88.7734375 C236.64696538 90.94874623 236.64696538 90.94874623 239.41796875 92.50390625 C241.79769757 93.96682162 243.22925947 95.35811941 245 97.5 C247.59090543 100.58228405 250.25261215 103.55637016 253 106.5 C262.41622511 116.97494889 270.2253444 128.47248632 276.75 140.9375 C277.34425781 142.071875 277.93851563 143.20625 278.55078125 144.375 C285.10243537 157.62357774 292.75 174.99990307 292.75 189.9375 C293.53375 190.123125 294.3175 190.30875 295.125 190.5 C309.18763898 196.07656373 322.30542387 208.9250374 328.47265625 222.65625 C335.05877567 238.17781165 335.64349932 253.01288237 329.75 268.9375 C327.75921367 272.90899272 325.44374003 276.4106445 322.75 279.9375 C321.88955078 281.08798828 321.88955078 281.08798828 321.01171875 282.26171875 C302.90599789 304.47708931 270.57209989 313.41122357 243.29785156 316.62841797 C236.35132239 317.23358628 229.40726223 317.34563316 222.4375 317.375 C221.38509628 317.38439606 221.38509628 317.38439606 220.31143188 317.39398193 C209.16697151 317.45710482 199.38596462 316.17004611 189.375 311 C188.41851563 310.51660156 187.46203125 310.03320312 186.4765625 309.53515625 C183.75 307.9375 183.75 307.9375 181.45263672 305.81396484 C178.07232682 303.46698545 176.78425619 303.66240361 172.78125 304.31640625 C171.58862549 304.49453857 170.39600098 304.6726709 169.16723633 304.85620117 C167.87454834 305.06865479 166.58186035 305.2811084 165.25 305.5 C162.45397308 305.91906075 159.65507595 306.31658036 156.85546875 306.7109375 C156.12325607 306.81546738 155.3910434 306.91999725 154.63664246 307.0276947 C145.97570054 308.23506823 137.27869059 308.95068344 128.5625 309.625 C127.76823608 309.68669373 126.97397217 309.74838745 126.15563965 309.81195068 C121.02174598 310.20693626 115.88653831 310.57859315 110.75 310.9375 C109.17774658 311.04771484 109.17774658 311.04771484 107.57373047 311.16015625 C93.63994523 312.0958775 79.70976939 312.04952284 65.75 311.9375 C65.42 312.5975 65.09 313.2575 64.75 313.9375 C64.11860107 313.77523926 63.48720215 313.61297852 62.83666992 313.44580078 C58.66379472 312.75862795 54.58525821 312.79480451 50.36328125 312.8046875 C49.46506149 312.80373077 48.56684174 312.80277405 47.6414032 312.80178833 C45.74946014 312.80110965 43.85751472 312.80294213 41.96557617 312.80712891 C39.06228456 312.8125004 36.15914632 312.80716372 33.25585938 312.80078125 C31.41666632 312.80144172 29.57747337 312.80272223 27.73828125 312.8046875 C26.86746414 312.80266327 25.99664703 312.80063904 25.09944153 312.79855347 C20.78902575 312.68597348 20.78902575 312.68597348 16.75 313.9375 C16.75 313.2775 16.75 312.6175 16.75 311.9375 C15.55503906 311.94910156 14.36007812 311.96070313 13.12890625 311.97265625 C11.52344048 311.98228195 9.91797138 311.99136083 8.3125 312 C7.47936279 312.00765381 6.64622559 312.01530762 5.7878418 312.02319336 C4.96582275 312.02585205 4.14380371 312.02851074 3.296875 312.03125 C2.53987305 312.03576172 1.78287109 312.04027344 1.00292969 312.04492188 C-1.39284095 311.9306892 -3.59777531 311.51462443 -5.9375 311 C-10.87543759 310.30141581 -14.84238665 312.87460703 -19.11010742 315.03637695 C-41.11838433 326.00930377 -73.57133263 331.54258741 -97.453125 324.984375 C-103.5363523 322.70741283 -108.7269774 319.45020425 -113.4375 315 C-116.19080824 312.52703704 -116.19080824 312.52703704 -120.125 313.125 C-121.671875 313.5271875 -121.671875 313.5271875 -123.25 313.9375 C-123.25 313.6075 -123.25 313.2775 -123.25 312.9375 C-124.2387915 312.84774902 -125.22758301 312.75799805 -126.24633789 312.66552734 C-154.83893884 310.0317722 -182.86699372 306.53281299 -210.28320312 297.56738281 C-215.20624788 295.9907374 -220.25529953 294.49062565 -225.34375 293.55078125 C-227.25 292.9375 -227.25 292.9375 -228.56640625 291.6015625 C-231.04606261 289.15067246 -234.10131917 287.85539721 -237.1875 286.3125 C-253.41910426 277.90765264 -267.3985253 265.71805823 -277.81640625 250.67578125 C-279.22907652 248.64964745 -279.22907652 248.64964745 -282.25 247.9375 C-281.92 246.9475 -281.59 245.9575 -281.25 244.9375 C-282.25472143 242.38728062 -283.32201468 239.96776285 -284.5 237.5 C-296.993626 209.96108109 -295.88293464 175.82560013 -285.5 147.6875 C-277.57494291 127.26244291 -277.57494291 127.26244291 -273.25 122.9375 C-272.82250567 115.0288549 -273.31545929 107.08623039 -273.75 99.1875 C-276.55521095 45.46821664 -276.55521095 45.46821664 -263.25 28.9375 C-260.625 26.0625 -260.625 26.0625 -258.25 23.9375 C-257.59 23.9375 -256.93 23.9375 -256.25 23.9375 C-255.92 23.2775 -255.59 22.6175 -255.25 21.9375 C-244.4617904 21.08204726 -229.39848144 22.83851238 -220.25 28.9375 C-218.49291251 29.81816285 -216.72283341 30.67306332 -214.9453125 31.51171875 C-213.89287354 32.0116333 -212.84043457 32.51154785 -211.75610352 33.02661133 C-209.48333275 34.10104488 -207.21038055 35.17509473 -204.93725586 36.2487793 C-199.07057705 39.03960914 -193.39506159 41.93136531 -187.8125 45.25 C-182.09207759 48.34887783 -178.47704716 48.68177091 -172.25 46.9375 C-169.08679529 45.98202398 -165.92696861 45.01814316 -162.7746582 44.02734375 C-146.52042866 39.11723017 -128.27647383 35.72297791 -111.25 35.875 C-110.57066406 35.87951172 -109.89132812 35.88402344 -109.19140625 35.88867188 C-107.54423126 35.9002717 -105.89710274 35.91819801 -104.25 35.9375 C-103.92 35.2775 -103.59 34.6175 -103.25 33.9375 C-99.70835085 33.9082933 -96.16673303 33.89063186 -92.625 33.875 C-91.62597656 33.86662109 -90.62695312 33.85824219 -89.59765625 33.84960938 C-81.72967453 33.82355646 -81.72967453 33.82355646 -77.87890625 34.73828125 C-75.05868348 35.23491278 -75.05868348 35.23491278 -72.56640625 33.015625 C-71.20322266 31.61570312 -71.20322266 31.61570312 -69.8125 30.1875 C-55.84394726 16.49725809 -20.64443444 -12.49315973 0 0 Z M25.75 40.9375 C26.75 42.9375 26.75 42.9375 26.75 42.9375 Z " fill="#2E3037" transform="translate(499.25,374.0625)"/>
<path d="M0 0 C10.68552871 0.87557008 21.40373609 12.73454824 28.0390625 20.3359375 C37.40662537 32.75724333 41.17037288 47.58451716 40 63 C38.29751194 72.94827363 35.12120533 80.98563838 29 89 C28.13955078 90.15048828 28.13955078 90.15048828 27.26171875 91.32421875 C9.15599789 113.53958931 -23.17790011 122.47372357 -50.45214844 125.69091797 C-57.39867761 126.29608628 -64.34273777 126.40813316 -71.3125 126.4375 C-72.01410248 126.44376404 -72.71570496 126.45002808 -73.43856812 126.45648193 C-84.60774532 126.51974482 -94.38907314 125.20260438 -104.4375 120.0625 C-105.40558594 119.57910156 -106.37367188 119.09570312 -107.37109375 118.59765625 C-110 117 -110 117 -112.11328125 114.85546875 C-114.80592258 112.20742603 -117.33417138 112.28198682 -121 112 C-118 110 -118 110 -115 110 C-115.309375 109.2575 -115.61875 108.515 -115.9375 107.75 C-116.8244422 105.4543849 -117.50592579 103.399789 -118 101 C-118.2475 99.824375 -118.495 98.64875 -118.75 97.4375 C-119 94 -119 94 -117.6875 92.375 C-117.130625 91.92125 -116.57375 91.4675 -116 91 C-114.80972016 88.40084462 -114.80972016 88.40084462 -114 86 C-114.66 85.67 -115.32 85.34 -116 85 C-114.35 83.35 -112.7 81.7 -111 80 C-111 80.99 -111 81.98 -111 83 C-109.86874978 81.92319498 -108.74525081 80.83824365 -107.625 79.75 C-106.99851562 79.14671875 -106.37203125 78.5434375 -105.7265625 77.921875 C-104.00104052 76.00115823 -102 73.72953638 -102 71 C-103.32 70.67 -104.64 70.34 -106 70 C-99.81512761 67.78233471 -93.68563728 66.17446934 -87.2421875 64.9140625 C-85.38016933 64.53665071 -83.51819144 64.15904015 -81.65625 63.78125 C-78.77442015 63.20332206 -75.89204778 62.62837471 -73.00878906 62.05761719 C-49.36945606 57.358965 -24.29774164 51.58314666 -9 31.35546875 C-3.54401507 22.81737695 -2.76943112 14.9162166 -2.34375 4.9765625 C-2 2 -2 2 0 0 Z " fill="#282A30" transform="translate(793,565)"/>
<path d="M0 0 C1.27294922 0.17660156 2.54589844 0.35320312 3.85742188 0.53515625 C4.51782471 0.63618652 5.17822754 0.7372168 5.85864258 0.84130859 C7.8661888 1.14650414 9.87618112 1.42097242 11.88867188 1.69140625 C23.21913938 3.33051283 23.21913938 3.33051283 27.44140625 6.5234375 C28.56640625 9.8359375 28.56640625 9.8359375 28.44140625 13.5234375 C24.87216358 19.4311495 19.12144641 22.78808906 13.44140625 26.5234375 C12.45140625 27.1834375 11.46140625 27.8434375 10.44140625 28.5234375 C11.3334375 28.69359375 12.22546875 28.86375 13.14453125 29.0390625 C14.315 29.28140625 15.48546875 29.52375 16.69140625 29.7734375 C17.8515625 30.00546875 19.01171875 30.2375 20.20703125 30.4765625 C23.66003096 31.59420009 25.14411282 32.77123448 27.44140625 35.5234375 C26.83956876 37.54389192 26.16834529 39.54454789 25.44140625 41.5234375 C19.27435616 44.60696255 10.22440729 42.19884866 3.62890625 41.2109375 C2.80463135 41.09331055 1.98035645 40.97568359 1.13110352 40.85449219 C-3.31916547 40.14549548 -6.9494327 39.42083173 -10.55859375 36.5234375 C-11.26176578 32.92944715 -11.01881685 31.22594429 -9.0078125 28.15625 C-5.94711136 24.86611831 -2.5898792 22.66086536 1.19140625 20.2734375 C3.62777943 18.7152395 6.04015186 17.1362203 8.44140625 15.5234375 C8.44140625 15.1934375 8.44140625 14.8634375 8.44140625 14.5234375 C7.32121094 14.34167969 6.20101562 14.15992188 5.046875 13.97265625 C3.57411056 13.71937829 2.10146003 13.46543734 0.62890625 13.2109375 C-0.10908203 13.09298828 -0.84707031 12.97503906 -1.60742188 12.85351562 C-4.59246401 12.32674348 -7.04956472 11.88717281 -9.54296875 10.10546875 C-11.2133938 7.5034605 -10.99507785 5.51647135 -10.55859375 2.5234375 C-7.2130982 -1.02859506 -4.64294457 -0.6559668 0 0 Z " fill="#959494" transform="translate(645.55859375,329.4765625)"/>
<path d="M0 0 C1.99954746 -0.04254356 4.00041636 -0.04080783 6 0 C7 1 7 1 7.3125 4.1875 C6.94067306 8.7237887 5.91800518 10.54446755 3 14 C-2.88398497 18.44300906 -7.73670941 19.90362198 -15 19 C-17.43318688 18.04147184 -19.67368268 16.95237359 -21.95703125 15.6796875 C-24.00881739 14.76187394 -24.00881739 14.76187394 -26.0546875 15.75 C-26.69664062 16.1625 -27.33859375 16.575 -28 17 C-32.92624462 20.1602324 -35.96574146 21.95277766 -42 21 C-46.917577 18.78209096 -50.9367309 16.15817274 -53 11 C-53.3125 8.3125 -53.3125 8.3125 -53 6 C-52.34 5.34 -51.68 4.68 -51 4 C-48.625 4.0625 -48.625 4.0625 -46 5 C-45.360625 5.825 -44.72125 6.65 -44.0625 7.5 C-42.17161345 10.22882976 -42.17161345 10.22882976 -39 11.0625 C-35.9473861 11.28876685 -35.9473861 11.28876685 -33.8125 9.375 C-31.91180393 7.03800715 -31.91180393 7.03800715 -30.625 4.25 C-29 2 -29 2 -26.125 1.3125 C-21.80125984 2.26372284 -20.62536249 4.54557567 -18 8 C-15.29264489 10.14721267 -13.26819472 10.09208386 -9.9375 9.8125 C-7.57566579 9.4276085 -6.20043728 9.13132098 -4.1875 7.8125 C-2.55063507 5.31412721 -1.26184044 2.7039438 0 0 Z " fill="#F8E871" transform="translate(388,574)"/>
<path d="M0 0 C2 2 2 2 2.3125 5 C2.209375 5.99 2.10625 6.98 2 8 C-0.94411412 9.96274275 -2.13218266 10.35476652 -5.5 10.81640625 C-6.82209473 11.0023938 -6.82209473 11.0023938 -8.17089844 11.19213867 C-9.10450195 11.31435791 -10.03810547 11.43657715 -11 11.5625 C-11.95680664 11.69180908 -12.91361328 11.82111816 -13.89941406 11.9543457 C-16.59835449 12.31366801 -19.29857753 12.65990829 -22 13 C-23.06734375 13.13664063 -24.1346875 13.27328125 -25.234375 13.4140625 C-27.82709275 13.69587965 -30.39463431 13.87747935 -33 14 C-34.00619385 14.04882324 -34.00619385 14.04882324 -35.03271484 14.09863281 C-37.33428901 14.19707993 -39.63445725 14.25954259 -41.9375 14.3125 C-42.67258789 14.34239014 -43.40767578 14.37228027 -44.16503906 14.40307617 C-47.69822079 14.4410542 -49.63040982 14.27345068 -52.5078125 12.14453125 C-54 10 -54 10 -53.9375 7.375 C-53 5 -53 5 -50 3 C-47.16844629 2.62022044 -44.40733787 2.34432691 -41.5625 2.1484375 C-40.7271875 2.08467926 -39.891875 2.02092102 -39.03125 1.95523071 C-37.25958557 1.82179068 -35.48759522 1.69261975 -33.71533203 1.56738281 C-31.03725885 1.37763981 -28.36048738 1.17439871 -25.68359375 0.96875 C-4.72164075 -0.60599247 -4.72164075 -0.60599247 0 0 Z " fill="#F9E872" transform="translate(467,550)"/>
<path d="M0 0 C7.5723799 -1.02359205 15.67513792 -0.14424381 23 2 C24 3 24 3 24.375 5.7578125 C23.87469454 10.08337014 22.30856282 11.14543568 19 13.875 C18.071875 14.65617187 17.14375 15.43734375 16.1875 16.2421875 C15.1046875 17.11230469 15.1046875 17.11230469 14 18 C14.62648438 18.08636719 15.25296875 18.17273438 15.8984375 18.26171875 C18.36782875 18.68626709 20.64356842 19.14272416 23 20 C24.5625 22.625 24.5625 22.625 25 25 C23.38113538 26.96119941 22.54653264 27.92414953 19.97875977 28.28051758 C19.22393311 28.23564209 18.46910645 28.1907666 17.69140625 28.14453125 C16.86189453 28.09876953 16.03238281 28.05300781 15.17773438 28.00585938 C14.31470703 27.94205078 13.45167969 27.87824219 12.5625 27.8125 C11.70333984 27.76802734 10.84417969 27.72355469 9.95898438 27.67773438 C5.76471748 27.41416912 2.71506645 27.08686157 -1 25 C-1.4375 22.9375 -1.4375 22.9375 -1 20 C2.15268817 16.03091324 5.95957613 13.03031791 10 10 C6.37 9.34 2.74 8.68 -1 8 C-1.33 6.35 -1.66 4.7 -2 3 C-1.34 2.01 -0.68 1.02 0 0 Z " fill="#959493" transform="translate(603,370)"/>
<path d="M0 0 C2 2 2 2 2.4375 4.4375 C2 7 2 7 0.0703125 8.5859375 C-4.10973191 10.5110979 -8.00748205 10.82638071 -12.5625 11.1875 C-13.93631836 11.30484497 -13.93631836 11.30484497 -15.33789062 11.42456055 C-21.88712388 11.93839071 -28.43139992 12.23247707 -35 12.3125 C-36.24438843 12.33896606 -36.24438843 12.33896606 -37.51391602 12.3659668 C-42.13304516 12.3607129 -45.29230192 12.07628811 -49 9 C-49.5625 6.5 -49.5625 6.5 -49 4 C-45.70908732 0.70116457 -42.94106224 0.60024064 -38.3984375 0.5234375 C-37.10292969 0.4925 -35.80742187 0.4615625 -34.47265625 0.4296875 C-33.10678049 0.41074875 -31.74089465 0.39252395 -30.375 0.375 C-27.71598217 0.32622246 -25.05728851 0.26879578 -22.3984375 0.2109375 C-21.13225586 0.18394775 -19.86607422 0.15695801 -18.56152344 0.12915039 C-14.65743645 -0.01242227 -10.81576044 -0.34699143 -6.93994141 -0.82495117 C-4.43900339 -1.05062101 -2.37415308 -0.81611512 0 0 Z " fill="#F9E871" transform="translate(311,560)"/>
<path d="M0 0 C0.68384766 0.00902344 1.36769531 0.01804687 2.07226562 0.02734375 C3.73583287 0.05061042 5.39921631 0.08646833 7.0625 0.125 C3.79032037 1.92706994 0.53227883 2.88751859 -3.0625 3.875 C-11.65927149 6.47335003 -18.9714239 10.28155976 -24.9375 17.125 C-25.659375 17.95 -26.38125 18.775 -27.125 19.625 C-31.77182553 26.03441452 -31.42563012 32.47449907 -30.9375 40.125 C-30.46644889 42.62238302 -29.82611363 44.73685087 -28.9375 47.125 C-29.5975 46.795 -30.2575 46.465 -30.9375 46.125 C-32.44824473 45.98495247 -33.96426901 45.89943927 -35.48046875 45.84375 C-36.38990234 45.80636719 -37.29933594 45.76898437 -38.23632812 45.73046875 C-39.18958984 45.69566406 -40.14285156 45.66085937 -41.125 45.625 C-47.13100974 45.40117355 -53.00369893 45.10986325 -58.9375 44.125 C-58.9375 43.795 -58.9375 43.465 -58.9375 43.125 C-53.3275 43.125 -47.7175 43.125 -41.9375 43.125 C-42.02 41.165625 -42.1025 39.20625 -42.1875 37.1875 C-42.16446217 26.56706219 -37.58948794 19.01306606 -30.34765625 11.46875 C-21.90894894 3.68528349 -11.41350741 -0.20200898 0 0 Z " fill="#1A1B20" transform="translate(414.9375,639.875)"/>
<path d="M0 0 C0 0.33 0 0.66 0 1 C-3.63 1.66 -7.26 2.32 -11 3 C-10.01 3.33 -9.02 3.66 -8 4 C-6.87226833 6.57283046 -5.9673491 9.0194985 -5.125 11.6875 C-4.74190674 12.86928833 -4.74190674 12.86928833 -4.35107422 14.07495117 C-2.30725392 20.58290527 -0.65085314 27.16588371 0.875 33.8125 C1.0901123 34.74860107 1.30522461 35.68470215 1.52685547 36.64916992 C2.45572552 40.87057314 3.10845375 44.65945076 3 49 C-0.42618705 45.99040206 -1.82814907 43.48138764 -3.21875 39.16015625 C-3.59386719 38.01353516 -3.96898437 36.86691406 -4.35546875 35.68554688 C-4.92201172 33.89213867 -4.92201172 33.89213867 -5.5 32.0625 C-5.87769531 30.90169922 -6.25539063 29.74089844 -6.64453125 28.54492188 C-7.78115236 25.03545773 -8.89227654 21.51867966 -10 18 C-10.38671875 16.79972168 -10.7734375 15.59944336 -11.171875 14.36279297 C-11.72101562 12.63440186 -11.72101562 12.63440186 -12.28125 10.87109375 C-12.61189453 9.83782959 -12.94253906 8.80456543 -13.28320312 7.73999023 C-14 5 -14 5 -14 1 C-9.23692563 0.04738513 -4.8333472 -0.08333357 0 0 Z " fill="#1A1A1F" transform="translate(540,419)"/>
<path d="M0 0 C-0.66 0.66 -1.32 1.32 -2 2 C0.475 2.495 0.475 2.495 3 3 C0.35639348 5.64360652 -1.321688 5.49165552 -5.01171875 5.9296875 C-6.23793945 6.0831665 -7.46416016 6.23664551 -8.72753906 6.39477539 C-10.68771973 6.63248657 -10.68771973 6.63248657 -12.6875 6.875 C-23.07438084 8.20020634 -33.01899581 9.75316731 -43 13 C-43.95261719 13.30292969 -44.90523437 13.60585938 -45.88671875 13.91796875 C-47.93329477 14.5855349 -49.96871217 15.28726743 -52 16 C-50.68 14.68 -49.36 13.36 -48 12 C-49.98 12 -51.96 12 -54 12 C-50.99591071 8.99591071 -47.21686145 8.66595029 -43.1875 7.75 C-42.28346436 7.54036621 -41.37942871 7.33073242 -40.44799805 7.11474609 C-32.74077098 5.35055738 -25.01327514 3.67481909 -17.27749634 2.04064941 C-15.32579913 1.62781312 -13.37517392 1.20991952 -11.42456055 0.79199219 C-9.63078979 0.41929199 -9.63078979 0.41929199 -7.80078125 0.0390625 C-6.19456909 -0.29810791 -6.19456909 -0.29810791 -4.5559082 -0.64208984 C-2 -1 -2 -1 0 0 Z " fill="#17171C" transform="translate(741,624)"/>
<path d="M0 0 C0 0.33 0 0.66 0 1 C-14.01321782 3.15884511 -27.84297731 3.22187016 -42 3 C-42.33 3.66 -42.66 4.32 -43 5 C-43.57490173 4.83923477 -44.14980347 4.67846954 -44.74212646 4.51283264 C-46.93890785 4.01387591 -48.87840704 3.84446567 -51.12597656 3.79467773 C-52.32676849 3.7647599 -52.32676849 3.7647599 -53.55181885 3.73423767 C-54.83327789 3.70916893 -54.83327789 3.70916893 -56.140625 3.68359375 C-57.02280701 3.66281265 -57.90498901 3.64203156 -58.81390381 3.62062073 C-61.62585831 3.55535133 -64.43790445 3.49634553 -67.25 3.4375 C-69.15886356 3.39429327 -71.06771793 3.35067829 -72.9765625 3.30664062 C-77.65094826 3.19969313 -82.32542602 3.09836215 -87 3 C-87 2.67 -87 2.34 -87 2 C-78.31448394 1.7360406 -69.62888424 1.4750718 -60.94317055 1.21769714 C-56.90803324 1.09803888 -52.87292936 0.97743292 -48.83789062 0.85449219 C-14.51356667 -0.19003033 -14.51356667 -0.19003033 0 0 Z " fill="#060608" transform="translate(607,683)"/>
<path d="M0 0 C0.33 0 0.66 0 1 0 C1.33 1.98 1.66 3.96 2 6 C2.33 6 2.66 6 3 6 C3 15.9 3 25.8 3 36 C2.67 36 2.34 36 2 36 C1.67 40.29 1.34 44.58 1 49 C0.67 49 0.34 49 0 49 C-1.94334278 15.75495751 -1.94334278 15.75495751 0 0 Z " fill="#3B3C41" transform="translate(226,434)"/>
<path d="M0 0 C0.33 0 0.66 0 1 0 C1.33 1.98 1.66 3.96 2 6 C2.33 6 2.66 6 3 6 C3 13.59 3 21.18 3 29 C2.67 29 2.34 29 2 29 C1.505 31.475 1.505 31.475 1 34 C0.67 34 0.34 34 0 34 C-0.71442552 22.57729176 -1.37448837 11.39768051 0 0 Z " fill="#383A3F" transform="translate(207,550)"/>
<path d="M0 0 C-0.47308594 0.33209473 -0.94617188 0.66418945 -1.43359375 1.00634766 C-3.62331491 2.54459476 -5.81166067 4.08478779 -8 5.625 C-8.74378906 6.14707031 -9.48757813 6.66914063 -10.25390625 7.20703125 C-15.23749106 10.71720838 -20.1449749 14.31408346 -25 18 C-25 17.01 -25 16.02 -25 15 C-23.2281668 13.25814706 -21.49700157 11.72865679 -19.5625 10.1875 C-19.01916016 9.74752686 -18.47582031 9.30755371 -17.91601562 8.85424805 C-5.01200277 -1.47768117 -5.01200277 -1.47768117 0 0 Z " fill="#27292B" transform="translate(458,386)"/>
<path d="M0 0 C5.68468165 1.71862468 10.98423881 4.1641675 16.375 6.625 C17.30183594 7.04523437 18.22867187 7.46546875 19.18359375 7.8984375 C21.45694599 8.92964882 23.72902406 9.96356863 26 11 C26 11.33 26 11.66 26 12 C23.91587093 11.93976506 21.83255565 11.85091679 19.75 11.75 C18.58984375 11.70359375 17.4296875 11.6571875 16.234375 11.609375 C12.44516883 10.89546659 11.4976335 9.82640904 9 7 C6.94269171 5.86638115 4.86161263 4.9587305 2.70703125 4.02734375 C1 3 1 3 0 0 Z " fill="#28282B" transform="translate(260,657)"/>
<path d="M0 0 C-0.9590625 0.4640625 -0.9590625 0.4640625 -1.9375 0.9375 C-3.93610821 1.8345163 -3.93610821 1.8345163 -5 3 C-6.78291799 3.09973051 -8.56976477 3.13080625 -10.35546875 3.1328125 C-11.45310547 3.13410156 -12.55074219 3.13539063 -13.68164062 3.13671875 C-14.83857422 3.13285156 -15.99550781 3.12898437 -17.1875 3.125 C-18.32509766 3.12886719 -19.46269531 3.13273438 -20.63476562 3.13671875 C-22.29088867 3.13478516 -22.29088867 3.13478516 -23.98046875 3.1328125 C-24.99004639 3.13168457 -25.99962402 3.13055664 -27.03979492 3.12939453 C-30.09678953 2.9957692 -32.99490977 2.56315732 -36 2 C-36 1.67 -36 1.34 -36 1 C-31.83744602 0.85627913 -27.67484861 0.71390923 -23.51220703 0.57275391 C-22.09813205 0.52461656 -20.68406926 0.47611954 -19.27001953 0.42724609 C-17.22952375 0.356785 -15.18898663 0.28764671 -13.1484375 0.21875 C-11.31031494 0.1559082 -11.31031494 0.1559082 -9.43505859 0.09179688 C-6.28783926 0.00769208 -3.1481209 -0.01685741 0 0 Z " fill="#151519" transform="translate(744,688)"/>
<path d="M0 0 C1.87558594 0.14018555 1.87558594 0.14018555 3.7890625 0.28320312 C5.74199219 0.43885742 5.74199219 0.43885742 7.734375 0.59765625 C9.06505932 0.69915735 10.39578827 0.80007525 11.7265625 0.90039062 C14.97965163 1.14790828 18.23216482 1.40138573 21.484375 1.66015625 C21.484375 1.99015625 21.484375 2.32015625 21.484375 2.66015625 C20.69788574 2.6444458 19.91139648 2.62873535 19.10107422 2.61254883 C15.52058162 2.5499971 11.94020424 2.51110074 8.359375 2.47265625 C6.503125 2.43495117 6.503125 2.43495117 4.609375 2.39648438 C3.41054688 2.38681641 2.21171875 2.37714844 0.9765625 2.3671875 C-0.67303467 2.34362183 -0.67303467 2.34362183 -2.35595703 2.31958008 C-5.96553818 2.70865176 -8.33647795 3.96530921 -11.515625 5.66015625 C-13.890625 5.34765625 -13.890625 5.34765625 -15.515625 4.66015625 C-14.87625 4.37140625 -14.236875 4.08265625 -13.578125 3.78515625 C-11.36356421 2.83192174 -11.36356421 2.83192174 -10.515625 0.66015625 C-7.01945093 -0.70479548 -3.6851105 -0.28475854 0 0 Z " fill="#18191C" transform="translate(494.515625,682.33984375)"/>
<path d="M0 0 C6.91392331 0.93881954 11.52547951 5.43851274 16.078125 10.41796875 C15.748125 11.40796875 15.418125 12.39796875 15.078125 13.41796875 C14.60375 12.69609375 14.129375 11.97421875 13.640625 11.23046875 C9.22414583 6.38311356 5.02063068 3.66654368 -1.62109375 3.10546875 C-5.06922349 3.10546875 -8.48128091 3.19773157 -11.921875 3.41796875 C-8.66829261 -0.75727691 -4.9433812 -0.12537561 0 0 Z " fill="#242528" transform="translate(491.921875,371.58203125)"/>
<path d="M0 0 C1.16777492 3.53690297 0.89138151 6.40632688 0.44140625 10.078125 C0.30283203 11.23828125 0.16425781 12.3984375 0.02148438 13.59375 C-0.12998047 14.8003125 -0.28144531 16.006875 -0.4375 17.25 C-0.58509766 18.47203125 -0.73269531 19.6940625 -0.88476562 20.953125 C-1.25004194 23.96960038 -1.62202781 26.98509354 -2 30 C-2.33 30 -2.66 30 -3 30 C-3.05841253 26.45840343 -3.09373452 22.91693207 -3.125 19.375 C-3.14175781 18.37597656 -3.15851563 17.37695312 -3.17578125 16.34765625 C-3.21603847 10.26881628 -2.75726647 5.51453295 0 0 Z " fill="#18191C" transform="translate(230,418)"/>
<path d="M0 0 C-0.61875 0.268125 -1.2375 0.53625 -1.875 0.8125 C-4.2995233 1.95556848 -4.2995233 1.95556848 -6 5 C-3.85531351 7.14468649 0.58444894 6.7395788 3.5625 7.0625 C4.36880859 7.15337891 5.17511719 7.24425781 6.00585938 7.33789062 C8.00347377 7.56247449 10.0016856 7.78173236 12 8 C12 8.33 12 8.66 12 9 C9.24894578 9.10812003 6.50214913 9.18734945 3.75 9.25 C2.58404297 9.30027344 2.58404297 9.30027344 1.39453125 9.3515625 C-4.38760257 9.45040239 -4.38760257 9.45040239 -7.5546875 7.12109375 C-9 5 -9 5 -8.875 2.8125 C-7.05056775 -0.96668109 -3.72306027 -0.08093609 0 0 Z " fill="#E6DC74" transform="translate(422,555)"/>
<path d="M0 0 C-0.33 0.99 -0.66 1.98 -1 3 C-7.04320928 5.08765411 -12.65166295 5.23415997 -19 5 C-19.33 4.34 -19.66 3.68 -20 3 C-19.22914063 2.86722656 -18.45828125 2.73445313 -17.6640625 2.59765625 C-16.66117187 2.42105469 -15.65828125 2.24445313 -14.625 2.0625 C-13.62726563 1.88847656 -12.62953125 1.71445312 -11.6015625 1.53515625 C-3.796875 -0.0703125 -3.796875 -0.0703125 0 0 Z " fill="#26282C" transform="translate(336,420)"/>
<path d="M0 0 C0.67482422 0.51046875 0.67482422 0.51046875 1.36328125 1.03125 C7.192212 5.4233902 13.08913804 9.7189713 19 14 C17.21362305 14.63549805 17.21362305 14.63549805 15 15 C13.27661133 14.16723633 13.27661133 14.16723633 11.58203125 12.83203125 C10.66067383 12.10983398 10.66067383 12.10983398 9.72070312 11.37304688 C9.09099609 10.85806641 8.46128906 10.34308594 7.8125 9.8125 C7.17119141 9.31685547 6.52988281 8.82121094 5.86914062 8.31054688 C0.71561764 4.19099365 0.71561764 4.19099365 0 0 Z " fill="#242427" transform="translate(236,639)"/>
<path d="M0 0 C0.33 0.99 0.66 1.98 1 3 C4.3 3 7.6 3 11 3 C11 3.99 11 4.98 11 6 C10.67 5.67 10.34 5.34 10 5 C8.52236715 4.85496546 7.03843319 4.77290341 5.5546875 4.71875 C4.18570312 4.66267578 4.18570312 4.66267578 2.7890625 4.60546875 C1.34660156 4.55326172 1.34660156 4.55326172 -0.125 4.5 C-6.15172987 4.27648117 -12.04589086 3.98960263 -18 3 C-18 2.67 -18 2.34 -18 2 C-16.17662109 1.90912109 -16.17662109 1.90912109 -14.31640625 1.81640625 C-12.73175772 1.73201668 -11.14712298 1.6473679 -9.5625 1.5625 C-8.76005859 1.52318359 -7.95761719 1.48386719 -7.13085938 1.44335938 C-3.24760439 1.5945704 -3.24760439 1.5945704 0 0 Z " fill="#0C0D10" transform="translate(374,681)"/>
<path d="M0 0 C2.78296147 2.46728226 4.32710159 5.16642934 6.0625 8.4375 C6.82240234 9.85869141 6.82240234 9.85869141 7.59765625 11.30859375 C8.75447077 13.52877538 9.89107298 15.7556166 11 18 C7.5767866 16.5834979 6.17515341 14.93172851 4 12 C3.01 11.67 2.02 11.34 1 11 C1.33 10.01 1.66 9.02 2 8 C1.3507041 6.65812182 0.68268138 5.32520503 0 4 C0 2.68 0 1.36 0 0 Z " fill="#2B2B2E" transform="translate(216,611)"/>
<path d="M0 0 C4.67155643 0.49263686 7.09115745 2.36685304 10.625 5.375 C11.56601562 6.16648437 12.50703125 6.95796875 13.4765625 7.7734375 C15.3927258 9.46416982 17.23065104 11.15940209 19 13 C18.67 13.66 18.34 14.32 18 15 C15.56007605 13.06553688 13.1234982 11.12690353 10.6875 9.1875 C9.99720703 8.64029297 9.30691406 8.09308594 8.59570312 7.52929688 C7.92861328 6.99755859 7.26152344 6.46582031 6.57421875 5.91796875 C5.96151123 5.43094482 5.34880371 4.9439209 4.7175293 4.44213867 C3.04766185 3.04001969 1.51652407 1.56524774 0 0 Z " fill="#1E1F23" transform="translate(721,456)"/>
<path d="M0 0 C9.9 0 19.8 0 30 0 C30 0.33 30 0.66 30 1 C21.75 1 13.5 1 5 1 C4.67 1.66 4.34 2.32 4 3 C2.68 2.67 1.36 2.34 0 2 C0 1.34 0 0.68 0 0 Z " fill="#555558" transform="translate(560,685)"/>
<path d="M0 0 C0 0.33 0 0.66 0 1 C-1.27875 1.309375 -2.5575 1.61875 -3.875 1.9375 C-6.10101675 2.47605244 -7.94739999 2.9737 -10 4 C-10 3.34 -10 2.68 -10 2 C-15.94 2 -21.88 2 -28 2 C-28 1.67 -28 1.34 -28 1 C-9.17995444 -0.14806378 -9.17995444 -0.14806378 0 0 Z " fill="#3B3B40" transform="translate(526,684)"/>
<path d="M0 0 C3 1 3 1 4.82421875 4.08984375 C5.45565368 5.3673363 6.07636944 6.6501707 6.6875 7.9375 C7.00783203 8.58396484 7.32816406 9.23042969 7.65820312 9.89648438 C10 14.70490738 10 14.70490738 10 17 C9.34 17 8.68 17 8 17 C6.66161267 14.54429825 5.32913768 12.08570084 4 9.625 C3.6184375 8.92632813 3.236875 8.22765625 2.84375 7.5078125 C0 2.2265625 0 2.2265625 0 0 Z " fill="#242527" transform="translate(769,506)"/>
<path d="M0 0 C3.3287315 1.40691484 5.13167372 3.00691581 7.3125 5.875 C7.84488281 6.55304688 8.37726562 7.23109375 8.92578125 7.9296875 C10 10 10 10 9.66796875 12.2578125 C9.44753906 12.83273437 9.22710938 13.40765625 9 14 C7.49412261 12.04594482 5.99521356 10.08718716 4.5 8.125 C4.07074219 7.56941406 3.64148438 7.01382812 3.19921875 6.44140625 C0 2.2265625 0 2.2265625 0 0 Z " fill="#232428" transform="translate(757,489)"/>
<path d="M0 0 C3 1 3 1 4.421875 3.14453125 C4.86015625 4.02496094 5.2984375 4.90539062 5.75 5.8125 C6.19859375 6.68519531 6.6471875 7.55789063 7.109375 8.45703125 C8.06982104 11.19935744 8.02018585 12.3313431 7 15 C5.23772048 12.35658072 3.80128992 9.76922765 2.375 6.9375 C1.92898438 6.05964844 1.48296875 5.18179687 1.0234375 4.27734375 C0 2 0 2 0 0 Z " fill="#29292D" transform="translate(513,393)"/>
<path d="M0 0 C0.33 0 0.66 0 1 0 C2.9333722 11.48537938 2.9333722 11.48537938 -0.4375 16.75 C-1.26236194 17.85580947 -2.10652404 18.94885181 -3 20 C-3.6875 18.25 -3.6875 18.25 -4 16 C-3 14.66666667 -2 13.33333333 -1 12 C-0.42562939 8.96116319 -0.42562939 8.96116319 -0.3125 5.75 C-0.24675781 4.67234375 -0.18101562 3.5946875 -0.11328125 2.484375 C-0.07589844 1.66453125 -0.03851563 0.8446875 0 0 Z " fill="#16181B" transform="translate(228,484)"/>
<path d="M0 0 C5.66104589 0.49658297 9.87674471 1.54510684 15 4 C15 4.66 15 5.32 15 6 C9.45949887 5.43174347 4.96284034 3.37113483 0 1 C0 0.67 0 0.34 0 0 Z " fill="#27272B" transform="translate(676,433)"/>
<path d="M0 0 C5.94 0.33 11.88 0.66 18 1 C18 1.33 18 1.66 18 2 C5.625 2.495 5.625 2.495 -7 3 C-7 2.67 -7 2.34 -7 2 C-4.69 2 -2.38 2 0 2 C0 1.34 0 0.68 0 0 Z " fill="#49494C" transform="translate(607,682)"/>
<path d="M0 0 C1.99954746 -0.04254356 4.00041636 -0.04080783 6 0 C7 1 7 1 7.25 4.375 C7 8 7 8 4 11 C4.33 8.03 4.66 5.06 5 2 C0.88581247 2.55795583 0.88581247 2.55795583 -0.75 5.5625 C-1.1625 6.366875 -1.575 7.17125 -2 8 C-2.33 7.34 -2.66 6.68 -3 6 C-2.06553465 3.96855359 -1.06775224 1.96466413 0 0 Z " fill="#F9F585" transform="translate(388,574)"/>
<path d="M0 0 C3.66060821 0.58536753 5.54535164 2.083239 8.25 4.5625 C8.95640625 5.20316406 9.6628125 5.84382812 10.390625 6.50390625 C10.92171875 6.99761719 11.4528125 7.49132812 12 8 C11.67 8.99 11.34 9.98 11 11 C7.33333333 7.33333333 3.66666667 3.66666667 0 0 Z " fill="#212224" transform="translate(806,574)"/>
<path d="M0 0 C0.33 0.66 0.66 1.32 1 2 C1.99 2.33 2.98 2.66 4 3 C4 3.99 4 4.98 4 6 C5.65 6.33 7.3 6.66 9 7 C9 7.33 9 7.66 9 8 C6.69 8.33 4.38 8.66 2 9 C0.93347808 6.69631264 -0.06421005 4.35981813 -1 2 C-0.67 1.34 -0.34 0.68 0 0 Z M2 3 C3 5 3 5 3 5 Z " fill="#3D3D41" transform="translate(523,412)"/>
<path d="M0 0 C0.66 0.33 1.32 0.66 2 1 C2 1.99 2 2.98 2 4 C-6.42857143 6.28571429 -6.42857143 6.28571429 -11 6 C-9.68 5.67 -8.36 5.34 -7 5 C-7 4.34 -7 3.68 -7 3 C-5.68 3 -4.36 3 -3 3 C-3 2.34 -3 1.68 -3 1 C-2.01 0.67 -1.02 0.34 0 0 Z " fill="#36383C" transform="translate(765,682)"/>
<path d="M0 0 C0.66 0.33 1.32 0.66 2 1 C-0.16687491 3.27521866 -2.45620509 5.15794162 -5 7 C-5.66 6.67 -6.32 6.34 -7 6 C-7 5.01 -7 4.02 -7 3 C-4.69631264 1.93347808 -2.35981813 0.93578995 0 0 Z " fill="#2E3035" transform="translate(791,673)"/>
<path d="M0 0 C0 0.33 0 0.66 0 1 C-1.98 1 -3.96 1 -6 1 C-6 1.99 -6 2.98 -6 4 C-9.14624993 4.26218749 -10.61837017 4.24754367 -13.3125 2.5 C-13.869375 2.005 -14.42625 1.51 -15 1 C-9.91913204 0.15318867 -5.15171623 -0.09038099 0 0 Z " fill="#414347" transform="translate(380,411)"/>
<path d="M0 0 C0.99 0.33 1.98 0.66 3 1 C-1.455 4.465 -1.455 4.465 -6 8 C-6 7.01 -6 6.02 -6 5 C-3.1875 2.25 -3.1875 2.25 0 0 Z " fill="#1D1E21" transform="translate(439,396)"/>
<path d="M0 0 C0 0.66 0 1.32 0 2 C-2.99480917 2.8723412 -5.63575911 3.10829766 -8.75 3.0625 C-9.54921875 3.05347656 -10.3484375 3.04445313 -11.171875 3.03515625 C-11.77515625 3.02355469 -12.3784375 3.01195312 -13 3 C-8.49192825 0.69441653 -5.09714099 -0.14158725 0 0 Z " fill="#1E1E20" transform="translate(460,694)"/>
<path d="M0 0 C2.3125 -0.1875 2.3125 -0.1875 5 0 C5.99 0.99 6.98 1.98 8 3 C1.565 3.495 1.565 3.495 -5 4 C-3.68 3.34 -2.36 2.68 -1 2 C-0.67 1.34 -0.34 0.68 0 0 Z " fill="#3C3D41" transform="translate(745,686)"/>
<path d="M0 0 C-1.3809002 3.33717549 -2.8201238 5.22301036 -6 7 C-8.1328125 6.57421875 -8.1328125 6.57421875 -10 6 C-8.71283353 4.99421411 -7.42011342 3.99553202 -6.125 3 C-5.40570312 2.443125 -4.68640625 1.88625 -3.9453125 1.3125 C-2 0 -2 0 0 0 Z " fill="#1F1F22" transform="translate(811,663)"/>
<path d="M0 0 C3.91211733 1.15585285 6.8745041 2.35534962 10 5 C7 6 7 6 3.875 4.75 C1 3 1 3 0 0 Z " fill="#202024" transform="translate(260,657)"/>
<path d="M0 0 C0.66 0 1.32 0 2 0 C2.8723412 2.99480917 3.10829766 5.63575911 3.0625 8.75 C3.05347656 9.54921875 3.04445313 10.3484375 3.03515625 11.171875 C3.01775391 12.07679688 3.01775391 12.07679688 3 13 C2.67 13 2.34 13 2 13 C-0.28571429 4.57142857 -0.28571429 4.57142857 0 0 Z " fill="#202125" transform="translate(788,552)"/>
<path d="M0 0 C0.91007813 0.10183594 1.82015625 0.20367187 2.7578125 0.30859375 C3.45648437 0.39238281 4.15515625 0.47617187 4.875 0.5625 C4.875 0.8925 4.875 1.2225 4.875 1.5625 C0.790021 2.10716387 -2.9975485 2.5625 -7.125 2.5625 C-7.125 1.9025 -7.125 1.2425 -7.125 0.5625 C-4.50184968 -0.74907516 -2.89466564 -0.33399988 0 0 Z " fill="#3A3B3F" transform="translate(639.125,421.4375)"/>
<path d="M0 0 C0 0.99 0 1.98 0 3 C-3.63 2.67 -7.26 2.34 -11 2 C-11 1.67 -11 1.34 -11 1 C-7.27569643 0.30710631 -3.78916254 -0.11144596 0 0 Z " fill="#F2DF6A" transform="translate(466,557)"/>
<path d="M0 0 C0.66 0.33 1.32 0.66 2 1 C2 1.99 2 2.98 2 4 C0.1875 4.625 0.1875 4.625 -2 5 C-2.99 4.34 -3.98 3.68 -5 3 C-2.625 1.4375 -2.625 1.4375 0 0 Z " fill="#2F3034" transform="translate(800,668)"/>
<path d="M0 0 C-0.598125 0.268125 -1.19625 0.53625 -1.8125 0.8125 C-4.04327908 1.8893979 -4.04327908 1.8893979 -5.625 3.625 C-6.07875 4.07875 -6.5325 4.5325 -7 5 C-7.66 5 -8.32 5 -9 5 C-8.625 3.0625 -8.625 3.0625 -8 1 C-5.29120665 -0.35439668 -2.99066732 -0.06501451 0 0 Z " fill="#F0DD6C" transform="translate(422,555)"/>
<path d="M0 0 C0.8125 1.6875 0.8125 1.6875 1 4 C-1.4375 6.75 -1.4375 6.75 -4 9 C-3.35455571 5.51460083 -1.89865603 2.97180943 0 0 Z " fill="#1A1B1E" transform="translate(824,646)"/>
<path d="M0 0 C3.99996286 1.33332095 4.83782337 3.4957827 7 7 C4.20171644 6.61402985 3.1794116 6.19863427 1.25 4.0625 C0 2 0 2 0 0 Z " fill="#1C1C1E" transform="translate(228,631)"/>
<path d="M0 0 C1.70884005 1.62339805 3.37446717 3.29319053 5 5 C5 5.66 5 6.32 5 7 C1.63279613 5.60667426 0.0140476 4.0210714 -2 1 C-1.34 0.67 -0.68 0.34 0 0 Z " fill="#242527" transform="translate(222,622)"/>
<path d="M0 0 C3.68754757 0.49831724 5.60490662 1.10067643 8 4 C7.01 4.33 6.02 4.66 5 5 C3.35 3.35 1.7 1.7 0 0 Z " fill="#2B2A2F" transform="translate(715,452)"/>
<path d="M0 0 C0.78375 0.04125 1.5675 0.0825 2.375 0.125 C-0.50535092 2.36527294 -3.47366512 4.28672132 -6.625 6.125 C-3.85227273 0.18344156 -3.85227273 0.18344156 0 0 Z " fill="#191A1D" transform="translate(243.625,397.875)"/>
<path d="M0 0 C2.64 0 5.28 0 8 0 C8 0.33 8 0.66 8 1 C5.36 1 2.72 1 0 1 C0 0.67 0 0.34 0 0 Z " fill="#4D4C50" transform="translate(576,687)"/>
<path d="M0 0 C1.98 0.99 1.98 0.99 4 2 C3.01 2.33 2.02 2.66 1 3 C0.67 2.01 0.34 1.02 0 0 Z " fill="#47484A" transform="translate(384,689)"/>
<path d="M0 0 C2.31 0 4.62 0 7 0 C7 0.33 7 0.66 7 1 C4.69 1 2.38 1 0 1 C0 0.67 0 0.34 0 0 Z " fill="#4B494E" transform="translate(505,687)"/>
<path d="M0 0 C1.98 0 3.96 0 6 0 C5.34 0.66 4.68 1.32 4 2 C2.68 1.34 1.36 0.68 0 0 Z " fill="#4D4D4F" transform="translate(600,686)"/>
<path d="M0 0 C0.33 0 0.66 0 1 0 C1 2.31 1 4.62 1 7 C0.67 7 0.34 7 0 7 C0 4.69 0 2.38 0 0 Z " fill="#555558" transform="translate(224,433)"/>
<path d="M0 0 C0.33 0 0.66 0 1 0 C1 1.98 1 3.96 1 6 C0.67 6 0.34 6 0 6 C0 4.02 0 2.04 0 0 Z " fill="#535355" transform="translate(224,469)"/>
<path d="M0 0 C2.475 0.495 2.475 0.495 5 1 C3.68 1.33 2.36 1.66 1 2 C0.67 1.34 0.34 0.68 0 0 Z " fill="#525255" transform="translate(528,416)"/>
<path d="M0 0 C0.33 0 0.66 0 1 0 C1 1.65 1 3.3 1 5 C0.67 5 0.34 5 0 5 C0 3.35 0 1.7 0 0 Z " fill="#545457" transform="translate(224,476)"/>
<path d="M0 0 C4 1 4 1 4 1 Z " fill="#4C4A4D" transform="translate(371,687)"/>
<path d="M0 0 C0.66 0 1.32 0 2 0 C1.67 0.99 1.34 1.98 1 3 C0.67 2.01 0.34 1.02 0 0 Z " fill="#545456" transform="translate(224,484)"/>
<path d="M0 0 C1 4 1 4 1 4 Z " fill="#545558" transform="translate(225,426)"/>
<path d="M0 0 C3 1 3 1 3 1 Z " fill="#4C4D4E" transform="translate(408,701)"/>
<path d="M0 0 C0.99 0.495 0.99 0.495 2 1 C1.01 1.495 1.01 1.495 0 2 C0 1.34 0 0.68 0 0 Z " fill="#4C4C4E" transform="translate(403,700)"/>
<path d="M0 0 C3 1 3 1 3 1 Z " fill="#4B4B4F" transform="translate(572,687)"/>
<path d="M0 0 C3 1 3 1 3 1 Z " fill="#4D4B4F" transform="translate(568,687)"/>
<path d="" fill="#524F52" transform="translate(0,0)"/>
<path d="M0 0 C0.66 0 1.32 0 2 0 C1.67 0.66 1.34 1.32 1 2 C0.67 1.34 0.34 0.68 0 0 Z " fill="#404043" transform="translate(813,576)"/>
<path d="M0 0 C3 1 3 1 3 1 Z " fill="#565559" transform="translate(536,416)"/>
<path d="M0 0 C3 1 3 1 3 1 Z " fill="#555558" transform="translate(336,416)"/>
<path d="M0 0 C3 1 3 1 3 1 Z " fill="#505054" transform="translate(421,408)"/>
<path d="M0 0 C3 1 3 1 3 1 Z " fill="#575759" transform="translate(384,408)"/>
<path d="M0 0 C3 1 3 1 3 1 Z " fill="#939493" transform="translate(613,368)"/>
<path d="M0 0 C3 1 3 1 3 1 Z " fill="#929190" transform="translate(643,328)"/>
<path d="M0 0 C2 1 2 1 2 1 Z " fill="#48484C" transform="translate(464,695)"/>
<path d="M0 0 C2 1 2 1 2 1 Z " fill="#49494D" transform="translate(385,693)"/>
<path d="M0 0 C2 1 2 1 2 1 Z " fill="#4A4A4D" transform="translate(733,692)"/>
<path d="M0 0 C2 1 2 1 2 1 Z " fill="#4C4C4D" transform="translate(595,686)"/>
<path d="M0 0 C2 1 2 1 2 1 Z " fill="#4C4A4E" transform="translate(355,686)"/>
<path d="M0 0 C2 1 2 1 2 1 Z " fill="#4E4E51" transform="translate(307,678)"/>
<path d="M0 0 C2 1 2 1 2 1 Z " fill="#4B494C" transform="translate(305,677)"/>
<path d="M0 0 C2 1 2 1 2 1 Z " fill="#4D4C4D" transform="translate(301,676)"/>
<path d="M0 0 C2 1 2 1 2 1 Z " fill="#4F4E50" transform="translate(284,671)"/>
<path d="M0 0 C2 1 2 1 2 1 Z " fill="#4D4C50" transform="translate(276,668)"/>
<path d="" fill="#4B494C" transform="translate(0,0)"/>
<path d="" fill="#505052" transform="translate(0,0)"/>
<path d="" fill="#545356" transform="translate(0,0)"/>
<path d="" fill="#4C4C4D" transform="translate(0,0)"/>
<path d="" fill="#505153" transform="translate(0,0)"/>
<path d="" fill="#58575A" transform="translate(0,0)"/>
<path d="" fill="#545356" transform="translate(0,0)"/>
<path d="M0 0 C2 1 2 1 2 1 Z " fill="#666568" transform="translate(625,417)"/>
<path d="M0 0 C2 1 2 1 2 1 Z " fill="#636467" transform="translate(613,416)"/>
<path d="M0 0 C2 1 2 1 2 1 Z " fill="#525355" transform="translate(533,416)"/>
<path d="M0 0 C2 1 2 1 2 1 Z " fill="#878584" transform="translate(620,399)"/>
<path d="M0 0 C2 1 2 1 2 1 Z " fill="#565658" transform="translate(251,394)"/>
<path d="M0 0 C2 1 2 1 2 1 Z " fill="#909092" transform="translate(664,373)"/>
<path d="M0 0 C2 1 2 1 2 1 Z " fill="#939291" transform="translate(653,372)"/>
<path d="M0 0 C2 1 2 1 2 1 Z " fill="#969595" transform="translate(646,371)"/>
<path d="M0 0 C2 1 2 1 2 1 Z " fill="#939293" transform="translate(609,368)"/>
<path d="" fill="#959494" transform="translate(0,0)"/>
<path d="M0 0 C2 1 2 1 2 1 Z " fill="#979794" transform="translate(640,352)"/>
<path d="" fill="#919191" transform="translate(0,0)"/>
<path d="" fill="#474747" transform="translate(0,0)"/>
<path d="" fill="#525351" transform="translate(0,0)"/>
<path d="" fill="#4D4D4E" transform="translate(0,0)"/>
<path d="" fill="#4E4E51" transform="translate(0,0)"/>
<path d="" fill="#4D4F52" transform="translate(0,0)"/>
<path d="" fill="#4F4F51" transform="translate(0,0)"/>
<path d="" fill="#4D4E4E" transform="translate(0,0)"/>
<path d="" fill="#4C4C4F" transform="translate(0,0)"/>
<path d="" fill="#4D4C50" transform="translate(0,0)"/>
<path d="" fill="#504F52" transform="translate(0,0)"/>
<path d="" fill="#4B4C4E" transform="translate(0,0)"/>
<path d="" fill="#4B4D4D" transform="translate(0,0)"/>
<path d="" fill="#4A494C" transform="translate(0,0)"/>
<path d="" fill="#4B4A4D" transform="translate(0,0)"/>
<path d="" fill="#454449" transform="translate(0,0)"/>
<path d="" fill="#4B4A4F" transform="translate(0,0)"/>
<path d="" fill="#4C4A4D" transform="translate(0,0)"/>
<path d="" fill="#4C4C50" transform="translate(0,0)"/>
<path d="" fill="#4C4B4F" transform="translate(0,0)"/>
<path d="" fill="#4A4A4D" transform="translate(0,0)"/>
<path d="" fill="#4A494E" transform="translate(0,0)"/>
<path d="" fill="#494A4A" transform="translate(0,0)"/>
<path d="" fill="#46474B" transform="translate(0,0)"/>
<path d="" fill="#4F5053" transform="translate(0,0)"/>
<path d="" fill="#4F4E51" transform="translate(0,0)"/>
<path d="" fill="#4B4C4E" transform="translate(0,0)"/>
<path d="" fill="#4F4E52" transform="translate(0,0)"/>
<path d="" fill="#504D51" transform="translate(0,0)"/>
<path d="" fill="#4D4E51" transform="translate(0,0)"/>
<path d="" fill="#4A4A4C" transform="translate(0,0)"/>
<path d="" fill="#48484D" transform="translate(0,0)"/>
<path d="" fill="#4E4D51" transform="translate(0,0)"/>
<path d="" fill="#4C4C4D" transform="translate(0,0)"/>
<path d="" fill="#4F4F51" transform="translate(0,0)"/>
<path d="" fill="#4A4A4D" transform="translate(0,0)"/>
<path d="" fill="#494A4E" transform="translate(0,0)"/>
<path d="" fill="#48484C" transform="translate(0,0)"/>
<path d="" fill="#535152" transform="translate(0,0)"/>
<path d="" fill="#515153" transform="translate(0,0)"/>
<path d="" fill="#4F5054" transform="translate(0,0)"/>
<path d="" fill="#4E4E51" transform="translate(0,0)"/>
<path d="" fill="#535355" transform="translate(0,0)"/>
<path d="" fill="#585358" transform="translate(0,0)"/>
<path d="" fill="#515154" transform="translate(0,0)"/>
<path d="" fill="#47494B" transform="translate(0,0)"/>
<path d="" fill="#515255" transform="translate(0,0)"/>
<path d="" fill="#494A4E" transform="translate(0,0)"/>
<path d="" fill="#464749" transform="translate(0,0)"/>
<path d="" fill="#4B4C4C" transform="translate(0,0)"/>
<path d="" fill="#454548" transform="translate(0,0)"/>
<path d="" fill="#464848" transform="translate(0,0)"/>
<path d="" fill="#444547" transform="translate(0,0)"/>
<path d="" fill="#424245" transform="translate(0,0)"/>
<path d="" fill="#464647" transform="translate(0,0)"/>
<path d="" fill="#46474A" transform="translate(0,0)"/>
<path d="" fill="#4A494B" transform="translate(0,0)"/>
<path d="" fill="#4C4B4E" transform="translate(0,0)"/>
<path d="" fill="#4D4C52" transform="translate(0,0)"/>
<path d="" fill="#4D4E50" transform="translate(0,0)"/>
<path d="" fill="#555556" transform="translate(0,0)"/>
<path d="" fill="#515254" transform="translate(0,0)"/>
<path d="" fill="#555659" transform="translate(0,0)"/>
<path d="" fill="#504E51" transform="translate(0,0)"/>
<path d="" fill="#535353" transform="translate(0,0)"/>
<path d="" fill="#4F4D51" transform="translate(0,0)"/>
<path d="" fill="#565458" transform="translate(0,0)"/>
<path d="" fill="#555456" transform="translate(0,0)"/>
<path d="" fill="#535356" transform="translate(0,0)"/>
<path d="" fill="#545657" transform="translate(0,0)"/>
<path d="" fill="#514F52" transform="translate(0,0)"/>
<path d="" fill="#535253" transform="translate(0,0)"/>
<path d="" fill="#525457" transform="translate(0,0)"/>
<path d="" fill="#545556" transform="translate(0,0)"/>
<path d="" fill="#515153" transform="translate(0,0)"/>
<path d="" fill="#535256" transform="translate(0,0)"/>
<path d="" fill="#545353" transform="translate(0,0)"/>
<path d="" fill="#535559" transform="translate(0,0)"/>
<path d="" fill="#575659" transform="translate(0,0)"/>
<path d="" fill="#5B5D5C" transform="translate(0,0)"/>
<path d="" fill="#5C5C5D" transform="translate(0,0)"/>
<path d="" fill="#5A5B5D" transform="translate(0,0)"/>
<path d="" fill="#5A5B5D" transform="translate(0,0)"/>
<path d="" fill="#505154" transform="translate(0,0)"/>
<path d="" fill="#5B5E61" transform="translate(0,0)"/>
<path d="" fill="#5C5D5E" transform="translate(0,0)"/>
<path d="" fill="#535457" transform="translate(0,0)"/>
<path d="" fill="#676669" transform="translate(0,0)"/>
<path d="" fill="#555557" transform="translate(0,0)"/>
<path d="" fill="#525157" transform="translate(0,0)"/>
<path d="" fill="#515356" transform="translate(0,0)"/>
<path d="" fill="#515156" transform="translate(0,0)"/>
<path d="" fill="#67686C" transform="translate(0,0)"/>
<path d="" fill="#57585A" transform="translate(0,0)"/>
<path d="" fill="#555457" transform="translate(0,0)"/>
<path d="" fill="#525254" transform="translate(0,0)"/>
<path d="" fill="#555657" transform="translate(0,0)"/>
<path d="" fill="#59585A" transform="translate(0,0)"/>
<path d="" fill="#565759" transform="translate(0,0)"/>
<path d="" fill="#4F5056" transform="translate(0,0)"/>
<path d="" fill="#545457" transform="translate(0,0)"/>
<path d="" fill="#545458" transform="translate(0,0)"/>
<path d="" fill="#555658" transform="translate(0,0)"/>
<path d="" fill="#4E4E52" transform="translate(0,0)"/>
<path d="" fill="#545455" transform="translate(0,0)"/>
<path d="" fill="#575759" transform="translate(0,0)"/>
<path d="" fill="#57575A" transform="translate(0,0)"/>
<path d="" fill="#565458" transform="translate(0,0)"/>
<path d="" fill="#505153" transform="translate(0,0)"/>
<path d="" fill="#515254" transform="translate(0,0)"/>
<path d="" fill="#535256" transform="translate(0,0)"/>
<path d="" fill="#868686" transform="translate(0,0)"/>
<path d="" fill="#555658" transform="translate(0,0)"/>
<path d="" fill="#575659" transform="translate(0,0)"/>
<path d="" fill="#585A5D" transform="translate(0,0)"/>
<path d="" fill="#565758" transform="translate(0,0)"/>
<path d="" fill="#595A5B" transform="translate(0,0)"/>
<path d="" fill="#55585B" transform="translate(0,0)"/>
<path d="" fill="#545657" transform="translate(0,0)"/>
<path d="" fill="#58595A" transform="translate(0,0)"/>
<path d="" fill="#55555B" transform="translate(0,0)"/>
<path d="" fill="#575659" transform="translate(0,0)"/>
<path d="" fill="#5B5A5E" transform="translate(0,0)"/>
<path d="" fill="#5A5B5E" transform="translate(0,0)"/>
<path d="" fill="#59595C" transform="translate(0,0)"/>
<path d="" fill="#585A5B" transform="translate(0,0)"/>
<path d="" fill="#969694" transform="translate(0,0)"/>
<path d="" fill="#949596" transform="translate(0,0)"/>
<path d="" fill="#535455" transform="translate(0,0)"/>
<path d="" fill="#999798" transform="translate(0,0)"/>
<path d="" fill="#979596" transform="translate(0,0)"/>
<path d="" fill="#9A9999" transform="translate(0,0)"/>
<path d="" fill="#9A9999" transform="translate(0,0)"/>
<path d="" fill="#919191" transform="translate(0,0)"/>
<path d="" fill="#5C5C5C" transform="translate(0,0)"/>
<path d="" fill="#939492" transform="translate(0,0)"/>
<path d="" fill="#535354" transform="translate(0,0)"/>
<path d="" fill="#4F4E4E" transform="translate(0,0)"/>
</svg>
