<?xml version="1.0" encoding="UTF-8"?>
<svg version="1.1" xmlns="http://www.w3.org/2000/svg" width="1024" height="1024">
<path d="M0 0 C16.62434239 14.63191184 23.81819844 42.05628481 29.0859375 62.8359375 C29.0859375 63.8259375 29.0859375 64.8159375 29.0859375 65.8359375 C29.7459375 66.1659375 30.4059375 66.4959375 31.0859375 66.8359375 C31.0859375 69.1459375 31.0859375 71.4559375 31.0859375 73.8359375 C31.72390762 73.82927567 32.36187775 73.82261383 33.0191803 73.81575012 C39.78641608 73.74828912 46.55355335 73.70368903 53.32104492 73.67114258 C55.83150118 73.65624991 58.34193236 73.63592905 60.85229492 73.60961914 C81.09659166 73.40308601 101.00788496 74.16397922 120.6484375 79.5234375 C128.24732393 81.54175892 128.24732393 81.54175892 136.0859375 81.8359375 C136.4159375 82.4959375 136.7459375 83.1559375 137.0859375 83.8359375 C139.53576654 84.7903374 141.96489163 85.6447631 144.4609375 86.4609375 C152.11794645 89.04519866 159.53056528 92.04297933 166.92724609 95.29541016 C167.68859863 95.62589355 168.44995117 95.95637695 169.234375 96.296875 C169.90645996 96.59384277 170.57854492 96.89081055 171.27099609 97.19677734 C173.23684766 98.00202232 173.23684766 98.00202232 176.0859375 97.8359375 C176.4159375 98.8259375 176.7459375 99.8159375 177.0859375 100.8359375 C178.62167139 102.03776815 178.62167139 102.03776815 180.55078125 103.03515625 C181.26322998 103.43524902 181.97567871 103.8353418 182.7097168 104.24755859 C183.47324463 104.66859863 184.23677246 105.08963867 185.0234375 105.5234375 C191.91528618 109.4569489 198.077142 113.62955879 204.0859375 118.8359375 C205.19375502 119.751887 206.30325192 120.66580763 207.4140625 121.578125 C225.56347346 136.61004353 240.41512412 154.78933062 251.0859375 175.8359375 C251.64925781 176.94582031 252.21257813 178.05570313 252.79296875 179.19921875 C257.9678017 189.92880909 261.58610736 201.05585514 264.2109375 212.6484375 C264.38496094 213.39488525 264.55898438 214.14133301 264.73828125 214.91040039 C265.61201821 218.86549943 266.18559558 222.649881 266.3671875 226.69921875 C266.69739005 233.53075108 266.69739005 233.53075108 269.0859375 239.8359375 C273.65883113 243.65707236 279.37950974 245.49831327 285.02709961 247.16015625 C287.1765825 247.8656903 289.07299838 248.8099236 291.0859375 249.8359375 C292.0759375 250.1659375 293.0659375 250.4959375 294.0859375 250.8359375 C293.7559375 251.1659375 293.4259375 251.4959375 293.0859375 251.8359375 C293.715 252.28582031 294.3440625 252.73570312 294.9921875 253.19921875 C307.61234081 262.68333999 315.30095419 275.01083031 317.5859375 290.7109375 C318.82002389 301.02005873 316.44138395 310.50283796 312.0859375 319.8359375 C312.0859375 320.8259375 312.0859375 321.8159375 312.0859375 322.8359375 C310.4837941 324.56472091 308.80197905 326.22015381 307.0859375 327.8359375 C306.12149802 328.84707546 305.16333758 329.86423278 304.2109375 330.88671875 C297.1873149 338.28036086 290.22442047 344.10481432 281.0859375 348.8359375 C280.49506348 349.14225098 279.90418945 349.44856445 279.29541016 349.76416016 C260.6669967 359.19907467 240.76054719 362.03451262 220.0859375 361.9609375 C218.96832031 361.96480469 217.85070312 361.96867187 216.69921875 361.97265625 C215.63058594 361.97136719 214.56195312 361.97007812 213.4609375 361.96875 C212.01847656 361.96705811 212.01847656 361.96705811 210.546875 361.96533203 C208.0859375 361.8359375 208.0859375 361.8359375 205.0859375 360.8359375 C204.4259375 360.8359375 203.7659375 360.8359375 203.0859375 360.8359375 C203.0859375 360.1759375 203.0859375 359.5159375 203.0859375 358.8359375 C202.2609375 358.7534375 201.4359375 358.6709375 200.5859375 358.5859375 C195.65751125 357.52984616 191.09596553 355.57338955 187.25465393 352.25299072 C184.60896019 350.52427746 183.5451171 350.60432372 180.45678711 351.03027344 C179.54581772 351.14739685 178.63484833 351.26452026 177.6962738 351.38519287 C176.72013626 351.52878235 175.74399872 351.67237183 174.73828125 351.8203125 C173.73003799 351.95536194 172.72179474 352.09041138 171.68299866 352.22955322 C168.46069663 352.66553163 165.24236625 353.12578175 162.0234375 353.5859375 C159.85111797 353.88172894 157.67859328 354.17601786 155.50585938 354.46875 C151.53121803 355.01177048 147.55691865 355.55651359 143.58569336 356.12402344 C142.78723495 356.2374408 141.98877655 356.35085815 141.16612244 356.4677124 C138.90097889 356.81646488 138.90097889 356.81646488 136.0859375 357.8359375 C133.31098645 358.04826107 130.55251129 358.21236681 127.7734375 358.3359375 C126.94255615 358.37581787 126.1116748 358.41569824 125.25561523 358.45678711 C123.46769878 358.54191019 121.67968907 358.62509204 119.89160156 358.70654297 C117.04714308 358.83772666 114.2032856 358.97856 111.359375 359.12109375 C65.88147191 361.36629377 65.88147191 361.36629377 50.0859375 350.8359375 C47.27433207 350.50619326 47.27433207 350.50619326 44.03710938 350.51708984 C42.77877792 350.49722519 41.52044647 350.47736053 40.22398376 350.45689392 C38.83422046 350.4449719 37.44445493 350.43330682 36.0546875 350.421875 C34.60473111 350.40304513 33.15478484 350.38342081 31.70484924 350.36305237 C27.80593213 350.31098047 23.90698103 350.27153955 20.00789261 350.23484421 C16.78667331 350.2030481 13.56555799 350.16402377 10.34441853 350.12507534 C-17.07473857 349.79569281 -44.49315319 349.71353113 -71.9140625 349.8359375 C-72.2440625 350.4959375 -72.5740625 351.1559375 -72.9140625 351.8359375 C-72.9140625 351.1759375 -72.9140625 350.5159375 -72.9140625 349.8359375 C-77.89559944 349.8057023 -82.87416562 349.82157668 -87.85546875 349.87866211 C-89.54682461 349.89173461 -91.23832357 349.89259792 -92.9296875 349.88061523 C-104.07813145 349.39048094 -104.07813145 349.39048094 -113.65234375 354.15625 C-114.74647193 355.37667165 -115.83440257 356.6026979 -116.9140625 357.8359375 C-128.38767178 365.96487205 -141.44634568 367.9861403 -155.12890625 365.79296875 C-163.05501449 363.78894758 -170.74927186 360.28612315 -176.5390625 354.3984375 C-179.43617257 351.67386004 -181.40835344 351.51731405 -185.3515625 351.5859375 C-186.36605469 351.64265625 -187.38054687 351.699375 -188.42578125 351.7578125 C-192.59008385 351.85107796 -196.54439781 351.39394693 -200.6640625 350.8359375 C-201.73805298 350.69236816 -201.73805298 350.69236816 -202.83374023 350.54589844 C-204.52802147 350.31533901 -206.22117974 350.07655028 -207.9140625 349.8359375 C-207.9140625 349.1759375 -207.9140625 348.5159375 -207.9140625 347.8359375 C-208.5946875 347.6709375 -209.2753125 347.5059375 -209.9765625 347.3359375 C-214.32756426 345.11414937 -216.83948686 341.55330856 -219.9140625 337.8359375 C-220.5740625 337.1759375 -221.2340625 336.5159375 -221.9140625 335.8359375 C-223.9140625 333.8359375 -223.9140625 333.8359375 -224.1796875 330.82421875 C-224.17453125 329.61121094 -224.169375 328.39820313 -224.1640625 327.1484375 C-224.17179687 325.34826172 -224.17179687 325.34826172 -224.1796875 323.51171875 C-223.90123389 319.65841213 -223.10498726 316.50593012 -221.9140625 312.8359375 C-221.70523438 312.19068115 -221.49640625 311.5454248 -221.28125 310.88061523 C-220.62872522 308.88250085 -219.96137665 306.88997274 -219.2890625 304.8984375 C-219.05960937 304.21458984 -218.83015625 303.53074219 -218.59375 302.82617188 C-218.03524516 301.16229286 -217.47485371 299.49904731 -216.9140625 297.8359375 C-220.8740625 296.1859375 -224.8340625 294.5359375 -228.9140625 292.8359375 C-229.2440625 293.4959375 -229.5740625 294.1559375 -229.9140625 294.8359375 C-230.5740625 294.5059375 -231.2340625 294.1759375 -231.9140625 293.8359375 C-231.9140625 292.8459375 -231.9140625 291.8559375 -231.9140625 290.8359375 C-232.62304688 290.56910156 -233.33203125 290.30226563 -234.0625 290.02734375 C-256.61821919 280.60337888 -274.38290765 261.03293816 -284.09228516 238.89160156 C-286.60391375 232.60879919 -288.4810794 226.07922523 -290.36083984 219.58496094 C-290.88972325 217.75407161 -290.88972325 217.75407161 -291.9140625 215.8359375 C-292.04964796 213.43186699 -292.12607451 211.05814977 -292.15234375 208.65234375 C-292.16222824 207.92962784 -292.17211273 207.20691193 -292.18229675 206.46229553 C-292.4493568 181.82209342 -290.57659712 157.90268035 -277.16015625 136.34375 C-274.35519005 131.40675066 -274.36492456 127.39204037 -274.9140625 121.8359375 C-275.05497314 120.3804248 -275.05497314 120.3804248 -275.19873047 118.89550781 C-275.54259724 115.74431072 -275.93853598 112.60378116 -276.3515625 109.4609375 C-277.29273742 102.14769315 -278.12838973 94.86176549 -278.65258789 87.50537109 C-278.85943937 84.84556689 -278.85943937 84.84556689 -279.46923828 82.32299805 C-281.7732248 69.44115906 -277.42680702 50.05607245 -270.0390625 39.2734375 C-266.86472003 35.05609679 -262.90555116 33.12773071 -257.71484375 32.3671875 C-243.7669368 32.24223425 -230.9880996 36.08064511 -218.078125 41.13671875 C-215.74793285 42.01208326 -215.74793285 42.01208326 -212.4765625 41.8359375 C-211.6309375 41.8359375 -210.7853125 41.8359375 -209.9140625 41.8359375 C-209.37394531 42.40699219 -208.83382812 42.97804688 -208.27734375 43.56640625 C-205.06926921 46.64721833 -201.53685862 48.26974809 -197.5390625 50.1484375 C-196.7965625 50.52033203 -196.0540625 50.89222656 -195.2890625 51.27539062 C-190.7421368 53.43236863 -187.89284376 54.43070337 -182.9140625 52.8359375 C-179.99676102 51.69623912 -177.14580514 50.43123761 -174.2890625 49.1484375 C-148.07460635 37.7967442 -118.87093938 31.64357272 -90.24731445 33.16235352 C-83.47909348 33.49345131 -79.11839085 33.08238707 -73.6015625 28.6484375 C-71.99497949 27.08842212 -70.43069331 25.48353816 -68.9140625 23.8359375 C-66.01377317 20.78417377 -63.70227908 18.61098755 -59.9140625 16.8359375 C-57.95598435 15.4053529 -56.02037729 13.94376998 -54.1015625 12.4609375 C-49.85980778 9.21469664 -45.6057488 6.38576701 -40.9140625 3.8359375 C-40.2540625 3.1759375 -39.5940625 2.5159375 -38.9140625 1.8359375 C-36.52892373 0.74863724 -34.15970781 -0.26035697 -31.7265625 -1.2265625 C-31.07880859 -1.49533203 -30.43105469 -1.76410156 -29.76367188 -2.04101562 C-19.49495141 -6.15465889 -9.13296868 -6.82569238 0 0 Z M-222.9140625 327.8359375 C-221.9140625 331.8359375 -221.9140625 331.8359375 -221.9140625 331.8359375 Z " fill="#2F3037" transform="translate(503.9140625,342.1640625)"/>
<path d="M0 0 C0.66 0 1.32 0 2 0 C2.02690918 0.68513672 2.05381836 1.37027344 2.08154297 2.07617188 C2.34495862 14.93579224 2.34495862 14.93579224 7.89160156 25.88964844 C12.24650206 28.63921306 16.97154947 30.20825211 21.95703125 31.41943359 C24.1454574 32.04133577 25.98201295 32.95877189 28 34 C28.99 34.33 29.98 34.66 31 35 C30.67 35.33 30.34 35.66 30 36 C30.6290625 36.44988281 31.258125 36.89976562 31.90625 37.36328125 C44.52640331 46.84740249 52.21501669 59.17489281 54.5 74.875 C55.73408639 85.18412123 53.35544645 94.66690046 49 104 C49 104.99 49 105.98 49 107 C47.3978566 108.72878341 45.71604155 110.38421631 44 112 C43.03556052 113.01113796 42.07740008 114.02829528 41.125 115.05078125 C34.1013774 122.44442336 27.13848297 128.26887682 18 133 C17.40912598 133.30631348 16.81825195 133.61262695 16.20947266 133.92822266 C-2.4189408 143.36313717 -22.32539031 146.19857512 -43 146.125 C-44.11761719 146.12886719 -45.23523438 146.13273438 -46.38671875 146.13671875 C-47.98966797 146.13478516 -47.98966797 146.13478516 -49.625 146.1328125 C-50.58664062 146.13168457 -51.54828125 146.13055664 -52.5390625 146.12939453 C-55 146 -55 146 -58 145 C-58.66 145 -59.32 145 -60 145 C-60 144.34 -60 143.68 -60 143 C-60.825 142.9175 -61.65 142.835 -62.5 142.75 C-67.41452827 141.6968868 -72.09117597 139.78074276 -75.8046875 136.31640625 C-79.07079508 134.35790402 -81.30845362 135.1549433 -85 135.8125 C-91.71851485 136.91395002 -98.1817046 137.22854621 -105 137 C-100.56559542 134.3722047 -95.82982528 134.18903274 -90.80078125 133.5625 C-89.87652344 133.376875 -88.95226562 133.19125 -88 133 C-87.67 132.34 -87.34 131.68 -87 131 C-87.66 131 -88.32 131 -89 131 C-91.86060367 123.259543 -91.36076213 116.40386368 -87.9375 108.875 C-78.8343794 92.50983937 -59.99580801 86.92665223 -43 82 C-40.31883022 81.26640216 -37.62978643 80.56653066 -34.9375 79.875 C-23.85785261 76.98721956 -11.37629627 72.1548422 -5 62 C1.64119731 50.41366501 2.81917168 39.15873802 3 26 C2.505 24.515 2.505 24.515 2 23 C1.79083039 21.65285835 1.61547804 20.30024861 1.46484375 18.9453125 C1.37783203 18.16542969 1.29082031 17.38554688 1.20117188 16.58203125 C1.11416016 15.77121094 1.02714844 14.96039062 0.9375 14.125 C0.80118164 12.92037109 0.80118164 12.92037109 0.66210938 11.69140625 C0.233112 7.7755956 -0.11982717 3.94630805 0 0 Z " fill="#292C34" transform="translate(767,558)"/>
<path d="M0 0 C1.32813721 0.0002417 1.32813721 0.0002417 2.68310547 0.00048828 C10.09437131 0.12950977 17.83183243 0.89433243 23.3125 6.375 C23.01172675 8.380155 22.6689309 10.37898694 22.3125 12.375 C21.45163773 20.17656434 22.87685295 25.86261235 27.3125 32.375 C32.66090742 38.72362907 40.60219409 41.80489803 48.3125 44.375 C49.16048086 53.91478472 45.022006 62.4820037 39.42578125 70.01953125 C30.17468548 80.33082653 17.96926366 85.60197564 4.3125 86.375 C-8.41029981 86.09106929 -20.84732317 81.94520571 -30.23828125 73.02734375 C-39.24937846 62.75323562 -43.2286196 51.80025548 -42.96484375 38.26953125 C-42.16515432 27.04008955 -36.42069588 17.626428 -28.3125 10.0625 C-24.39354796 6.74950357 -20.46645245 4.2422116 -15.6875 2.375 C-14.81867188 2.01921875 -13.94984375 1.6634375 -13.0546875 1.296875 C-8.6521327 0.09153517 -4.54594275 -0.00766888 0 0 Z " fill="#FDE34F" transform="translate(355.6875,622.625)"/>
<path d="M0 0 C3.84082031 0.79101562 3.84082031 0.79101562 5.2734375 2.671875 C5.81871094 3.70054687 5.81871094 3.70054687 6.375 4.75 C11.50407444 13.41689989 19.69951741 16.89983914 29 20 C29.84798086 29.53978472 25.709506 38.1070037 20.11328125 45.64453125 C10.86218548 55.95582653 -1.34323634 61.22697564 -15 62 C-27.84456243 61.71335195 -40.14182391 57.5196292 -49.60546875 48.53515625 C-53.37805329 44.38214302 -56.38044565 40.73087778 -57 35 C-57.32129277 33.66371416 -57.65285136 32.32980326 -58 31 C-57.05125 31.886875 -56.1025 32.77375 -55.125 33.6875 C-45.16290058 42.24963026 -34.75840243 43.96414428 -22 43 C-18.66997173 42.09479513 -15.94408707 40.77639009 -13 39 C-11.948125 38.46375 -10.89625 37.9275 -9.8125 37.375 C-4.93767681 33.25848264 -1.58139602 28.17888774 -0.42211914 21.84033203 C-0.19201774 18.50695786 -0.1172301 15.21605913 -0.125 11.875 C-0.104375 10.72773437 -0.08375 9.58046875 -0.0625 8.3984375 C-0.01582973 5.59822115 0.00448083 2.80052182 0 0 Z " fill="#E4B832" transform="translate(375,647)"/>
<path d="M0 0 C2.21044649 3.31566974 2.77919438 5.82000866 3.6875 9.6875 C9.87242842 34.21093644 24.71049559 55.40422462 46.125 69.0625 C56.24092087 75.08472658 66.99823357 79.83227201 78 84 C78 84.66 78 85.32 78 86 C79.00417969 86.12375 80.00835937 86.2475 81.04296875 86.375 C84.90393736 86.92726144 88.56677515 87.90565289 92.3125 89 C93.52550781 89.350625 94.73851562 89.70125 95.98828125 90.0625 C99 91 99 91 101 92 C101.99 90.35 102.98 88.7 104 87 C104.33 87.66 104.66 88.32 105 89 C104.2578125 91.0234375 104.2578125 91.0234375 103.125 93.375 C98.76335288 102.49480762 98.35952076 113.35614043 101.6875 122.9375 C103.6449603 127.62142287 106.169773 131.80200531 109 136 C109.33 136.66 109.66 137.32 110 138 C105.76296055 139.08558946 102.03498444 138.95361476 97.6875 138.625 C97.02613037 138.57609619 96.36476074 138.52719238 95.68334961 138.47680664 C91.09864612 138.12491671 86.55113902 137.65016272 82 137 C82 136.34 82 135.68 82 135 C81.319375 134.835 80.63875 134.67 79.9375 134.5 C75.58649824 132.27821187 73.07457564 128.71737106 70 125 C69.34 124.34 68.68 123.68 68 123 C66 121 66 121 65.734375 117.98828125 C65.73953125 116.77527344 65.7446875 115.56226563 65.75 114.3125 C65.74226563 112.51232422 65.74226563 112.51232422 65.734375 110.67578125 C66.01282861 106.82247463 66.80907524 103.66999262 68 100 C68.31324219 99.03211548 68.31324219 99.03211548 68.6328125 98.04467773 C69.28533728 96.04656335 69.95268585 94.05403524 70.625 92.0625 C70.85445313 91.37865234 71.08390625 90.69480469 71.3203125 89.99023438 C71.87881734 88.32635536 72.43920879 86.66310981 73 85 C69.04 83.35 65.08 81.7 61 80 C60.67 80.66 60.34 81.32 60 82 C59.01 81.505 59.01 81.505 58 81 C58 80.01 58 79.02 58 78 C57.29101562 77.73316406 56.58203125 77.46632813 55.8515625 77.19140625 C32.23525396 67.32431843 15.01306155 47.0325262 5 24 C1.79270954 16.0788129 -0.7587527 8.64978081 0 0 Z M67 115 C68 119 68 119 68 119 Z " fill="#222125" transform="translate(214,555)"/>
<path d="M0 0 C-0.75023437 0.4125 -1.50046875 0.825 -2.2734375 1.25 C-14.1258826 7.9375257 -24.50821313 14.5246394 -29 28 C-29.4580997 33.72624626 -28.82409266 38.95833123 -26 44 C-17.5234307 52.0388122 -4.67490844 53.15905567 6.38671875 53.1328125 C7.28437454 53.13376923 8.18203033 53.13472595 9.10688782 53.13571167 C11.00216746 53.13639019 12.89744947 53.13455884 14.79272461 53.13037109 C17.66069916 53.12504973 20.52851486 53.13031098 23.39648438 53.13671875 C31.56668262 53.13943492 39.65255624 53.12540742 47.78295898 52.22265625 C51.26255613 51.87320216 54.69084418 51.90542059 58.1875 51.9375 C59.48042969 51.94652344 60.77335938 51.95554687 62.10546875 51.96484375 C63.06066406 51.97644531 64.01585937 51.98804688 65 52 C64.67 52.99 64.34 53.98 64 55 C63.39663818 54.98839844 62.79327637 54.97679687 62.17163086 54.96484375 C52.88366457 54.86879978 43.66004595 55.52239614 34.40014648 56.14550781 C-8.49026439 59.00649041 -8.49026439 59.00649041 -25 48 C-27.74481192 47.67153295 -27.74481192 47.67153295 -30.90348816 47.68356323 C-32.13607864 47.6639856 -33.36866913 47.64440796 -34.63861084 47.62423706 C-36.00671232 47.61242875 -37.37481542 47.60080786 -38.74291992 47.58935547 C-40.18177923 47.57019755 -41.62062728 47.55017736 -43.0594635 47.52935791 C-46.96818015 47.47525099 -50.87694512 47.43323703 -54.78582931 47.39335394 C-58.86986725 47.34964004 -62.95375619 47.29485988 -67.03767395 47.24124146 C-74.7723398 47.14137964 -82.50708834 47.0515051 -90.241916 46.96519673 C-99.04723656 46.86645864 -107.85240762 46.75661999 -116.65758359 46.64583755 C-134.7715836 46.41818532 -152.88572468 46.20451009 -171 46 C-171 45.67 -171 45.34 -171 45 C-154.93129265 42.77662531 -139.01032369 42.76550639 -122.8125 42.875 C-120.20117533 42.88505666 -117.58984689 42.89417773 -114.97851562 42.90234375 C-108.65225975 42.92412864 -102.32614815 42.95739057 -96 43 C-97.32 42.01 -98.64 41.02 -100 40 C-98.89993622 40.1065818 -98.89993622 40.1065818 -97.77764893 40.21531677 C-90.67885011 40.86119921 -83.67233856 41.135722 -76.546875 41.09765625 C-75.52064026 41.0962413 -74.49440552 41.09482635 -73.43707275 41.09336853 C-70.20801691 41.0878388 -66.97903435 41.07530021 -63.75 41.0625 C-61.5403656 41.05747589 -59.33073009 41.0529146 -57.12109375 41.04882812 C-51.74737147 41.03789254 -46.37369097 41.02122638 -41 41 C-40.93522461 39.80938965 -40.93522461 39.80938965 -40.86914062 38.59472656 C-40.18361883 28.27730906 -37.69580467 20.17577009 -30.125 12.75 C-23.67092575 7.49438247 -8.39296613 -2.79765538 0 0 Z " fill="#1F1E23" transform="translate(579,645)"/>
<path d="M0 0 C-0.33 0.66 -0.66 1.32 -1 2 C0.98 2 2.96 2 5 2 C2.10009394 4.89990606 -1.35315146 4.95808784 -5.25 5.6875 C-17.46324833 8.21168524 -29.29879182 12.62852366 -37 23 C-42.15301935 31.12704765 -41.60565475 38.82482999 -40 48 C-40.33 48.66 -40.66 49.32 -41 50 C-40.40703125 50.11601563 -39.8140625 50.23203125 -39.203125 50.3515625 C-36.87664508 51.03630659 -35.62786257 51.87088678 -33.75 53.375 C-19.35402577 63.91382501 2.85902548 62.3657029 19.6875 59.8125 C26.69693088 58.67024924 33.3986966 56.87716779 40.10229492 54.53833008 C41.71928616 53.97836692 43.35836358 53.48295884 45 53 C45.66 53.33 46.32 53.66 47 54 C43.26977357 57.43942921 39.04181705 58.35050814 34.25 59.5625 C33.39873535 59.77865967 32.5474707 59.99481934 31.67041016 60.2175293 C16.57285607 63.92216526 -4.96937116 68.01020961 -20 63 C-20.66 63 -21.32 63 -22 63 C-22 62.34 -22 61.68 -22 61 C-22.825 60.9175 -23.65 60.835 -24.5 60.75 C-29.41452827 59.6968868 -34.09117597 57.78074276 -37.8046875 54.31640625 C-41.07079508 52.35790402 -43.30845362 53.1549433 -47 53.8125 C-53.71851485 54.91395002 -60.1817046 55.22854621 -67 55 C-62.56559542 52.3722047 -57.82982528 52.18903274 -52.80078125 51.5625 C-51.87652344 51.376875 -50.95226562 51.19125 -50 51 C-49.67 50.34 -49.34 49.68 -49 49 C-49.66 49 -50.32 49 -51 49 C-53.86060367 41.259543 -53.36076213 34.40386368 -49.9375 26.875 C-41.40448845 11.53475452 -24.72704188 6.12354221 -8.86328125 1.03125 C-5.65096522 0.17376625 -3.2780341 -0.25862202 0 0 Z " fill="#1B1C20" transform="translate(729,640)"/>
<path d="M0 0 C0.78383057 -0.00926514 1.56766113 -0.01853027 2.37524414 -0.02807617 C7.94082605 0.00332605 7.94082605 0.00332605 10.1875 2.25 C10.3125 4.875 10.3125 4.875 10.1875 7.25 C4.5786209 10.64051414 -1.21203676 11.39442458 -7.625 12.375 C-8.66720703 12.54386719 -9.70941406 12.71273437 -10.78320312 12.88671875 C-19.96988354 14.35151274 -28.94129201 15.4297492 -38.25 15.4375 C-39.05115234 15.44974609 -39.85230469 15.46199219 -40.67773438 15.47460938 C-42.72401984 15.47978112 -44.76992906 15.37334871 -46.8125 15.25 C-47.4725 14.59 -48.1325 13.93 -48.8125 13.25 C-48.66453895 10.3647595 -48.33243961 8.790197 -46.30859375 6.6875 C-42.69218931 4.60481325 -39.09848576 4.24080166 -35 3.6875 C-34.15123291 3.56528076 -33.30246582 3.44306152 -32.42797852 3.31713867 C-30.70072931 3.07011073 -28.97277401 2.82796843 -27.24414062 2.59082031 C-25.11065354 2.29178939 -22.98558031 1.96349291 -20.859375 1.6171875 C-13.88796215 0.54582319 -7.04327668 0.05244175 0 0 Z " fill="#F9E14D" transform="translate(461.8125,511.75)"/>
<path d="M0 0 C4.75 0.75 4.75 0.75 7 3 C6.76199331 7.40312367 4.98124375 9.8531316 2 13 C-3.1272143 16.58905001 -7.24710159 17.15171735 -13.4375 17.1875 C-15.10619141 17.20876953 -15.10619141 17.20876953 -16.80859375 17.23046875 C-20 17 -20 17 -22.6796875 15.83984375 C-23.44539063 15.56269531 -24.21109375 15.28554688 -25 15 C-26.96781703 15.84447139 -26.96781703 15.84447139 -28.6875 17.375 C-33.3870196 20.61146161 -37.42452003 20.9897839 -43 20 C-47.22047529 18.44300818 -50.94943439 16.10113122 -53 12 C-53.375 8.875 -53.375 8.875 -53 6 C-50 4 -50 4 -47.5 4.0625 C-45 5 -45 5 -43.625 7.5 C-42.14233642 10.42072077 -42.14233642 10.42072077 -38.3125 10.8125 C-37.219375 10.874375 -36.12625 10.93625 -35 11 C-32.84098234 7.4876258 -32.84098234 7.4876258 -31.125 3.75 C-30 2 -30 2 -27.375 1.25 C-26.199375 1.12625 -26.199375 1.12625 -25 1 C-24.59007812 1.49371094 -24.18015625 1.98742187 -23.7578125 2.49609375 C-23.21898437 3.13675781 -22.68015625 3.77742187 -22.125 4.4375 C-21.32449219 5.39462891 -21.32449219 5.39462891 -20.5078125 6.37109375 C-19.0777243 8.10805004 -19.0777243 8.10805004 -17 9 C-12.42345233 9.0398654 -8.29601834 8.96370594 -4.5625 6.1875 C-4.046875 5.465625 -3.53125 4.74375 -3 4 C-2.13375 2.88625 -2.13375 2.88625 -1.25 1.75 C-0.63125 0.88375 -0.63125 0.88375 0 0 Z " fill="#F7E04C" transform="translate(389,541)"/>
<path d="M0 0 C0.515625 0.495 1.03125 0.99 1.5625 1.5 C1.5 3.8125 1.5 3.8125 0.5625 6.5 C-4.25309046 8.95993856 -8.98521886 10.21938784 -14.3125 11.125 C-15.02083984 11.24979736 -15.72917969 11.37459473 -16.45898438 11.50317383 C-18.44976933 11.84753941 -20.44355714 12.17441704 -22.4375 12.5 C-23.25476563 12.63535156 -24.07203125 12.77070312 -24.9140625 12.91015625 C-29.87701873 13.59040701 -34.87288509 13.62850239 -39.875 13.6875 C-40.5865625 13.70063232 -41.298125 13.71376465 -42.03125 13.72729492 C-43.83492311 13.73011859 -45.63800575 13.62274007 -47.4375 13.5 C-49.4375 11.5 -49.4375 11.5 -49.5 9.0625 C-48.4375 6.5 -48.4375 6.5 -45.3359375 4.92651367 C-41.62121746 3.4504554 -37.95531385 2.72181054 -34 2.11328125 C-33.31623291 2.00654587 -32.63246582 1.89981049 -31.92797852 1.7898407 C-30.49335706 1.56792755 -29.05803257 1.35051587 -27.62207031 1.13745117 C-25.44148977 0.81309347 -23.26376912 0.47313913 -21.0859375 0.13085938 C-4.03433416 -2.48266718 -4.03433416 -2.48266718 0 0 Z " fill="#F9E14C" transform="translate(314.4375,531.5)"/>
<path d="M0 0 C0 0.33 0 0.66 0 1 C-0.84425537 1.10489746 -0.84425537 1.10489746 -1.70556641 1.21191406 C-23.45019831 3.96821344 -46.51882668 7.96791962 -60.83984375 26.36328125 C-66.15426247 34.00353969 -66.9797077 40.69277689 -66 50 C-63.55558802 56.61677036 -58.52064048 61.23967976 -52.3125 64.34375 C-50.41319096 65.21258286 -48.50468845 66.06170959 -46.5859375 66.88671875 C-44.34412517 67.85184944 -42.16987108 68.8845029 -40 70 C-40.4145748 76.17573496 -41.46831593 81.32902769 -44 87 C-44.99 87.495 -44.99 87.495 -46 88 C-45.79503906 87.28714844 -45.59007812 86.57429687 -45.37890625 85.83984375 C-43.89379353 80.56023251 -42.60587654 75.45288884 -42 70 C-42.87785156 69.88785156 -43.75570312 69.77570313 -44.66015625 69.66015625 C-53.64649504 67.88390917 -60.87548676 62.4604737 -66 55 C-70.19135844 47.69892401 -69.6939165 40.04610337 -68 32 C-72.58154261 29.60457417 -77.0276578 27.49170266 -82 26 C-82 25.67 -82 25.34 -82 25 C-77.28596212 25.47939368 -73.33420699 25.96834048 -69 28 C-68.773125 27.278125 -68.54625 26.55625 -68.3125 25.8125 C-66.70910575 22.37665518 -64.80298595 20.55383164 -62 18 C-61.55269531 17.53722656 -61.10539062 17.07445312 -60.64453125 16.59765625 C-54.84243157 10.97454165 -47.33078973 8.10907551 -40 5 C-39.20464844 4.65710938 -38.40929687 4.31421875 -37.58984375 3.9609375 C-25.86701715 -0.51135473 -12.35941781 -0.31964012 0 0 Z " fill="#181720" transform="translate(446,597)"/>
<path d="M0 0 C18.86325761 -0.1169765 37.72644127 -0.20505814 56.5899868 -0.25906086 C65.34934005 -0.28480554 74.1084675 -0.31988423 82.86767578 -0.37719727 C90.50521998 -0.42714709 98.14260058 -0.45931816 105.7803036 -0.47044247 C109.82177341 -0.47694175 113.86277534 -0.49213786 117.9040947 -0.52865028 C121.71434012 -0.56279346 125.52392856 -0.57301655 129.33431244 -0.56553841 C130.72662308 -0.56690485 132.11895755 -0.57672841 133.5111351 -0.59602737 C142.3733472 -0.71276915 148.41309813 0.40434451 156 5 C165.70279247 8.85164183 175.98577452 8.39583225 186.24536133 8.28125 C189.06019443 8.25002558 191.87446357 8.24025641 194.68945312 8.234375 C202.75527518 8.19911258 210.74362695 8.09464835 218.76977539 7.21826172 C222.253932 6.8772835 225.68703346 6.90538563 229.1875 6.9375 C230.48042969 6.94652344 231.77335938 6.95554687 233.10546875 6.96484375 C234.06066406 6.97644531 235.01585937 6.98804688 236 7 C235.67 7.99 235.34 8.98 235 10 C234.39663818 9.98839844 233.79327637 9.97679687 233.17163086 9.96484375 C223.88366457 9.86879978 214.66004595 10.52239614 205.40014648 11.14550781 C162.50973561 14.00649041 162.50973561 14.00649041 146 3 C143.25518808 2.67153295 143.25518808 2.67153295 140.09651184 2.68356323 C138.86392136 2.6639856 137.63133087 2.64440796 136.36138916 2.62423706 C134.99328768 2.61242875 133.62518458 2.60080786 132.25708008 2.58935547 C130.81822077 2.57019755 129.37937272 2.55017736 127.9405365 2.52935791 C124.03181985 2.47525099 120.12305488 2.43323703 116.21417069 2.39335394 C112.13013275 2.34964004 108.04624381 2.29485988 103.96232605 2.24124146 C96.2276602 2.14137964 88.49291166 2.0515051 80.758084 1.96519673 C71.95276344 1.86645864 63.14759238 1.75661999 54.34241641 1.64583755 C36.2284164 1.41818532 18.11427532 1.20451009 0 1 C0 0.67 0 0.34 0 0 Z " fill="#0D0C0D" transform="translate(408,690)"/>
<path d="M0 0 C2.21044649 3.31566974 2.77919438 5.82000866 3.6875 9.6875 C9.87242842 34.21093644 24.71049559 55.40422462 46.125 69.0625 C53.171847 73.26255284 60.50729233 76.67831703 68 80 C68.97324219 80.43699219 69.94648438 80.87398437 70.94921875 81.32421875 C72.96226324 82.22487445 74.98037475 83.11419945 77 84 C75.9749792 87.23275789 74.85745879 90.32665695 73.5 93.4375 C72.01944031 96.95382926 70.9760197 100.32115653 70 104 C69.67 104 69.34 104 69 104 C68.36735483 97.04090312 70.65255178 91.52884036 73 85 C69.04 83.35 65.08 81.7 61 80 C60.67 80.66 60.34 81.32 60 82 C59.01 81.505 59.01 81.505 58 81 C58 80.01 58 79.02 58 78 C57.29101562 77.73316406 56.58203125 77.46632813 55.8515625 77.19140625 C32.23525396 67.32431843 15.01306155 47.0325262 5 24 C1.79270954 16.0788129 -0.7587527 8.64978081 0 0 Z " fill="#161617" transform="translate(214,555)"/>
<path d="M0 0 C6.17089434 0.52535992 11.12639243 2.5462181 16.75 5.0625 C18.43014541 5.80823981 20.11235807 6.54934435 21.796875 7.28515625 C22.53260742 7.61394775 23.26833984 7.94273926 24.02636719 8.28149414 C26.11977528 9.17104418 26.11977528 9.17104418 29 9 C29.33 9.99 29.66 10.98 30 12 C31.53573389 13.20183065 31.53573389 13.20183065 33.46484375 14.19921875 C34.17729248 14.59931152 34.88974121 14.9994043 35.6237793 15.41162109 C36.38730713 15.83266113 37.15083496 16.25370117 37.9375 16.6875 C44.82934868 20.6210114 50.9912045 24.79362129 57 30 C58.10781752 30.9159495 59.21731442 31.82987013 60.328125 32.7421875 C71.09950849 41.66364217 80.22929207 51.47284731 88.75 62.5625 C89.28834473 63.25375977 89.82668945 63.94501953 90.38134766 64.65722656 C91.67151774 66.37830578 92.84696979 68.18418782 94 70 C93.505 71.485 93.505 71.485 93 73 C92.45472656 72.26136719 91.90945313 71.52273438 91.34765625 70.76171875 C76.11675172 50.2715959 59.98831252 33.25369144 38 20 C37.26265625 19.52433594 36.5253125 19.04867188 35.765625 18.55859375 C24.56793425 11.4731584 12.10194345 6.33171379 0 1 C0 0.67 0 0.34 0 0 Z " fill="#15171B" transform="translate(651,431)"/>
<path d="M0 0 C4.87211874 0.72179537 7.91809055 3.75416487 11.0625 7.375 C19.95208302 19.41895118 25.29901565 32.76069069 23.55078125 47.88671875 C22.33599496 53.93494045 20.60211257 59.42404449 18 65 C18 65.99 18 66.98 18 68 C15.89453125 70.29296875 15.89453125 70.29296875 13 73 C11.95827745 74.0337831 10.92062733 75.07168324 9.88671875 76.11328125 C6.92447917 79.07552083 3.96223958 82.03776042 1 85 C0.01 84.67 -0.98 84.34 -2 84 C-1.18208984 83.35998047 -1.18208984 83.35998047 -0.34765625 82.70703125 C10.00741849 74.12205476 17.71931812 63.44081855 20 50 C21.37306627 33.84252251 18.2343462 20.54947635 7.75 7.9375 C6.15450133 6.11468566 5.17761985 5.08880993 3 4 C3 3.34 3 2.68 3 2 C2.01 1.67 1.02 1.34 0 1 C0 0.67 0 0.34 0 0 Z " fill="#111215" transform="translate(798,597)"/>
<path d="M0 0 C0.495 0.99 0.495 0.99 1 2 C-0.155 1.835 -1.31 1.67 -2.5 1.5 C-7.0556433 1.0147407 -11.60883313 0.7885 -16.1875 0.6875 C-16.86425781 0.65785156 -17.54101562 0.62820313 -18.23828125 0.59765625 C-23.33284561 0.5377202 -26.15359704 1.70703632 -30 5 C-39.11940972 17.93864969 -38.43143556 33.85823119 -39 49 C-39.33 49 -39.66 49 -40 49 C-43.29222 35.21550164 -41.62874054 17.9592204 -34.1875 5.75 C-25.829569 -5.01649733 -12.11514789 -3.75987348 0 0 Z " fill="#15161A" transform="translate(267,377)"/>
<path d="M0 0 C1.29292969 0.00902344 2.58585938 0.01804687 3.91796875 0.02734375 C4.87316406 0.03894531 5.82835937 0.05054688 6.8125 0.0625 C6.4825 1.0525 6.1525 2.0425 5.8125 3.0625 C5.20913818 3.05089844 4.60577637 3.03929687 3.98413086 3.02734375 C-5.30383543 2.93129978 -14.52745405 3.58489614 -23.78735352 4.20800781 C-45.83423243 5.67863343 -45.83423243 5.67863343 -56.4375 4.5625 C-57.35015625 4.4696875 -58.2628125 4.376875 -59.203125 4.28125 C-59.85796875 4.2090625 -60.5128125 4.136875 -61.1875 4.0625 C-61.1875 3.7325 -61.1875 3.4025 -61.1875 3.0625 C-56.4869571 2.15375597 -51.88684084 1.87100748 -47.11328125 1.78125 C-46.34880173 1.76284058 -45.5843222 1.74443115 -44.79667664 1.72546387 C-42.3645242 1.66710819 -39.93230252 1.61419458 -37.5 1.5625 C-23.98523651 1.28505531 -23.98523651 1.28505531 -10.51000977 0.27197266 C-6.99376997 -0.04516534 -3.53054696 -0.03239034 0 0 Z " fill="#212023" transform="translate(637.1875,696.9375)"/>
<path d="M0 0 C0.66 1.32 1.32 2.64 2 4 C20.15 4 38.3 4 57 4 C57.495 4.99 57.495 4.99 58 6 C56.81035645 6.02505615 55.62071289 6.0501123 54.39501953 6.07592773 C49.94066361 6.17078538 45.48643552 6.270808 41.03222656 6.37231445 C39.11200979 6.41536936 37.19176194 6.45706223 35.27148438 6.49731445 C32.49599884 6.55573814 29.72066559 6.61921644 26.9453125 6.68359375 C26.1001004 6.70030624 25.25488831 6.71701874 24.38406372 6.73423767 C14.40974915 6.55652504 14.40974915 6.55652504 5 9 C5 10.98 5 12.96 5 15 C3.39282229 12.58923344 2.38457485 10.71900755 1.375 8.0625 C0.98441406 7.05896484 0.98441406 7.05896484 0.5859375 6.03515625 C0 4 0 4 0 0 Z " fill="#121317" transform="translate(533,412)"/>
<path d="M0 0 C6.07579899 5.34761335 9.80662407 11.83891387 13.4609375 18.9609375 C13.80713135 19.6297998 14.1533252 20.29866211 14.51000977 20.98779297 C16.6384113 25.31499167 17.64905787 29.03026157 18.0859375 33.8359375 C15.50637992 30.68735987 13.94835504 27.50102074 12.3359375 23.7734375 C8.27991178 14.8601958 3.75578859 5.13081159 -4.9140625 -0.1640625 C-8.68120026 -1.50519771 -12.70420016 -1.49825286 -16.6640625 -1.7265625 C-17.36144531 -1.76974609 -18.05882812 -1.81292969 -18.77734375 -1.85742188 C-20.48938172 -1.96295846 -22.20169811 -2.0639616 -23.9140625 -2.1640625 C-23.9140625 -2.8240625 -23.9140625 -3.4840625 -23.9140625 -4.1640625 C-15.01952787 -5.90429754 -7.45202566 -5.56940865 0 0 Z " fill="#18181C" transform="translate(503.9140625,342.1640625)"/>
<path d="M0 0 C0.96679688 0.00902344 1.93359375 0.01804687 2.9296875 0.02734375 C3.65414062 0.03894531 4.37859375 0.05054688 5.125 0.0625 C2.42563353 2.76186647 0.72295921 2.4595826 -3.0625 2.8125 C-17.87365323 4.4869006 -32.53761192 8.85225946 -46.42578125 14.1796875 C-48.875 15.0625 -48.875 15.0625 -50.875 15.0625 C-50.875 14.4025 -50.875 13.7425 -50.875 13.0625 C-17.06737849 -0.20813876 -17.06737849 -0.20813876 0 0 Z " fill="#17181D" transform="translate(380.875,377.9375)"/>
<path d="M0 0 C0.99 0.33 1.98 0.66 3 1 C-2.81733773 7.45364005 -8.07653275 12.51440921 -17.08157349 13.05441284 C-21.33825703 13.08812966 -25.56311501 12.92044701 -29.8125 12.6875 C-31.58383026 12.63219155 -33.35532886 12.58202471 -35.12695312 12.53710938 C-39.42220685 12.41719184 -43.70919378 12.2282174 -48 12 C-45.42087989 9.42087989 -44.27838478 9.70186838 -40.6875 9.5859375 C-39.61113281 9.54726563 -38.53476562 9.50859375 -37.42578125 9.46875 C-35.73001953 9.42234375 -35.73001953 9.42234375 -34 9.375 C-32.90042969 9.33632813 -31.80085938 9.29765625 -30.66796875 9.2578125 C-21.77312285 8.96237278 -21.77312285 8.96237278 -18.16577148 9.13793945 C-13.71415538 9.34928596 -11.62499929 9.38215094 -7.72265625 6.99609375 C-6.84480469 6.15175781 -5.96695313 5.30742187 -5.0625 4.4375 C-2.34765625 1.87109375 -2.34765625 1.87109375 0 0 Z " fill="#1E1F23" transform="translate(435,366)"/>
<path d="M0 0 C0.66 0 1.32 0 2 0 C2.04036377 1.02770508 2.04036377 1.02770508 2.08154297 2.07617188 C2.33071211 14.93421933 2.33071211 14.93421933 7.89160156 25.85742188 C12.31806533 28.57694864 17.06325999 29.96054182 22.046875 31.30664062 C24.72279385 32.25659182 26.26467179 33.79311521 28 36 C22.66941382 35.27076759 18.18752484 32.81116832 13.43945312 30.43945312 C9.96130869 28.75106744 7.9437132 28 4 28 C1.80646736 23.42860424 1.36778561 18.97632683 0.875 14 C0.78863281 13.2059375 0.70226562 12.411875 0.61328125 11.59375 C0.20580946 7.71306626 -0.11030535 3.90796105 0 0 Z " fill="#17171B" transform="translate(767,558)"/>
<path d="M0 0 C0.33 0 0.66 0 1 0 C1.12117187 0.969375 1.24234375 1.93875 1.3671875 2.9375 C1.44727051 3.57727783 1.52735352 4.21705566 1.60986328 4.8762207 C1.78880192 6.30954226 1.96684072 7.74297641 2.14404297 9.17651367 C2.60146711 12.8668573 3.07142375 16.55435634 3.578125 20.23828125 C4.11197911 24.15367721 4.57548122 28.07112032 5 32 C5.11085937 33.010625 5.22171875 34.02125 5.3359375 35.0625 C5.78871838 42.65196994 3.08404263 47.7159225 -1 54 C-1.62109375 52.1953125 -1.62109375 52.1953125 -2 50 C-1.360625 48.96875 -0.72125 47.9375 -0.0625 46.875 C3.89343919 40.38671219 2.05672939 33.16738197 1 26 C-0.2617523 17.31878875 -0.18050907 8.7546901 0 0 Z " fill="#16171A" transform="translate(227,431)"/>
<path d="M0 0 C-0.84820312 0.40089844 -1.69640625 0.80179687 -2.5703125 1.21484375 C-11.5057739 5.54510581 -19.75305574 10.48204457 -28 16 C-29.42505859 16.94359375 -29.42505859 16.94359375 -30.87890625 17.90625 C-32.92436245 19.26348541 -34.96498989 20.62717572 -37 22 C-35.45725232 17.88600619 -32.79704755 16.05329457 -29.3125 13.5 C-28.77447754 13.10417725 -28.23645508 12.70835449 -27.68212891 12.30053711 C-23.91750763 9.56566713 -20.08138267 7.21814275 -16 5 C-15.34 4.34 -14.68 3.68 -14 3 C-12.40250974 2.21238721 -10.77239724 1.48954605 -9.125 0.8125 C-7.82949219 0.26529297 -7.82949219 0.26529297 -6.5078125 -0.29296875 C-3.83456944 -1.04664008 -2.57147011 -0.9388856 0 0 Z " fill="#17181C" transform="translate(479,341)"/>
<path d="M0 0 C-1 3 -1 3 -3.14453125 4.421875 C-4.02496094 4.86015625 -4.90539062 5.2984375 -5.8125 5.75 C-7.12154297 6.42289063 -7.12154297 6.42289063 -8.45703125 7.109375 C-11.21453353 8.07513617 -12.33026268 8.07989375 -15 7 C-15.33 6.67 -15.66 6.34 -16 6 C-18.69082872 6.17635452 -21.32851446 6.61835921 -24 7 C-21.09846275 4.09846275 -17.53561589 3.48089128 -13.6875 2.375 C-12.92759766 2.14554688 -12.16769531 1.91609375 -11.38476562 1.6796875 C-7.497226 0.54483666 -4.09476047 -0.31058063 0 0 Z " fill="#1C1B20" transform="translate(488,662)"/>
<path d="M0 0 C18.13308566 -0.88887675 18.13308566 -0.88887675 25.6328125 3.69140625 C31.72539002 7.05941527 39.19590756 7.91295565 46 9 C46 9.33 46 9.66 46 10 C36.05960772 10.80597775 26.99237866 9.12720119 18.640625 3.375 C15.0027741 1.48073444 11.73431483 1.43907598 7.6875 1.3125 C6.94693359 1.27833984 6.20636719 1.24417969 5.44335938 1.20898438 C3.62941836 1.12706446 1.81473647 1.06184178 0 1 C0 0.67 0 0.34 0 0 Z " fill="#131214" transform="translate(536,690)"/>
<path d="M0 0 C5.05304565 4.31690051 7.46893392 9.34653041 10.25 15.3125 C10.69601562 16.22451172 11.14203125 17.13652344 11.6015625 18.07617188 C14.15826053 23.48010181 15.63572362 28.02446634 16 34 C13.43677093 31.43677093 12.6063923 28.57984485 11.375 25.25 C8.97650385 18.95720434 6.05938421 13.21998632 2.54052734 7.48144531 C0.87449662 4.73099186 0 3.28600382 0 0 Z " fill="#15171A" transform="translate(746,505)"/>
<path d="M0 0 C3.62265149 2.41510099 3.7920504 3.59700453 5.04296875 7.671875 C5.39423828 8.81140625 5.74550781 9.9509375 6.10742188 11.125 C6.64206055 12.919375 6.64206055 12.919375 7.1875 14.75 C7.73954102 16.52117187 7.73954102 16.52117187 8.30273438 18.328125 C9.94454293 23.73786896 11.22409681 28.30442781 11 34 C8.92078214 30.88117322 7.98202764 28.24617286 6.8359375 24.6875 C6.23652344 22.82738281 6.23652344 22.82738281 5.625 20.9296875 C5.42003906 20.28483398 5.21507812 19.63998047 5.00390625 18.97558594 C4.37656476 17.0049154 3.73960869 15.03753967 3.1015625 13.0703125 C0 3.38296469 0 3.38296469 0 0 Z " fill="#131416" transform="translate(522,377)"/>
<path d="M0 0 C4 1 4 1 5.34375 2.671875 C5.7253125 3.35765625 6.106875 4.0434375 6.5 4.75 C8.43325099 8.07782523 10.51087584 11.04992693 13 14 C10.72316722 12.94289907 8.89022008 11.91018007 6.9375 10.3125 C6.298125 9.879375 5.65875 9.44625 5 9 C4.01 9.33 3.02 9.66 2 10 C1.67 13.96 1.34 17.92 1 22 C0.67 22 0.34 22 0 22 C0 14.74 0 7.48 0 0 Z " fill="#EDCC3A" transform="translate(375,647)"/>
<path d="M0 0 C-0.33 0.99 -0.66 1.98 -1 3 C-12.55 3 -24.1 3 -36 3 C-36 2.67 -36 2.34 -36 2 C-23.9604041 0.69183989 -12.11777167 -0.33505359 0 0 Z " fill="#161517" transform="translate(644,697)"/>
<path d="M0 0 C0.66 0.33 1.32 0.66 2 1 C1.67 1.33 1.34 1.66 1 2 C9.49859004 3.14017161 18.00300185 3.33100899 26.5625 3.5625 C28.06316078 3.60578362 29.56381197 3.6494007 31.06445312 3.69335938 C34.70953299 3.79941797 38.35472182 3.90096257 42 4 C42 4.33 42 4.66 42 5 C39.36 5 36.72 5 34 5 C33.67 5.66 33.34 6.32 33 7 C33 6.34 33 5.68 33 5 C32.05157227 5.0407666 31.10314453 5.0815332 30.12597656 5.12353516 C26.60017513 5.26997557 23.07427112 5.40678188 19.54785156 5.53710938 C18.0229599 5.59543502 16.49820906 5.65757438 14.97363281 5.72363281 C12.77955776 5.81803239 10.58533851 5.89861231 8.390625 5.9765625 C7.37165131 6.02485703 7.37165131 6.02485703 6.33209229 6.0741272 C2.67626208 6.18928821 0.10344363 6.02068663 -3 4 C-2.01 2.68 -1.02 1.36 0 0 Z " fill="#2B2621" transform="translate(398,687)"/>
<path d="M0 0 C0.61875 0.6496875 0.61875 0.6496875 1.25 1.3125 C3.06054505 3.05838272 4.96474232 4.52619271 7 6 C2.69107728 7.11063318 -1.35361012 6.99668734 -5.75 6.6875 C-6.43449219 6.65205078 -7.11898438 6.61660156 -7.82421875 6.58007812 C-9.55647352 6.46516617 -11.28076293 6.24111252 -13 6 C-13.33 5.34 -13.66 4.68 -14 4 C-7.07 3.01 -7.07 3.01 0 2 C0 1.34 0 0.68 0 0 Z " fill="#332D25" transform="translate(317,687)"/>
<path d="M0 0 C2.4375 1.5 2.4375 1.5 4 3 C3.9375 5.3125 3.9375 5.3125 3 8 C-0.3125 9.9375 -0.3125 9.9375 -4 11 C-6.4375 10.1875 -6.4375 10.1875 -8 9 C-8 8.67 -8 8.34 -8 8 C-5.36 7.34 -2.72 6.68 0 6 C0.33 4.68 0.66 3.36 1 2 C-2.63 2 -6.26 2 -10 2 C-6.28986601 -0.47342266 -4.38939738 -0.38503486 0 0 Z " fill="#EADA50" transform="translate(312,530)"/>
<path d="M0 0 C0.66 0.33 1.32 0.66 2 1 C1.60167969 2.11117188 1.20335937 3.22234375 0.79296875 4.3671875 C-1.99833566 12.19145823 -4.75811536 19.99607852 -7 28 C-7.33 28 -7.66 28 -8 28 C-8.36802927 22.01552405 -7.10617065 17.37099581 -5.125 11.75 C-4.85558594 10.94820313 -4.58617187 10.14640625 -4.30859375 9.3203125 C-3.11528195 5.83933467 -2.06008205 3.09012308 0 0 Z " fill="#16161A" transform="translate(223,487)"/>
<path d="M0 0 C0.66 0 1.32 0 2 0 C4.76088472 2.96517851 7.22006593 6.17704216 9.71826172 9.36523438 C10.57975221 10.46400396 11.44605496 11.55901585 12.31689453 12.65039062 C13.59800281 14.25809331 14.86353229 15.87685975 16.125 17.5 C16.89070312 18.4796875 17.65640625 19.459375 18.4453125 20.46875 C18.95835937 21.3040625 19.47140625 22.139375 20 23 C19.67 23.99 19.34 24.98 19 26 C18.45472656 25.26136719 17.90945313 24.52273438 17.34765625 23.76171875 C12.64870864 17.44022855 7.83837469 11.29328675 2.75 5.27734375 C1 3 1 3 0 0 Z " fill="#121316" transform="translate(725,478)"/>
<path d="M0 0 C3.84507302 0.3845073 6.66472848 1.26494473 10 3.125 C12.88449671 4.64431506 13.8704175 5.00498394 17.25 4.875 C19.95679302 4.10353725 19.95679302 4.10353725 22.125 2.875 C24.50734567 1.76323869 25.54279543 2.27609326 28 3 C26.46955247 3.87410936 24.92497406 4.72350224 23.375 5.5625 C22.51648438 6.03816406 21.65796875 6.51382812 20.7734375 7.00390625 C16.21077494 8.642609 13.12141149 7.49249337 8.7890625 5.58984375 C7.74492187 5.04457031 6.70078125 4.49929688 5.625 3.9375 C4.56539063 3.38964844 3.50578125 2.84179688 2.4140625 2.27734375 C1.61742187 1.85582031 0.82078125 1.43429687 0 1 C0 0.67 0 0.34 0 0 Z " fill="#16171C" transform="translate(301,391)"/>
<path d="M0 0 C3.95883438 3.43277305 5.97586558 7.31763803 8.25 11.9375 C8.61351562 12.64068359 8.97703125 13.34386719 9.3515625 14.06835938 C11.23239368 17.84062793 12.50768784 20.67619191 12 25 C9.33441013 21.75527899 7.70000495 18.39193824 6 14.5625 C4.56550908 11.33863109 3.17210697 8.27768185 1.3125 5.27734375 C0 3 0 3 0 0 Z " fill="#151619" transform="translate(510,351)"/>
<path d="M0 0 C0.99 0.33 1.98 0.66 3 1 C-7.41165919 11.65022422 -7.41165919 11.65022422 -13.7578125 12.5078125 C-16.93438174 12.22157219 -19.91050176 11.7837516 -23 11 C-23 10.67 -23 10.34 -23 10 C-21.89205078 10.04833984 -21.89205078 10.04833984 -20.76171875 10.09765625 C-12.34868271 10.00144618 -8.31927032 7.60282777 -2.27734375 1.8359375 C-1.52582031 1.23007812 -0.77429688 0.62421875 0 0 Z " fill="#101115" transform="translate(435,366)"/>
<path d="M0 0 C8.23072997 0.62118717 15.68772794 3.19010124 23 7 C23 7.66 23 8.32 23 9 C17.45792197 7.38151704 11.93678471 5.69595391 6.4375 3.9375 C4.91962891 3.45603516 4.91962891 3.45603516 3.37109375 2.96484375 C1 2 1 2 0 0 Z " fill="#17181C" transform="translate(269,379)"/>
<path d="M0 0 C0.4125 0.39832031 0.825 0.79664063 1.25 1.20703125 C5.58527472 5.18425873 9.4586482 7.18493683 15 9 C16.3465266 9.63960014 17.68922893 10.289999 19 11 C15.94152152 11.54372951 13.11227195 12 10 12 C10 11.34 10 10.68 10 10 C9.278125 9.773125 8.55625 9.54625 7.8125 9.3125 C4.41542913 7.72720026 2.4250448 5.84076677 0 3 C0 2.01 0 1.02 0 0 Z " fill="#1D1A18" transform="translate(286,680)"/>
<path d="M0 0 C0.66 0 1.32 0 2 0 C0.9749792 3.23275789 -0.14254121 6.32665695 -1.5 9.4375 C-2.98055969 12.95382926 -4.0239803 16.32115653 -5 20 C-5.33 20 -5.66 20 -6 20 C-6.53428702 13.7221275 -4.81441514 9.55692916 -2 4 C-1.62617188 3.25105469 -1.25234375 2.50210938 -0.8671875 1.73046875 C-0.58101563 1.15941406 -0.29484375 0.58835937 0 0 Z " fill="#131214" transform="translate(289,639)"/>
<path d="M0 0 C0.165 0.639375 0.33 1.27875 0.5 1.9375 C1.781786 4.16119241 1.781786 4.16119241 3.9140625 4.48828125 C5.93575155 4.7275978 7.96841939 4.86893028 10 5 C10 5.33 10 5.66 10 6 C7.69 6 5.38 6 3 6 C4.32 6.66 5.64 7.32 7 8 C6.01 8.495 6.01 8.495 5 9 C5 10.98 5 12.96 5 15 C3.39282229 12.58923344 2.38457485 10.71900755 1.375 8.0625 C0.98441406 7.05896484 0.98441406 7.05896484 0.5859375 6.03515625 C0 4 0 4 0 0 Z " fill="#1E1F24" transform="translate(533,412)"/>
<path d="M0 0 C1.093125 0.33 2.18625 0.66 3.3125 1 C6.84578884 2.13086649 6.84578884 2.13086649 10 2 C10.33 2.99 10.66 3.98 11 5 C12.99665314 6.68538601 12.99665314 6.68538601 15 8 C8.97229862 7.52412884 4.23321711 4.80277043 -1 2 C-0.67 1.34 -0.34 0.68 0 0 Z " fill="#1D1E22" transform="translate(670,438)"/>
<path d="M0 0 C3.94967848 -0.08403571 7.87042896 -0.0242865 11.8125 0.25 C12.93591797 0.31960938 12.93591797 0.31960938 14.08203125 0.390625 C16 1 16 1 17.26171875 3.046875 C17.62716797 4.01367188 17.62716797 4.01367188 18 5 C11.69632197 4.41632611 6.01339937 2.95928381 0 1 C0 0.67 0 0.34 0 0 Z " fill="#1A1B1F" transform="translate(624,423)"/>
<path d="M0 0 C-8 4 -8 4 -16 8 C-16.66 7.34 -17.32 6.68 -18 6 C-15.14160085 3.69740069 -12.39581962 2.13731655 -9 0.75 C-8.154375 0.39421875 -7.30875 0.0384375 -6.4375 -0.328125 C-3.81117065 -1.05204912 -2.52787043 -0.9128421 0 0 Z " fill="#1B1C20" transform="translate(479,341)"/>
<path d="M0 0 C0 0.99 0 1.98 0 3 C-4.68944507 6.72560656 -9.93573706 9.68082827 -16 10 C-12.75359085 7.439119 -9.33059284 5.37523283 -5.75 3.3125 C-4.13351562 2.37857422 -4.13351562 2.37857422 -2.484375 1.42578125 C-1.25460937 0.72001953 -1.25460937 0.72001953 0 0 Z " fill="#161619" transform="translate(793,683)"/>
<path d="M0 0 C-3.7367843 2.49118953 -5.74451819 2.2065226 -10.1875 2.125 C-11.45980469 2.10695313 -12.73210937 2.08890625 -14.04296875 2.0703125 C-15.50669922 2.03550781 -15.50669922 2.03550781 -17 2 C-17 1.34 -17 0.68 -17 0 C-11.1314592 -1.14819277 -5.9114744 -0.77313045 0 0 Z " fill="#202025" transform="translate(497,338)"/>
<path d="M0 0 C0.33 0 0.66 0 1 0 C1.8759457 7.73752038 -0.98727572 12.50320831 -5 19 C-5.6484375 17.23828125 -5.6484375 17.23828125 -6 15 C-5.0390625 13.10546875 -5.0390625 13.10546875 -3.625 11.1875 C-1.02569533 7.34974545 -0.28727321 4.59637133 0 0 Z " fill="#101013" transform="translate(231,466)"/>
<path d="M0 0 C3.85312035 0.40559162 5.37972871 1.27055074 8 4 C10.59915538 5.19027984 10.59915538 5.19027984 13 6 C13 6.33 13 6.66 13 7 C8.34605219 7.32469403 5.76641082 6.79790518 2 4 C1.67 3.34 1.34 2.68 1 2 C0.34 1.67 -0.32 1.34 -1 1 C-0.67 0.67 -0.34 0.34 0 0 Z " fill="#28292D" transform="translate(290,384)"/>
<path d="M0 0 C3.62613199 0.56959153 5.25517741 1.92374534 7.75 4.5625 C8.36359375 5.20316406 8.9771875 5.84382813 9.609375 6.50390625 C10.06828125 6.99761719 10.5271875 7.49132812 11 8 C10.34 8.66 9.68 9.32 9 10 C7.49702124 8.52386015 5.99768715 7.04400843 4.5 5.5625 C3.6646875 4.73878906 2.829375 3.91507812 1.96875 3.06640625 C0 1 0 1 0 0 Z " fill="#1C1D20" transform="translate(715,469)"/>
<path d="M0 0 C4.875 1.75 4.875 1.75 6 4 C5.01 4.33 4.02 4.66 3 5 C3.66 6.32 4.32 7.64 5 9 C0.125 5.375 0.125 5.375 -1 2 C-0.67 1.34 -0.34 0.68 0 0 Z " fill="#EAC835" transform="translate(320,684)"/>
<path d="M0 0 C-5.96937942 3.21428123 -10.23909536 4.35218093 -17 3 C-17 2.67 -17 2.34 -17 2 C-11.23918159 0.7017874 -5.91260345 -0.25706972 0 0 Z " fill="#131025" transform="translate(304,542)"/>
<path d="M0 0 C0.99 0 1.98 0 3 0 C4 4 5 8 6 12 C3.32098068 9.68118495 2.33795597 7.68185532 1.3125 4.3125 C1.06113281 3.50425781 0.80976563 2.69601562 0.55078125 1.86328125 C0.36902344 1.24839844 0.18726563 0.63351562 0 0 Z " fill="#F5E344" transform="translate(314,674)"/>
<path d="M0 0 C0 0.99 0 1.98 0 3 C-4.29 2.67 -8.58 2.34 -13 2 C-13 1.67 -13 1.34 -13 1 C-8.60563789 0.14256349 -4.47427924 -0.08948558 0 0 Z " fill="#EFD147" transform="translate(292,541)"/>
<path d="M0 0 C0.99 0.33 1.98 0.66 3 1 C2.38125 1.0825 1.7625 1.165 1.125 1.25 C-1.18437567 1.81258459 -1.18437567 1.81258459 -2.25 4.0625 C-2.4975 4.701875 -2.745 5.34125 -3 6 C-3.66 6 -4.32 6 -5 6 C-5.33 6.99 -5.66 7.98 -6 9 C-6.33 8.34 -6.66 7.68 -7 7 C-2.25 1.125 -2.25 1.125 0 0 Z " fill="#353741" transform="translate(241,378)"/>
<path d="M0 0 C0.99 0.33 1.98 0.66 3 1 C-1.455 3.97 -1.455 3.97 -6 7 C-4.14418503 3.28837006 -3.44285416 1.98224936 0 0 Z " fill="#111316" transform="translate(448,356)"/>
<path d="M0 0 C0.66 0 1.32 0 2 0 C2.33 1.32 2.66 2.64 3 4 C0.525 5.485 0.525 5.485 -2 7 C-2.33 6.34 -2.66 5.68 -3 5 C-1.6875 2.375 -1.6875 2.375 0 0 Z " fill="#1C1D21" transform="translate(814,660)"/>
<path d="M0 0 C1.98 0.66 3.96 1.32 6 2 C5.67 3.65 5.34 5.3 5 7 C4.67 6.01 4.34 5.02 4 4 C1.49552484 2.78130071 1.49552484 2.78130071 -1 2 C-0.67 1.34 -0.34 0.68 0 0 Z " fill="#212020" transform="translate(283,636)"/>
<path d="M0 0 C3.93673644 1.31224548 6.22719294 2.91910327 9 6 C5.21213403 5.4739075 2.82847776 4.61896089 0 2 C0 1.34 0 0.68 0 0 Z " fill="#101011" transform="translate(251,619)"/>
<path d="M0 0 C-1 3 -1 3 -2.8125 4.25 C-5.33943414 5.11637742 -6.52221994 4.88492145 -9 4 C-2.25 0 -2.25 0 0 0 Z " fill="#101013" transform="translate(786,688)"/>
<path d="M0 0 C0.66 0 1.32 0 2 0 C0.90931332 3.77545388 0.0916909 6.47043472 -3 9 C-2.44271087 5.65626525 -1.64826111 2.96687001 0 0 Z " fill="#0A0A0C" transform="translate(289,639)"/>
<path d="M0 0 C0.33 0.66 0.66 1.32 1 2 C-1.375 2.625 -1.375 2.625 -4 3 C-4.66 2.34 -5.32 1.68 -6 1 C-4.02 0.67 -2.04 0.34 0 0 Z " fill="#AA8B40" transform="translate(401,693)"/>
<path d="M0 0 C2.97 0 5.94 0 9 0 C9 0.33 9 0.66 9 1 C5.625 1.625 5.625 1.625 2 2 C1.34 1.34 0.68 0.68 0 0 Z " fill="#7A6437" transform="translate(407,693)"/>
<path d="M0 0 C1.65 0 3.3 0 5 0 C4.67 0.66 4.34 1.32 4 2 C2.35 2 0.7 2 -1 2 C-0.67 1.34 -0.34 0.68 0 0 Z " fill="#6D5A37" transform="translate(417,693)"/>
<path d="M0 0 C0.33 0 0.66 0 1 0 C1 2.97 1 5.94 1 9 C0.67 9 0.34 9 0 9 C0 6.03 0 3.06 0 0 Z " fill="#404043" transform="translate(210,544)"/>
<path d="M0 0 C1.98 0 3.96 0 6 0 C4.02 0.99 4.02 0.99 2 2 C1.34 1.34 0.68 0.68 0 0 Z " fill="#3D3A3C" transform="translate(576,702)"/>
<path d="M0 0 C2.31 0 4.62 0 7 0 C7 0.33 7 0.66 7 1 C4.69 1 2.38 1 0 1 C0 0.67 0 0.34 0 0 Z " fill="#3E3E42" transform="translate(598,416)"/>
<path d="M0 0 C1.98 0 3.96 0 6 0 C6 0.33 6 0.66 6 1 C4.02 1 2.04 1 0 1 C0 0.67 0 0.34 0 0 Z " fill="#76613A" transform="translate(303,694)"/>
<path d="M0 0 C1.65 0 3.3 0 5 0 C4.34 0.66 3.68 1.32 3 2 C2.01 1.34 1.02 0.68 0 0 Z " fill="#3B3735" transform="translate(513,693)"/>
<path d="M0 0 C0.33 1.32 0.66 2.64 1 4 C0.34 4 -0.32 4 -1 4 C-0.67 2.68 -0.34 1.36 0 0 Z " fill="#444247" transform="translate(225,399)"/>
<path d="M0 0 C1.32 0.33 2.64 0.66 4 1 C2.68 1.33 1.36 1.66 0 2 C0 1.34 0 0.68 0 0 Z " fill="#3B3A3D" transform="translate(753,702)"/>
<path d="M0 0 C1.65 0 3.3 0 5 0 C5 0.33 5 0.66 5 1 C3.35 1 1.7 1 0 1 C0 0.67 0 0.34 0 0 Z " fill="#3D3C3E" transform="translate(644,699)"/>
<path d="M0 0 C1.98 0.99 1.98 0.99 4 2 C2.68 1.67 1.36 1.34 0 1 C0 0.67 0 0.34 0 0 Z " fill="#3B3736" transform="translate(537,693)"/>
<path d="M0 0 C0.99 0.495 0.99 0.495 2 1 C1.67 1.99 1.34 2.98 1 4 C0.67 2.68 0.34 1.36 0 0 Z " fill="#414043" transform="translate(216,575)"/>
<path d="M0 0 C0.33 0 0.66 0 1 0 C1 1.65 1 3.3 1 5 C0.67 5 0.34 5 0 5 C0 3.35 0 1.7 0 0 Z " fill="#414144" transform="translate(225,442)"/>
<path d="M0 0 C1.485 0.99 1.485 0.99 3 2 C2.01 2 1.02 2 0 2 C0 1.34 0 0.68 0 0 Z " fill="#3F3E43" transform="translate(456,346)"/>
<path d="M0 0 C0.66 0.99 1.32 1.98 2 3 C1.01 2.67 0.02 2.34 -1 2 C-0.67 1.34 -0.34 0.68 0 0 Z " fill="#404144" transform="translate(475,336)"/>
<path d="M0 0 C4 1 4 1 4 1 Z " fill="#3A393C" transform="translate(748,703)"/>
<path d="M0 0 C0.99 0.33 1.98 0.66 3 1 C2.01 1.33 1.02 1.66 0 2 C0 1.34 0 0.68 0 0 Z " fill="#3D3C3C" transform="translate(602,702)"/>
<path d="M0 0 C0.99 0 1.98 0 3 0 C2.67 0.66 2.34 1.32 2 2 C1.34 1.34 0.68 0.68 0 0 Z " fill="#3F3C3E" transform="translate(625,701)"/>
<path d="M0 0 C0 3 0 3 0 3 Z " fill="#3A3A3B" transform="translate(689,693)"/>
<path d="M0 0 C4 1 4 1 4 1 Z " fill="#615236" transform="translate(423,693)"/>
<path d="M0 0 C0.99 0 1.98 0 3 0 C2.67 0.66 2.34 1.32 2 2 C1.34 1.34 0.68 0.68 0 0 Z " fill="#414244" transform="translate(309,392)"/>
<path d="M0 0 C0.99 0.33 1.98 0.66 3 1 C2.01 1 1.02 1 0 1 C0 0.67 0 0.34 0 0 Z " fill="#404044" transform="translate(232,379)"/>
<path d="M0 0 C3 1 3 1 3 1 Z " fill="#3C3B3D" transform="translate(611,702)"/>
<path d="M0 0 C3 1 3 1 3 1 Z " fill="#3F3E3F" transform="translate(631,701)"/>
<path d="M0 0 C3 1 3 1 3 1 Z " fill="#3B3A3A" transform="translate(677,695)"/>
<path d="M0 0 C3 1 3 1 3 1 Z " fill="#3D3938" transform="translate(546,694)"/>
<path d="M0 0 C3 1 3 1 3 1 Z " fill="#584A36" transform="translate(433,693)"/>
<path d="" fill="#433C36" transform="translate(0,0)"/>
<path d="M0 0 C3 1 3 1 3 1 Z " fill="#37383B" transform="translate(780,584)"/>
<path d="" fill="#3A3A3E" transform="translate(0,0)"/>
<path d="" fill="#3A3B41" transform="translate(0,0)"/>
<path d="M0 0 C3 1 3 1 3 1 Z " fill="#3E3F44" transform="translate(661,432)"/>
<path d="" fill="#404144" transform="translate(0,0)"/>
<path d="" fill="#434246" transform="translate(0,0)"/>
<path d="M0 0 C0.66 0 1.32 0 2 0 C1.67 0.66 1.34 1.32 1 2 C0.67 1.34 0.34 0.68 0 0 Z " fill="#424244" transform="translate(297,386)"/>
<path d="M0 0 C3 1 3 1 3 1 Z " fill="#424247" transform="translate(376,376)"/>
<path d="M0 0 C2 1 2 1 2 1 Z " fill="#3D3C3D" transform="translate(591,703)"/>
<path d="M0 0 C2 1 2 1 2 1 Z " fill="#3D3C3E" transform="translate(704,702)"/>
<path d="M0 0 C2 1 2 1 2 1 Z " fill="#3C3A3B" transform="translate(700,701)"/>
<path d="M0 0 C2 1 2 1 2 1 Z " fill="#3B3A3B" transform="translate(697,699)"/>
<path d="M0 0 C2 1 2 1 2 1 Z " fill="#3B3938" transform="translate(555,695)"/>
<path d="M0 0 C2 1 2 1 2 1 Z " fill="#494036" transform="translate(464,695)"/>
<path d="M0 0 C2 1 2 1 2 1 Z " fill="#977C3E" transform="translate(316,695)"/>
<path d="M0 0 C2 1 2 1 2 1 Z " fill="#3B3837" transform="translate(542,694)"/>
<path d="M0 0 C2 1 2 1 2 1 Z " fill="#A88A3C" transform="translate(320,694)"/>
<path d="M0 0 C2 1 2 1 2 1 Z " fill="#3D3836" transform="translate(505,693)"/>
<path d="M0 0 C2 1 2 1 2 1 Z " fill="#3E3934" transform="translate(497,693)"/>
<path d="M0 0 C2 1 2 1 2 1 Z " fill="#473F38" transform="translate(478,692)"/>
<path d="" fill="#524737" transform="translate(0,0)"/>
<path d="" fill="#4E4438" transform="translate(0,0)"/>
<path d="" fill="#393C3E" transform="translate(0,0)"/>
<path d="" fill="#404042" transform="translate(0,0)"/>
<path d="" fill="#414144" transform="translate(0,0)"/>
<path d="" fill="#3F3F42" transform="translate(0,0)"/>
<path d="" fill="#3D3C41" transform="translate(0,0)"/>
<path d="" fill="#424146" transform="translate(0,0)"/>
<path d="" fill="#3E3E42" transform="translate(0,0)"/>
<path d="" fill="#434245" transform="translate(0,0)"/>
<path d="" fill="#414245" transform="translate(0,0)"/>
<path d="" fill="#414045" transform="translate(0,0)"/>
<path d="" fill="#3F3F43" transform="translate(0,0)"/>
<path d="" fill="#434247" transform="translate(0,0)"/>
<path d="M0 0 C2 1 2 1 2 1 Z " fill="#3B3E43" transform="translate(691,448)"/>
<path d="M0 0 C2 1 2 1 2 1 Z " fill="#3F3E43" transform="translate(681,442)"/>
<path d="M0 0 C2 1 2 1 2 1 Z " fill="#3E3F44" transform="translate(665,434)"/>
<path d="M0 0 C2 1 2 1 2 1 Z " fill="#414246" transform="translate(615,418)"/>
<path d="M0 0 C2 1 2 1 2 1 Z " fill="#414245" transform="translate(610,417)"/>
<path d="" fill="#434346" transform="translate(0,0)"/>
<path d="" fill="#414246" transform="translate(0,0)"/>
<path d="M0 0 C2 1 2 1 2 1 Z " fill="#424144" transform="translate(301,388)"/>
<path d="M0 0 C2 1 2 1 2 1 Z " fill="#414246" transform="translate(340,385)"/>
<path d="M0 0 C2 1 2 1 2 1 Z " fill="#454547" transform="translate(344,384)"/>
<path d="M0 0 C2 1 2 1 2 1 Z " fill="#424246" transform="translate(329,384)"/>
<path d="M0 0 C2 1 2 1 2 1 Z " fill="#434349" transform="translate(361,379)"/>
<path d="M0 0 C2 1 2 1 2 1 Z " fill="#404247" transform="translate(370,377)"/>
<path d="M0 0 C2 1 2 1 2 1 Z " fill="#414146" transform="translate(267,376)"/>
<path d="" fill="#3F4043" transform="translate(0,0)"/>
<path d="M0 0 C2 1 2 1 2 1 Z " fill="#3E3E42" transform="translate(461,345)"/>
<path d="" fill="#595752" transform="translate(0,0)"/>
<path d="" fill="#DABA4D" transform="translate(0,0)"/>
<path d="" fill="#D7B94A" transform="translate(0,0)"/>
<path d="" fill="#3A3B3B" transform="translate(0,0)"/>
<path d="" fill="#3F3D3E" transform="translate(0,0)"/>
<path d="" fill="#3F3A3C" transform="translate(0,0)"/>
<path d="" fill="#D3AE42" transform="translate(0,0)"/>
<path d="" fill="#CBAB46" transform="translate(0,0)"/>
<path d="" fill="#3F3F40" transform="translate(0,0)"/>
<path d="" fill="#3E3C3F" transform="translate(0,0)"/>
<path d="" fill="#3E3D3E" transform="translate(0,0)"/>
<path d="" fill="#3E3C3D" transform="translate(0,0)"/>
<path d="" fill="#3B3A3F" transform="translate(0,0)"/>
<path d="" fill="#3A3A3D" transform="translate(0,0)"/>
<path d="" fill="#3F3E3F" transform="translate(0,0)"/>
<path d="" fill="#3B3B3C" transform="translate(0,0)"/>
<path d="" fill="#3D3C3D" transform="translate(0,0)"/>
<path d="" fill="#3B3B39" transform="translate(0,0)"/>
<path d="" fill="#3A3A3D" transform="translate(0,0)"/>
<path d="" fill="#3E3B3D" transform="translate(0,0)"/>
<path d="" fill="#3C3A39" transform="translate(0,0)"/>
<path d="" fill="#453E37" transform="translate(0,0)"/>
<path d="" fill="#564938" transform="translate(0,0)"/>
<path d="" fill="#554A38" transform="translate(0,0)"/>
<path d="" fill="#564A37" transform="translate(0,0)"/>
<path d="" fill="#5B4C38" transform="translate(0,0)"/>
<path d="" fill="#5C4E36" transform="translate(0,0)"/>
<path d="" fill="#7A6639" transform="translate(0,0)"/>
<path d="" fill="#B1973F" transform="translate(0,0)"/>
<path d="" fill="#3A3B3E" transform="translate(0,0)"/>
<path d="" fill="#39383D" transform="translate(0,0)"/>
<path d="" fill="#3C3937" transform="translate(0,0)"/>
<path d="" fill="#3F3A39" transform="translate(0,0)"/>
<path d="" fill="#3F3A36" transform="translate(0,0)"/>
<path d="" fill="#504638" transform="translate(0,0)"/>
<path d="" fill="#5E5136" transform="translate(0,0)"/>
<path d="" fill="#917A3D" transform="translate(0,0)"/>
<path d="" fill="#3C3634" transform="translate(0,0)"/>
<path d="" fill="#3C3734" transform="translate(0,0)"/>
<path d="" fill="#3D3835" transform="translate(0,0)"/>
<path d="" fill="#3D3736" transform="translate(0,0)"/>
<path d="" fill="#3C3935" transform="translate(0,0)"/>
<path d="" fill="#3F3735" transform="translate(0,0)"/>
<path d="" fill="#3D3935" transform="translate(0,0)"/>
<path d="" fill="#403A34" transform="translate(0,0)"/>
<path d="" fill="#464036" transform="translate(0,0)"/>
<path d="" fill="#544837" transform="translate(0,0)"/>
<path d="" fill="#554736" transform="translate(0,0)"/>
<path d="" fill="#5B4D36" transform="translate(0,0)"/>
<path d="" fill="#91763A" transform="translate(0,0)"/>
<path d="" fill="#9B7E3E" transform="translate(0,0)"/>
<path d="" fill="#675838" transform="translate(0,0)"/>
<path d="" fill="#494139" transform="translate(0,0)"/>
<path d="" fill="#524637" transform="translate(0,0)"/>
<path d="" fill="#645538" transform="translate(0,0)"/>
<path d="" fill="#63543C" transform="translate(0,0)"/>
<path d="" fill="#3A3C3F" transform="translate(0,0)"/>
<path d="" fill="#61543C" transform="translate(0,0)"/>
<path d="" fill="#594935" transform="translate(0,0)"/>
<path d="" fill="#584B3A" transform="translate(0,0)"/>
<path d="" fill="#5C4C36" transform="translate(0,0)"/>
<path d="" fill="#38373C" transform="translate(0,0)"/>
<path d="" fill="#514536" transform="translate(0,0)"/>
<path d="" fill="#4F4335" transform="translate(0,0)"/>
<path d="" fill="#4E4336" transform="translate(0,0)"/>
<path d="" fill="#3A3B3F" transform="translate(0,0)"/>
<path d="" fill="#3B393E" transform="translate(0,0)"/>
<path d="" fill="#3A3A3F" transform="translate(0,0)"/>
<path d="" fill="#393B3E" transform="translate(0,0)"/>
<path d="" fill="#393C3E" transform="translate(0,0)"/>
<path d="" fill="#3D3736" transform="translate(0,0)"/>
<path d="" fill="#39393D" transform="translate(0,0)"/>
<path d="" fill="#3A3634" transform="translate(0,0)"/>
<path d="" fill="#3B3A40" transform="translate(0,0)"/>
<path d="" fill="#3C3A3A" transform="translate(0,0)"/>
<path d="" fill="#3A3C40" transform="translate(0,0)"/>
<path d="" fill="#3C3B3E" transform="translate(0,0)"/>
<path d="" fill="#403B3E" transform="translate(0,0)"/>
<path d="" fill="#3F3B3C" transform="translate(0,0)"/>
<path d="" fill="#3E3E3E" transform="translate(0,0)"/>
<path d="" fill="#3D393A" transform="translate(0,0)"/>
<path d="" fill="#3A3A41" transform="translate(0,0)"/>
<path d="" fill="#3F3D3E" transform="translate(0,0)"/>
<path d="" fill="#413E3F" transform="translate(0,0)"/>
<path d="" fill="#3F3F41" transform="translate(0,0)"/>
<path d="" fill="#3F3C3C" transform="translate(0,0)"/>
<path d="" fill="#3F3B3E" transform="translate(0,0)"/>
<path d="" fill="#39393E" transform="translate(0,0)"/>
<path d="" fill="#39393E" transform="translate(0,0)"/>
<path d="" fill="#403E40" transform="translate(0,0)"/>
<path d="" fill="#383939" transform="translate(0,0)"/>
<path d="" fill="#38373C" transform="translate(0,0)"/>
<path d="" fill="#423D40" transform="translate(0,0)"/>
<path d="" fill="#403C3F" transform="translate(0,0)"/>
<path d="" fill="#383B3B" transform="translate(0,0)"/>
<path d="" fill="#3E4043" transform="translate(0,0)"/>
<path d="" fill="#403E41" transform="translate(0,0)"/>
<path d="" fill="#3F3F41" transform="translate(0,0)"/>
<path d="" fill="#404040" transform="translate(0,0)"/>
<path d="" fill="#3F3E42" transform="translate(0,0)"/>
<path d="" fill="#39393A" transform="translate(0,0)"/>
<path d="" fill="#3B3B40" transform="translate(0,0)"/>
<path d="" fill="#403E43" transform="translate(0,0)"/>
<path d="" fill="#393A40" transform="translate(0,0)"/>
<path d="" fill="#414042" transform="translate(0,0)"/>
<path d="" fill="#423E42" transform="translate(0,0)"/>
<path d="" fill="#424145" transform="translate(0,0)"/>
<path d="" fill="#3F3E42" transform="translate(0,0)"/>
<path d="" fill="#3E3C41" transform="translate(0,0)"/>
<path d="" fill="#3D3E42" transform="translate(0,0)"/>
<path d="" fill="#414244" transform="translate(0,0)"/>
<path d="" fill="#414345" transform="translate(0,0)"/>
<path d="" fill="#3F3E42" transform="translate(0,0)"/>
<path d="" fill="#414144" transform="translate(0,0)"/>
<path d="" fill="#424345" transform="translate(0,0)"/>
<path d="" fill="#434347" transform="translate(0,0)"/>
<path d="" fill="#444247" transform="translate(0,0)"/>
<path d="" fill="#3D3D40" transform="translate(0,0)"/>
<path d="" fill="#444246" transform="translate(0,0)"/>
<path d="" fill="#434148" transform="translate(0,0)"/>
<path d="" fill="#414146" transform="translate(0,0)"/>
<path d="" fill="#3F3F43" transform="translate(0,0)"/>
<path d="" fill="#414145" transform="translate(0,0)"/>
<path d="" fill="#3F4346" transform="translate(0,0)"/>
<path d="" fill="#3F4043" transform="translate(0,0)"/>
<path d="" fill="#454448" transform="translate(0,0)"/>
<path d="" fill="#424045" transform="translate(0,0)"/>
<path d="" fill="#3E4143" transform="translate(0,0)"/>
<path d="" fill="#3F3E43" transform="translate(0,0)"/>
<path d="" fill="#3F3E43" transform="translate(0,0)"/>
<path d="" fill="#414146" transform="translate(0,0)"/>
<path d="" fill="#404245" transform="translate(0,0)"/>
<path d="" fill="#444448" transform="translate(0,0)"/>
<path d="" fill="#3D3E43" transform="translate(0,0)"/>
<path d="" fill="#3C3E43" transform="translate(0,0)"/>
<path d="" fill="#404246" transform="translate(0,0)"/>
<path d="" fill="#3F3D44" transform="translate(0,0)"/>
<path d="" fill="#404147" transform="translate(0,0)"/>
<path d="" fill="#434346" transform="translate(0,0)"/>
<path d="" fill="#413F44" transform="translate(0,0)"/>
<path d="" fill="#3F4245" transform="translate(0,0)"/>
<path d="" fill="#403E45" transform="translate(0,0)"/>
<path d="" fill="#414346" transform="translate(0,0)"/>
<path d="" fill="#434347" transform="translate(0,0)"/>
<path d="" fill="#3F3F44" transform="translate(0,0)"/>
<path d="" fill="#3C3E41" transform="translate(0,0)"/>
<path d="" fill="#3B3C3E" transform="translate(0,0)"/>
<path d="" fill="#3F3F42" transform="translate(0,0)"/>
<path d="" fill="#404144" transform="translate(0,0)"/>
<path d="" fill="#444247" transform="translate(0,0)"/>
<path d="" fill="#404044" transform="translate(0,0)"/>
<path d="" fill="#3E3E42" transform="translate(0,0)"/>
<path d="" fill="#414144" transform="translate(0,0)"/>
<path d="" fill="#404244" transform="translate(0,0)"/>
<path d="" fill="#424146" transform="translate(0,0)"/>
<path d="" fill="#434448" transform="translate(0,0)"/>
<path d="" fill="#403F45" transform="translate(0,0)"/>
<path d="" fill="#434147" transform="translate(0,0)"/>
<path d="" fill="#404448" transform="translate(0,0)"/>
<path d="" fill="#424247" transform="translate(0,0)"/>
<path d="" fill="#3E3F43" transform="translate(0,0)"/>
<path d="" fill="#424346" transform="translate(0,0)"/>
<path d="" fill="#3F3F42" transform="translate(0,0)"/>
<path d="" fill="#414244" transform="translate(0,0)"/>
<path d="" fill="#424147" transform="translate(0,0)"/>
<path d="" fill="#444449" transform="translate(0,0)"/>
<path d="" fill="#424044" transform="translate(0,0)"/>
<path d="" fill="#424446" transform="translate(0,0)"/>
<path d="" fill="#404245" transform="translate(0,0)"/>
<path d="" fill="#47434B" transform="translate(0,0)"/>
<path d="" fill="#3F3D41" transform="translate(0,0)"/>
<path d="" fill="#434447" transform="translate(0,0)"/>
<path d="" fill="#3E4041" transform="translate(0,0)"/>
<path d="" fill="#413F42" transform="translate(0,0)"/>
<path d="" fill="#423F43" transform="translate(0,0)"/>
<path d="" fill="#404245" transform="translate(0,0)"/>
<path d="" fill="#434447" transform="translate(0,0)"/>
<path d="" fill="#444345" transform="translate(0,0)"/>
<path d="" fill="#424247" transform="translate(0,0)"/>
<path d="" fill="#3E3F42" transform="translate(0,0)"/>
<path d="" fill="#424243" transform="translate(0,0)"/>
<path d="" fill="#3F3F43" transform="translate(0,0)"/>
<path d="" fill="#3D403F" transform="translate(0,0)"/>
<path d="" fill="#3E3E40" transform="translate(0,0)"/>
<path d="" fill="#3F4244" transform="translate(0,0)"/>
<path d="" fill="#3D3C40" transform="translate(0,0)"/>
<path d="" fill="#3D3E40" transform="translate(0,0)"/>
<path d="" fill="#3C3E40" transform="translate(0,0)"/>
<path d="" fill="#414245" transform="translate(0,0)"/>
<path d="" fill="#3A3D3F" transform="translate(0,0)"/>
<path d="" fill="#424146" transform="translate(0,0)"/>
<path d="" fill="#525253" transform="translate(0,0)"/>
<path d="" fill="#3E3E41" transform="translate(0,0)"/>
<path d="" fill="#414144" transform="translate(0,0)"/>
<path d="" fill="#414043" transform="translate(0,0)"/>
<path d="" fill="#414345" transform="translate(0,0)"/>
<path d="" fill="#414145" transform="translate(0,0)"/>
<path d="" fill="#3F4044" transform="translate(0,0)"/>
<path d="" fill="#404245" transform="translate(0,0)"/>
<path d="" fill="#424345" transform="translate(0,0)"/>
<path d="" fill="#444244" transform="translate(0,0)"/>
<path d="" fill="#444446" transform="translate(0,0)"/>
<path d="" fill="#424144" transform="translate(0,0)"/>
<path d="" fill="#414246" transform="translate(0,0)"/>
<path d="" fill="#434146" transform="translate(0,0)"/>
<path d="" fill="#4D4C4D" transform="translate(0,0)"/>
<path d="" fill="#58585A" transform="translate(0,0)"/>
</svg>
