<?xml version="1.0" encoding="UTF-8"?>
<svg version="1.1" xmlns="http://www.w3.org/2000/svg" width="1024" height="1024">
<path d="M0 0 C11.02033447 9.27242842 12.82429863 25.40561113 14 39 C14.25360052 43.8314521 14.4126145 48.66434979 14.5625 53.5 C14.62727539 55.4490625 14.62727539 55.4490625 14.69335938 57.4375 C14.7988251 60.62490845 14.90094448 63.81238698 15 67 C16.40185547 67.41958984 16.40185547 67.41958984 17.83203125 67.84765625 C26.55941254 70.50019496 35.11980495 73.43388541 43.61450195 76.76391602 C47.53403977 78.26235512 50.72466953 79.43695762 55 79 C54.67 79.99 54.34 80.98 54 82 C55.26650391 82.37318359 55.26650391 82.37318359 56.55859375 82.75390625 C60.31356512 84.11353834 63.63870153 85.91586385 67.0625 87.9375 C67.9606543 88.45860352 67.9606543 88.45860352 68.87695312 88.99023438 C70.58902774 89.98597547 72.29466705 90.99275656 74 92 C74.88300781 92.515625 75.76601563 93.03125 76.67578125 93.5625 C78.93024424 94.95685694 81.02218809 96.4503442 83.125 98.0625 C87.72928082 101.60923202 87.72928082 101.60923202 93 104 C93.66781288 105.33275961 94.33428793 106.6661898 95 108 C96.43153171 109.36429734 97.91852533 110.67128271 99.4375 111.9375 C115.01640744 125.67567198 127.5322272 144.23736089 134 164 C134 164.99 134 165.98 134 167 C134.680625 167.01417969 135.36125 167.02835938 136.0625 167.04296875 C149.19957939 167.68934101 161.15341348 171.54814667 172 179 C173.670625 180.0209375 173.670625 180.0209375 175.375 181.0625 C178.19139918 183.14127082 179.91422967 185.19724611 182 188 C182.45117188 188.47953125 182.90234375 188.9590625 183.3671875 189.453125 C192.3345081 199.02446201 196.86386526 211.92486141 197.375 224.9375 C196.70472954 242.85994925 188.77976156 257.66005731 176.125 270.0625 C159.96906319 284.07916794 136.54783734 293.81312594 115 293 C114.67 293.66 114.34 294.32 114 295 C105.75 295 97.5 295 89 295 C89 294.34 89 293.68 89 293 C80.05792818 291.50924739 71.68884745 292.57788431 62.82391357 293.88995361 C58.57470973 294.5146839 54.31853377 295.08802453 50.0625 295.6640625 C49.20208099 295.78103485 48.34166199 295.8980072 47.45516968 296.01852417 C-27.87143502 306.15807605 -105.09779502 305.32262415 -181 306 C-182.06534973 306.00966797 -183.13069946 306.01933594 -184.22833252 306.02929688 C-197.48686674 306.14425447 -210.74157964 306.11736577 -224 306 C-225.26618164 305.98904297 -226.53236328 305.97808594 -227.83691406 305.96679688 C-301.31119935 305.31875174 -374.77343445 303.83815671 -447.9375 296.5 C-448.90691528 296.40439789 -449.87633057 296.30879578 -450.87512207 296.21029663 C-519.37134276 289.35816921 -519.37134276 289.35816921 -535 271 C-541.89275186 262.07332136 -544.03895445 254.28197973 -543 243 C-540.32011077 231.21187965 -531.87507677 223.13201789 -522.3203125 216.3984375 C-520 215 -520 215 -518 215 C-518 208.07 -518 201.14 -518 194 C-517.34 194 -516.68 194 -516 194 C-515.97421875 193.45214844 -515.9484375 192.90429688 -515.921875 192.33984375 C-513.42384405 157.42418392 -490.2866749 126.91124738 -465 104.484375 C-449.01527069 91.24702104 -449.01527069 91.24702104 -443.30102539 88.88378906 C-440.56748597 87.08081936 -440.56748597 87.08081936 -440.46411133 83.15307617 C-440.47827248 81.53262547 -440.51950718 79.9122747 -440.58203125 78.29296875 C-440.59475571 77.42381836 -440.60748016 76.55466797 -440.62059021 75.65917969 C-440.64942001 73.79866926 -440.68896385 71.93829989 -440.73815918 70.07821655 C-440.86177269 65.27154876 -440.89831048 60.46420237 -440.94140625 55.65625 C-440.95154755 54.71863327 -440.96168884 53.78101654 -440.97213745 52.81498718 C-441.296505 16.23900219 -441.296505 16.23900219 -430.55859375 3.51953125 C-425.83928138 -1.08150261 -420.32548149 -1.88483017 -414 -2 C-408.98733548 -1.78488565 -403.99942626 -1.42814586 -399 -1 C-399 -0.34 -399 0.32 -399 1 C-398.01773438 1.14695312 -398.01773438 1.14695312 -397.015625 1.296875 C-390.59035277 2.34960322 -384.65574003 3.98727267 -378.53125 6.1953125 C-375.96617811 7.15148042 -375.96617811 7.15148042 -373 7 C-373 7.66 -373 8.32 -373 9 C-372.13797974 9.22478027 -372.13797974 9.22478027 -371.25854492 9.45410156 C-363.90768925 11.50089888 -357.20106442 14.49943814 -350.3125 17.75 C-349.15258545 18.27553467 -347.9926709 18.80106934 -346.79760742 19.3425293 C-337.09484734 23.77215364 -337.09484734 23.77215364 -333.0625 26.66015625 C-328.00132752 30.01196639 -324.75674455 31.44858764 -318.78027344 30.47607422 C-311.40236286 28.69109585 -304.23719758 26.30575636 -297.04289246 23.90020752 C-290.26433962 21.67486823 -283.39046853 20.22040859 -276.375 18.9375 C-275.29758545 18.73479492 -274.2201709 18.53208984 -273.11010742 18.32324219 C-268.66870386 17.52151632 -264.52412174 16.89927274 -260 17 C-259.67 16.34 -259.34 15.68 -259 15 C-256.60546875 14.65625 -256.60546875 14.65625 -253.1875 14.5 C-251.80849496 14.4303135 -250.42959569 14.35851724 -249.05078125 14.28515625 C-247.86476318 14.22352295 -247.86476318 14.22352295 -246.65478516 14.16064453 C-243.69645883 13.98163233 -240.74640967 13.74284825 -237.79296875 13.49609375 C-212.35260242 11.40585825 -187.38405329 11.6429272 -161.95605469 13.76513672 C-157.00215828 14.15873173 -152.04148107 14.4117497 -147.078125 14.65625 C-144.05848225 14.99346899 -141.23259089 15.64507434 -138.29833984 16.42041016 C-132.62136029 17.85201728 -126.84614736 18.9030731 -121.10742188 20.05664062 C-116.0470276 21.09194117 -111.07769127 22.22939127 -106.11328125 23.66015625 C-98.09826873 25.85389725 -93.80310255 24.842167 -86.625 21 C-85.88894531 20.6184375 -85.15289063 20.236875 -84.39453125 19.84375 C-82.5906766 18.90668265 -80.79452741 17.95480793 -79 17 C-79 16.34 -79 15.68 -79 15 C-78.02933594 14.90976562 -77.05867188 14.81953125 -76.05859375 14.7265625 C-71.3936604 14.05597103 -67.36446723 12.22963164 -63.0625 10.375 C-55.30857041 7.1546209 -47.49935406 4.46941916 -39.4375 2.125 C-38.46369385 1.83931152 -37.4898877 1.55362305 -36.48657227 1.25927734 C-11.09205485 -5.95426283 -11.09205485 -5.95426283 0 0 Z " fill="#2B2E36" transform="translate(703,369)"/>
<path d="M0 0 C1.15242187 0.29519531 2.30484375 0.59039063 3.4921875 0.89453125 C6.32068349 1.60383101 9.14879512 2.25086376 12.0078125 2.82421875 C26.19535617 5.74397906 41.07536436 10.90855816 50 23 C50.44988281 23.47824219 50.89976562 23.95648437 51.36328125 24.44921875 C60.33290314 34.0214509 64.86377151 46.92247472 65.375 59.9375 C64.70472954 77.85994925 56.77976156 92.66005731 44.125 105.0625 C27.96906319 119.07916794 4.54783734 128.81312594 -17 128 C-17.33 128.66 -17.66 129.32 -18 130 C-26.25 130 -34.5 130 -43 130 C-43 129.34 -43 128.68 -43 128 C-49.27897241 127.26196527 -54.73047245 127.04363139 -61 128 C-73.21229224 129.29003087 -73.21229224 129.29003087 -77.1328125 126.4609375 C-78.72762483 124.38527723 -79.87491098 122.35973727 -81 120 C-81.61875 118.989375 -82.2375 117.97875 -82.875 116.9375 C-85.66952633 109.64161089 -85.07490229 99.97116167 -82.5625 92.6875 C-75.77429951 78.62122888 -63.27275027 72.89756094 -49.30859375 67.9375 C-46.31329175 66.89837363 -43.31317493 65.87522786 -40.30932617 64.86108398 C-24.39930689 59.4789927 -7.62988425 52.60995627 0.4375 36.8125 C4.50939047 25.57548039 2.65329464 11.37039038 0 0 Z " fill="#282B33" transform="translate(835,534)"/>
<path d="M0 0 C0.495 1.485 0.495 1.485 1 3 C-2.95896535 4.50334876 -6.91181302 5.98594341 -10.9296875 7.32421875 C-21.63712959 10.96998785 -31.42228177 15.572092 -37 26 C-39.39858207 33.1957462 -39.10201515 41.69474981 -35.875 48.5625 C-33.50534 52.69752274 -30.7929468 55.17734192 -27 58 C-27 58.66 -27 59.32 -27 60 C-25.35 60.33 -23.7 60.66 -22 61 C-24 63 -24 63 -26.625 63.125 C-27.40875 63.08375 -28.1925 63.0425 -29 63 C-29 63.66 -29 64.32 -29 65 C-41.29380544 66.21253971 -41.29380544 66.21253971 -45.16015625 63.46484375 C-46.72689424 61.38520943 -47.88060593 59.34779282 -49 57 C-49.61875 55.989375 -50.2375 54.97875 -50.875 53.9375 C-53.66952633 46.64161089 -53.07490229 36.97116167 -50.5625 29.6875 C-42.49341299 12.96702074 -25.91817156 7.80682083 -9.56323242 2.08129883 C-3.40980061 0 -3.40980061 0 0 0 Z " fill="#1E1F25" transform="translate(803,597)"/>
<path d="M0 0 C3.1875 1.0625 3.1875 1.0625 4.33203125 2.80859375 C4.99054506 4.23843449 5.63492983 5.67486001 6.265625 7.1171875 C7.48491487 9.69009578 8.60814082 10.84868392 11.1875 12.0625 C14.61343813 12.34799484 17.99254885 12.43176478 21.1875 11.0625 C22.34672128 9.33107146 22.34672128 9.33107146 23.1875 7.0625 C25.54578877 1.33522727 25.54578877 1.33522727 28.6875 0 C31.1875 0.0625 31.1875 0.0625 32.8125 1.125 C34.1875 3.0625 34.1875 3.0625 35.5625 6.0625 C37.43577345 9.52085099 38.53364246 10.65078231 42.1875 12.0625 C46.049225 11.99475044 48.3265943 11.70817927 51.4375 9.375 C53.34046739 7.03839583 53.34046739 7.03839583 54.625 3.875 C56.1875 1.0625 56.1875 1.0625 58.75 0.0625 C59.554375 0.0625 60.35875 0.0625 61.1875 0.0625 C63.1875 2.0625 63.1875 2.0625 63.5625 5.8125 C63.41519958 10.90357071 61.33880294 13.98421779 57.69140625 17.5078125 C52.62230313 21.93221672 48.56811589 22.456429 42.0546875 22.421875 C36.69575994 21.75018381 32.9222187 18.7972187 29.1875 15.0625 C28.71699219 15.48402344 28.24648438 15.90554688 27.76171875 16.33984375 C27.13910156 16.88769531 26.51648438 17.43554688 25.875 18 C25.26011719 18.54527344 24.64523437 19.09054687 24.01171875 19.65234375 C20.14416554 22.64203692 15.81150831 22.52084911 11.11328125 22.46484375 C5.38495295 21.67710301 1.18834024 18.67573461 -2.29296875 14.12890625 C-4.89727592 9.5691466 -5.1865533 6.241624 -3.8125 1.0625 C-2.8125 0.0625 -2.8125 0.0625 0 0 Z " fill="#FACD45" transform="translate(451.8125,561.9375)"/>
<path d="M0 0 C1.8170343 -0.01418472 1.8170343 -0.01418472 3.67077637 -0.02865601 C4.98018188 -0.02258331 6.2895874 -0.01651062 7.63867188 -0.01025391 C8.99483395 -0.01227492 10.35099497 -0.01518658 11.70715332 -0.01895142 C14.54852654 -0.02337356 17.38961672 -0.01694764 20.23095703 -0.00292969 C23.87294291 0.01416263 27.51426557 0.00432079 31.15622711 -0.01364708 C33.95637 -0.02448816 36.75635567 -0.0210372 39.5565033 -0.0132637 C41.55236237 -0.01028939 43.54822756 -0.0193998 45.54406738 -0.02865601 C46.75542358 -0.01919952 47.96677979 -0.00974304 49.21484375 0 C50.28279175 0.00238678 51.35073975 0.00477356 52.4510498 0.00723267 C55.10742188 0.38818359 55.10742188 0.38818359 56.94836426 1.72494507 C58.77701623 4.34904621 58.55916812 6.29049504 58.10742188 9.38818359 C55.00487869 12.48850824 52.591816 12.76639645 48.30078125 12.77636719 C46.54876404 12.79055191 46.54876404 12.79055191 44.76135254 12.80502319 C43.50399292 12.7989505 42.2466333 12.79287781 40.95117188 12.78662109 C39.65675171 12.78949127 38.36233154 12.79236145 37.02868652 12.7953186 C34.29163856 12.79973611 31.55488479 12.79332983 28.81787109 12.77929688 C25.31388684 12.76220477 21.81059197 12.7720491 18.306633 12.79001427 C14.95892437 12.80347683 11.61140007 12.79404417 8.26367188 12.78662109 C7.00631226 12.79269379 5.74895264 12.79876648 4.45349121 12.80502319 C3.28547974 12.79556671 2.11746826 12.78611023 0.9140625 12.77636719 C-0.1131189 12.77398041 -1.14030029 12.77159363 -2.1986084 12.76913452 C-5.30125322 12.33039335 -6.68716969 11.592015 -8.89257812 9.38818359 C-9.34432437 6.29049504 -9.56217248 4.34904621 -7.73352051 1.72494507 C-5.11996321 -0.17283443 -3.21193868 0.00717843 0 0 Z " fill="#F1C442" transform="translate(553.892578125,537.61181640625)"/>
<path d="M0 0 C1.1713147 -0.00953201 2.34262939 -0.01906403 3.54943848 -0.02888489 C5.44792542 -0.02751778 5.44792542 -0.02751778 7.38476562 -0.02612305 C8.68297241 -0.03040817 9.9811792 -0.0346933 11.31872559 -0.03910828 C14.06587813 -0.04656735 16.81290215 -0.04628123 19.56005859 -0.04101562 C23.08095102 -0.03521648 26.60131817 -0.05216344 30.12212372 -0.0753603 C33.48052672 -0.09362937 36.83881315 -0.08991268 40.19726562 -0.08862305 C41.46292358 -0.09783279 42.72858154 -0.10704254 44.03259277 -0.11653137 C45.78956482 -0.10718819 45.78956482 -0.10718819 47.58203125 -0.09765625 C48.61444946 -0.09828568 49.64686768 -0.0989151 50.71057129 -0.0995636 C53.29101562 0.2746582 53.29101562 0.2746582 55.1204834 1.61042786 C56.96451807 4.23222535 56.74363416 6.17098826 56.29101562 9.2746582 C53.21037635 12.34069022 50.83223646 12.65593 46.57617188 12.67871094 C45.42818115 12.69139511 44.28019043 12.70407928 43.09741211 12.71714783 C41.24418335 12.71274437 41.24418335 12.71274437 39.35351562 12.70825195 C38.0812915 12.7134938 36.80906738 12.71873566 35.49829102 12.72413635 C32.80811631 12.73056068 30.11878964 12.73065277 27.42871094 12.72070312 C23.98511276 12.70920615 20.54253893 12.72943758 17.09907532 12.75862026 C13.80888343 12.78139685 10.51876789 12.7745155 7.22851562 12.77075195 C5.37528687 12.78760292 5.37528687 12.78760292 3.48461914 12.80479431 C2.33662842 12.79541336 1.1886377 12.78603241 0.00585938 12.77636719 C-1.50826538 12.77611794 -1.50826538 12.77611794 -3.05297852 12.77586365 C-6.4371429 12.13724999 -7.65044412 10.99266806 -9.70898438 8.2746582 C-9.64648438 5.1496582 -9.64648438 5.1496582 -8.70898438 2.2746582 C-5.28504919 -0.00796525 -4.02678567 0.01797041 0 0 Z " fill="#F0C442" transform="translate(357.708984375,537.725341796875)"/>
<path d="M0 0 C29.04 0 58.08 0 88 0 C88 0.33 88 0.66 88 1 C86.3603125 1.2165625 86.3603125 1.2165625 84.6875 1.4375 C81.06877013 1.88288104 81.06877013 1.88288104 78 3 C75.48722518 3.03352952 73.00887752 3.00780299 70.49926758 2.92993164 C69.73805099 2.91057053 68.97683441 2.89120941 68.19255066 2.8712616 C65.67637981 2.80599411 63.16049017 2.73310456 60.64453125 2.66015625 C58.90005218 2.61341751 57.15556031 2.56715395 55.41105652 2.52134705 C50.81928859 2.39949731 46.22772303 2.27118463 41.63616943 2.14154053 C36.9509105 2.01039014 32.26548945 1.88533169 27.58007812 1.75976562 C18.38654948 1.51248377 9.19322306 1.25837621 0 1 C0 0.67 0 0.34 0 0 Z " fill="#121319" transform="translate(408,672)"/>
<path d="M0 0 C0.99 0.66 1.98 1.32 3 2 C3.1875 5.125 3.1875 5.125 3 8 C2.34 7.34 1.68 6.68 1 6 C0.91773332 9.04386724 1.02391783 11.07175348 2 14 C1.96311965 16.72914576 1.86197109 19.40516293 1.6875 22.125 C1.63432617 23.23681641 1.63432617 23.23681641 1.58007812 24.37109375 C1.46477495 26.25380523 1.24065411 28.12917586 1 30 C0.34 30.33 -0.32 30.66 -1 31 C-1.33 40.57 -1.66 50.14 -2 60 C-2.33 60 -2.66 60 -3 60 C-3.5351991 13.25653414 -3.5351991 13.25653414 0 0 Z " fill="#3D3F45" transform="translate(265,388)"/>
<path d="M0 0 C0.66 0 1.32 0 2 0 C2.07476562 1.03898438 2.14953125 2.07796875 2.2265625 3.1484375 C3.09459435 13.06590979 4.57790512 20.90323081 12.1484375 28.01953125 C16.47608848 31.52743947 21.08884304 34.38768247 26 37 C24.33203125 37.6796875 24.33203125 37.6796875 22 38 C12.00157559 33.62090447 4.81180638 25.53450847 0.64453125 15.55078125 C-0.64480161 10.44814879 -0.29032248 5.21774005 0 0 Z " fill="#26272C" transform="translate(160,612)"/>
<path d="M0 0 C31.11401495 -0.20638953 31.11401495 -0.20638953 46 1 C46 1.66 46 2.32 46 3 C33.79 3 21.58 3 9 3 C9 2.67 9 2.34 9 2 C6.03 1.67 3.06 1.34 0 1 C0 0.67 0 0.34 0 0 Z " fill="#36373D" transform="translate(487,381)"/>
<path d="M0 0 C0.99 1.485 0.99 1.485 2 3 C6.00095508 8.8367763 6.00095508 8.8367763 12.1875 11.75 C13.445625 11.8325 14.70375 11.915 16 12 C17.07507813 12.12955078 17.07507813 12.12955078 18.171875 12.26171875 C24.08853211 12.72076973 27.06960248 11.09928212 31.56640625 7.3125 C32.03949219 6.879375 32.51257813 6.44625 33 6 C31.29410439 9.74982583 29.38633833 11.60478508 26 14 C20.53802003 15.82065999 14.72199975 16.21068049 9.3828125 13.8359375 C5.27386201 11.20890358 1.83994776 8.66120099 0 4 C0 2.68 0 1.36 0 0 Z " fill="#F8E04A" transform="translate(448,569)"/>
<path d="M0 0 C9.76550421 3.3120766 17.81281822 14.31994205 23 23 C22.67 23.99 22.34 24.98 22 26 C21.29875 25.0821875 20.5975 24.164375 19.875 23.21875 C11.05895905 11.48794056 11.05895905 11.48794056 0 2 C0 1.34 0 0.68 0 0 Z " fill="#28292E" transform="translate(797,478)"/>
<path d="M0 0 C1.03125 0.268125 2.0625 0.53625 3.125 0.8125 C5.93381482 1.52985918 8.73081918 2.14201508 11.578125 2.6953125 C12.83109375 2.94023438 14.0840625 3.18515625 15.375 3.4375 C17.18097656 3.77587891 17.18097656 3.77587891 19.0234375 4.12109375 C22 5 22 5 24 8 C19.71 7.67 15.42 7.34 11 7 C11 6.34 11 5.68 11 5 C9.9275 5.04125 8.855 5.0825 7.75 5.125 C4.34252515 5.0114175 2.79260369 4.78726636 0 3 C0 2.01 0 1.02 0 0 Z " fill="#222228" transform="translate(835,534)"/>
<path d="M0 0 C3.76824285 0 5.95548612 0.14694487 8.91796875 2.56640625 C14.11115128 8.2246499 17.13289581 13.74620548 17.1875 21.5 C17.0946875 23.2325 17.0946875 23.2325 17 25 C14.4801001 22.4801001 14.39648848 20.77914919 13.6875 17.3125 C12.41846921 12.04696926 11.08990053 7.71020154 7 4 C4.67768075 2.65778638 2.56624468 1.85541489 0 1 C0 0.67 0 0.34 0 0 Z " fill="#1C1E23" transform="translate(696,368)"/>
<path d="M0 0 C0.99 0.33 1.98 0.66 3 1 C2.01 1.33 1.02 1.66 0 2 C0 2.66 0 3.32 0 4 C-1.72265625 5.48046875 -1.72265625 5.48046875 -4.0625 7.1875 C-8.42521121 10.47333946 -12.25261424 14.03572374 -16 18 C-16.33 17.01 -16.66 16.02 -17 15 C-11.85646106 9.54989251 -6.36336944 4.00491783 0 0 Z " fill="#202126" transform="translate(244,469)"/>
<path d="M0 0 C9.46576558 -0.36799953 18.63873691 0.77085408 28 2 C28 2.33 28 2.66 28 3 C25.02076997 3.02727678 22.04179621 3.04697128 19.0625 3.0625 C17.81629883 3.07506836 17.81629883 3.07506836 16.54492188 3.08789062 C10.94773559 3.10966956 5.55266418 2.71159268 0 2 C0 1.34 0 0.68 0 0 Z " fill="#212328" transform="translate(242,662)"/>
<path d="M0 0 C0.8353125 0.37125 0.8353125 0.37125 1.6875 0.75 C1.11902344 1.13929688 0.55054688 1.52859375 -0.03515625 1.9296875 C-6.22015601 6.4109728 -10.27347141 11.2953466 -14.3125 17.75 C-15.0390625 16.0625 -15.0390625 16.0625 -15.3125 13.75 C-13.8359375 11.3125 -13.8359375 11.3125 -11.6875 8.75 C-10.99398437 7.904375 -10.30046875 7.05875 -9.5859375 6.1875 C-3.4654745 -0.37464589 -3.4654745 -0.37464589 0 0 Z " fill="#212227" transform="translate(179.3125,588.25)"/>
<path d="M0 0 C4.04676653 1.34892218 4.55803219 3.20723159 6.625 6.875 C7.23601563 7.94492187 7.84703125 9.01484375 8.4765625 10.1171875 C11.09445053 15.07103716 11.08969445 18.52863876 11 24 C10.67 24 10.34 24 10 24 C9.67128906 22.74896484 9.67128906 22.74896484 9.3359375 21.47265625 C7.44319055 14.7557128 5.36996755 9.30795175 1.171875 3.70703125 C0 2 0 2 0 0 Z " fill="#1B1D21" transform="translate(886,560)"/>
<path d="M0 0 C0.66 0 1.32 0 2 0 C2.33 2.97 2.66 5.94 3 9 C3.33 9 3.66 9 4 9 C4 12.63 4 16.26 4 20 C2.68 20.33 1.36 20.66 0 21 C0 14.07 0 7.14 0 0 Z " fill="#3C3E45" transform="translate(185,563)"/>
<path d="M0 0 C4.28853112 0.57128243 7.13991377 2.09094395 10.75 4.4375 C11.71421875 5.05496094 12.6784375 5.67242187 13.671875 6.30859375 C16 8 16 8 17 10 C12.4054952 9.45445583 9.47466356 7.58951354 5.6875 5 C4.61886719 4.278125 3.55023437 3.55625 2.44921875 2.8125 C1.64097656 2.214375 0.83273437 1.61625 0 1 C0 0.67 0 0.34 0 0 Z " fill="#1F2125" transform="translate(765,456)"/>
<path d="M0 0 C0 0.33 0 0.66 0 1 C-1.2065625 1.185625 -1.2065625 1.185625 -2.4375 1.375 C-3.283125 1.58125 -4.12875 1.7875 -5 2 C-5.33 2.66 -5.66 3.32 -6 4 C-8.97 4 -11.94 4 -15 4 C-15 3.67 -15 3.34 -15 3 C-17.97 2.505 -17.97 2.505 -21 2 C-21 1.67 -21 1.34 -21 1 C-13.97360585 0.25194283 -7.06608191 -0.13794954 0 0 Z " fill="#3C3E43" transform="translate(480,382)"/>
<path d="M0 0 C0.99 0.33 1.98 0.66 3 1 C2.67 1.99 2.34 2.98 2 4 C1.34 4 0.68 4 0 4 C-0.33 4.99 -0.66 5.98 -1 7 C-2.62890625 8.38671875 -2.62890625 8.38671875 -4.5625 9.6875 C-5.52349609 10.34298828 -5.52349609 10.34298828 -6.50390625 11.01171875 C-6.99761719 11.33785156 -7.49132812 11.66398437 -8 12 C-7.41463247 8.33939179 -5.916761 6.45464836 -3.4375 3.75 C-2.79683594 3.04359375 -2.15617188 2.3371875 -1.49609375 1.609375 C-0.75552734 0.81273437 -0.75552734 0.81273437 0 0 Z " fill="#222328" transform="translate(223,488)"/>
<path d="M0 0 C4.04578824 1.34859608 4.5970333 3.21997017 6.6875 6.875 C7.31011719 7.94492187 7.93273437 9.01484375 8.57421875 10.1171875 C10 13 10 13 10 16 C9.34 16 8.68 16 8 16 C6.66141476 13.71125827 5.32898986 11.41930344 4 9.125 C3.6184375 8.47402344 3.236875 7.82304688 2.84375 7.15234375 C0 2.2265625 0 2.2265625 0 0 Z " fill="#1D1E24" transform="translate(821,505)"/>
<path d="M0 0 C-2.20817242 1.97815446 -3.43099033 2.96626064 -6.4375 3.14453125 C-7.7059375 2.98017578 -7.7059375 2.98017578 -9 2.8125 C-9.845625 2.71582031 -10.69125 2.61914062 -11.5625 2.51953125 C-13.99358365 2.00136759 -15.84214714 1.21379223 -18 0 C-11.96496237 -1.50875941 -6.10261631 -0.64186094 0 0 Z " fill="#33343B" transform="translate(298,368)"/>
<path d="M0 0 C3.58522876 1.47065925 5.44386096 3.40065542 7.8125 6.4375 C8.43769531 7.21996094 9.06289063 8.00242187 9.70703125 8.80859375 C10.34705078 9.89333984 10.34705078 9.89333984 11 11 C10.67 11.99 10.34 12.98 10 14 C8.33041937 11.85637773 6.66423643 9.71026458 5 7.5625 C4.52304687 6.95083984 4.04609375 6.33917969 3.5546875 5.70898438 C0 1.11328125 0 1.11328125 0 0 Z " fill="#1D1E23" transform="translate(809,490)"/>
<path d="M0 0 C0.66 0 1.32 0 2 0 C1.5547115 5.27315333 0.91626837 10.01770224 -1 15 C-1.33 15 -1.66 15 -2 15 C-2.19392201 9.47322267 -1.7479503 5.24385089 0 0 Z " fill="#1F2027" transform="translate(715,463)"/>
<path d="M0 0 C5.94 0 11.88 0 18 0 C18 0.33 18 0.66 18 1 C16.3603125 1.2165625 16.3603125 1.2165625 14.6875 1.4375 C11.06877013 1.88288104 11.06877013 1.88288104 8 3 C5.26187393 2.54451823 2.6798824 1.74685247 0 1 C0 0.67 0 0.34 0 0 Z " fill="#1F2128" transform="translate(478,672)"/>
<path d="M0 0 C5.61 0.33 11.22 0.66 17 1 C17 1.33 17 1.66 17 2 C6.11 2.495 6.11 2.495 -5 3 C-5 2.67 -5 2.34 -5 2 C-3.35 1.67 -1.7 1.34 0 1 C0 0.67 0 0.34 0 0 Z " fill="#3F4047" transform="translate(706,666)"/>
<path d="M0 0 C5.06017356 0.4464859 7.43305514 2.595189 11 6 C11.33 6.99 11.66 7.98 12 9 C8.98472262 7.59422879 6.4052059 5.93873852 3.75 3.9375 C3.04359375 3.41027344 2.3371875 2.88304687 1.609375 2.33984375 C1.07828125 1.89769531 0.5471875 1.45554687 0 1 C0 0.67 0 0.34 0 0 Z " fill="#1C1D21" transform="translate(869,546)"/>
<path d="M0 0 C4.56454251 0.54339792 7.9728176 1.79463821 12 4 C12 4.66 12 5.32 12 6 C7.24518354 5.42365861 4.02951788 3.44931479 0 1 C0 0.67 0 0.34 0 0 Z " fill="#212228" transform="translate(364,394)"/>
<path d="M0 0 C2.64 0.66 5.28 1.32 8 2 C8 2.66 8 3.32 8 4 C9.32 4.33 10.64 4.66 12 5 C3.42857143 5.28571429 3.42857143 5.28571429 0 3 C0 2.01 0 1.02 0 0 Z " fill="#1B1C21" transform="translate(835,534)"/>
<path d="M0 0 C5.60461531 0.42089996 10.72086547 0.91613111 16 3 C16 3.33 16 3.66 16 4 C10.06997733 4.37851209 5.52760359 3.10575375 0 1 C0 0.67 0 0.34 0 0 Z " fill="#181A1F" transform="translate(592,393)"/>
<path d="M0 0 C-0.33 0.66 -0.66 1.32 -1 2 C-5.29 2 -9.58 2 -14 2 C-9.21904213 -0.39047894 -5.18781778 -1.72927259 0 0 Z " fill="#1A1C22" transform="translate(833,659)"/>
<path d="M0 0 C0.99 0.33 1.98 0.66 3 1 C2.01 1.33 1.02 1.66 0 2 C0 2.66 0 3.32 0 4 C-1.75 5.2890625 -1.75 5.2890625 -4 6.625 C-4.7425 7.07101562 -5.485 7.51703125 -6.25 7.9765625 C-6.8275 8.31429688 -7.405 8.65203125 -8 9 C-6.07012289 4.68778655 -3.82520363 2.73228831 0 0 Z " fill="#1A1B20" transform="translate(244,469)"/>
<path d="M0 0 C0 0.66 0 1.32 0 2 C-5.12583611 2.10251672 -9.94997778 2.03590199 -15 1 C-15 0.67 -15 0.34 -15 0 C-13.06325815 -0.19517554 -11.12555991 -0.38087873 -9.1875 -0.5625 C-8.10855469 -0.66691406 -7.02960937 -0.77132813 -5.91796875 -0.87890625 C-3 -1 -3 -1 0 0 Z " fill="#1E1F24" transform="translate(561,385)"/>
<path d="M0 0 C0 0.66 0 1.32 0 2 C1.98 2 3.96 2 6 2 C6 2.33 6 2.66 6 3 C-0.27 2.67 -6.54 2.34 -13 2 C-13 1.67 -13 1.34 -13 1 C-11.39602723 0.83147753 -9.7918131 0.66525114 -8.1875 0.5 C-7.29417969 0.4071875 -6.40085937 0.314375 -5.48046875 0.21875 C-3 0 -3 0 0 0 Z " fill="#404247" transform="translate(284,665)"/>
<path d="M0 0 C0.53625 0.226875 1.0725 0.45375 1.625 0.6875 C-0.44256277 3.4847908 -1.51940371 3.71442273 -5.0625 4.375 C-6.155625 4.478125 -7.24875 4.58125 -8.375 4.6875 C-8.375 4.0275 -8.375 3.3675 -8.375 2.6875 C-2.95961538 -0.38942308 -2.95961538 -0.38942308 0 0 Z " fill="#25272C" transform="translate(622.375,388.3125)"/>
<path d="M0 0 C1.32 0.33 2.64 0.66 4 1 C1.36 2.98 -1.28 4.96 -4 7 C-4.66 6.67 -5.32 6.34 -6 6 C-4 4 -2 2 0 0 Z " fill="#1E2025" transform="translate(257,459)"/>
<path d="M0 0 C0.66 0.33 1.32 0.66 2 1 C-0.45699392 3.63249349 -2.56568654 5.78137264 -6 7 C-6.99 6.67 -7.98 6.34 -9 6 C-6.03 4.02 -3.06 2.04 0 0 Z " fill="#191B20" transform="translate(870,642)"/>
<path d="M0 0 C4.37859255 0.50522222 6.81651224 3.17827222 10 6 C9.01 6.33 8.02 6.66 7 7 C5.17578125 5.8203125 5.17578125 5.8203125 3.3125 4.125 C2.68988281 3.57070313 2.06726563 3.01640625 1.42578125 2.4453125 C0 1 0 1 0 0 Z " fill="#1D1F23" transform="translate(784,468)"/>
<path d="M0 0 C1.49080078 0.16628906 1.49080078 0.16628906 3.01171875 0.3359375 C3.77097656 0.43132813 4.53023437 0.52671875 5.3125 0.625 C1.7638865 2.99074234 0.7360475 2.73365265 -3.375 2.25 C-4.86580078 2.08371094 -4.86580078 2.08371094 -6.38671875 1.9140625 C-7.14597656 1.81867187 -7.90523437 1.72328125 -8.6875 1.625 C-5.1388865 -0.74074234 -4.1110475 -0.48365265 0 0 Z " fill="#32343C" transform="translate(834.6875,657.375)"/>
<path d="M0 0 C0.33 1.32 0.66 2.64 1 4 C-0.9375 6.75 -0.9375 6.75 -3 9 C-3.99 8.67 -4.98 8.34 -6 8 C-4.02 5.36 -2.04 2.72 0 0 Z " fill="#1F2126" transform="translate(888,624)"/>
<path d="M0 0 C0.33 0 0.66 0 1 0 C0.50769231 6.4 0.50769231 6.4 -2.0625 9.4375 C-2.701875 9.953125 -3.34125 10.46875 -4 11 C-3.39301257 6.87248551 -1.96189209 3.6678852 0 0 Z " fill="#1D1E23" transform="translate(894,613)"/>
<path d="M0 0 C3.91211733 1.15585285 6.8745041 2.35534962 10 5 C6.0507432 4.44894091 2.65079826 3.61064629 -1 2 C-0.67 1.34 -0.34 0.68 0 0 Z " fill="#26282D" transform="translate(757,451)"/>
<path d="M0 0 C4.7517398 0.43197635 6.92000054 1.32769295 10 5 C8.51800098 4.55090939 7.03944764 4.09043436 5.5625 3.625 C4.73878906 3.36976563 3.91507812 3.11453125 3.06640625 2.8515625 C1 2 1 2 0 0 Z " fill="#1D1E24" transform="translate(345,385)"/>
<path d="M0 0 C2.64752004 2.57784846 4.94432065 4.91648098 7 8 C4.24542282 7.62005832 3.17979426 7.1926367 1.25 5.125 C0 3 0 3 0 0 Z " fill="#1D1F24" transform="translate(166,634)"/>
<path d="M0 0 C6.75 -0.125 6.75 -0.125 9 1 C9 1.66 9 2.32 9 3 C3.46153846 3.36923077 3.46153846 3.36923077 1.125 1.5 C0.75375 1.005 0.3825 0.51 0 0 Z " fill="#15181D" transform="translate(717,438)"/>
<path d="M0 0 C-2.35968744 2.09749995 -3.54616994 2.96905704 -6.75 3.1875 C-7.86375 3.0946875 -7.86375 3.0946875 -9 3 C-9 2.34 -9 1.68 -9 1 C-5.8035914 -0.06546953 -3.34252724 -0.07427838 0 0 Z " fill="#1C1E23" transform="translate(397,397)"/>
<path d="M0 0 C2.12038635 2.61514317 4.13091744 5.19637616 6 8 C5.01 8.495 5.01 8.495 4 9 C2.35 6.69 0.7 4.38 -1 2 C-0.67 1.34 -0.34 0.68 0 0 Z " fill="#24252B" transform="translate(881,552)"/>
<path d="M0 0 C2.31 0.33 4.62 0.66 7 1 C7.33 1.99 7.66 2.98 8 4 C5.64828869 3.40138258 3.3140622 2.73075648 1 2 C0.67 1.34 0.34 0.68 0 0 Z " fill="#1C1D22" transform="translate(860,542)"/>
<path d="M0 0 C0.66 0.33 1.32 0.66 2 1 C0.515 4.465 0.515 4.465 -1 8 C-1.33 8 -1.66 8 -2 8 C-1.125 1.125 -1.125 1.125 0 0 Z " fill="#1B1D22" transform="translate(195,532)"/>
<path d="M0 0 C1.65 0.33 3.3 0.66 5 1 C4.67 1.99 4.34 2.98 4 4 C1.03 3.67 -1.94 3.34 -5 3 C-5 2.67 -5 2.34 -5 2 C-3.35 2 -1.7 2 0 2 C0 1.34 0 0.68 0 0 Z " fill="#3C3E44" transform="translate(443,384)"/>
<path d="M0 0 C0 0.99 0 1.98 0 3 C-4.55384615 3.36923077 -4.55384615 3.36923077 -6.8125 1.5 C-7.4003125 0.7575 -7.4003125 0.7575 -8 0 C-2.25 -1.125 -2.25 -1.125 0 0 Z " fill="#33353B" transform="translate(688,367)"/>
<path d="M0 0 C2.64 0 5.28 0 8 0 C8 0.33 8 0.66 8 1 C5.69 1.33 3.38 1.66 1 2 C0.67 1.34 0.34 0.68 0 0 Z " fill="#414146" transform="translate(698,670)"/>
<path d="M0 0 C2.64 0 5.28 0 8 0 C8 0.33 8 0.66 8 1 C5.36 1 2.72 1 0 1 C0 0.67 0 0.34 0 0 Z " fill="#404046" transform="translate(312,671)"/>
<path d="M0 0 C1.65 0 3.3 0 5 0 C5 0.33 5 0.66 5 1 C3.35 1 1.7 1 0 1 C0 0.67 0 0.34 0 0 Z " fill="#414146" transform="translate(713,669)"/>
<path d="M0 0 C0.99 0.33 1.98 0.66 3 1 C2.01 1.33 1.02 1.66 0 2 C0 1.34 0 0.68 0 0 Z " fill="#3D3E43" transform="translate(784,662)"/>
<path d="M0 0 C4 1 4 1 4 1 Z " fill="#434448" transform="translate(690,671)"/>
<path d="M0 0 C4 1 4 1 4 1 Z " fill="#44454A" transform="translate(684,671)"/>
<path d="M0 0 C0.66 0.66 1.32 1.32 2 2 C1.01 1.67 0.02 1.34 -1 1 C-0.67 0.67 -0.34 0.34 0 0 Z " fill="#414246" transform="translate(435,384)"/>
<path d="M0 0 C3 1 3 1 3 1 Z " fill="#424447" transform="translate(416,675)"/>
<path d="M0 0 C3 1 3 1 3 1 Z " fill="#414346" transform="translate(274,668)"/>
<path d="M0 0 C3 1 3 1 3 1 Z " fill="#3F4044" transform="translate(738,667)"/>
<path d="M0 0 C3 1 3 1 3 1 Z " fill="#414246" transform="translate(264,667)"/>
<path d="" fill="#414247" transform="translate(0,0)"/>
<path d="M0 0 C3 1 3 1 3 1 Z " fill="#434246" transform="translate(474,380)"/>
<path d="M0 0 C2 1 2 1 2 1 Z " fill="#3E3F44" transform="translate(561,675)"/>
<path d="M0 0 C2 1 2 1 2 1 Z " fill="#414246" transform="translate(430,675)"/>
<path d="M0 0 C2 1 2 1 2 1 Z " fill="#3F3E44" transform="translate(678,671)"/>
<path d="M0 0 C2 1 2 1 2 1 Z " fill="#404147" transform="translate(289,669)"/>
<path d="M0 0 C2 1 2 1 2 1 Z " fill="#414246" transform="translate(742,667)"/>
<path d="M0 0 C2 1 2 1 2 1 Z " fill="#424246" transform="translate(826,663)"/>
<path d="M0 0 C2 1 2 1 2 1 Z " fill="#3F4144" transform="translate(857,653)"/>
<path d="M0 0 C2 1 2 1 2 1 Z " fill="#3A3B40" transform="translate(851,536)"/>
<path d="" fill="#424348" transform="translate(0,0)"/>
<path d="" fill="#404045" transform="translate(0,0)"/>
<path d="M0 0 C2 1 2 1 2 1 Z " fill="#404245" transform="translate(224,484)"/>
<path d="M0 0 C2 1 2 1 2 1 Z " fill="#38393C" transform="translate(734,440)"/>
<path d="M0 0 C2 1 2 1 2 1 Z " fill="#3D3F44" transform="translate(719,435)"/>
<path d="" fill="#404046" transform="translate(0,0)"/>
<path d="M0 0 C2 1 2 1 2 1 Z " fill="#3F3F44" transform="translate(716,399)"/>
<path d="M0 0 C2 1 2 1 2 1 Z " fill="#414346" transform="translate(370,394)"/>
<path d="M0 0 C2 1 2 1 2 1 Z " fill="#414044" transform="translate(608,392)"/>
<path d="M0 0 C2 1 2 1 2 1 Z " fill="#424346" transform="translate(366,392)"/>
<path d="M0 0 C2 1 2 1 2 1 Z " fill="#434348" transform="translate(622,385)"/>
<path d="M0 0 C2 1 2 1 2 1 Z " fill="#414046" transform="translate(563,384)"/>
<path d="M0 0 C2 1 2 1 2 1 Z " fill="#414245" transform="translate(349,384)"/>
<path d="M0 0 C2 1 2 1 2 1 Z " fill="#444448" transform="translate(496,379)"/>
<path d="M0 0 C2 1 2 1 2 1 Z " fill="#434649" transform="translate(657,371)"/>
<path d="" fill="#575757" transform="translate(0,0)"/>
<path d="" fill="#595957" transform="translate(0,0)"/>
<path d="" fill="#565857" transform="translate(0,0)"/>
<path d="" fill="#404144" transform="translate(0,0)"/>
<path d="" fill="#414146" transform="translate(0,0)"/>
<path d="" fill="#404145" transform="translate(0,0)"/>
<path d="" fill="#3F4043" transform="translate(0,0)"/>
<path d="" fill="#424446" transform="translate(0,0)"/>
<path d="" fill="#3F4144" transform="translate(0,0)"/>
<path d="" fill="#404144" transform="translate(0,0)"/>
<path d="" fill="#434346" transform="translate(0,0)"/>
<path d="" fill="#3E4044" transform="translate(0,0)"/>
<path d="" fill="#3F4045" transform="translate(0,0)"/>
<path d="" fill="#434047" transform="translate(0,0)"/>
<path d="" fill="#414148" transform="translate(0,0)"/>
<path d="" fill="#414247" transform="translate(0,0)"/>
<path d="" fill="#424146" transform="translate(0,0)"/>
<path d="" fill="#424348" transform="translate(0,0)"/>
<path d="" fill="#414347" transform="translate(0,0)"/>
<path d="" fill="#414044" transform="translate(0,0)"/>
<path d="" fill="#444148" transform="translate(0,0)"/>
<path d="" fill="#434448" transform="translate(0,0)"/>
<path d="" fill="#424347" transform="translate(0,0)"/>
<path d="" fill="#414147" transform="translate(0,0)"/>
<path d="" fill="#403F43" transform="translate(0,0)"/>
<path d="" fill="#434246" transform="translate(0,0)"/>
<path d="" fill="#3E3E45" transform="translate(0,0)"/>
<path d="" fill="#404148" transform="translate(0,0)"/>
<path d="" fill="#424146" transform="translate(0,0)"/>
<path d="" fill="#424346" transform="translate(0,0)"/>
<path d="" fill="#404045" transform="translate(0,0)"/>
<path d="" fill="#414048" transform="translate(0,0)"/>
<path d="" fill="#3E3E44" transform="translate(0,0)"/>
<path d="" fill="#424346" transform="translate(0,0)"/>
<path d="" fill="#414546" transform="translate(0,0)"/>
<path d="" fill="#434348" transform="translate(0,0)"/>
<path d="" fill="#424147" transform="translate(0,0)"/>
<path d="" fill="#434449" transform="translate(0,0)"/>
<path d="" fill="#424548" transform="translate(0,0)"/>
<path d="" fill="#424248" transform="translate(0,0)"/>
<path d="" fill="#404346" transform="translate(0,0)"/>
<path d="" fill="#424147" transform="translate(0,0)"/>
<path d="" fill="#434247" transform="translate(0,0)"/>
<path d="" fill="#444549" transform="translate(0,0)"/>
<path d="" fill="#444349" transform="translate(0,0)"/>
<path d="" fill="#434448" transform="translate(0,0)"/>
<path d="" fill="#5A5A5B" transform="translate(0,0)"/>
<path d="" fill="#414347" transform="translate(0,0)"/>
<path d="" fill="#434349" transform="translate(0,0)"/>
<path d="" fill="#48484C" transform="translate(0,0)"/>
<path d="" fill="#3F4146" transform="translate(0,0)"/>
<path d="" fill="#41434A" transform="translate(0,0)"/>
<path d="" fill="#44454A" transform="translate(0,0)"/>
<path d="" fill="#424346" transform="translate(0,0)"/>
<path d="" fill="#444447" transform="translate(0,0)"/>
<path d="" fill="#414048" transform="translate(0,0)"/>
<path d="" fill="#424347" transform="translate(0,0)"/>
<path d="" fill="#3E4045" transform="translate(0,0)"/>
<path d="" fill="#42434A" transform="translate(0,0)"/>
<path d="" fill="#424449" transform="translate(0,0)"/>
<path d="" fill="#434449" transform="translate(0,0)"/>
<path d="" fill="#3F3E44" transform="translate(0,0)"/>
<path d="" fill="#454347" transform="translate(0,0)"/>
<path d="" fill="#3E4045" transform="translate(0,0)"/>
<path d="" fill="#3E3F42" transform="translate(0,0)"/>
<path d="" fill="#3F3F45" transform="translate(0,0)"/>
<path d="" fill="#3C3D3F" transform="translate(0,0)"/>
<path d="" fill="#3B3B40" transform="translate(0,0)"/>
<path d="" fill="#3A393F" transform="translate(0,0)"/>
<path d="" fill="#3B393E" transform="translate(0,0)"/>
<path d="" fill="#383A3E" transform="translate(0,0)"/>
<path d="" fill="#383A3B" transform="translate(0,0)"/>
<path d="" fill="#424147" transform="translate(0,0)"/>
<path d="" fill="#3D3E43" transform="translate(0,0)"/>
<path d="" fill="#3F3F44" transform="translate(0,0)"/>
<path d="" fill="#434348" transform="translate(0,0)"/>
<path d="" fill="#424448" transform="translate(0,0)"/>
<path d="" fill="#3E4045" transform="translate(0,0)"/>
<path d="" fill="#414447" transform="translate(0,0)"/>
<path d="" fill="#424046" transform="translate(0,0)"/>
<path d="" fill="#414447" transform="translate(0,0)"/>
<path d="" fill="#3F4246" transform="translate(0,0)"/>
<path d="" fill="#404046" transform="translate(0,0)"/>
<path d="" fill="#434446" transform="translate(0,0)"/>
<path d="" fill="#3F3F45" transform="translate(0,0)"/>
<path d="" fill="#424247" transform="translate(0,0)"/>
<path d="" fill="#434247" transform="translate(0,0)"/>
<path d="" fill="#404046" transform="translate(0,0)"/>
<path d="" fill="#404146" transform="translate(0,0)"/>
<path d="" fill="#3D3D43" transform="translate(0,0)"/>
<path d="" fill="#414045" transform="translate(0,0)"/>
<path d="" fill="#404347" transform="translate(0,0)"/>
<path d="" fill="#404243" transform="translate(0,0)"/>
<path d="" fill="#414348" transform="translate(0,0)"/>
<path d="" fill="#3D3F42" transform="translate(0,0)"/>
<path d="" fill="#3F4044" transform="translate(0,0)"/>
<path d="" fill="#3F4149" transform="translate(0,0)"/>
<path d="" fill="#3C4042" transform="translate(0,0)"/>
<path d="" fill="#3F4247" transform="translate(0,0)"/>
<path d="" fill="#3E3F45" transform="translate(0,0)"/>
<path d="" fill="#414247" transform="translate(0,0)"/>
<path d="" fill="#414147" transform="translate(0,0)"/>
<path d="" fill="#3F3F41" transform="translate(0,0)"/>
<path d="" fill="#404145" transform="translate(0,0)"/>
<path d="" fill="#444348" transform="translate(0,0)"/>
<path d="" fill="#424246" transform="translate(0,0)"/>
<path d="" fill="#424248" transform="translate(0,0)"/>
<path d="" fill="#434549" transform="translate(0,0)"/>
<path d="" fill="#454346" transform="translate(0,0)"/>
<path d="" fill="#414346" transform="translate(0,0)"/>
<path d="" fill="#444347" transform="translate(0,0)"/>
<path d="" fill="#404146" transform="translate(0,0)"/>
<path d="" fill="#414145" transform="translate(0,0)"/>
<path d="" fill="#45454A" transform="translate(0,0)"/>
<path d="" fill="#434446" transform="translate(0,0)"/>
<path d="" fill="#414148" transform="translate(0,0)"/>
<path d="" fill="#46474B" transform="translate(0,0)"/>
<path d="" fill="#444449" transform="translate(0,0)"/>
<path d="" fill="#414044" transform="translate(0,0)"/>
<path d="" fill="#44454A" transform="translate(0,0)"/>
<path d="" fill="#464649" transform="translate(0,0)"/>
<path d="" fill="#45454A" transform="translate(0,0)"/>
<path d="" fill="#45444A" transform="translate(0,0)"/>
<path d="" fill="#444648" transform="translate(0,0)"/>
<path d="" fill="#43444B" transform="translate(0,0)"/>
<path d="" fill="#424247" transform="translate(0,0)"/>
<path d="" fill="#434247" transform="translate(0,0)"/>
<path d="" fill="#545557" transform="translate(0,0)"/>
<path d="" fill="#434347" transform="translate(0,0)"/>
<path d="" fill="#424348" transform="translate(0,0)"/>
<path d="" fill="#424349" transform="translate(0,0)"/>
<path d="" fill="#46474A" transform="translate(0,0)"/>
<path d="" fill="#434449" transform="translate(0,0)"/>
<path d="" fill="#585959" transform="translate(0,0)"/>
<path d="" fill="#595A5B" transform="translate(0,0)"/>
<path d="" fill="#4E4F4F" transform="translate(0,0)"/>
<path d="" fill="#515153" transform="translate(0,0)"/>
<path d="" fill="#59595A" transform="translate(0,0)"/>
<path d="" fill="#5B5B5B" transform="translate(0,0)"/>
</svg>
