<?xml version="1.0" encoding="UTF-8"?>
<svg version="1.1" xmlns="http://www.w3.org/2000/svg" width="1024" height="1024">
<path d="M0 0 C0.91168945 0.59458008 0.91168945 0.59458008 1.84179688 1.20117188 C11.35384759 7.42784684 11.35384759 7.42784684 14.14672852 9.90087891 C18.89137014 13.91265112 18.89137014 13.91265112 24.80932617 14.89379883 C27.92555127 14.05022049 30.82479543 12.97277526 33.8125 11.75 C36.03564235 10.94335718 38.26094596 10.14264809 40.48828125 9.34765625 C41.58865723 8.94305176 42.6890332 8.53844727 43.82275391 8.12158203 C76.97126011 -3.57998839 127.0209268 -7.50329269 161 3 C163.01501264 3.4811243 165.03371084 3.946921 167.0546875 4.40234375 C168.16457031 4.65306641 169.27445313 4.90378906 170.41796875 5.16210938 C172.71438469 5.6771812 175.01125822 6.19021727 177.30859375 6.70117188 C182.28137663 7.82768295 187.13949611 8.97705658 191.9453125 10.69140625 C195.44254755 11.89730797 198.2668362 12.53027895 202 12 C204.62524163 10.6603753 204.62524163 10.6603753 207 8.75 C207.8559375 8.11191406 208.711875 7.47382813 209.59375 6.81640625 C210.3878125 6.21699219 211.181875 5.61757812 212 5 C213.1594351 4.21833166 214.32470127 3.44510678 215.5 2.6875 C218.03525665 1.09172833 218.03525665 1.09172833 220 -1 C221.21071633 -1.71949491 222.44383806 -2.40158251 223.6875 -3.0625 C227.1958993 -4.97008753 230.62481846 -6.97394977 234.03027344 -9.05981445 C240.55466479 -13.04818974 247.17982525 -16.79534805 253.9375 -20.375 C254.71786621 -20.79160889 255.49823242 -21.20821777 256.30224609 -21.63745117 C266.20800265 -26.82713729 275.56756496 -30.29772675 286.9375 -28.3125 C293.16140283 -25.64511307 296.01707947 -22.22260372 298.80859375 -16.17578125 C308.91887215 10.77391168 309.62588353 44.78770993 305.71679688 72.89404297 C304.5140985 81.94768911 304.20252377 88.02067288 309.8125 95.5625 C311.34183734 97.483491 312.90867357 99.35850988 314.51464844 101.21582031 C316.78986845 103.9487769 318.6276315 106.88289981 320.4375 109.9375 C320.79239502 110.53457764 321.14729004 111.13165527 321.51293945 111.74682617 C358.04790645 174.82779916 369.30573789 254.39880122 352.55078125 325.28515625 C351.86744856 328.19166455 351.86744856 328.19166455 352 332 C354.22844214 332.6483289 356.4577846 333.29356369 358.6875 333.9375 C359.92886719 334.29714844 361.17023438 334.65679688 362.44921875 335.02734375 C365.29639862 335.80726431 368.09802254 336.47287216 371 337 C371 337.66 371 338.32 371 339 C372.2065625 339.309375 372.2065625 339.309375 373.4375 339.625 C378.14972571 341.44375378 381.94156255 344.02196569 386 347 C386.67289063 347.49242187 387.34578125 347.98484375 388.0390625 348.4921875 C398.97577025 357.2502682 406.9623232 371.14379779 409 385 C410.10625151 406.61445253 405.31711445 423.37969757 391 440 C390.46890625 440.75023437 389.9378125 441.50046875 389.390625 442.2734375 C388.93171875 442.84320312 388.4728125 443.41296875 388 444 C387.34 444 386.68 444 386 444 C386 444.66 386 445.32 386 446 C384.16274263 447.64193433 382.33435067 449.14007716 380.375 450.625 C379.49799438 451.29160645 379.49799438 451.29160645 378.60327148 451.97167969 C356.80283097 468.19067337 327.19096313 479.57788434 299.625 476.4375 C290.63349369 475.02531511 282.4765803 472.90372654 276.1875 466.0625 C274.39686115 464.25126591 274.39686115 464.25126591 272 463 C269.0695615 463.08531848 269.0695615 463.08531848 265.79296875 463.82421875 C258.8682404 465.00087582 252.14664333 465.1166742 245.1328125 464.984375 C244.07977432 464.96837753 243.02673615 464.95238007 241.94178772 464.93589783 C237.55717718 464.86402913 233.17356445 464.77916944 228.79003906 464.65722656 C225.55000492 464.57223893 222.3111592 464.52563967 219.0703125 464.484375 C217.6028508 464.42851227 217.6028508 464.42851227 216.10574341 464.371521 C208.71363615 464.31672145 204.76473653 466.56546354 199 471 C186.52826254 477.05721492 172.0868508 478.69256 158.6875 474.9375 C157.3571875 474.4734375 157.3571875 474.4734375 156 474 C155.67 474.66 155.34 475.32 155 476 C155 475.01 155 474.02 155 473 C153.4840625 472.6596875 153.4840625 472.6596875 151.9375 472.3125 C148.75228916 471.44345156 147.75676625 470.78426025 145.13818359 468.46166992 C139.71827268 464.50324056 133.29537485 465.26652326 126.8515625 465.30078125 C125.47064603 465.29486222 124.0897347 465.28761128 122.70883179 465.27909851 C119.82221637 465.26725515 116.93637374 465.27386074 114.04980469 465.29321289 C110.37203395 465.31606376 106.69657946 465.28934764 103.01903725 465.24815083 C100.16879927 465.22242319 97.31910431 465.22519318 94.46879196 465.23604393 C92.46096378 465.23823018 90.45315777 465.21539903 88.44546509 465.19197083 C81.22980797 465.28338961 76.53950956 465.97171272 70.82821655 470.54338074 C62.29082496 477.34549016 48.56265023 477.62291001 38.25390625 476.53125 C29.95900197 475.17697991 22.96863307 472.77161902 15.875 468.25 C9.83244093 464.57737968 5.91296005 464.32435909 -1 465 C-18.81961604 466.36153584 -35.69464533 466.00661339 -52.93359375 460.90234375 C-55.91469893 459.95406986 -55.91469893 459.95406986 -58.72265625 459.56640625 C-61.42595491 458.89405924 -62.14862296 458.03223135 -64 456 C-65.75931077 454.75439693 -67.5315192 453.52691706 -69.3125 452.3125 C-74.47860774 448.59700794 -79.96292522 444.30308642 -81.5234375 437.828125 C-81.75933594 436.92320312 -81.75933594 436.92320312 -82 436 C-82.66 435.67 -83.32 435.34 -84 435 C-86.87197844 426.50163104 -85.81773937 417.74097081 -85 409 C-85 408.34 -85 407.68 -85 407 C-85.94875 406.0925 -86.8975 405.185 -87.875 404.25 C-92.07965523 400.20838242 -95.26729132 395.60089862 -98.53466797 390.79980469 C-100.53724722 387.89086172 -102.02453929 385.98364047 -105 384 C-105 383.01 -105 382.02 -105 381 C-105.93811576 379.27732909 -106.94705263 377.59247978 -108 375.9375 C-111 371.20833333 -111 371.20833333 -111 369 C-111.66 368.67 -112.32 368.34 -113 368 C-114.17401586 365.53396154 -115.23583213 363.09416555 -116.25 360.5625 C-116.5586499 359.79679687 -116.8672998 359.03109375 -117.18530273 358.2421875 C-126.43697242 334.95751305 -132.38308747 310.92843769 -135 286 C-135.13148438 284.79601562 -135.26296875 283.59203125 -135.3984375 282.3515625 C-135.72483093 278.56716298 -135.90048011 274.79564219 -136 271 C-136.02723145 269.99066406 -136.05446289 268.98132813 -136.08251953 267.94140625 C-136.70300641 240.43705715 -134.33723402 213.63727495 -128.57568359 186.7109375 C-128.05285086 184.2488787 -127.55994308 181.78360115 -127.08203125 179.3125 C-125.68443397 172.27485281 -125.68443397 172.27485281 -125 170 C-124.34 169.67 -123.68 169.34 -123 169 C-122.45292723 167.02029728 -122.45292723 167.02029728 -122.125 164.625 C-121.23236847 159.65482764 -119.7190583 155.14820374 -117.90234375 150.4453125 C-116.98396103 148.11847183 -116.98396103 148.11847183 -116.56640625 146.09765625 C-112.58910101 131.36791203 -102.82060555 116.31217491 -94.8125 103.4375 C-94.4208667 102.807229 -94.0292334 102.17695801 -93.62573242 101.52758789 C-93.24006104 100.91906982 -92.85438965 100.31055176 -92.45703125 99.68359375 C-92.07192383 99.07386719 -91.68681641 98.46414063 -91.29003906 97.8359375 C-90 96 -90 96 -88.34277344 94.2109375 C-84.72204535 90.18463744 -83.6063062 87.53462278 -83.8515625 82.0703125 C-84.08131178 79.75225516 -84.34102922 77.43704135 -84.625 75.125 C-84.87353104 72.53481719 -85.11136945 69.94359147 -85.33984375 67.3515625 C-85.43127403 66.340867 -85.43127403 66.340867 -85.52455139 65.30975342 C-86.20546158 57.37826696 -86.22552394 49.45567477 -86.1875 41.5 C-86.18502258 40.78259644 -86.18254517 40.06519287 -86.17999268 39.3260498 C-86.12756302 27.53438692 -85.75749015 15.76815062 -85 4 C-84.34 4 -83.68 4 -83 4 C-83.061875 3.0925 -83.12375 2.185 -83.1875 1.25 C-83.1687706 -7.9835958 -80.22306861 -18.6627944 -73.6875 -25.375 C-51.86086053 -38.57250293 -17.72519722 -11.5712968 0 0 Z " fill="#282D34" transform="translate(397,247)"/>
<path d="M0 0 C0.33 0 0.66 0 1 0 C1.22270783 5.92650283 0.96416298 11.24599766 -0.5625 16.9921875 C-1.14193542 19.30889469 -1.14193542 19.30889469 -1 23 C1.22844214 23.6483289 3.4577846 24.29356369 5.6875 24.9375 C6.92886719 25.29714844 8.17023438 25.65679688 9.44921875 26.02734375 C12.29639862 26.80726431 15.09802254 27.47287216 18 28 C18 28.66 18 29.32 18 30 C19.2065625 30.309375 19.2065625 30.309375 20.4375 30.625 C25.14972571 32.44375378 28.94156255 35.02196569 33 38 C33.67289063 38.49242187 34.34578125 38.98484375 35.0390625 39.4921875 C45.97577025 48.2502682 53.9623232 62.14379779 56 76 C57.10625151 97.61445253 52.31711445 114.37969757 38 131 C37.46890625 131.75023437 36.9378125 132.50046875 36.390625 133.2734375 C35.93171875 133.84320312 35.4728125 134.41296875 35 135 C34.34 135 33.68 135 33 135 C33 135.66 33 136.32 33 137 C31.16274263 138.64193433 29.33435067 140.14007716 27.375 141.625 C26.79032959 142.0694043 26.20565918 142.51380859 25.60327148 142.97167969 C3.80283097 159.19067337 -25.80903687 170.57788434 -53.375 167.4375 C-62.36650631 166.02531511 -70.5234197 163.90372654 -76.8125 157.0625 C-78.59172615 155.24924338 -78.59172615 155.24924338 -81 154 C-84.04389793 154.06415752 -84.04389793 154.06415752 -87.41796875 154.79296875 C-96.50405664 156.29908966 -105.50069476 156.30263533 -114.69140625 156.26074219 C-117.52364986 156.24990955 -120.35527414 156.2607588 -123.1875 156.2734375 C-125.01041805 156.27211753 -126.83333572 156.26955851 -128.65625 156.265625 C-129.49176392 156.26967346 -130.32727783 156.27372192 -131.18811035 156.27789307 C-136.16603447 156.23826515 -140.27756284 155.59259686 -145 154 C-144.505 153.01 -144.505 153.01 -144 152 C-143.34 152 -142.68 152 -142 152 C-141.773125 151.443125 -141.54625 150.88625 -141.3125 150.3125 C-140 148 -140 148 -137.6875 145.70703125 C-129.49716562 137.45717409 -124.73508096 127.8934487 -120.56323242 117.18505859 C-120.10074097 116.00290771 -120.10074097 116.00290771 -119.62890625 114.796875 C-119.36150635 114.08885742 -119.09410645 113.38083984 -118.81860352 112.65136719 C-118 111 -118 111 -116 110 C-113.61994061 113.72120397 -113.73266663 117.0329918 -113.75 121.375 C-113.74484375 122.66148437 -113.7396875 123.94796875 -113.734375 125.2734375 C-113.99052976 128.86713815 -114.69665267 131.65887947 -116 135 C-114.80761719 134.7834375 -113.61523438 134.566875 -112.38671875 134.34375 C-110.82033692 134.06236404 -109.25392932 133.78112151 -107.6875 133.5 C-106.90181641 133.35691406 -106.11613281 133.21382812 -105.30664062 133.06640625 C-104.54931641 132.93105469 -103.79199219 132.79570313 -103.01171875 132.65625 C-102.31522217 132.53056641 -101.61872559 132.40488281 -100.90112305 132.27539062 C-99 132 -99 132 -96 132 C-95.79375 131.195625 -95.5875 130.39125 -95.375 129.5625 C-91.10509293 118.49955897 -83.28076794 111.12251212 -72.59106445 106.28662109 C-71.27755005 105.71161865 -71.27755005 105.71161865 -69.9375 105.125 C-41.49574002 92.10238969 -21.79806415 74.76847449 -10.67651367 45.04833984 C-7.80465584 36.95989333 -5.99328022 28.80697787 -4.453125 20.37890625 C-3.65115743 16.16857651 -2.69434618 11.99276703 -1.75 7.8125 C-1.41131584 6.29820895 -1.07275992 4.7838892 -0.734375 3.26953125 C-0.37085938 1.65111328 -0.37085938 1.65111328 0 0 Z " fill="#262A31" transform="translate(750,556)"/>
<path d="M0 0 C3.49223858 1.2934217 5.31018649 3.34738523 7.55859375 6.26953125 C23.40499696 25.29380394 48.84524398 35.31837493 72 42 C71.67386719 41.19046875 71.34773438 40.3809375 71.01171875 39.546875 C69.80560606 35.31849536 69.74137684 31.61471573 69.8125 27.25 C69.8134668 26.09951172 69.8134668 26.09951172 69.81445312 24.92578125 C69.85908901 19.28182199 69.85908901 19.28182199 71 17 C74 18 74 18 74.93212891 19.63549805 C75.19429199 20.33715088 75.45645508 21.03880371 75.7265625 21.76171875 C76.03158691 22.54442139 76.33661133 23.32712402 76.65087891 24.13354492 C77.13306885 25.39775269 77.13306885 25.39775269 77.625 26.6875 C82.44215962 38.71909646 89.03782909 48.79208858 97 59 C95.68 59 94.36 59 93 59 C93 59.66 93 60.32 93 61 C91.02 61 89.04 61 87 61 C87 61.66 87 62.32 87 63 C81.7205128 63.10027516 76.44160223 63.17211836 71.16137695 63.21972656 C69.372216 63.23961147 67.58311799 63.26672938 65.79418945 63.30175781 C54.05317869 63.5255842 44.21186447 62.54200536 33 59 C32.07074707 58.82025635 31.14149414 58.6405127 30.18408203 58.45532227 C27.50107379 57.89598733 26.82282095 57.00088573 25 55 C23.24068923 53.75439693 21.4684808 52.52691706 19.6875 51.3125 C14.52139226 47.59700794 9.03707478 43.30308642 7.4765625 36.828125 C7.24066406 35.92320312 7.24066406 35.92320312 7 35 C6.34 34.67 5.68 34.34 5 34 C2.12802156 25.50163104 3.18226063 16.74097081 4 8 C4 7.34 4 6.68 4 6 C3.34 5.34 2.68 4.68 2 4 C1.34 3.34 0.68 2.68 0 2 C0 1.34 0 0.68 0 0 Z " fill="#181A1F" transform="translate(308,648)"/>
<path d="M0 0 C1.14698034 0.71593373 2.27550738 1.46308134 3.375 2.25 C4.261875 2.806875 5.14875 3.36375 6.0625 3.9375 C11.50370664 9.37870664 14.49976544 16.2272867 14.6875 23.875 C14.61443934 31.43677822 12.31826245 36.27795155 8.25 42.5 C2.11938305 48.36406839 -5.83304217 51.68199642 -14.34765625 51.5234375 C-21.49024204 50.66583715 -27.40597801 47.48900352 -32.15234375 42.13671875 C-32.63832031 41.51410156 -33.12429688 40.89148438 -33.625 40.25 C-34.05941406 39.69957031 -34.49382812 39.14914062 -34.94140625 38.58203125 C-39.11554244 31.99358632 -38.35742853 23.7130612 -37.625 16.25 C-35.9696844 9.14639396 -30.37664075 4.38187008 -24.625 0.25 C-17.77492713 -3.28997054 -6.97781541 -3.38884343 0 0 Z " fill="#FCDE4B" transform="translate(426.625,392.75)"/>
<path d="M0 0 C7.08680368 4.40614316 12.30616611 10.29824647 14.5 18.4375 C15.72358795 27.05307285 14.04522409 34.70781164 8.8046875 41.69921875 C3.12296273 47.92151248 -3.12486352 50.88192711 -11.4375 51.9375 C-19.9187898 51.3892146 -27.16025835 47.98530494 -32.83984375 41.7109375 C-37.25763873 35.66115708 -39.62048067 28.9120989 -38.5 21.4375 C-36.99627255 12.45893316 -32.70791069 6.69330367 -25.7265625 0.98828125 C-18.68182496 -3.39545281 -7.45000324 -3.36123193 0 0 Z " fill="#FCDD4B" transform="translate(613.5,392.5625)"/>
<path d="M0 0 C0.99 0.495 0.99 0.495 2 1 C1.9453125 2.76171875 1.9453125 2.76171875 1 5 C-1.36954837 6.43295631 -3.63471657 7.63530196 -6.125 8.8125 C-15.67999325 13.63715406 -21.55683894 19.06714821 -26 29 C-28.69472824 37.20357141 -27.60785867 46.33330034 -24 54 C-27.3 54 -30.6 54 -34 54 C-34 54.66 -34 55.32 -34 56 C-35.98 56 -37.96 56 -40 56 C-40 56.66 -40 57.32 -40 58 C-45.85325906 58.04961359 -51.70639439 58.08582065 -57.55981445 58.10986328 C-59.54909397 58.11989136 -61.53835886 58.13351717 -63.52758789 58.15087891 C-66.39473085 58.17526791 -69.2616781 58.18651526 -72.12890625 58.1953125 C-73.45276085 58.21079636 -73.45276085 58.21079636 -74.80335999 58.22659302 C-79.93325135 58.22751518 -84.14036282 57.66500906 -89 56 C-88.67 55.34 -88.34 54.68 -88 54 C-87.34 54 -86.68 54 -86 54 C-85.773125 53.443125 -85.54625 52.88625 -85.3125 52.3125 C-84 50 -84 50 -81.6875 47.70703125 C-73.49716562 39.45717409 -68.73508096 29.8934487 -64.56323242 19.18505859 C-64.10074097 18.00290771 -64.10074097 18.00290771 -63.62890625 16.796875 C-63.36150635 16.08885742 -63.09410645 15.38083984 -62.81860352 14.65136719 C-62 13 -62 13 -60 12 C-57.61994061 15.72120397 -57.73266663 19.0329918 -57.75 23.375 C-57.74484375 24.66148437 -57.7396875 25.94796875 -57.734375 27.2734375 C-57.99052976 30.86713815 -58.69665267 33.65887947 -60 37 C-58.80761719 36.7834375 -57.61523438 36.566875 -56.38671875 36.34375 C-54.82033692 36.06236404 -53.25392932 35.78112151 -51.6875 35.5 C-50.90181641 35.35691406 -50.11613281 35.21382812 -49.30664062 35.06640625 C-48.1706543 34.86337891 -48.1706543 34.86337891 -47.01171875 34.65625 C-46.31522217 34.53056641 -45.61872559 34.40488281 -44.90112305 34.27539062 C-43 34 -43 34 -40 34 C-39.79375 33.195625 -39.5875 32.39125 -39.375 31.5625 C-34.48656751 18.89701582 -25.25001697 12.04768074 -13.1875 6.6875 C-11.32599957 5.83904367 -9.46528609 4.98885808 -7.60546875 4.13671875 C-6.79231201 3.77280029 -5.97915527 3.40888184 -5.14135742 3.03393555 C-2.78860946 1.95854953 -2.78860946 1.95854953 0 0 Z " fill="#191B20" transform="translate(694,654)"/>
<path d="M0 0 C3 1 3 1 4.5 3.40625 C12 18.875 12 18.875 12 25 C19.26 24.67 26.52 24.34 34 24 C34.53625 22.06125 35.0725 20.1225 35.625 18.125 C37.53733023 11.90482268 39.89918176 6.11782117 44 1 C44.99 0.67 45.98 0.34 47 0 C48.25375641 2.50751282 48.23960515 4.43941209 48.39453125 7.2421875 C49.08029418 26.2231161 49.08029418 26.2231161 57 43 C42.28547258 44.05545737 27.62203249 44.11854422 12.875 44.0625 C10.54817806 44.05747061 8.22135505 44.05291027 5.89453125 44.04882812 C0.26299715 44.03794655 -5.36849625 44.02132449 -11 44 C-9.73288472 42.51455688 -8.46576945 41.02911377 -7.19865417 39.54367065 C-1.45864939 32.15148271 -2.26592043 18.95612809 -1.64575195 10.10205078 C-1.53880005 8.57813721 -1.53880005 8.57813721 -1.4296875 7.0234375 C-1.37022949 6.10481934 -1.31077148 5.18620117 -1.24951172 4.23974609 C-1 2 -1 2 0 0 Z " fill="#191B20" transform="translate(483,669)"/>
<path d="M0 0 C2.5 0.25 2.5 0.25 4.5 2.25 C4.768125 3.36375 5.03625 4.4775 5.3125 5.625 C6.67933467 9.79744269 7.71444153 11.09911451 11.5 13.25 C15.48506448 13.73796708 18.14068927 13.43884223 21.5 11.25 C23.01963101 8.89752088 23.01963101 8.89752088 24.1875 6.1875 C26.45454545 1.29545455 26.45454545 1.29545455 27.5 0.25 C29.16617115 0.20936168 30.83388095 0.207279 32.5 0.25 C32.81453125 0.93707031 33.1290625 1.62414062 33.453125 2.33203125 C33.88109375 3.23308594 34.3090625 4.13414062 34.75 5.0625 C35.16765625 5.95582031 35.5853125 6.84914063 36.015625 7.76953125 C37.59661194 10.41144363 38.86386964 11.69251571 41.5 13.25 C44.95749949 13.91676878 44.95749949 13.91676878 48.5 13.25 C51.87596345 10.71802741 53.56059769 8.37838957 55 4.5 C55.495 3.4275 55.99 2.355 56.5 1.25 C59.1875 0.3125 59.1875 0.3125 61.5 0.25 C63.0625 1.75 63.0625 1.75 64.5 4.25 C64.60130144 10.32808633 63.03648792 13.90519988 59.1484375 18.55078125 C54.93699165 22.89196358 50.99122142 23.49449261 45.125 23.8125 C39.32308352 23.71303857 36.21870163 22.47586532 31.98828125 18.5625 C30.58072129 17.02952457 30.58072129 17.02952457 28.5 17.25 C27.5925 18.03375 26.685 18.8175 25.75 19.625 C21.31838388 23.37482903 17.41331626 24.48011655 11.625 24.25 C6.04485963 23.53459739 2.40023067 21.23440831 -1.5 17.25 C-4.7803453 12.63701443 -5.35245319 7.78541032 -4.5 2.25 C-2.5 0.25 -2.5 0.25 0 0 Z " fill="#F9E14D" transform="translate(480.5,446.75)"/>
<path d="M0 0 C0.33 0 0.66 0 1 0 C1 18.81 1 37.62 1 57 C0.67 57 0.34 57 0 57 C-1.65449938 47.22469758 -2.31113061 37.85594158 -2.25 27.9375 C-2.25773437 26.67873047 -2.26546875 25.41996094 -2.2734375 24.12304688 C-2.25647356 15.90825757 -1.49341462 8.07685571 0 0 Z " fill="#212327" transform="translate(263,475)"/>
<path d="M0 0 C3.31713151 1.38405674 4.82660451 2.76188592 6.734375 5.7890625 C7.22260742 6.55871338 7.71083984 7.32836426 8.21386719 8.12133789 C8.72079102 8.94754639 9.22771484 9.77375488 9.75 10.625 C10.2749707 11.46861084 10.79994141 12.31222168 11.34082031 13.18139648 C24 33.82515052 24 33.82515052 24 39 C23.34 39 22.68 39 22 39 C21.72438232 38.45287354 21.44876465 37.90574707 21.16479492 37.34204102 C15.33893128 25.8404339 9.20208715 14.78955326 2.01953125 4.078125 C0 1 0 1 0 0 Z " fill="#25272B" transform="translate(705,342)"/>
<path d="M0 0 C0.33 0 0.66 0 1 0 C2.2922614 18.86037631 1.53125687 37.19946435 0 56 C-0.33 56 -0.66 56 -1 56 C-1.33 51.71 -1.66 47.42 -2 43 C-1.34 43 -0.68 43 0 43 C0 28.81 0 14.62 0 0 Z " fill="#43464B" transform="translate(755,484)"/>
<path d="M0 0 C0.33 0 0.66 0 1 0 C3.01609805 8.53292203 3.09525869 16.46420125 2.625 25.1875 C2.56828125 26.42564453 2.5115625 27.66378906 2.453125 28.93945312 C2.31316073 31.96034868 2.16191704 34.98021521 2 38 C1.67 38 1.34 38 1 38 C0.04466472 29.58507941 -0.12181049 21.27565022 -0.0625 12.8125 C-0.05798828 11.57435547 -0.05347656 10.33621094 -0.04882812 9.06054688 C-0.03716699 6.04031215 -0.02080236 3.02018323 0 0 Z " fill="#0C0E11" transform="translate(701,269)"/>
<path d="M0 0 C1.625 1.4375 1.625 1.4375 3 4 C2.75752944 6.28550957 2.21328444 8.38666347 1.6171875 10.60546875 C0.73022605 14.04665462 0.38500943 17.47074691 0 21 C-0.66 21 -1.32 21 -2 21 C-2 24.3 -2 27.6 -2 31 C-2.33 31 -2.66 31 -3 31 C-3 24.73 -3 18.46 -3 12 C-2.34 12 -1.68 12 -1 12 C-1.020625 10.948125 -1.04125 9.89625 -1.0625 8.8125 C-1.01103198 5.67295096 -0.73482813 3.03116604 0 0 Z " fill="#2D2F34" transform="translate(315,239)"/>
<path d="M0 0 C3.37878384 4.50504512 3.37878384 4.50504512 3.36328125 8.15234375 C3.36263672 8.92900391 3.36199219 9.70566406 3.36132812 10.50585938 C3.34521484 11.30830078 3.32910156 12.11074219 3.3125 12.9375 C3.31572266 13.73607422 3.31894531 14.53464844 3.32226562 15.35742188 C3.28292025 19.67468245 2.99315783 23.06927041 1 27 C0.67 27 0.34 27 0 27 C0 18.09 0 9.18 0 0 Z " fill="#212327" transform="translate(803,628)"/>
<path d="M0 0 C1.32 0.33 2.64 0.66 4 1 C-2.93 5.62 -9.86 10.24 -17 15 C-17.66 14.67 -18.32 14.34 -19 14 C-14.73564455 9.61719024 -10.68923169 6.2722141 -5.3125 3.375 C-2.47141761 1.93997724 -2.47141761 1.93997724 0 0 Z " fill="#232529" transform="translate(627,240)"/>
<path d="M0 0 C0.33 0 0.66 0 1 0 C1.51214451 3.28989285 2.00740064 6.58212862 2.5 9.875 C2.64308594 10.7928125 2.78617188 11.710625 2.93359375 12.65625 C3.84489671 18.81839384 4.18278149 24.77358238 4 31 C3.67 31 3.34 31 3 31 C3 28.36 3 25.72 3 23 C2.34 23 1.68 23 1 23 C1 18.05 1 13.1 1 8 C0.34 8 -0.32 8 -1 8 C-0.67 5.36 -0.34 2.72 0 0 Z " fill="#35383D" transform="translate(699,246)"/>
<path d="M0 0 C0.99 0.33 1.98 0.66 3 1 C-0.96 6.94 -4.92 12.88 -9 19 C-10 15 -10 15 -8.41796875 12.08984375 C-7.31388672 10.52943359 -7.31388672 10.52943359 -6.1875 8.9375 C-5.45917969 7.89464844 -4.73085938 6.85179687 -3.98046875 5.77734375 C-3.32691406 4.86082031 -2.67335938 3.94429688 -2 3 C-1.34 2.01 -0.68 1.02 0 0 Z " fill="#1F2126" transform="translate(310,339)"/>
<path d="M0 0 C0.33 0 0.66 0 1 0 C1.31990964 8.51315109 0.53924444 16.16310159 -3 24 C-3.66 24 -4.32 24 -5 24 C-3.42910884 15.97921457 -1.72663382 7.98855913 0 0 Z " fill="#1A1C21" transform="translate(750,556)"/>
<path d="M0 0 C4.22703482 0.55598836 6.85684559 1.97502626 10.3125 4.4375 C11.19550781 5.05496094 12.07851563 5.67242187 12.98828125 6.30859375 C13.65214844 6.86675781 14.31601562 7.42492187 15 8 C15 8.66 15 9.32 15 10 C16.32 9.67 17.64 9.34 19 9 C18.67 9.66 18.34 10.32 18 11 C16.35 11 14.7 11 13 11 C13 10.34 13 9.68 13 9 C12.43796875 8.73316406 11.8759375 8.46632813 11.296875 8.19140625 C8.8327333 6.91323751 6.56107799 5.47444239 4.25 3.9375 C3.45078125 3.41027344 2.6515625 2.88304687 1.828125 2.33984375 C1.22484375 1.89769531 0.6215625 1.45554688 0 1 C0 0.67 0 0.34 0 0 Z " fill="#1D1F23" transform="translate(404,254)"/>
<path d="M0 0 C6.93 0 13.86 0 21 0 C21 0.33 21 0.66 21 1 C13.32218504 2.68885947 7.57442779 3.27232834 0 1 C0 0.67 0 0.34 0 0 Z " fill="#15161A" transform="translate(696,721)"/>
<path d="M0 0 C3 1 3 1 4.07495117 2.55053711 C4.39439697 3.2028833 4.71384277 3.85522949 5.04296875 4.52734375 C5.39423828 5.23697266 5.74550781 5.94660156 6.10742188 6.67773438 C6.46384766 7.42345703 6.82027344 8.16917969 7.1875 8.9375 C7.73954102 10.0502832 7.73954102 10.0502832 8.30273438 11.18554688 C11 16.70518321 11 16.70518321 11 19 C10.34 19 9.68 19 9 19 C7.4933028 16.2118978 5.99580196 13.41896042 4.5 10.625 C4.07074219 9.8309375 3.64148438 9.036875 3.19921875 8.21875 C2.79316406 7.45820313 2.38710938 6.69765625 1.96875 5.9140625 C1.40317383 4.8614624 1.40317383 4.8614624 0.82617188 3.78759766 C0 2 0 2 0 0 Z " fill="#1C1D21" transform="translate(718,362)"/>
<path d="M0 0 C2.31 0 4.62 0 7 0 C7 0.66 7 1.32 7 2 C8.3921875 2.4021875 8.3921875 2.4021875 9.8125 2.8125 C12.76240366 3.91148371 14.05615186 4.62418561 16 7 C15.01 7.495 15.01 7.495 14 8 C11.55667274 6.92481882 9.23245477 5.80191434 6.875 4.5625 C6.21628906 4.22412109 5.55757812 3.88574219 4.87890625 3.53710938 C3.24893453 2.69850074 1.62398091 1.85015189 0 1 C0 0.67 0 0.34 0 0 Z " fill="#1C1D20" transform="translate(761,584)"/>
<path d="M0 0 C3 2 3 2 3.6875 4.4375 C4.11383138 9.29767771 4.0780736 14.12473732 4 19 C2.37893452 16.05075061 1.51556732 13.36193006 0.875 10.0625 C0.62363281 8.81146484 0.62363281 8.81146484 0.3671875 7.53515625 C-0.00211177 4.98541981 -0.06442528 2.57240933 0 0 Z " fill="#1D1F24" transform="translate(748,444)"/>
<path d="M0 0 C0.99386719 0.10183594 1.98773437 0.20367187 3.01171875 0.30859375 C3.77097656 0.39238281 4.53023437 0.47617188 5.3125 0.5625 C5.3125 1.2225 5.3125 1.8825 5.3125 2.5625 C0.0325 2.5625 -5.2475 2.5625 -10.6875 2.5625 C-7.27994642 -0.84505358 -4.53278925 -0.47994239 0 0 Z " fill="#212327" transform="translate(679.6875,218.4375)"/>
<path d="M0 0 C1.32 0.33 2.64 0.66 4 1 C3.01 2.485 3.01 2.485 2 4 C1.01 4 0.02 4 -1 4 C-1.28875 4.78375 -1.5775 5.5675 -1.875 6.375 C-3 9 -3 9 -5 11 C-5.39169887 8.33644766 -5.40564529 6.60775627 -3.88671875 4.33203125 C-2.63610683 2.8489112 -1.32135486 1.42045648 0 0 Z " fill="#212327" transform="translate(324,221)"/>
<path d="M0 0 C1.76923828 0.01353516 1.76923828 0.01353516 3.57421875 0.02734375 C4.47785156 0.03894531 5.38148438 0.05054688 6.3125 0.0625 C2.92666198 3.19357836 0.60140538 3.39800778 -3.9375 3.25 C-5.55398438 3.20939453 -5.55398438 3.20939453 -7.203125 3.16796875 C-8.02296875 3.13316406 -8.8428125 3.09835938 -9.6875 3.0625 C-9.6875 2.4025 -9.6875 1.7425 -9.6875 1.0625 C-6.26517028 -0.07827657 -3.60076783 -0.03565117 0 0 Z " fill="#31353B" transform="translate(529.6875,246.9375)"/>
<path d="M0 0 C0.33 0 0.66 0 1 0 C1.83796731 4.65537393 2.0161692 8.37078475 1 13 C0.34 13 -0.32 13 -1 13 C-1 14.98 -1 16.96 -1 19 C-1.33 19 -1.66 19 -2 19 C-1.85761163 16.95809019 -1.71092972 14.91647955 -1.5625 12.875 C-1.48128906 11.73804688 -1.40007812 10.60109375 -1.31640625 9.4296875 C-1.02269035 6.2459522 -0.56875687 3.14489093 0 0 Z " fill="#34373C" transform="translate(266,445)"/>
<path d="M0 0 C5.61 0.33 11.22 0.66 17 1 C17 1.33 17 1.66 17 2 C12.54881676 3.11279581 8.56274117 3.28969785 4 3 C2.68 2.01 1.36 1.02 0 0 Z " fill="#17191C" transform="translate(428,720)"/>
<path d="M0 0 C-5.22270869 2.66464729 -8.0819503 3.32854177 -14 2 C-14 1.67 -14 1.34 -14 1 C-12.23103898 0.63659714 -10.45973374 0.28459117 -8.6875 -0.0625 C-7.70136719 -0.25972656 -6.71523438 -0.45695313 -5.69921875 -0.66015625 C-3 -1 -3 -1 0 0 Z " fill="#1F2125" transform="translate(588,720)"/>
<path d="M0 0 C3.46941546 0.45822468 6.67395049 0.89131683 10 2 C10 2.66 10 3.32 10 4 C10.99 4.33 11.98 4.66 13 5 C8.97007218 4.44687265 4.97977076 3.8441938 1 3 C0.67 2.01 0.34 1.02 0 0 Z " fill="#242529" transform="translate(335,703)"/>
<path d="M0 0 C3.33557632 2.9905167 5.15083921 5.93184627 7 10 C6.01 10 5.02 10 4 10 C3.67 9.34 3.34 8.68 3 8 C2.01 7.34 1.02 6.68 0 6 C0 4 0 2 0 0 Z " fill="#232529" transform="translate(292,625)"/>
<path d="M0 0 C0.33 0 0.66 0 1 0 C1.84681133 5.08086796 2.09038099 9.84828377 2 15 C1.67 15 1.34 15 1 15 C1 12.69 1 10.38 1 8 C0.01 8.33 -0.98 8.66 -2 9 C-2.25 3.375 -2.25 3.375 0 0 Z " fill="#35383E" transform="translate(752,458)"/>
<path d="M0 0 C3.33717549 1.3809002 5.22301036 2.8201238 7 6 C6.57421875 8.1328125 6.57421875 8.1328125 6 10 C4.99723227 8.52270825 3.99785546 7.04311423 3 5.5625 C2.443125 4.73878906 1.88625 3.91507812 1.3125 3.06640625 C0 1 0 1 0 0 Z " fill="#1F2025" transform="translate(705,342)"/>
<path d="M0 0 C0 0.66 0 1.32 0 2 C-4.51617599 2.07654536 -8.59085217 2.10228696 -13 1 C-13 0.67 -13 0.34 -13 0 C-11.20909747 -0.19466332 -9.41723495 -0.38051213 -7.625 -0.5625 C-6.12839844 -0.71912109 -6.12839844 -0.71912109 -4.6015625 -0.87890625 C-2 -1 -2 -1 0 0 Z " fill="#1C1D21" transform="translate(552,249)"/>
<path d="M0 0 C3.71888239 0.50712033 6.73454239 1.11608215 10 3 C10 3.66 10 4.32 10 5 C6.05140217 4.4359146 3.29120954 3.2568294 0 1 C0 0.67 0 0.34 0 0 Z " fill="#222429" transform="translate(353,224)"/>
<path d="M0 0 C3.39417765 3.12621626 5.6062718 5.56541027 7 10 C6.34 10 5.68 10 5 10 C3.7109375 8.57421875 3.7109375 8.57421875 2.375 6.6875 C1.92898438 6.07261719 1.48296875 5.45773437 1.0234375 4.82421875 C0 3 0 3 0 0 Z " fill="#1B1D20" transform="translate(300,637)"/>
<path d="M0 0 C2.9719385 1.12451727 5.33440687 2.22293791 8 4 C7.67 4.99 7.34 5.98 7 7 C5.82780457 6.21654285 4.66236332 5.42297164 3.5 4.625 C2.8503125 4.18414063 2.200625 3.74328125 1.53125 3.2890625 C1.0259375 2.86367188 0.520625 2.43828125 0 2 C0 1.34 0 0.68 0 0 Z " fill="#1B1C21" transform="translate(778,592)"/>
<path d="M0 0 C0.33 0 0.66 0 1 0 C1.96891192 5.37305699 1.96891192 5.37305699 2 8 C0.5625 10 0.5625 10 -1 11 C-2.25 3.375 -2.25 3.375 0 0 Z " fill="#34383F" transform="translate(748,437)"/>
<path d="M0 0 C0.99 0 1.98 0 3 0 C4.60355101 3.50776784 5.22036864 6.14354879 5 10 C2.35534962 6.8745041 1.15585285 3.91211733 0 0 Z " fill="#1D1F22" transform="translate(729,385)"/>
<path d="M0 0 C0.66 0.33 1.32 0.66 2 1 C-0.475 5.455 -0.475 5.455 -3 10 C-4 6 -4 6 -2.0625 2.75 C-1.381875 1.8425 -0.70125 0.935 0 0 Z " fill="#191B1F" transform="translate(297,360)"/>
<path d="M0 0 C0 0.66 0 1.32 0 2 C-5.45769231 5.10096154 -5.45769231 5.10096154 -8.203125 4.58984375 C-8.79609375 4.39519531 -9.3890625 4.20054687 -10 4 C-8.71086513 3.32845067 -7.41859796 2.66291141 -6.125 2 C-5.40570312 1.62875 -4.68640625 1.2575 -3.9453125 0.875 C-2 0 -2 0 0 0 Z " fill="#1A1B1E" transform="translate(599,714)"/>
<path d="M0 0 C0 0.66 0 1.32 0 2 C-3.50776784 3.60355101 -6.14354879 4.22036864 -10 4 C-7.02096266 1.02096266 -4.19714671 0 0 0 Z " fill="#212226" transform="translate(752,711)"/>
<path d="M0 0 C0.66 0.99 1.32 1.98 2 3 C2.8353125 3.99 2.8353125 3.99 3.6875 5 C4.120625 5.66 4.55375 6.32 5 7 C4.67 7.99 4.34 8.98 4 10 C0.38860104 6.12435233 0.38860104 6.12435233 -1 4 C-0.8125 1.625 -0.8125 1.625 0 0 Z " fill="#1F2226" transform="translate(700,331)"/>
<path d="M0 0 C1.32 0.33 2.64 0.66 4 1 C1.69 2.65 -0.62 4.3 -3 6 C-3.66 5.67 -4.32 5.34 -5 5 C-2.75 2.4375 -2.75 2.4375 0 0 Z " fill="#1C1E23" transform="translate(613,249)"/>
<path d="M0 0 C3 4 3 4 2.875 6.0625 C2 8 2 8 -1 11 C-0.67 7.37 -0.34 3.74 0 0 Z " fill="#373A40" transform="translate(315,239)"/>
<path d="M0 0 C0.99 0 1.98 0 3 0 C2.67 1.98 2.34 3.96 2 6 C1.01 6 0.02 6 -1 6 C-1.042721 4.33388095 -1.04063832 2.66617115 -1 1 C-0.67 0.67 -0.34 0.34 0 0 Z " fill="#1F2228" transform="translate(281,394)"/>
<path d="M0 0 C3.37462715 0.54723683 5.08235 1.0549 8 3 C8 3.66 8 4.32 8 5 C2.25 3.375 2.25 3.375 0 0 Z " fill="#1F2226" transform="translate(376,236)"/>
<path d="M0 0 C3.465 1.98 3.465 1.98 7 4 C7 4.66 7 5.32 7 6 C2.25 4.125 2.25 4.125 0 3 C0 2.01 0 1.02 0 0 Z " fill="#222327" transform="translate(674,712)"/>
<path d="M0 0 C0.66 0 1.32 0 2 0 C4 3 4 3 3.625 5.1875 C3.41875 5.785625 3.2125 6.38375 3 7 C1.68 5.68 0.36 4.36 -1 3 C-0.67 2.01 -0.34 1.02 0 0 Z " fill="#1E2024" transform="translate(795,609)"/>
<path d="M0 0 C2.475 0.495 2.475 0.495 5 1 C4.34 1.66 3.68 2.32 3 3 C3 2.34 3 1.68 3 1 C2.01 0.67 1.02 0.34 0 0 Z " fill="#343439" transform="translate(344,709)"/>
<path d="M0 0 C0.66 0.33 1.32 0.66 2 1 C1.01 1 0.02 1 -1 1 C-0.67 0.67 -0.34 0.34 0 0 Z " fill="#3D4045" transform="translate(433,724)"/>
<path d="M0 0 C1 4 1 4 1 4 Z " fill="#393B42" transform="translate(807,644)"/>
<path d="M0 0 C0.66 0 1.32 0 2 0 C2 0.66 2 1.32 2 2 C1.34 2 0.68 2 0 2 C0 1.34 0 0.68 0 0 Z " fill="#3F4246" transform="translate(672,216)"/>
<path d="M0 0 C4 1 4 1 4 1 Z " fill="#41444A" transform="translate(334,216)"/>
<path d="M0 0 C0.66 0.66 1.32 1.32 2 2 C1.34 2 0.68 2 0 2 C0 1.34 0 0.68 0 0 Z " fill="#3D3E45" transform="translate(273,591)"/>
<path d="M0 0 C3 1 3 1 3 1 Z " fill="#38393E" transform="translate(750,578)"/>
<path d="" fill="#424349" transform="translate(0,0)"/>
<path d="M0 0 C0.33 0.66 0.66 1.32 1 2 C0.34 1.67 -0.32 1.34 -1 1 C-0.67 0.67 -0.34 0.34 0 0 Z " fill="#414449" transform="translate(266,436)"/>
<path d="M0 0 C3 1 3 1 3 1 Z " fill="#3D4044" transform="translate(506,244)"/>
<path d="M0 0 C2 1 2 1 2 1 Z " fill="#3D3F44" transform="translate(561,724)"/>
<path d="M0 0 C2 1 2 1 2 1 Z " fill="#3C3F45" transform="translate(679,719)"/>
<path d="M0 0 C2 1 2 1 2 1 Z " fill="#3A3C41" transform="translate(545,719)"/>
<path d="M0 0 C2 1 2 1 2 1 Z " fill="#3D3E43" transform="translate(739,718)"/>
<path d="" fill="#3A3D42" transform="translate(0,0)"/>
<path d="M0 0 C2 1 2 1 2 1 Z " fill="#383A41" transform="translate(664,711)"/>
<path d="M0 0 C2 1 2 1 2 1 Z " fill="#313135" transform="translate(331,703)"/>
<path d="M0 0 C2 1 2 1 2 1 Z " fill="#323437" transform="translate(329,702)"/>
<path d="" fill="#3D4044" transform="translate(0,0)"/>
<path d="" fill="#3D3F43" transform="translate(0,0)"/>
<path d="" fill="#3E3E44" transform="translate(0,0)"/>
<path d="" fill="#404147" transform="translate(0,0)"/>
<path d="" fill="#3B3E44" transform="translate(0,0)"/>
<path d="" fill="#3F4248" transform="translate(0,0)"/>
<path d="" fill="#3F4347" transform="translate(0,0)"/>
<path d="" fill="#424449" transform="translate(0,0)"/>
<path d="" fill="#414349" transform="translate(0,0)"/>
<path d="" fill="#3D3F45" transform="translate(0,0)"/>
<path d="" fill="#3E4046" transform="translate(0,0)"/>
<path d="M0 0 C2 1 2 1 2 1 Z " fill="#3E4046" transform="translate(587,256)"/>
<path d="" fill="#414248" transform="translate(0,0)"/>
<path d="M0 0 C2 1 2 1 2 1 Z " fill="#3F4349" transform="translate(565,250)"/>
<path d="M0 0 C2 1 2 1 2 1 Z " fill="#414347" transform="translate(557,248)"/>
<path d="M0 0 C2 1 2 1 2 1 Z " fill="#3E3E45" transform="translate(552,248)"/>
<path d="M0 0 C2 1 2 1 2 1 Z " fill="#3D4044" transform="translate(515,244)"/>
<path d="M0 0 C2 1 2 1 2 1 Z " fill="#3E3F45" transform="translate(624,240)"/>
<path d="M0 0 C2 1 2 1 2 1 Z " fill="#404046" transform="translate(621,240)"/>
<path d="M0 0 C2 1 2 1 2 1 Z " fill="#3C3E45" transform="translate(387,240)"/>
<path d="M0 0 C2 1 2 1 2 1 Z " fill="#3F4246" transform="translate(374,232)"/>
<path d="" fill="#404149" transform="translate(0,0)"/>
<path d="M0 0 C2 1 2 1 2 1 Z " fill="#3F4448" transform="translate(677,216)"/>
<path d="" fill="#464747" transform="translate(0,0)"/>
<path d="" fill="#3F4144" transform="translate(0,0)"/>
<path d="" fill="#414146" transform="translate(0,0)"/>
<path d="" fill="#424347" transform="translate(0,0)"/>
<path d="" fill="#404045" transform="translate(0,0)"/>
<path d="" fill="#404045" transform="translate(0,0)"/>
<path d="" fill="#3E3F45" transform="translate(0,0)"/>
<path d="" fill="#3F4244" transform="translate(0,0)"/>
<path d="" fill="#3B3F42" transform="translate(0,0)"/>
<path d="" fill="#3C3F44" transform="translate(0,0)"/>
<path d="" fill="#3E3F44" transform="translate(0,0)"/>
<path d="" fill="#3E4044" transform="translate(0,0)"/>
<path d="" fill="#3D3D43" transform="translate(0,0)"/>
<path d="" fill="#393C42" transform="translate(0,0)"/>
<path d="" fill="#3B3D44" transform="translate(0,0)"/>
<path d="" fill="#3D3E43" transform="translate(0,0)"/>
<path d="" fill="#38383C" transform="translate(0,0)"/>
<path d="" fill="#3C3E44" transform="translate(0,0)"/>
<path d="" fill="#3D3E42" transform="translate(0,0)"/>
<path d="" fill="#3E3F46" transform="translate(0,0)"/>
<path d="" fill="#404348" transform="translate(0,0)"/>
<path d="" fill="#393F42" transform="translate(0,0)"/>
<path d="" fill="#3B3D40" transform="translate(0,0)"/>
<path d="" fill="#3E4144" transform="translate(0,0)"/>
<path d="" fill="#3D3F44" transform="translate(0,0)"/>
<path d="" fill="#3C3E44" transform="translate(0,0)"/>
<path d="" fill="#3A393E" transform="translate(0,0)"/>
<path d="" fill="#36353B" transform="translate(0,0)"/>
<path d="" fill="#363538" transform="translate(0,0)"/>
<path d="" fill="#343339" transform="translate(0,0)"/>
<path d="" fill="#323439" transform="translate(0,0)"/>
<path d="" fill="#3B3D42" transform="translate(0,0)"/>
<path d="" fill="#393A3F" transform="translate(0,0)"/>
<path d="" fill="#3B3E40" transform="translate(0,0)"/>
<path d="" fill="#3C3E45" transform="translate(0,0)"/>
<path d="" fill="#3B3F43" transform="translate(0,0)"/>
<path d="" fill="#393E42" transform="translate(0,0)"/>
<path d="" fill="#3A3E44" transform="translate(0,0)"/>
<path d="" fill="#3F3F45" transform="translate(0,0)"/>
<path d="" fill="#3D3E46" transform="translate(0,0)"/>
<path d="" fill="#3C4043" transform="translate(0,0)"/>
<path d="" fill="#3F4045" transform="translate(0,0)"/>
<path d="" fill="#383C3F" transform="translate(0,0)"/>
<path d="" fill="#3B3C42" transform="translate(0,0)"/>
<path d="" fill="#3A3D41" transform="translate(0,0)"/>
<path d="" fill="#3D3F46" transform="translate(0,0)"/>
<path d="" fill="#3B3E42" transform="translate(0,0)"/>
<path d="" fill="#3F4045" transform="translate(0,0)"/>
<path d="" fill="#35393C" transform="translate(0,0)"/>
<path d="" fill="#3B4044" transform="translate(0,0)"/>
<path d="" fill="#393B3F" transform="translate(0,0)"/>
<path d="" fill="#3F4045" transform="translate(0,0)"/>
<path d="" fill="#3E4147" transform="translate(0,0)"/>
<path d="" fill="#37363C" transform="translate(0,0)"/>
<path d="" fill="#373A41" transform="translate(0,0)"/>
<path d="" fill="#39393E" transform="translate(0,0)"/>
<path d="" fill="#3A393D" transform="translate(0,0)"/>
<path d="" fill="#3A3C44" transform="translate(0,0)"/>
<path d="" fill="#393E42" transform="translate(0,0)"/>
<path d="" fill="#414247" transform="translate(0,0)"/>
<path d="" fill="#414347" transform="translate(0,0)"/>
<path d="" fill="#393B42" transform="translate(0,0)"/>
<path d="" fill="#3D4047" transform="translate(0,0)"/>
<path d="" fill="#404147" transform="translate(0,0)"/>
<path d="" fill="#32363C" transform="translate(0,0)"/>
<path d="" fill="#404248" transform="translate(0,0)"/>
<path d="" fill="#404448" transform="translate(0,0)"/>
<path d="" fill="#404249" transform="translate(0,0)"/>
<path d="" fill="#414549" transform="translate(0,0)"/>
<path d="" fill="#414348" transform="translate(0,0)"/>
<path d="" fill="#404147" transform="translate(0,0)"/>
<path d="" fill="#414548" transform="translate(0,0)"/>
<path d="" fill="#3E4047" transform="translate(0,0)"/>
<path d="" fill="#41454A" transform="translate(0,0)"/>
<path d="" fill="#393B42" transform="translate(0,0)"/>
<path d="" fill="#414049" transform="translate(0,0)"/>
<path d="" fill="#3E4145" transform="translate(0,0)"/>
<path d="" fill="#3F4348" transform="translate(0,0)"/>
<path d="" fill="#404148" transform="translate(0,0)"/>
<path d="" fill="#3F4144" transform="translate(0,0)"/>
<path d="" fill="#404148" transform="translate(0,0)"/>
<path d="" fill="#404247" transform="translate(0,0)"/>
<path d="" fill="#3F4448" transform="translate(0,0)"/>
<path d="" fill="#403F45" transform="translate(0,0)"/>
<path d="" fill="#3D4148" transform="translate(0,0)"/>
<path d="" fill="#3D4045" transform="translate(0,0)"/>
<path d="" fill="#3E4046" transform="translate(0,0)"/>
<path d="" fill="#3F4248" transform="translate(0,0)"/>
<path d="" fill="#3D4344" transform="translate(0,0)"/>
<path d="" fill="#393C41" transform="translate(0,0)"/>
<path d="" fill="#3D4046" transform="translate(0,0)"/>
<path d="" fill="#3B3F46" transform="translate(0,0)"/>
<path d="" fill="#3E4346" transform="translate(0,0)"/>
<path d="" fill="#3E3F44" transform="translate(0,0)"/>
<path d="" fill="#404247" transform="translate(0,0)"/>
<path d="" fill="#3D3E46" transform="translate(0,0)"/>
<path d="" fill="#3D4244" transform="translate(0,0)"/>
<path d="" fill="#3F4045" transform="translate(0,0)"/>
<path d="" fill="#424448" transform="translate(0,0)"/>
<path d="" fill="#3C3F44" transform="translate(0,0)"/>
<path d="" fill="#3E4045" transform="translate(0,0)"/>
<path d="" fill="#3A3E42" transform="translate(0,0)"/>
<path d="" fill="#3D3E46" transform="translate(0,0)"/>
<path d="" fill="#3B3F43" transform="translate(0,0)"/>
<path d="" fill="#3C3F46" transform="translate(0,0)"/>
<path d="" fill="#3E3F45" transform="translate(0,0)"/>
<path d="" fill="#404448" transform="translate(0,0)"/>
<path d="" fill="#3D4045" transform="translate(0,0)"/>
<path d="" fill="#3D4045" transform="translate(0,0)"/>
<path d="" fill="#3F4347" transform="translate(0,0)"/>
<path d="" fill="#40424A" transform="translate(0,0)"/>
<path d="" fill="#3E4146" transform="translate(0,0)"/>
<path d="" fill="#3E3F44" transform="translate(0,0)"/>
<path d="" fill="#404045" transform="translate(0,0)"/>
<path d="" fill="#3E3F45" transform="translate(0,0)"/>
<path d="" fill="#42464A" transform="translate(0,0)"/>
<path d="" fill="#434446" transform="translate(0,0)"/>
<path d="" fill="#3F4248" transform="translate(0,0)"/>
<path d="" fill="#403F48" transform="translate(0,0)"/>
<path d="" fill="#414148" transform="translate(0,0)"/>
<path d="" fill="#3D4045" transform="translate(0,0)"/>
<path d="" fill="#3F4145" transform="translate(0,0)"/>
<path d="" fill="#3F4247" transform="translate(0,0)"/>
<path d="" fill="#414249" transform="translate(0,0)"/>
<path d="" fill="#3E3F45" transform="translate(0,0)"/>
<path d="" fill="#3C4044" transform="translate(0,0)"/>
<path d="" fill="#404149" transform="translate(0,0)"/>
<path d="" fill="#3F4246" transform="translate(0,0)"/>
<path d="" fill="#3E4243" transform="translate(0,0)"/>
<path d="" fill="#3E4046" transform="translate(0,0)"/>
<path d="" fill="#3D4044" transform="translate(0,0)"/>
<path d="" fill="#3B3D43" transform="translate(0,0)"/>
<path d="" fill="#3E4246" transform="translate(0,0)"/>
<path d="" fill="#3E4246" transform="translate(0,0)"/>
<path d="" fill="#404346" transform="translate(0,0)"/>
<path d="" fill="#42444A" transform="translate(0,0)"/>
<path d="" fill="#40454C" transform="translate(0,0)"/>
<path d="" fill="#3E4346" transform="translate(0,0)"/>
<path d="" fill="#434548" transform="translate(0,0)"/>
<path d="" fill="#434449" transform="translate(0,0)"/>
<path d="" fill="#414449" transform="translate(0,0)"/>
</svg>
