<?xml version="1.0" encoding="UTF-8"?>
<svg version="1.1" xmlns="http://www.w3.org/2000/svg" width="1024" height="1024">
<path d="M0 0 C4.24385596 3.35560704 6.51029268 7.2972195 9 12 C11.64 12 14.28 12 17 12 C17 12.33 17 12.66 17 13 C18.65 13 20.3 13 22 13 C22.27972656 12.38511719 22.55945313 11.77023437 22.84765625 11.13671875 C24.84591185 7.10808125 26.50671535 4.39261432 30.0625 1.5625 C36.28803613 0.6731377 40.86012476 3.64349473 46 7 C48.3671875 9.03125 48.3671875 9.03125 50 11 C49.92791039 14.38821187 49.42000144 16.38749791 47.5 19.1875 C42.74866205 28.09625866 45.55328994 39.47084364 47 49 C48.27875 48.96519531 49.5575 48.93039062 50.875 48.89453125 C52.58332009 48.86637213 54.29165452 48.83907426 56 48.8125 C57.25876953 48.77479492 57.25876953 48.77479492 58.54296875 48.73632812 C64.40601595 48.66815316 68.66418048 49.52265522 74 52 C76.75286315 55.01094407 76.98423928 56.85815355 77.4375 60.9375 C77.22407037 65.27997203 76.09223479 67.83234485 73 71 C65.90983356 74.381464 57.52197386 72.79178672 50 72 C52.76422764 88.65810865 58.50207978 103.22996675 65.61254883 118.49731445 C96 183.8004024 96 183.8004024 96 204 C96.66 204 97.32 204 98 204 C98.103125 205.12535156 98.20625 206.25070312 98.3125 207.41015625 C99.2583754 215.92470011 100.92253366 224.35398846 102.41601562 232.78637695 C104.75899243 246.04890266 106.1564144 258.63022373 106.0625 272.125 C106.05798828 273.36765625 106.05347656 274.6103125 106.04882812 275.890625 C106.03714924 278.92713502 106.0207714 281.96354088 106 285 C118.03265487 286.06170484 127.22389861 284.48823777 136.78515625 276.51049805 C142.0559688 271.58476434 144.99025039 265.97374714 148.171875 259.58398438 C151.68147641 252.85534921 155.37833577 248.20092724 162.74609375 245.7578125 C163.96425781 245.54898438 165.18242188 245.34015625 166.4375 245.125 C168.29181641 244.78855469 168.29181641 244.78855469 170.18359375 244.4453125 C171.11300781 244.29835938 172.04242187 244.15140625 173 244 C173 244.66 173 245.32 173 246 C173.825 245.896875 174.65 245.79375 175.5 245.6875 C181.70140463 246.24119684 186.13754115 249.78464127 190.25 254.3125 C198.84442205 265.07888198 200.37268644 277.6585004 199 291 C195.76871881 308.68636864 184.0902421 323.31036476 169.63305664 333.38208008 C147.53878129 348.14954461 122.46972764 353.51266078 96.25 354.8125 C95.23776367 354.86575439 94.22552734 354.91900879 93.18261719 354.97387695 C87.66144012 355.17858749 83.29243005 354.79238702 78 353 C74.14364271 351.93261539 72.6971322 351.65792316 69.0625 353.44140625 C68.051875 354.14136719 67.04125 354.84132813 66 355.5625 C53.9378509 363.49123478 40.90930122 367.61513174 27 371 C25.19402344 371.44859375 25.19402344 371.44859375 23.3515625 371.90625 C-2.23969208 377.45749828 -29.12992994 376.13139841 -55.10253906 375.15991211 C-57.81161428 375.05978052 -60.52046319 374.97441712 -63.23046875 374.90385437 C-65.7311717 374.83767047 -68.23145826 374.75060646 -70.73046875 374.63728333 C-78.57266499 374.45310195 -84.80657203 375.93485075 -92.0091095 378.83734131 C-101.82256356 382.65215755 -114.14159411 381.93376569 -123.7578125 377.8203125 C-126.91086171 376.26676931 -130.01534381 374.72652222 -132.84765625 372.63671875 C-135.81989207 371.75745479 -137.48619211 372.8636892 -140.1328125 374.26367188 C-140.74898437 374.60978516 -141.36515625 374.95589844 -142 375.3125 C-154.36675784 382.02625243 -168.63640143 381.61769807 -182.04296875 377.65625 C-183.01169922 377.33140625 -183.01169922 377.33140625 -184 377 C-184 376.34 -184 375.68 -184 375 C-188.2004618 372.61973831 -191.42404796 373.07260516 -196.01171875 373.63671875 C-213.29411229 375.73771561 -234.36512954 377.05911293 -249.37890625 366.46875 C-252.96635428 363.21843564 -255.54160216 359.67318318 -256.37109375 354.8359375 C-256.49641726 350.66340169 -255.76848759 347.18012428 -254.625 343.1875 C-253.35003586 337.45016138 -255.56645758 334.08224259 -258.3359375 329.125 C-267.77228923 311.40415167 -267.05770651 289.40123282 -265 270 C-265.763125 269.731875 -266.52625 269.46375 -267.3125 269.1875 C-269.98157602 268.00814083 -271.02841508 267.05686977 -273 265 C-274.83627043 263.76463998 -276.6930514 262.55955283 -278.5625 261.375 C-284.58744495 257.40434351 -289.79613466 252.98022815 -295 248 C-295.74894531 247.32582031 -296.49789063 246.65164063 -297.26953125 245.95703125 C-307.74747669 236.17639216 -315.39939159 223.54000199 -320 210 C-320 209.01 -320 208.02 -320 207 C-320.66 206.67 -321.32 206.34 -322 206 C-322.38133299 204.0085944 -322.71325582 202.00720923 -323 200 C-323.33 199.34 -323.66 198.68 -324 198 C-325.077562 182.15017767 -324.91740107 166.19379631 -320 151 C-319.78569336 150.33291016 -319.57138672 149.66582031 -319.35058594 148.97851562 C-315.56286298 137.54367222 -310.43223072 126.526869 -304.88134766 115.84790039 C-304.51831543 115.14656982 -304.1552832 114.44523926 -303.78125 113.72265625 C-303.44931641 113.09367432 -303.11738281 112.46469238 -302.77539062 111.81665039 C-300.09131188 105.52816489 -302.63439887 97.31693191 -303.5546875 90.85546875 C-304.1672803 85.55170477 -304.1786438 80.32953989 -304 75 C-304.66 74.67 -305.32 74.34 -306 74 C-305.081257 33.80372492 -305.081257 33.80372492 -295.6875 22.125 C-289.62022278 17.32761801 -282.4112867 17.2978781 -275 18 C-253.10645994 21.48535397 -232.49853697 30.19325049 -212.78515625 40.08203125 C-211.68042969 40.63246094 -210.57570313 41.18289063 -209.4375 41.75 C-208.54933594 42.21921875 -207.66117187 42.6884375 -206.74609375 43.171875 C-200.11651827 45.17112109 -192.75846922 42.26149562 -186.26123047 40.62524414 C-148.50986572 31.21313249 -108.5942814 28.32533236 -69.99609375 34.24609375 C-69.16513184 34.36476807 -68.33416992 34.48344238 -67.47802734 34.60571289 C-65 35 -65 35 -62.49462891 35.59545898 C-52.91127686 37.3924493 -45.67763795 32.5799807 -37.5 28.1875 C-36.03508107 27.42666948 -34.56894109 26.66818518 -33.1015625 25.91210938 C-25.90257981 22.21280414 -25.90257981 22.21280414 -19 18 C-19.26296875 17.40832031 -19.5259375 16.81664062 -19.796875 16.20703125 C-22.33734497 9.82462104 -22.33734497 9.82462104 -20.875 6.25 C-14.86773744 1.54866408 -7.66254274 -2.75851538 0 0 Z " fill="#31333C" transform="translate(598,324)"/>
<path d="M0 0 C4.24385596 3.35560704 6.51029268 7.2972195 9 12 C11.64 12 14.28 12 17 12 C17 12.33 17 12.66 17 13 C18.65 13 20.3 13 22 13 C22.27972656 12.38511719 22.55945313 11.77023437 22.84765625 11.13671875 C24.84591185 7.10808125 26.50671535 4.39261432 30.0625 1.5625 C36.28803613 0.6731377 40.86012476 3.64349473 46 7 C48.3671875 9.03125 48.3671875 9.03125 50 11 C49.92791039 14.38821187 49.42000144 16.38749791 47.5 19.1875 C42.74866205 28.09625866 45.55328994 39.47084364 47 49 C48.27875 48.96519531 49.5575 48.93039062 50.875 48.89453125 C52.58332009 48.86637213 54.29165452 48.83907426 56 48.8125 C57.25876953 48.77479492 57.25876953 48.77479492 58.54296875 48.73632812 C64.40601595 48.66815316 68.66418048 49.52265522 74 52 C76.75286315 55.01094407 76.98423928 56.85815355 77.4375 60.9375 C77.22407037 65.27997203 76.09223479 67.83234485 73 71 C65.90983356 74.381464 57.52197386 72.79178672 50 72 C52.76422764 88.65810865 58.50207978 103.22996675 65.61254883 118.49731445 C96 183.8004024 96 183.8004024 96 204 C96.66 204 97.32 204 98 204 C98.103125 205.12535156 98.20625 206.25070312 98.3125 207.41015625 C99.2583754 215.92470011 100.92253366 224.35398846 102.41601562 232.78637695 C104.75899243 246.04890266 106.1564144 258.63022373 106.0625 272.125 C106.05798828 273.36765625 106.05347656 274.6103125 106.04882812 275.890625 C106.03714924 278.92713502 106.0207714 281.96354088 106 285 C118.03265487 286.06170484 127.22389861 284.48823777 136.78515625 276.51049805 C142.0559688 271.58476434 144.99025039 265.97374714 148.171875 259.58398438 C151.68147641 252.85534921 155.37833577 248.20092724 162.74609375 245.7578125 C164.57333984 245.44457031 164.57333984 245.44457031 166.4375 245.125 C168.29181641 244.78855469 168.29181641 244.78855469 170.18359375 244.4453125 C171.11300781 244.29835938 172.04242187 244.15140625 173 244 C173 244.66 173 245.32 173 246 C174.98 246 176.96 246 179 246 C178.34 246.66 177.68 247.32 177 248 C178.051875 248.4125 179.10375 248.825 180.1875 249.25 C186.634054 251.77806039 189.88277611 255.85411202 192.75 262 C193.05292969 262.61617187 193.35585938 263.23234375 193.66796875 263.8671875 C198.54611804 273.97037669 198.47512852 286.15961803 195.375 296.875 C188.00964428 317.39095623 173.03774365 330.98887165 153.75 340.3125 C132.05943278 350.24533456 99.29559117 357.76519706 76 350 C78.36935088 345.07904048 81.19550731 340.67068844 84.46435547 336.29492188 C104.92131505 308.72891633 105.98231322 276.12560931 101.375 243.1875 C97.8225973 219.60836673 92.25226671 196.70194849 85 174 C84.58911133 172.69554932 84.58911133 172.69554932 84.16992188 171.36474609 C77.59809162 150.73101089 68.67059017 130.38299879 58.5859375 111.2265625 C56.07088908 106.10973986 54 101.75223082 54 96 C50.95865509 97.66924071 50.95865509 97.66924071 50 100 C49.52691406 99.2265625 49.05382812 98.453125 48.56640625 97.65625 C41.37662578 86.33199538 33.64068099 78.93003617 21 74 C9.99865098 71.65171722 -0.21410625 73.31948203 -11 76 C-11 75.01 -11 74.02 -11 73 C-10.34 73 -9.68 73 -9 73 C-9 72.34 -9 71.68 -9 71 C-10.16789063 71.10828125 -10.16789063 71.10828125 -11.359375 71.21875 C-18.76015357 71.83263947 -26.13794869 72.15763456 -33.5625 72.25 C-34.41875977 72.27126953 -35.27501953 72.29253906 -36.15722656 72.31445312 C-40.92746431 72.34083927 -44.14480862 72.14522544 -48 69 C-49.31356409 66.37287182 -49.24188753 64.3109921 -49.3125 61.375 C-49.34988281 60.37210937 -49.38726563 59.36921875 -49.42578125 58.3359375 C-48.87244973 54.00066122 -47.1333965 50.76765418 -45 47 C-44.34515625 47.02094727 -43.6903125 47.04189453 -43.015625 47.06347656 C-40.01057672 47.14730383 -37.00577536 47.19886895 -34 47.25 C-32.97003906 47.28351563 -31.94007813 47.31703125 -30.87890625 47.3515625 C-24.09447217 47.43798841 -19.75963329 46.66769101 -14 43 C-10.9846968 36.96939359 -12.82612652 27.30735718 -14.2265625 20.9140625 C-14.86878962 18.71027112 -14.86878962 18.71027112 -17.5625 17.75 C-18.366875 17.5025 -19.17125 17.255 -20 17 C-20.75 14.0625 -20.75 14.0625 -21 11 C-21.33 10.01 -21.66 9.02 -22 8 C-16.52746801 2.01481865 -8.13253654 -2.92771316 0 0 Z " fill="#292930" transform="translate(598,324)"/>
<path d="M0 0 C1.10472656 0.55042969 2.20945312 1.10085938 3.34765625 1.66796875 C4.23582031 2.1371875 5.12398438 2.60640625 6.0390625 3.08984375 C12.66863798 5.08908984 20.02668703 2.17946437 26.52392578 0.54321289 C51.79919297 -5.75837748 76.52177584 -8.43401337 102.53515625 -8.45703125 C104.0071347 -8.46015823 104.0071347 -8.46015823 105.5088501 -8.46334839 C108.30439374 -8.46267309 111.09912508 -8.44460486 113.89453125 -8.41796875 C114.73472809 -8.41554672 115.57492493 -8.41312469 116.44058228 -8.41062927 C120.46054333 -8.34575932 123.28717808 -8.04355479 126.78515625 -6.08203125 C124.81615356 -6.06015747 124.81615356 -6.06015747 122.80737305 -6.0378418 C86.23878691 -5.59961738 50.54624945 -4.64194317 15.3203125 6.46484375 C10.05832488 7.40535309 5.75987148 5.66243097 1.03125 3.4765625 C-0.06034424 2.97898437 -1.15193848 2.48140625 -2.27661133 1.96875 C-3.43185303 1.43636719 -4.58709473 0.90398437 -5.77734375 0.35546875 C-33.50276767 -12.74428478 -33.50276767 -12.74428478 -63.21484375 -19.08203125 C-64.0140625 -19.14519531 -64.81328125 -19.20835937 -65.63671875 -19.2734375 C-71.67438718 -19.55702496 -76.30537186 -18.76413517 -81.21484375 -15.08203125 C-86.37579506 -8.83456388 -87.56875236 -2.02900774 -88.33984375 5.79296875 C-88.42331055 6.63375977 -88.50677734 7.47455078 -88.59277344 8.34082031 C-90.24719756 26.21535359 -88.86909565 44.19296452 -86.21484375 61.91796875 C-85.06311543 70.24248611 -88.25774809 75.74139394 -92.21484375 82.91796875 C-106.12310944 109.36197391 -113.68956114 138.56243329 -104.61279297 167.86132812 C-101.50904885 177.57941832 -97.35305136 185.69758483 -91.21484375 193.91796875 C-90.66054688 194.70558594 -90.10625 195.49320313 -89.53515625 196.3046875 C-82.48072111 205.9750017 -73.19234714 213.43926298 -63.21484375 219.91796875 C-62.27511719 220.55347656 -61.33539063 221.18898438 -60.3671875 221.84375 C-53.05003638 226.60776116 -45.64364325 230.04438476 -37.48657227 233.12866211 C-36.70209717 233.43553955 -35.91762207 233.74241699 -35.109375 234.05859375 C-34.40659424 234.32188477 -33.70381348 234.58517578 -32.97973633 234.85644531 C-30.75609899 236.19388827 -30.16706784 237.54708748 -29.21484375 239.91796875 C-34.44660212 240.30078034 -37.59287069 239.13651582 -42.21484375 236.91796875 C-42.21484375 236.25796875 -42.21484375 235.59796875 -42.21484375 234.91796875 C-42.99859375 234.60859375 -43.78234375 234.29921875 -44.58984375 233.98046875 C-47.21484375 232.91796875 -47.21484375 232.91796875 -49.21484375 231.91796875 C-49.29015277 236.50370876 -49.34397969 241.08907293 -49.37963867 245.67529297 C-49.39453564 247.22874233 -49.41486026 248.7821511 -49.44116211 250.33544922 C-49.68693599 265.2457312 -47.82554716 278.29832679 -41.21484375 291.91796875 C-40.869375 292.6346875 -40.52390625 293.35140625 -40.16796875 294.08984375 C-31.43144589 309.91687792 -11.69316064 319.47295969 4.78515625 324.91796875 C4.3984375 324.31210937 4.01171875 323.70625 3.61328125 323.08203125 C-4.1357691 310.61449975 -8.97629653 297.82402618 -7.21484375 282.91796875 C-5.6953125 281 -5.6953125 281 -4.21484375 279.91796875 C-2.14067878 284.5396817 -0.43668543 289.17020482 1.13085938 293.98535156 C4.27506363 303.53833409 7.84429814 311.72409059 13.78515625 319.91796875 C14.33816406 320.69527344 14.89117187 321.47257812 15.4609375 322.2734375 C19.90025017 327.92058226 25.32038765 330.95341058 31.78515625 333.91796875 C32.82929688 334.43037109 32.82929688 334.43037109 33.89453125 334.953125 C44.27468907 339.27819076 58.52367307 337.99319105 68.78515625 333.91796875 C71.81542091 332.40851554 71.81542091 332.40851554 73.78515625 330.91796875 C72.79515625 329.43296875 72.79515625 329.43296875 71.78515625 327.91796875 C67.40425309 314.6400462 69.08873651 299.81348917 73.78515625 286.91796875 C74.73407182 285.22169724 75.71762423 283.54220801 76.78515625 281.91796875 C77.77515625 282.24796875 78.76515625 282.57796875 79.78515625 282.91796875 C79.80703003 284.87802856 79.80703003 284.87802856 79.8293457 286.87768555 C79.8873844 291.7327795 79.96461741 296.58741238 80.04760742 301.44213867 C80.08083047 303.54199736 80.10887055 305.64194478 80.1315918 307.74194336 C80.16518561 310.76324219 80.21750459 313.78372976 80.2734375 316.8046875 C80.28302238 318.20964729 80.28302238 318.20964729 80.2928009 319.64299011 C80.40212373 324.50617341 80.53479131 328.02804796 83.78515625 331.91796875 C93.32967587 338.22095341 105.73579655 338.95425558 116.78515625 336.91796875 C120.206606 336.12204237 123.48256033 335.11161363 126.78515625 333.91796875 C127.96271484 333.50224609 127.96271484 333.50224609 129.1640625 333.078125 C143.42323603 327.45648806 151.39136102 311.97699566 157.2890625 298.59375 C159.08913985 294.17110566 160.56486324 289.7067412 161.86328125 285.11328125 C162.1675 284.38882812 162.47171875 283.664375 162.78515625 282.91796875 C163.77515625 282.58796875 164.76515625 282.25796875 165.78515625 281.91796875 C168.64947863 287.64661352 167.52059883 297.89236558 166.03125 304.01953125 C164.52995136 307.82282114 162.62487718 311.20341799 160.47265625 314.66796875 C158.53074782 317.79760921 158.53074782 317.79760921 158.78515625 321.23046875 C159.49348583 323.98314069 159.49348583 323.98314069 161.5 324.9609375 C165.02247731 326.43616304 168.62026856 327.66530763 172.2265625 328.91796875 C174.78515625 329.91796875 174.78515625 329.91796875 177.78515625 331.91796875 C180.60812376 332.22800364 180.60812376 332.22800364 183.83203125 332.18359375 C185.05801025 332.18786377 186.28398926 332.19213379 187.54711914 332.1965332 C188.86317139 332.18710693 190.17922363 332.17768066 191.53515625 332.16796875 C192.20787567 332.16453461 192.88059509 332.16110046 193.57369995 332.15756226 C228.71598937 331.9474416 261.22011326 326.63110516 289.78515625 304.91796875 C291.11821977 303.91760911 292.45145168 302.91747357 293.78515625 301.91796875 C292.41110202 304.87747017 290.76738693 307.33292271 288.78515625 309.91796875 C322.75179582 312.58201891 358.80850357 309.19826854 386.33984375 287.03515625 C398.45977238 276.54154392 407.86282408 262.56709565 409.05859375 246.16796875 C409.451241 234.41758513 407.64278497 223.20425724 399.78515625 213.91796875 C396.30081201 211.24910933 392.91925876 209.37706375 388.78515625 207.91796875 C388.78515625 207.58796875 388.78515625 207.25796875 388.78515625 206.91796875 C394.71190342 207.04144265 397.65819332 208.83740152 401.9296875 212.90234375 C410.75982877 222.49466564 412.62298296 233.66083033 412.1953125 246.30859375 C411.13828383 262.20047305 402.15637733 276.20668461 390.78515625 286.91796875 C367.67001834 306.45683048 338.63211772 313.26320365 309.03515625 314.73046875 C308.02291992 314.78372314 307.01068359 314.83697754 305.96777344 314.8918457 C300.44659637 315.09655624 296.0775863 314.71035577 290.78515625 312.91796875 C286.92879896 311.85058414 285.48228845 311.57589191 281.84765625 313.359375 C280.83703125 314.05933594 279.82640625 314.75929688 278.78515625 315.48046875 C266.72300715 323.40920353 253.69445747 327.53310049 239.78515625 330.91796875 C237.97917969 331.3665625 237.97917969 331.3665625 236.13671875 331.82421875 C210.54546417 337.37546703 183.65522631 336.04936716 157.68261719 335.07788086 C154.97354197 334.97774927 152.26469306 334.89238587 149.5546875 334.82182312 C147.05398455 334.75563922 144.55369799 334.66857521 142.0546875 334.55525208 C134.21249126 334.3710707 127.97858422 335.8528195 120.77604675 338.75531006 C110.96259269 342.5701263 98.64356214 341.85173444 89.02734375 337.73828125 C85.87429454 336.18473806 82.76981244 334.64449097 79.9375 332.5546875 C76.96526418 331.67542354 75.29896414 332.78165795 72.65234375 334.18164062 C72.03617188 334.52775391 71.42 334.87386719 70.78515625 335.23046875 C58.41839841 341.94422118 44.14875482 341.53566682 30.7421875 337.57421875 C29.77345703 337.249375 29.77345703 337.249375 28.78515625 336.91796875 C28.78515625 336.25796875 28.78515625 335.59796875 28.78515625 334.91796875 C24.58469445 332.53770706 21.36110829 332.99057391 16.7734375 333.5546875 C-0.50895604 335.65568436 -21.57997329 336.97708168 -36.59375 326.38671875 C-40.18119803 323.13640439 -42.75644591 319.59115193 -43.5859375 314.75390625 C-43.71126101 310.58137044 -42.98333134 307.09809303 -41.83984375 303.10546875 C-40.56487961 297.36813013 -42.78130133 294.00021134 -45.55078125 289.04296875 C-54.98713298 271.32212042 -54.27255026 249.31920157 -52.21484375 229.91796875 C-52.97796875 229.64984375 -53.74109375 229.38171875 -54.52734375 229.10546875 C-57.19641977 227.92610958 -58.24325883 226.97483852 -60.21484375 224.91796875 C-62.05111418 223.68260873 -63.90789515 222.47752158 -65.77734375 221.29296875 C-71.8022887 217.32231226 -77.01097841 212.8981969 -82.21484375 207.91796875 C-82.96378906 207.24378906 -83.71273438 206.56960938 -84.484375 205.875 C-94.96232044 196.09436091 -102.61423534 183.45797074 -107.21484375 169.91796875 C-107.21484375 168.92796875 -107.21484375 167.93796875 -107.21484375 166.91796875 C-107.87484375 166.58796875 -108.53484375 166.25796875 -109.21484375 165.91796875 C-109.59617674 163.92656315 -109.92809957 161.92517798 -110.21484375 159.91796875 C-110.54484375 159.25796875 -110.87484375 158.59796875 -111.21484375 157.91796875 C-112.29240575 142.06814642 -112.13224482 126.11176506 -107.21484375 110.91796875 C-107.00053711 110.25087891 -106.78623047 109.58378906 -106.56542969 108.89648438 C-102.77770673 97.46164097 -97.64707447 86.44483775 -92.09619141 75.76586914 C-91.73315918 75.06453857 -91.37012695 74.36320801 -90.99609375 73.640625 C-90.66416016 73.01164307 -90.33222656 72.38266113 -89.99023438 71.73461914 C-87.30615563 65.44613364 -89.84924262 57.23490066 -90.76953125 50.7734375 C-91.38212405 45.46967352 -91.39348755 40.24750864 -91.21484375 34.91796875 C-91.87484375 34.58796875 -92.53484375 34.25796875 -93.21484375 33.91796875 C-92.29610075 -6.27830633 -92.29610075 -6.27830633 -82.90234375 -17.95703125 C-62.69740975 -33.93302557 -18.62023005 -9.34042594 0 0 Z " fill="#1D1D23" transform="translate(385.21484375,364.08203125)"/>
<path d="M0 0 C5.232241 4.01544077 8.29913282 9.51887161 9.58984375 15.9296875 C10.30235813 21.67423891 10.26512434 27.47016971 10.3125 33.25 C10.34150391 34.41402344 10.37050781 35.57804687 10.40039062 36.77734375 C10.46114866 45.12456307 9.73168436 53.45132887 4.24365234 60.14086914 C-4.66379739 68.99967837 -18.45257784 72.22056836 -30.65625 72.32226562 C-31.5121875 72.31904297 -32.368125 72.31582031 -33.25 72.3125 C-34.12140625 72.32861328 -34.9928125 72.34472656 -35.890625 72.36132812 C-40.73028108 72.36501689 -44.10114652 72.20485756 -48 69 C-49.31356409 66.37287182 -49.24188753 64.3109921 -49.3125 61.375 C-49.34988281 60.37210937 -49.38726563 59.36921875 -49.42578125 58.3359375 C-48.87244973 54.00066122 -47.1333965 50.76765418 -45 47 C-44.34515625 47.02094727 -43.6903125 47.04189453 -43.015625 47.06347656 C-40.01057672 47.14730383 -37.00577536 47.19886895 -34 47.25 C-32.97003906 47.28351563 -31.94007813 47.31703125 -30.87890625 47.3515625 C-24.09447217 47.43798841 -19.75963329 46.66769101 -14 43 C-10.9846968 36.96939359 -12.82612652 27.30735718 -14.2265625 20.9140625 C-14.86878962 18.71027112 -14.86878962 18.71027112 -17.5625 17.75 C-18.366875 17.5025 -19.17125 17.255 -20 17 C-20.75 14.0625 -20.75 14.0625 -21 11 C-21.33 10.01 -21.66 9.02 -22 8 C-16.52746801 2.01481865 -8.13253654 -2.92771316 0 0 Z " fill="#BE2E3F" transform="translate(598,324)"/>
<path d="M0 0 C0.64066406 0.31582031 1.28132812 0.63164062 1.94140625 0.95703125 C4.76440356 2.55559599 5.91656187 3.79140466 7.125 6.8125 C6.98554639 10.36856702 5.8503862 12.02889704 4 14.984375 C-0.2654902 23.58200369 2.62259748 34.92735696 4 44 C5.27875 43.96519531 6.5575 43.93039062 7.875 43.89453125 C9.58332009 43.86637213 11.29165452 43.83907426 13 43.8125 C14.25876953 43.77479492 14.25876953 43.77479492 15.54296875 43.73632812 C21.40601595 43.66815316 25.66418048 44.52265522 31 47 C34.10527444 50.39639392 34.47844848 53.62068507 34.28515625 58.06640625 C33.85163496 61.00603689 32.95476662 62.7756104 31 65 C24.78706612 66.73544103 18.14327859 66.22465499 11.75 66.25 C10.46480469 66.270625 9.17960938 66.29125 7.85546875 66.3125 C-1.93807667 66.35267865 -10.09692275 65.63024125 -17.49609375 58.74609375 C-26.21147755 48.62719359 -24.71447244 34.47019026 -24 22 C-23.45111659 17.86812767 -22.41676649 13.92140726 -21 10 C-21.66 9.67 -22.32 9.34 -23 9 C-22.5875 8.649375 -22.175 8.29875 -21.75 7.9375 C-19.75978137 5.89890422 -19.75978137 5.89890422 -18.1875 2.5 C-16.72681012 -0.0657811 -15.72304029 -1.23079976 -13.375 -3.1875 C-8.16869379 -4.44087001 -4.62900665 -2.37827408 0 0 Z " fill="#BD2E40" transform="translate(641,329)"/>
<path d="M0 0 C5.95376207 5.05030804 11.23241703 10.82761326 14.38671875 18.05859375 C14.45703125 20.0625 14.45703125 20.0625 13.38671875 22.05859375 C11.31537743 23.91326757 9.30623745 25.5501729 7.07421875 27.18359375 C6.49220703 27.62574219 5.91019531 28.06789063 5.31054688 28.5234375 C2.45361268 30.66532927 -0.33753852 32.6188846 -3.61328125 34.05859375 C-3.91621094 33.18976563 -4.21914063 32.3209375 -4.53125 31.42578125 C-8.3684576 20.52094721 -8.3684576 20.52094721 -16.86328125 13.18359375 C-22.74902132 11.41787173 -27.90160509 11.00366903 -33.61328125 13.55859375 C-38.53404382 16.29676002 -42.56038668 20.19333319 -46.61328125 24.05859375 C-51.08355564 22.66361451 -53.3204351 20.57114099 -56.36328125 17.05859375 C-57.141875 16.17171875 -57.92046875 15.28484375 -58.72265625 14.37109375 C-60.61328125 12.05859375 -60.61328125 12.05859375 -61.61328125 10.05859375 C-55.78700092 0.57917944 -50.23216124 -4.98234477 -39.30078125 -7.81640625 C-24.79410381 -10.68045822 -12.00010146 -8.91487358 0 0 Z " fill="#C02E40" transform="translate(633.61328125,404.94140625)"/>
<path d="M0 0 C0.66 0.33 1.32 0.66 2 1 C1.855625 1.59941406 1.71125 2.19882812 1.5625 2.81640625 C0.07384494 10.08393754 -0.27996 17.22078997 -0.375 24.625 C-0.41367187 26.07241577 -0.41367187 26.07241577 -0.453125 27.54907227 C-0.47512859 35.61820086 1.51013151 42.05055343 5.8125 48.875 C11.94329886 54.83063318 18.35822271 56.12473268 26.69140625 56.1328125 C28.60276367 56.13474609 28.60276367 56.13474609 30.55273438 56.13671875 C31.54019653 56.13357666 31.54019653 56.13357666 32.54760742 56.13037109 C34.55980942 56.12500717 36.57178916 56.13033628 38.58398438 56.13671875 C39.85693359 56.13542969 41.12988281 56.13414062 42.44140625 56.1328125 C44.18466187 56.13112061 44.18466187 56.13112061 45.96313477 56.12939453 C48.50465451 56.02110564 50.58450676 55.74693742 53 55 C53 55.66 53 56.32 53 57 C45.10788121 59.31320723 38.13223076 58.85602429 30 58 C30.2165625 58.97839844 30.433125 59.95679688 30.65625 60.96484375 C33.68473704 75.03850681 33.68473704 75.03850681 33 82 C31.4765625 84.23828125 31.4765625 84.23828125 30 86 C29.52691406 85.2265625 29.05382812 84.453125 28.56640625 83.65625 C21.37662578 72.33199538 13.64068099 64.93003617 1 60 C-10.00134902 57.65171722 -20.21410625 59.31948203 -31 62 C-31 61.01 -31 60.02 -31 59 C-30.34 59 -29.68 59 -29 59 C-29 58.34 -29 57.68 -29 57 C-34.445 57.495 -34.445 57.495 -40 58 C-37.37198912 55.37198912 -34.90923748 54.88519405 -31.375 53.75 C-23.69480945 51.11833317 -17.45759621 48.29357547 -13.5625 40.875 C-11.46000666 36.17974581 -10.87263689 32.09772248 -10.8671875 26.94921875 C-10.86589844 25.77552734 -10.86460937 24.60183594 -10.86328125 23.39257812 C-10.86908203 21.55856445 -10.86908203 21.55856445 -10.875 19.6875 C-10.87113281 18.47642578 -10.86726562 17.26535156 -10.86328125 16.01757812 C-10.86959987 10.24552096 -10.94259065 4.68147722 -12 -1 C-7.26785472 -1.92787162 -4.33274596 -2.22826935 0 0 Z " fill="#2D2E37" transform="translate(618,338)"/>
<path d="M0 0 C1.497459 0.00399678 2.99491857 0.01877818 4.4921875 0.04296875 C5.22695313 0.04361328 5.96171875 0.04425781 6.71875 0.04492188 C11.67528587 0.0841902 16.46020001 0.53503402 21.3671875 1.23046875 C21.44195312 1.79894531 21.51671875 2.36742187 21.59375 2.953125 C22.62249951 8.99450695 24.54143929 13.29797416 29.3671875 17.23046875 C35.49293286 20.2730575 42.31760372 20.24699668 48.7421875 18.10546875 C53.9243705 14.40390947 56.75756 10.37631919 58.3671875 4.23046875 C61.0071875 4.23046875 63.6471875 4.23046875 66.3671875 4.23046875 C67.05877703 10.57003943 65.97957354 13.93038953 62.1953125 19.05859375 C55.48916912 27.02572136 47.73111867 31.63257158 37.3671875 33.23046875 C24.09122611 34.0509689 14.01272913 33.08686773 3.4140625 24.2734375 C-2.38372549 18.48671399 -5.20289557 12.39104164 -5.8203125 4.26171875 C-5.45500903 0.30426448 -3.6874724 0.23393642 0 0 Z " fill="#FBEB80" transform="translate(340.6328125,470.76953125)"/>
<path d="M0 0 C1.10472656 0.55042969 2.20945312 1.10085938 3.34765625 1.66796875 C4.23582031 2.1371875 5.12398438 2.60640625 6.0390625 3.08984375 C12.66863798 5.08908984 20.02668703 2.17946437 26.52392578 0.54321289 C51.79919297 -5.75837748 76.52177584 -8.43401337 102.53515625 -8.45703125 C104.0071347 -8.46015823 104.0071347 -8.46015823 105.5088501 -8.46334839 C108.30439374 -8.46267309 111.09912508 -8.44460486 113.89453125 -8.41796875 C114.73472809 -8.41554672 115.57492493 -8.41312469 116.44058228 -8.41062927 C120.46054333 -8.34575932 123.28717808 -8.04355479 126.78515625 -6.08203125 C124.81615356 -6.06015747 124.81615356 -6.06015747 122.80737305 -6.0378418 C86.23878691 -5.59961738 50.54624945 -4.64194317 15.3203125 6.46484375 C10.05832488 7.40535309 5.75987148 5.66243097 1.03125 3.4765625 C-0.06034424 2.97898437 -1.15193848 2.48140625 -2.27661133 1.96875 C-3.43185303 1.43636719 -4.58709473 0.90398437 -5.77734375 0.35546875 C-33.50276767 -12.74428478 -33.50276767 -12.74428478 -63.21484375 -19.08203125 C-64.0140625 -19.14519531 -64.81328125 -19.20835937 -65.63671875 -19.2734375 C-71.67438718 -19.55702496 -76.30537186 -18.76413517 -81.21484375 -15.08203125 C-86.37579506 -8.83456388 -87.56875236 -2.02900774 -88.33984375 5.79296875 C-88.42331055 6.63375977 -88.50677734 7.47455078 -88.59277344 8.34082031 C-90.24719756 26.21535359 -88.86909565 44.19296452 -86.21484375 61.91796875 C-85.06311543 70.24248611 -88.25774809 75.74139394 -92.21484375 82.91796875 C-106.12310944 109.36197391 -113.68956114 138.56243329 -104.61279297 167.86132812 C-101.50904885 177.57941832 -97.35305136 185.69758483 -91.21484375 193.91796875 C-90.66054688 194.70558594 -90.10625 195.49320313 -89.53515625 196.3046875 C-82.48072111 205.9750017 -73.19234714 213.43926298 -63.21484375 219.91796875 C-62.27511719 220.55347656 -61.33539063 221.18898438 -60.3671875 221.84375 C-53.05003638 226.60776116 -45.64364325 230.04438476 -37.48657227 233.12866211 C-36.70209717 233.43553955 -35.91762207 233.74241699 -35.109375 234.05859375 C-34.40659424 234.32188477 -33.70381348 234.58517578 -32.97973633 234.85644531 C-30.75609899 236.19388827 -30.16706784 237.54708748 -29.21484375 239.91796875 C-34.44660212 240.30078034 -37.59287069 239.13651582 -42.21484375 236.91796875 C-42.21484375 236.25796875 -42.21484375 235.59796875 -42.21484375 234.91796875 C-42.99859375 234.60859375 -43.78234375 234.29921875 -44.58984375 233.98046875 C-47.21484375 232.91796875 -47.21484375 232.91796875 -49.21484375 231.91796875 C-49.29015277 236.50370876 -49.34397969 241.08907293 -49.37963867 245.67529297 C-49.39453564 247.22874233 -49.41486026 248.7821511 -49.44116211 250.33544922 C-49.73275069 268.02515655 -47.47803236 288.2010498 -34.56640625 301.6328125 C-34.12039063 302.05691406 -33.674375 302.48101563 -33.21484375 302.91796875 C-33.54484375 303.57796875 -33.87484375 304.23796875 -34.21484375 304.91796875 C-35.86484375 303.59796875 -37.51484375 302.27796875 -39.21484375 300.91796875 C-39.27542969 301.48644531 -39.33601563 302.05492187 -39.3984375 302.640625 C-39.91660948 307.41577912 -40.50728234 312.16719925 -41.21484375 316.91796875 C-41.87484375 316.91796875 -42.53484375 316.91796875 -43.21484375 316.91796875 C-43.37645865 311.9079067 -43.27269006 307.91017621 -41.83984375 303.10546875 C-40.56487961 297.36813013 -42.78130133 294.00021134 -45.55078125 289.04296875 C-54.98713298 271.32212042 -54.27255026 249.31920157 -52.21484375 229.91796875 C-52.97796875 229.64984375 -53.74109375 229.38171875 -54.52734375 229.10546875 C-57.19641977 227.92610958 -58.24325883 226.97483852 -60.21484375 224.91796875 C-62.05111418 223.68260873 -63.90789515 222.47752158 -65.77734375 221.29296875 C-71.8022887 217.32231226 -77.01097841 212.8981969 -82.21484375 207.91796875 C-82.96378906 207.24378906 -83.71273438 206.56960938 -84.484375 205.875 C-94.96232044 196.09436091 -102.61423534 183.45797074 -107.21484375 169.91796875 C-107.21484375 168.92796875 -107.21484375 167.93796875 -107.21484375 166.91796875 C-107.87484375 166.58796875 -108.53484375 166.25796875 -109.21484375 165.91796875 C-109.59617674 163.92656315 -109.92809957 161.92517798 -110.21484375 159.91796875 C-110.54484375 159.25796875 -110.87484375 158.59796875 -111.21484375 157.91796875 C-112.29240575 142.06814642 -112.13224482 126.11176506 -107.21484375 110.91796875 C-107.00053711 110.25087891 -106.78623047 109.58378906 -106.56542969 108.89648438 C-102.77770673 97.46164097 -97.64707447 86.44483775 -92.09619141 75.76586914 C-91.73315918 75.06453857 -91.37012695 74.36320801 -90.99609375 73.640625 C-90.66416016 73.01164307 -90.33222656 72.38266113 -89.99023438 71.73461914 C-87.30615563 65.44613364 -89.84924262 57.23490066 -90.76953125 50.7734375 C-91.38212405 45.46967352 -91.39348755 40.24750864 -91.21484375 34.91796875 C-91.87484375 34.58796875 -92.53484375 34.25796875 -93.21484375 33.91796875 C-92.29610075 -6.27830633 -92.29610075 -6.27830633 -82.90234375 -17.95703125 C-62.69740975 -33.93302557 -18.62023005 -9.34042594 0 0 Z " fill="#131317" transform="translate(385.21484375,364.08203125)"/>
<path d="M0 0 C1.39456452 0.00667256 2.78911118 0.01863093 4.18359375 0.03515625 C4.89451172 0.03966797 5.60542969 0.04417969 6.33789062 0.04882812 C8.09899388 0.06064761 9.86005411 0.07858362 11.62109375 0.09765625 C12.43607937 1.70056155 13.24799302 3.30502903 14.05859375 4.91015625 C14.73728516 6.25013672 14.73728516 6.25013672 15.4296875 7.6171875 C16.62109375 10.09765625 16.62109375 10.09765625 17.62109375 13.09765625 C19.31878609 14.19934609 19.31878609 14.19934609 21.62109375 15.09765625 C22.61109375 15.63390625 23.60109375 16.17015625 24.62109375 16.72265625 C30.70141119 19.29661353 37.79515434 18.98730384 43.99609375 17.03515625 C50.35925964 12.33853381 53.25611986 7.87800741 54.62109375 0.09765625 C56.26683941 0.07077474 57.91270788 0.05131502 59.55859375 0.03515625 C60.47511719 0.02355469 61.39164063 0.01195312 62.3359375 0 C64.62109375 0.09765625 64.62109375 0.09765625 65.62109375 1.09765625 C65.99898807 8.45838039 63.25788334 13.58390863 58.62109375 19.09765625 C51.50727584 26.67476902 43.39724941 30.57812624 33.0546875 31.37109375 C21.64390294 31.66110391 11.72145231 29.96253913 3.08203125 21.765625 C-0.90391653 17.21482366 -4.05812984 12.04115011 -5.37890625 6.09765625 C-4.71653512 0.13631604 -4.71653512 0.13631604 0 0 Z " fill="#FBEA7F" transform="translate(498.37890625,472.90234375)"/>
<path d="M0 0 C0.66 0 1.32 0 2 0 C4.86432238 5.72864477 3.73544258 15.97439683 2.24609375 22.1015625 C0.74479511 25.90485239 -1.16027907 29.28544924 -3.3125 32.75 C-5.25440843 35.87964046 -5.25440843 35.87964046 -5 39.3125 C-4.29167042 42.06517194 -4.29167042 42.06517194 -2.28515625 43.04296875 C1.23732106 44.51819429 4.83511231 45.74733888 8.44140625 47 C11 48 11 48 14 50 C4.9306328 51.06904036 -4.0738133 51.11830883 -13.1875 51.0625 C-14.63085781 51.05747088 -16.07421733 51.05291049 -17.51757812 51.04882812 C-21.01175505 51.0379438 -24.50586612 51.0207585 -28 51 C-28 48 -28 48 -26.78515625 46.6328125 C-26.21667969 46.13523437 -25.64820313 45.63765625 -25.0625 45.125 C-13.33304607 33.7983758 -6.44057678 18.56709821 -1.7265625 3.1953125 C-1 1 -1 1 0 0 Z " fill="#212128" transform="translate(549,646)"/>
<path d="M0 0 C3.11253152 1.40804997 3.38899654 2.30940756 4.9375 5.25 C6.07206131 7.45392816 6.07206131 7.45392816 7.625 9.1875 C10.57069373 9.92941913 12.55427222 9.60386987 15.625 9.1875 C15.893125 8.445 16.16125 7.7025 16.4375 6.9375 C17.56729421 4.32113446 18.83393202 2.38562889 20.625 0.1875 C22.875 0.25 22.875 0.25 25.625 1.1875 C27.23359433 3.40681489 28.35866268 5.74215897 29.625 8.1875 C32.42370027 9.58685013 34.52998792 9.44015405 37.625 9.1875 C40.81442774 7.06121484 42.04000763 3.58391223 43.625 0.1875 C46 0.0625 46 0.0625 48.625 0.1875 C50.625 2.1875 50.625 2.1875 51 4.9375 C50.43839362 9.8047553 48.20088719 12.80262944 44.5625 16 C40.48744193 18.49761623 36.27882628 18.82512388 31.625 18.1875 C29.42751289 17.29208265 27.43438651 16.25870348 25.38671875 15.0625 C23.50503358 13.9650855 23.50503358 13.9650855 20.625 14.1875 C19.779375 14.8475 18.93375 15.5075 18.0625 16.1875 C13.47111046 18.85885391 9.82355845 19.01723734 4.625 18.1875 C-0.22522186 15.85220799 -2.85959625 12.9280686 -5.375 8.1875 C-5.86710728 5.16455526 -5.82279561 3.89454571 -4.1875 1.3125 C-2.375 0.1875 -2.375 0.1875 0 0 Z " fill="#F9EC87" transform="translate(425.375,495.8125)"/>
<path d="M0 0 C2.34348518 2.11610156 3.5567657 3.8734387 4.65625 6.82421875 C4.95063965 7.5927417 5.2450293 8.36126465 5.54833984 9.15307617 C5.8623877 9.98943604 6.17643555 10.8257959 6.5 11.6875 C9.51915857 19.49495564 12.82649838 27.10686481 16.375 34.6875 C44 94.15326737 44 94.15326737 44 114 C44.66 114 45.32 114 46 114 C46.1546875 115.68802734 46.1546875 115.68802734 46.3125 117.41015625 C47.2583754 125.92470011 48.92253366 134.35398846 50.41601562 142.78637695 C52.75899243 156.04890266 54.1564144 168.63022373 54.0625 182.125 C54.05798828 183.36765625 54.05347656 184.6103125 54.04882812 185.890625 C54.03714924 188.92713502 54.0207714 191.96354088 54 195 C66.03265487 196.06170484 75.22389861 194.48823777 84.78515625 186.51049805 C90.0559688 181.58476434 92.99025039 175.97374714 96.171875 169.58398438 C98.91156186 164.33143537 101.91451488 160.20460404 107 157 C109.9375 156.625 109.9375 156.625 112 157 C111.01 157.66 110.02 158.32 109 159 C108.319375 159.53625 107.63875 160.0725 106.9375 160.625 C105 162 105 162 103 162 C101.80436374 164.34506436 100.67967637 166.70453452 99.58984375 169.1015625 C93.29987616 182.51421206 85.89984256 190.91532996 72 197 C68.43319626 198.23384463 65.00394149 198.10003941 61.25 198.0625 C60.07953125 198.05347656 58.9090625 198.04445313 57.703125 198.03515625 C56.81109375 198.02355469 55.9190625 198.01195312 55 198 C54.34 200.31 53.68 202.62 53 205 C52.67 205 52.34 205 52 205 C51.9906543 204.03102783 51.98130859 203.06205566 51.97167969 202.0637207 C51.51316173 161.32365691 45.4301692 122.91046374 33 84 C32.72607422 83.13036621 32.45214844 82.26073242 32.16992188 81.36474609 C25.8148744 61.41164906 17.23163809 41.80770643 7.55297852 23.24633789 C4.05426059 16.40226266 0 7.75618774 0 0 Z " fill="#131316" transform="translate(650,414)"/>
<path d="M0 0 C19.8 0.495 19.8 0.495 40 1 C40 8.60348857 39.7001727 9.3518109 34.91015625 14.265625 C29.63887508 19.05181894 24.90019348 19.52660395 17.98046875 19.36328125 C12.42580824 18.68623875 8.56053525 16.04035683 4 13 C2.83203125 10.72265625 2.83203125 10.72265625 1.8125 8.0625 C1.46832031 7.18722656 1.12414062 6.31195313 0.76953125 5.41015625 C0 3 0 3 0 0 Z " fill="#514636" transform="translate(512,473)"/>
<path d="M0 0 C1.35404497 -0.02763357 2.70826555 -0.04667422 4.0625 -0.0625 C4.81660156 -0.07410156 5.57070313 -0.08570313 6.34765625 -0.09765625 C9 0 9 0 12.1875 0.46875 C16.77037236 1.10734697 21.3185644 1.34823759 25.9375 1.5625 C26.81212891 1.60568359 27.68675781 1.64886719 28.58789062 1.69335938 C30.72511995 1.79846901 32.86254238 1.89963985 35 2 C34.00864916 7.4248921 32.64149742 11.48161489 28.5 15.3125 C23.36002162 18.78198541 17.9983412 18.48124227 12 18 C8.5625 16.75 8.5625 16.75 6 15 C5.2575 14.505 4.515 14.01 3.75 13.5 C0.92315081 9.46164402 0.63101225 4.81561983 0 0 Z " fill="#514736" transform="translate(363,473)"/>
<path d="M0 0 C0.67804688 0.37511719 1.35609375 0.75023437 2.0546875 1.13671875 C11.36888255 6.25823597 20.55788097 10.97709742 30.53125 14.69140625 C33.28496481 16.15104939 33.97407589 17.11153511 35 20 C29.76824163 20.38281159 26.62197306 19.21854707 22 17 C22 16.34 22 15.68 22 15 C21.21625 14.690625 20.4325 14.38125 19.625 14.0625 C17 13 17 13 15 12 C14.92469098 16.58574001 14.87086406 21.17110418 14.83520508 25.75732422 C14.82030811 27.31077358 14.79998349 28.86418235 14.77368164 30.41748047 C14.48209306 48.1071878 16.73681139 68.28308105 29.6484375 81.71484375 C30.09445312 82.13894531 30.54046875 82.56304688 31 83 C30.67 83.66 30.34 84.32 30 85 C28.35 83.68 26.7 82.36 25 81 C24.93941406 81.56847656 24.87882812 82.13695312 24.81640625 82.72265625 C24.29823427 87.49781037 23.70756141 92.2492305 23 97 C22.34 97 21.68 97 21 97 C20.8383851 91.98993795 20.94215369 87.99220746 22.375 83.1875 C23.64996414 77.45016138 21.43354242 74.08224259 18.6640625 69.125 C9.22771077 51.40415167 9.94229349 29.40123282 12 10 C11.2059375 9.69835937 10.411875 9.39671875 9.59375 9.0859375 C6.9445166 7.9767705 5.91026767 7.06945665 4 5 C2.34466005 3.65263027 0.67987227 2.31665664 -1 1 C-0.67 0.67 -0.34 0.34 0 0 Z " fill="#1C1C21" transform="translate(321,584)"/>
<path d="M0 0 C1.8125 0.8125 1.8125 0.8125 3.8125 2.8125 C3.35185859 8.66648465 -0.15940252 11.87375033 -4.1875 15.8125 C-11.33202214 21.88476107 -11.33202214 21.88476107 -15.1875 23.8125 C-15.1875 23.1525 -15.1875 22.4925 -15.1875 21.8125 C-16.5075 21.4825 -17.8275 21.1525 -19.1875 20.8125 C-18.82645624 15.32299378 -16.6418164 12.44054261 -12.9375 8.625 C-12.45925781 8.10486328 -11.98101563 7.58472656 -11.48828125 7.04882812 C-4.48243078 -0.38420835 -4.48243078 -0.38420835 0 0 Z " fill="#5D5E69" transform="translate(703.1875,352.1875)"/>
<path d="M0 0 C1.1319001 0.03610382 1.1319001 0.03610382 2.28666687 0.07293701 C4.69578662 0.15386878 7.10343445 0.25679235 9.51171875 0.359375 C11.12039756 0.41410408 12.72912218 0.46750355 14.33789062 0.51953125 C15.89196998 0.57431734 17.44600874 0.6302696 19 0.6875 C19.71690506 0.71362366 20.43381012 0.73974731 21.17243958 0.7666626 C25.57151091 0.95630247 29.84733156 1.45862248 34.19921875 2.109375 C35.70531372 2.21848785 37.21349029 2.30403172 38.72265625 2.35546875 C39.51671875 2.38833984 40.31078125 2.42121094 41.12890625 2.45507812 C42.75117066 2.51597783 44.37357334 2.57330527 45.99609375 2.62695312 C51.58398099 2.86656318 56.78209406 3.72142946 62.19921875 5.109375 C63.86192995 10.99281464 62.70046447 14.34369978 59.8125 19.6640625 C57.40020645 23.3204687 54.49275871 26.24295117 51.19921875 29.109375 C50.53921875 28.779375 49.87921875 28.449375 49.19921875 28.109375 C49.88757813 27.47322266 49.88757813 27.47322266 50.58984375 26.82421875 C57.16792482 20.53634714 60.55144416 15.34016289 61.19921875 6.109375 C58.55921875 6.109375 55.91921875 6.109375 53.19921875 6.109375 C53.09609375 7.0375 52.99296875 7.965625 52.88671875 8.921875 C52.19921875 12.109375 52.19921875 12.109375 49.19921875 15.109375 C50.18921875 12.139375 51.17921875 9.169375 52.19921875 6.109375 C50.90886719 6.12097656 49.61851562 6.13257813 48.2890625 6.14453125 C46.57161604 6.1539162 44.854168 6.16301564 43.13671875 6.171875 C42.28916016 6.18025391 41.44160156 6.18863281 40.56835938 6.19726562 C35.66781283 6.21618665 31.05228759 5.87817798 26.19921875 5.109375 C23.51982395 5.00185514 20.88289826 5.0622929 18.19921875 5.109375 C18.52921875 7.749375 18.85921875 10.389375 19.19921875 13.109375 C18.53921875 12.779375 17.87921875 12.449375 17.19921875 12.109375 C16.86921875 9.139375 16.53921875 6.169375 16.19921875 3.109375 C7.94921875 3.109375 -0.30078125 3.109375 -8.80078125 3.109375 C-9.46078125 5.089375 -10.12078125 7.069375 -10.80078125 9.109375 C-11.46078125 9.109375 -12.12078125 9.109375 -12.80078125 9.109375 C-12.31727611 3.66994214 -12.31727611 3.66994214 -10.24145508 1.41699219 C-6.83781654 -0.40654368 -3.74920399 -0.17746042 0 0 Z " fill="#11111B" transform="translate(345.80078125,468.890625)"/>
<path d="M0 0 C0 1.65 0 3.3 0 5 C-6.70445673 8.42355237 -12.62667702 9.06879654 -19.9375 7.0625 C-23 6 -23 6 -25 5 C-25 3.02 -25 1.04 -25 -1 C-16.15493667 -4.91317244 -8.19973968 -5.20368095 0 0 Z " fill="#626773" transform="translate(720,393)"/>
<path d="M0 0 C1.35283933 -0.00067447 2.70567854 -0.00164569 4.05851746 -0.00289917 C6.88008794 -0.00436689 9.70162659 -0.00224979 12.52319336 0.00244141 C16.14253905 0.00816563 19.76181101 0.00483693 23.38115406 -0.00113106 C26.16833557 -0.00473839 28.95549948 -0.00359777 31.7426815 -0.00100327 C33.72695845 -0.00001152 35.71123607 -0.00304911 37.69551086 -0.00613403 C38.89403183 -0.00298187 40.0925528 0.00017029 41.32739258 0.00341797 C42.91454826 0.00461136 42.91454826 0.00461136 44.5337677 0.00582886 C47.04296875 0.1328125 47.04296875 0.1328125 49.04296875 1.1328125 C48.71296875 1.7928125 48.38296875 2.4528125 48.04296875 3.1328125 C43.09296875 2.6378125 43.09296875 2.6378125 38.04296875 2.1328125 C37.71296875 4.4428125 37.38296875 6.7528125 37.04296875 9.1328125 C36.71296875 9.1328125 36.38296875 9.1328125 36.04296875 9.1328125 C36.04296875 7.4828125 36.04296875 5.8328125 36.04296875 4.1328125 C23.50296875 3.8028125 10.96296875 3.4728125 -1.95703125 3.1328125 C-1.29703125 5.4428125 -0.63703125 7.7528125 0.04296875 10.1328125 C0.04296875 11.1228125 0.04296875 12.1128125 0.04296875 13.1328125 C-2.38753589 9.68306398 -3.92236117 7.2714928 -4.95703125 3.1328125 C-9.90703125 3.1328125 -14.85703125 3.1328125 -19.95703125 3.1328125 C-21.05106935 8.31396175 -21.05106935 8.31396175 -19.14453125 12.6328125 C-18.77199219 13.40496094 -18.39945312 14.17710937 -18.015625 14.97265625 C-17.66628906 15.68550781 -17.31695312 16.39835937 -16.95703125 17.1328125 C-16.27868538 18.79475988 -15.6050355 20.45880153 -14.95703125 22.1328125 C-20.13029892 17.51881701 -22.69749859 13.29911095 -23.26953125 6.3203125 C-22.95703125 3.1328125 -22.95703125 3.1328125 -20.95703125 1.1328125 C-14.09673064 -0.40413822 -6.99249507 -0.01095631 0 0 Z " fill="#12121C" transform="translate(514.95703125,470.8671875)"/>
<path d="M0 0 C6.58524255 0.72007943 13.3395674 2.30441115 18.15234375 7.1171875 C17.77734375 10.2421875 17.77734375 10.2421875 17.15234375 13.1171875 C8.60382776 13.65995042 1.74646161 11.85120303 -4.84765625 6.1171875 C-3.67078259 0.23281919 -3.67078259 0.23281919 0 0 Z " fill="#575A65" transform="translate(694.84765625,416.8828125)"/>
<path d="M0 0 C9.95133818 5.88225287 23.13083904 5.58491851 34.09375 2.77734375 C37.67124535 1.63732247 40.72053241 0.20557179 43.84375 -1.91015625 C44.50375 -1.91015625 45.16375 -1.91015625 45.84375 -1.91015625 C44.84375 1.08984375 44.84375 1.08984375 42.48046875 2.44140625 C41.50722656 2.86164062 40.53398437 3.281875 39.53125 3.71484375 C38.56574219 4.14023437 37.60023438 4.565625 36.60546875 5.00390625 C25.06620965 9.54126697 10.3255881 7.94004096 -1.15625 4.08984375 C-1.15625 3.42984375 -1.15625 2.76984375 -1.15625 2.08984375 C-5.35143809 -0.2874295 -8.57055054 0.15981312 -13.15234375 0.7265625 C-38.16395501 3.75137374 -38.16395501 3.75137374 -45.15625 -0.91015625 C-44.40529053 -0.9352124 -43.65433105 -0.96026855 -42.88061523 -0.98608398 C-39.45151467 -1.10270567 -36.02264447 -1.22513042 -32.59375 -1.34765625 C-31.41232422 -1.38697266 -30.23089844 -1.42628906 -29.01367188 -1.46679688 C-3.86630753 -2.38252723 -3.86630753 -2.38252723 0 0 Z " fill="#101113" transform="translate(415.15625,696.91015625)"/>
<path d="M0 0 C0.556875 0.39832031 1.11375 0.79664063 1.6875 1.20703125 C11.69630066 8.15570874 21.76181786 11.5310288 34.18115234 9.67382812 C42.32988021 8.07433801 42.32988021 8.07433801 49.94659424 4.93936157 C52.25389252 3.88385302 53.69696552 3.78694338 56.21777344 3.86474609 C57.03832214 3.88491791 57.85887085 3.90508972 58.70428467 3.9258728 C59.58046448 3.95806915 60.45664429 3.9902655 61.359375 4.0234375 C62.26375305 4.04846344 63.1681311 4.07348938 64.09991455 4.09927368 C66.98366552 4.18133467 69.86671739 4.277978 72.75 4.375 C74.70700285 4.43325376 76.66403425 4.49055674 78.62109375 4.546875 C83.41446337 4.68689286 88.20725781 4.83998895 93 5 C93 5.33 93 5.66 93 6 C91.29239502 6.00616333 91.29239502 6.00616333 89.55029297 6.01245117 C85.25948995 6.0344962 80.96957138 6.08904075 76.67919922 6.15258789 C74.83488549 6.17554948 72.99044471 6.19011141 71.14599609 6.19555664 C60.54034989 6.23300189 51.7613453 6.78462706 41.86523438 10.85327148 C32.06156944 14.77690937 19.88422803 13.73443463 10.20703125 9.890625 C5.79536119 7.82802601 2.6281508 6.22862724 0 2 C0 1.34 0 0.68 0 0 Z " fill="#0D0E10" transform="translate(464,692)"/>
<path d="M0 0 C2.98343392 0.01090835 5.96628906 -0.000064 8.94970703 -0.01269531 C10.8598646 -0.0113766 12.77002181 -0.00882021 14.68017578 -0.00488281 C15.56550995 -0.00893127 16.45084412 -0.01297974 17.36300659 -0.01715088 C18.59677536 -0.0076944 18.59677536 -0.0076944 19.85546875 0.00195312 C20.57394989 0.00354431 21.29243103 0.0051355 22.03268433 0.0067749 C24.38091883 0.30051158 26.01581039 1.10125378 28.06298828 2.26074219 C27.47940552 2.27104965 26.89582275 2.28135712 26.29455566 2.29197693 C20.1944779 2.40055736 14.0945326 2.51510997 7.99462891 2.63305664 C5.72121973 2.67624106 3.44778156 2.71792703 1.17431641 2.75805664 C-2.102465 2.81616069 -5.37910267 2.87973753 -8.65576172 2.94433594 C-10.1687384 2.96940468 -10.1687384 2.96940468 -11.71228027 2.99497986 C-17.20009626 3.1089497 -22.50116232 3.50710828 -27.93701172 4.26074219 C-30.1028886 4.32283728 -32.27038478 4.34786295 -34.43701172 4.32324219 C-35.47857422 4.31421875 -36.52013672 4.30519531 -37.59326172 4.29589844 C-38.75341797 4.27849609 -38.75341797 4.27849609 -39.93701172 4.26074219 C-37.10155482 1.42528529 -34.06706433 1.54471646 -30.24169922 1.15136719 C-29.44891571 1.067276 -28.6561322 0.98318481 -27.83932495 0.89654541 C-18.57088288 0.00490801 -9.30398725 -0.04059468 0 0 Z " fill="#111116" transform="translate(483.93701171875,355.7392578125)"/>
<path d="M0 0 C0 0.33 0 0.66 0 1 C-0.60585938 1.00257813 -1.21171875 1.00515625 -1.8359375 1.0078125 C-9.06454424 1.3414405 -14.42237435 3.32133233 -20 8 C-26.40898807 15.93328793 -26.28661626 28.2942265 -27 38 C-27.33 38 -27.66 38 -28 38 C-28.33 44.27 -28.66 50.54 -29 57 C-29.66 56.67 -30.32 56.34 -31 56 C-30.081257 15.80372492 -30.081257 15.80372492 -20.6875 4.125 C-14.4911899 -0.77440798 -7.52249506 -0.24485517 0 0 Z " fill="#212125" transform="translate(323,342)"/>
<path d="M0 0 C1.96112315 3.4048436 2.60627036 6.65256493 3.3125 10.5 C5.58927148 21.50630234 9.66676465 33.07620107 18 41 C17.67 41.66 17.34 42.32 17 43 C15.35 41.68 13.7 40.36 12 39 C11.93941406 39.56847656 11.87882812 40.13695312 11.81640625 40.72265625 C11.29823427 45.49781037 10.70756141 50.2492305 10 55 C9.34 55 8.68 55 8 55 C7.8383851 49.98993795 7.94215369 45.99220746 9.375 41.1875 C10.64863028 35.45616372 8.43976791 32.09236002 5.671875 27.140625 C1.04654577 18.45192244 -0.70490709 9.77079547 0 0 Z " fill="#121316" transform="translate(334,626)"/>
<path d="M0 0 C0.78141357 0.34599243 0.78141357 0.34599243 1.57861328 0.69897461 C0.63244141 1.17206055 -0.31373047 1.64514648 -1.28857422 2.13256836 C-1.91803955 2.44782471 -2.54750488 2.76308105 -3.19604492 3.08789062 C-4.61477402 3.79618325 -6.03523519 4.50101548 -7.45727539 5.20263672 C-11.38666363 7.14792487 -15.26774622 9.14738077 -19.10498047 11.26928711 C-27.7483145 15.98110462 -33.52770405 19.02183924 -43.42138672 16.69897461 C-46.04678317 16.28264271 -48.67676726 15.90928282 -51.30859375 15.53588867 C-55.35173734 14.95920315 -59.38631462 14.32928786 -63.42138672 13.69897461 C-63.42138672 13.36897461 -63.42138672 13.03897461 -63.42138672 12.69897461 C-55.71768742 12.49654164 -48.46154166 12.56493975 -40.92138672 14.26147461 C-34.81352262 15.33035083 -30.79662819 14.29281869 -25.41357422 11.38256836 C-24.76566925 11.04725601 -24.11776428 10.71194366 -23.45022583 10.36647034 C-21.3927239 9.30125347 -19.34381957 8.22090568 -17.29638672 7.13647461 C-14.59237977 5.70469945 -11.88084005 4.28898483 -9.16357422 2.88256836 C-8.23845535 2.3826664 -8.23845535 2.3826664 -7.29464722 1.87266541 C-2.96095305 -0.36810396 -2.96095305 -0.36810396 0 0 Z " fill="#151318" transform="translate(576.42138671875,345.301025390625)"/>
<path d="M0 0 C0.33 0 0.66 0 1 0 C1.33747548 2.87456792 1.67010463 5.74956059 2 8.625 C2.09539063 9.43324219 2.19078125 10.24148438 2.2890625 11.07421875 C2.78253617 15.40973739 3.11320717 19.62737311 3 24 C-1.875 22.25 -1.875 22.25 -3 20 C-3.14977039 17.75344413 -3.22150174 15.50136232 -3.25 13.25 C-3.27578125 12.03828125 -3.3015625 10.8265625 -3.328125 9.578125 C-2.97479348 5.7251289 -1.93394605 3.31824428 0 0 Z " fill="#1F2C33" transform="translate(641,349)"/>
<path d="M0 0 C0 1.65 0 3.3 0 5 C-6.76460493 8.45426635 -12.70224262 9.06681975 -20.0625 7 C-21.031875 6.67 -22.00125 6.34 -23 6 C-18.83584544 4.61194848 -14.78471923 4.95648154 -10.44921875 5.0390625 C-7.33734741 5.07588938 -4.97888942 4.99296314 -2 4 C-2 2.68 -2 1.36 -2 0 C-5.12498063 -0.02895976 -8.2499269 -0.04678483 -11.375 -0.0625 C-12.26445313 -0.07087891 -13.15390625 -0.07925781 -14.0703125 -0.08789062 C-14.92109375 -0.09111328 -15.771875 -0.09433594 -16.6484375 -0.09765625 C-17.43395996 -0.10289307 -18.21948242 -0.10812988 -19.02880859 -0.11352539 C-21.07772668 -0.12573953 -21.07772668 -0.12573953 -23 1 C-23.66 1.99 -24.32 2.98 -25 4 C-25 2.35 -25 0.7 -25 -1 C-16.15493667 -4.91317244 -8.19973968 -5.20368095 0 0 Z " fill="#4E4C55" transform="translate(720,393)"/>
<path d="M0 0 C0.64066406 0.31582031 1.28132812 0.63164062 1.94140625 0.95703125 C4.84920775 2.60361764 5.92007929 3.77904275 7.0625 6.9375 C6.98972069 10.50368637 6.08899175 12.15897122 4 15 C2.46554906 11.93109813 3.45015711 9.29905734 4 6 C-2.0057065 1.25654577 -2.0057065 1.25654577 -9.1875 -0.9375 C-13.5534017 0.13608238 -13.98184388 0.7881631 -16.375 4.375 C-17.25080002 5.91621233 -18.12591063 7.45781684 -19 9 C-19.66 9.66 -20.32 10.32 -21 11 C-21.66 10.34 -22.32 9.68 -23 9 C-22.5875 8.649375 -22.175 8.29875 -21.75 7.9375 C-19.75978137 5.89890422 -19.75978137 5.89890422 -18.1875 2.5 C-16.72681012 -0.0657811 -15.72304029 -1.23079976 -13.375 -3.1875 C-8.16869379 -4.44087001 -4.62900665 -2.37827408 0 0 Z " fill="#8C2431" transform="translate(641,329)"/>
<path d="M0 0 C0.33 0 0.66 0 1 0 C1.05534912 1.03817871 1.11069824 2.07635742 1.16772461 3.14599609 C1.37601424 7.04130564 1.58735422 10.936445 1.79956055 14.83154297 C1.89054682 16.50923323 1.98073378 18.18696707 2.07006836 19.86474609 C2.19949529 22.2927664 2.3315743 24.72062526 2.46484375 27.1484375 C2.50701019 27.93168396 2.54917664 28.71493042 2.59262085 29.52191162 C2.8684514 34.40524952 3.29197228 39.23564757 4.01391602 44.07666016 C3.99647829 46.48673799 3.20255224 47.94169143 2 50 C0.15350476 38.77426656 -0.24992462 27.91767631 -0.125 16.5625 C-0.11493421 14.9446671 -0.10581482 13.32682802 -0.09765625 11.70898438 C-0.07596428 7.80583257 -0.04164041 3.90298784 0 0 Z " fill="#0F0F11" transform="translate(294,376)"/>
<path d="M0 0 C7.14964017 0.34595033 13.02259891 1.89646672 19 6 C19.33 6.99 19.66 7.98 20 9 C14.76824163 9.38281159 11.62197306 8.21854707 7 6 C7 5.34 7 4.68 7 4 C6.21625 3.71125 5.4325 3.4225 4.625 3.125 C2 2 2 2 0 0 Z " fill="#1F1E25" transform="translate(336,595)"/>
<path d="M0 0 C0.33 0.66 0.66 1.32 1 2 C-0.918125 1.814375 -0.918125 1.814375 -2.875 1.625 C-8.24935253 1.57389681 -11.57359849 3.73989757 -15.93359375 6.6875 C-18 8 -18 8 -20 8 C-18.35 11.3 -16.7 14.6 -15 18 C-15.66 18.33 -16.32 18.66 -17 19 C-20 17 -20 17 -20.625 14.0625 C-20.74875 13.051875 -20.8725 12.04125 -21 11 C-21.33 10.01 -21.66 9.02 -22 8 C-16.3818195 1.85552624 -8.30833973 -2.70924122 0 0 Z " fill="#822735" transform="translate(598,324)"/>
<path d="M0 0 C6.68412752 3.63566563 13.35556707 7.29224236 20 11 C19.01 11.495 19.01 11.495 18 12 C17.01 11.67 16.02 11.34 15 11 C14.67 13.97 14.34 16.94 14 20 C13.34 19.67 12.68 19.34 12 19 C12 16.03 12 13.06 12 10 C11.236875 9.731875 10.47375 9.46375 9.6875 9.1875 C7.01927029 8.00851478 5.93553449 7.09682903 4 5 C2.34466005 3.65263027 0.67987227 2.31665664 -1 1 C-0.67 0.67 -0.34 0.34 0 0 Z " fill="#15151A" transform="translate(321,584)"/>
<path d="M0 0 C2.63734465 2.88459571 3.19143693 5.26415645 3.375 9.0625 C3.00799083 12.91609626 2.67555523 14.32444477 0 17 C0.09539063 16.40832031 0.19078125 15.81664062 0.2890625 15.20703125 C1.23119514 8.86745797 1.23119514 8.86745797 -1 3 C-3.92210536 0.37818215 -5.86236985 -0.38661442 -9.765625 -0.51171875 C-10.65507813 -0.54716797 -11.54453125 -0.58261719 -12.4609375 -0.61914062 C-13.38132812 -0.64169922 -14.30171875 -0.66425781 -15.25 -0.6875 C-16.18585937 -0.72166016 -17.12171875 -0.75582031 -18.0859375 -0.79101562 C-20.39050533 -0.87332162 -22.69470119 -0.9425263 -25 -1 C-25 -1.33 -25 -1.66 -25 -2 C-7.17618147 -4.00831758 -7.17618147 -4.00831758 0 0 Z " fill="#832834" transform="translate(672,376)"/>
<path d="M0 0 C2.55698285 3.78667689 2.03499684 7.4122334 1.625 11.75 C1.56828125 12.44738281 1.5115625 13.14476562 1.453125 13.86328125 C1.31232128 15.57639312 1.15754028 17.28834611 1 19 C0.67 19 0.34 19 0 19 C-0.33 25.27 -0.66 31.54 -1 38 C-1.66 37.67 -2.32 37.34 -3 37 C-2.21889502 11.0298471 -2.21889502 11.0298471 0 0 Z " fill="#25262B" transform="translate(295,361)"/>
<path d="M0 0 C0 0.99 0 1.98 0 3 C-14.85 2.67 -29.7 2.34 -45 2 C-45 1.67 -45 1.34 -45 1 C-40.35935756 0.85542451 -35.71865289 0.7131085 -31.07788086 0.57275391 C-29.50396929 0.52485015 -27.93007536 0.4763627 -26.35620117 0.42724609 C-17.56864155 0.15342071 -8.79321497 -0.08662081 0 0 Z " fill="#1C1B1F" transform="translate(568,697)"/>
<path d="M0 0 C0.70125 0.7425 1.4025 1.485 2.125 2.25 C7.56445957 7.45296133 12.89286607 9.91524071 20 12 C20 12.66 20 13.32 20 14 C12.46015205 12.83062543 6.31484038 10.52201791 1 4.875 C0 3 0 3 0 0 Z " fill="#101013" transform="translate(344,682)"/>
<path d="M0 0 C0.66 0.33 1.32 0.66 2 1 C1.34 3.97 0.68 6.94 0 10 C-0.92538169 6.29847322 -1.08174162 5.36541838 0 2 C-1.45742463 1.91903197 -2.91612807 1.86082226 -4.375 1.8125 C-5.59316406 1.76029297 -5.59316406 1.76029297 -6.8359375 1.70703125 C-7.55007813 1.80371094 -8.26421875 1.90039062 -9 2 C-9.66 2.99 -10.32 3.98 -11 5 C-11.33 3.02 -11.66 1.04 -12 -1 C-7.26785472 -1.92787162 -4.33274596 -2.22826935 0 0 Z " fill="#2A242E" transform="translate(618,338)"/>
<path d="M0 0 C1 3 1 3 0.0625 5.1875 C-0.4634375 6.0846875 -0.4634375 6.0846875 -1 7 C-0.46890625 7.53109375 0.0621875 8.0621875 0.609375 8.609375 C4.73958333 12.73958333 8.86979167 16.86979167 13 21 C10.8125 20.875 10.8125 20.875 8 20 C6.26776336 18.05651499 4.60118397 16.05279996 3 14 C1.67098936 12.99426222 0.33926199 11.99204592 -1 11 C-1 10.34 -1 9.68 -1 9 C-1.66 9 -2.32 9 -3 9 C-2.5020163 5.26512223 -2.12508244 3.18762365 0 0 Z " fill="#212D36" transform="translate(574,409)"/>
<path d="M0 0 C1.64574566 -0.02688151 3.29161413 -0.04634123 4.9375 -0.0625 C5.85402344 -0.07410156 6.77054688 -0.08570313 7.71484375 -0.09765625 C10 0 10 0 11 1 C10.95600006 6.32399333 10.2316449 10.64430469 7 15 C6.67 14.34 6.34 13.68 6 13 C6.28875 12.443125 6.5775 11.88625 6.875 11.3125 C8.35485704 8.27057165 8.61470012 5.33926563 9 2 C6.69 1.67 4.38 1.34 2 1 C1.67 2.65 1.34 4.3 1 6 C0.67 6 0.34 6 0 6 C0 4.02 0 2.04 0 0 Z " fill="#F7F39E" transform="translate(553,473)"/>
<path d="M0 0 C0 0.66 0 1.32 0 2 C1.98 2 3.96 2 6 2 C2.52614567 4.31590289 1.03569994 4.26991835 -3.0625 4.25 C-4.12597656 4.25515625 -5.18945312 4.2603125 -6.28515625 4.265625 C-9 4 -9 4 -11 2 C-9.5422647 1.664061 -8.08378894 1.33133376 -6.625 1 C-5.40683594 0.7215625 -5.40683594 0.7215625 -4.1640625 0.4375 C-2 0 -2 0 0 0 Z " fill="#1E1E24" transform="translate(771,568)"/>
<path d="M0 0 C0.33 0 0.66 0 1 0 C0.13329546 6.35583327 -0.93034128 12.67551301 -2 19 C-2.66 18.01 -3.32 17.02 -4 16 C-4.66 16.33 -5.32 16.66 -6 17 C-5.63888478 13.29856899 -4.88697454 10.54046816 -3 7.375 C-1.42425564 4.71593139 -0.47676548 2.97978425 0 0 Z " fill="#AF313F" transform="translate(645,335)"/>
<path d="M0 0 C0.99 0.33 1.98 0.66 3 1 C2.73445313 1.49628906 2.46890625 1.99257813 2.1953125 2.50390625 C-0.11620712 6.94978522 -1.78475081 11.13900324 -3 16 C-3.33 16 -3.66 16 -4 16 C-4.46450943 9.49686791 -3.32575612 5.5825192 0 0 Z " fill="#101013" transform="translate(300,349)"/>
<path d="M0 0 C1.485 0.99 1.485 0.99 3 2 C3 2.66 3 3.32 3 4 C3.556875 4.2475 4.11375 4.495 4.6875 4.75 C8.63317701 6.88279838 11.92013493 9.75803677 15 13 C9.5096946 11.66090112 5.79282357 9.09304707 2 5 C0.5625 2.125 0.5625 2.125 0 0 Z " fill="#EFE892" transform="translate(498,488)"/>
<path d="M0 0 C7.42857143 -0.28571429 7.42857143 -0.28571429 11 2 C9.02 2 7.04 2 5 2 C4.896875 2.928125 4.79375 3.85625 4.6875 4.8125 C4 8 4 8 1 11 C1.99 8.03 2.98 5.06 4 2 C2.68 2 1.36 2 0 2 C0 1.34 0 0.68 0 0 Z " fill="#221E1D" transform="translate(394,473)"/>
<path d="M0 0 C2 0.6875 2 0.6875 4 2.6875 C3.625 5.3125 3.625 5.3125 3 7.6875 C2.67 7.6875 2.34 7.6875 2 7.6875 C1.67 6.0375 1.34 4.3875 1 2.6875 C-2.02419525 3.27553797 -5.01758453 3.91428118 -8 4.6875 C-3.00875657 -0.47011821 -3.00875657 -0.47011821 0 0 Z " fill="#55525B" transform="translate(703,352.3125)"/>
<path d="M0 0 C0.43570312 0.37511719 0.87140625 0.75023437 1.3203125 1.13671875 C5.18607599 4.45859777 9.07657648 7.74642927 13 11 C12.34 11.66 11.68 12.32 11 13 C9.16052663 11.21427748 7.32842259 9.42197551 5.5 7.625 C4.71302734 6.86316406 4.71302734 6.86316406 3.91015625 6.0859375 C2.56846819 4.76167396 1.28004185 3.38394135 0 2 C0 1.34 0 0.68 0 0 Z " fill="#070709" transform="translate(297,564)"/>
<path d="M0 0 C0.33 0 0.66 0 1 0 C1 4.29 1 8.58 1 13 C0.67 13 0.34 13 0 13 C-0.33 11.35 -0.66 9.7 -1 8 C-1.66 8.66 -2.32 9.32 -3 10 C-2.25 3.375 -2.25 3.375 0 0 Z " fill="#23242B" transform="translate(641,349)"/>
<path d="M0 0 C4 2 8 4 12 6 C8.35839192 7.21386936 7.66834531 6.6674695 4.3125 5.0625 C3.50425781 4.68222656 2.69601562 4.30195313 1.86328125 3.91015625 C1.24839844 3.60980469 0.63351562 3.30945313 0 3 C0 2.01 0 1.02 0 0 Z " fill="#18171C" transform="translate(503,496)"/>
<path d="M0 0 C0.14285714 7.42857143 0.14285714 7.42857143 -1 11 C-1.66 11 -2.32 11 -3 11 C-3 7.7 -3 4.4 -3 1 C-1 0 -1 0 0 0 Z " fill="#3D373E" transform="translate(643,357)"/>
<path d="M0 0 C0 4.33685836 -2.08014014 5.9443327 -5 9 C-5.99 9 -6.98 9 -8 9 C-6.90101298 5.70303895 -6.05402613 4.95329411 -3.4375 2.8125 C-2.79683594 2.28269531 -2.15617188 1.75289062 -1.49609375 1.20703125 C-0.75552734 0.60955078 -0.75552734 0.60955078 0 0 Z " fill="#1C1C23" transform="translate(678,666)"/>
<path d="M0 0 C0 0.33 0 0.66 0 1 C-1.62171239 1.38897161 -3.24754925 1.76078298 -4.875 2.125 C-5.77992188 2.33382813 -6.68484375 2.54265625 -7.6171875 2.7578125 C-8.40351563 2.83773438 -9.18984375 2.91765625 -10 3 C-10.66 2.34 -11.32 1.68 -12 1 C-7.58774263 -0.47075246 -4.51718381 -1.36884358 0 0 Z " fill="#18181D" transform="translate(414,366)"/>
<path d="M0 0 C2.9719385 1.12451727 5.33440687 2.22293791 8 4 C7.01 4.66 6.02 5.32 5 6 C5 5.34 5 4.68 5 4 C2.525 3.01 2.525 3.01 0 2 C0 1.34 0 0.68 0 0 Z " fill="#151517" transform="translate(409,695)"/>
<path d="M0 0 C3.63 0 7.26 0 11 0 C11 0.33 11 0.66 11 1 C7.37 1 3.74 1 0 1 C0 0.67 0 0.34 0 0 Z " fill="#323237" transform="translate(541,700)"/>
<path d="M0 0 C1.32 0.66 2.64 1.32 4 2 C2.02 2.66 0.04 3.32 -2 4 C-2 3.34 -2 2.68 -2 2 C-1.34 2 -0.68 2 0 2 C0 1.34 0 0.68 0 0 Z " fill="#3A3A40" transform="translate(756,568)"/>
<path d="M0 0 C0.99 0.33 1.98 0.66 3 1 C3.6875 3.0625 3.6875 3.0625 4 5 C2.64567325 3.68799596 1.31266518 2.35368596 0 1 C0 0.67 0 0.34 0 0 Z " fill="#3A3940" transform="translate(280,545)"/>
<path d="M0 0 C0.33 0 0.66 0 1 0 C1 2.64 1 5.28 1 8 C0.67 8 0.34 8 0 8 C0 5.36 0 2.72 0 0 Z " fill="#3B3B42" transform="translate(272,495)"/>
<path d="M0 0 C2.31 0 4.62 0 7 0 C7 0.33 7 0.66 7 1 C4.69 1 2.38 1 0 1 C0 0.67 0 0.34 0 0 Z " fill="#726D74" transform="translate(704,388)"/>
<path d="M0 0 C0.99 0.33 1.98 0.66 3 1 C2.01 1.33 1.02 1.66 0 2 C0 1.34 0 0.68 0 0 Z " fill="#37373B" transform="translate(470,702)"/>
<path d="M0 0 C1.65 0 3.3 0 5 0 C5 0.33 5 0.66 5 1 C3.35 1 1.7 1 0 1 C0 0.67 0 0.34 0 0 Z " fill="#2E2E33" transform="translate(691,679)"/>
<path d="M0 0 C4 1 4 1 4 1 Z " fill="#2E2E33" transform="translate(700,679)"/>
<path d="M0 0 C0.99 0.33 1.98 0.66 3 1 C2.01 1 1.02 1 0 1 C0 0.67 0 0.34 0 0 Z " fill="#343239" transform="translate(672,677)"/>
<path d="M0 0 C1 4 1 4 1 4 Z " fill="#39393E" transform="translate(330,608)"/>
<path d="M0 0 C0.99 0.33 1.98 0.66 3 1 C2.01 1 1.02 1 0 1 C0 0.67 0 0.34 0 0 Z " fill="#66666E" transform="translate(701,416)"/>
<path d="M0 0 C4 1 4 1 4 1 Z " fill="#3E3C43" transform="translate(423,360)"/>
<path d="M0 0 C0.66 0 1.32 0 2 0 C2 0.66 2 1.32 2 2 C1.34 2 0.68 2 0 2 C0 1.34 0 0.68 0 0 Z " fill="#7E424D" transform="translate(576,341)"/>
<path d="M0 0 C0.66 0 1.32 0 2 0 C1.67 0.66 1.34 1.32 1 2 C0.67 1.34 0.34 0.68 0 0 Z " fill="#37373B" transform="translate(413,702)"/>
<path d="M0 0 C3 1 3 1 3 1 Z " fill="#363539" transform="translate(595,700)"/>
<path d="M0 0 C3 1 3 1 3 1 Z " fill="#333236" transform="translate(537,700)"/>
<path d="M0 0 C3 1 3 1 3 1 Z " fill="#37363B" transform="translate(605,699)"/>
<path d="M0 0 C3 1 3 1 3 1 Z " fill="#36353A" transform="translate(598,699)"/>
<path d="M0 0 C0.66 0.66 1.32 1.32 2 2 C1.34 2 0.68 2 0 2 C0 1.34 0 0.68 0 0 Z " fill="#38363B" transform="translate(465,697)"/>
<path d="M0 0 C3 1 3 1 3 1 Z " fill="#323237" transform="translate(680,679)"/>
<path d="" fill="#37373C" transform="translate(0,0)"/>
<path d="M0 0 C3 1 3 1 3 1 Z " fill="#353339" transform="translate(715,608)"/>
<path d="M0 0 C0.99 0.495 0.99 0.495 2 1 C1.01 1.495 1.01 1.495 0 2 C0 1.34 0 0.68 0 0 Z " fill="#3C3B40" transform="translate(304,575)"/>
<path d="M0 0 C3 1 3 1 3 1 Z " fill="#3B3A41" transform="translate(773,568)"/>
<path d="M0 0 C3 1 3 1 3 1 Z " fill="#3B3A40" transform="translate(760,568)"/>
<path d="M0 0 C0.66 0 1.32 0 2 0 C1.67 0.66 1.34 1.32 1 2 C0.67 1.34 0.34 0.68 0 0 Z " fill="#625D65" transform="translate(698,429)"/>
<path d="" fill="#3B3A41" transform="translate(0,0)"/>
<path d="" fill="#3B3B40" transform="translate(0,0)"/>
<path d="M0 0 C3 1 3 1 3 1 Z " fill="#914B55" transform="translate(665,397)"/>
<path d="M0 0 C0.66 0 1.32 0 2 0 C1.67 0.66 1.34 1.32 1 2 C0.67 1.34 0.34 0.68 0 0 Z " fill="#3B3C41" transform="translate(290,392)"/>
<path d="" fill="#3A3B40" transform="translate(0,0)"/>
<path d="M0 0 C3 1 3 1 3 1 Z " fill="#3D3E42" transform="translate(418,361)"/>
<path d="M0 0 C3 1 3 1 3 1 Z " fill="#423F47" transform="translate(500,354)"/>
<path d="M0 0 C0.33 0.66 0.66 1.32 1 2 C0.34 1.67 -0.32 1.34 -1 1 C-0.67 0.67 -0.34 0.34 0 0 Z " fill="#3D3D44" transform="translate(346,345)"/>
<path d="M0 0 C2 1 2 1 2 1 Z " fill="#37363B" transform="translate(590,700)"/>
<path d="M0 0 C2 1 2 1 2 1 Z " fill="#36373A" transform="translate(398,699)"/>
<path d="M0 0 C2 1 2 1 2 1 Z " fill="#353438" transform="translate(373,699)"/>
<path d="M0 0 C2 1 2 1 2 1 Z " fill="#38383D" transform="translate(636,695)"/>
<path d="M0 0 C2 1 2 1 2 1 Z " fill="#39383D" transform="translate(631,694)"/>
<path d="M0 0 C2 1 2 1 2 1 Z " fill="#38373D" transform="translate(633,693)"/>
<path d="" fill="#303034" transform="translate(0,0)"/>
<path d="M0 0 C2 1 2 1 2 1 Z " fill="#333037" transform="translate(678,678)"/>
<path d="M0 0 C2 1 2 1 2 1 Z " fill="#303034" transform="translate(722,676)"/>
<path d="M0 0 C2 1 2 1 2 1 Z " fill="#333338" transform="translate(741,671)"/>
<path d="" fill="#36373D" transform="translate(0,0)"/>
<path d="" fill="#39383E" transform="translate(0,0)"/>
<path d="" fill="#38383E" transform="translate(0,0)"/>
<path d="M0 0 C2 1 2 1 2 1 Z " fill="#3B3C41" transform="translate(325,591)"/>
<path d="M0 0 C2 1 2 1 2 1 Z " fill="#3D3B42" transform="translate(788,577)"/>
<path d="" fill="#3B3A40" transform="translate(0,0)"/>
<path d="" fill="#3B3A41" transform="translate(0,0)"/>
<path d="" fill="#3B3B41" transform="translate(0,0)"/>
<path d="" fill="#3A3A41" transform="translate(0,0)"/>
<path d="" fill="#3C3B41" transform="translate(0,0)"/>
<path d="" fill="#433F46" transform="translate(0,0)"/>
<path d="" fill="#3C3D44" transform="translate(0,0)"/>
<path d="" fill="#3B3B42" transform="translate(0,0)"/>
<path d="M0 0 C2 1 2 1 2 1 Z " fill="#8F4850" transform="translate(658,398)"/>
<path d="M0 0 C2 1 2 1 2 1 Z " fill="#8A444C" transform="translate(649,397)"/>
<path d="" fill="#393A41" transform="translate(0,0)"/>
<path d="" fill="#3A3A41" transform="translate(0,0)"/>
<path d="" fill="#954753" transform="translate(0,0)"/>
<path d="" fill="#914A55" transform="translate(0,0)"/>
<path d="M0 0 C2 1 2 1 2 1 Z " fill="#3E3C43" transform="translate(382,361)"/>
<path d="M0 0 C2 1 2 1 2 1 Z " fill="#3B3C43" transform="translate(379,360)"/>
<path d="" fill="#914A53" transform="translate(0,0)"/>
<path d="" fill="#3C3C43" transform="translate(0,0)"/>
<path d="" fill="#86424D" transform="translate(0,0)"/>
<path d="" fill="#984A52" transform="translate(0,0)"/>
<path d="" fill="#4D4D4D" transform="translate(0,0)"/>
<path d="" fill="#36353A" transform="translate(0,0)"/>
<path d="" fill="#37363C" transform="translate(0,0)"/>
<path d="" fill="#35353A" transform="translate(0,0)"/>
<path d="" fill="#37383D" transform="translate(0,0)"/>
<path d="" fill="#37373C" transform="translate(0,0)"/>
<path d="" fill="#38373B" transform="translate(0,0)"/>
<path d="" fill="#37383C" transform="translate(0,0)"/>
<path d="" fill="#333338" transform="translate(0,0)"/>
<path d="" fill="#343235" transform="translate(0,0)"/>
<path d="" fill="#353337" transform="translate(0,0)"/>
<path d="" fill="#37373C" transform="translate(0,0)"/>
<path d="" fill="#333338" transform="translate(0,0)"/>
<path d="" fill="#38353B" transform="translate(0,0)"/>
<path d="" fill="#353438" transform="translate(0,0)"/>
<path d="" fill="#343538" transform="translate(0,0)"/>
<path d="" fill="#353638" transform="translate(0,0)"/>
<path d="" fill="#363638" transform="translate(0,0)"/>
<path d="" fill="#363439" transform="translate(0,0)"/>
<path d="" fill="#36373A" transform="translate(0,0)"/>
<path d="" fill="#37373E" transform="translate(0,0)"/>
<path d="" fill="#353439" transform="translate(0,0)"/>
<path d="" fill="#36363B" transform="translate(0,0)"/>
<path d="" fill="#39383D" transform="translate(0,0)"/>
<path d="" fill="#333238" transform="translate(0,0)"/>
<path d="" fill="#34343A" transform="translate(0,0)"/>
<path d="" fill="#2F2E32" transform="translate(0,0)"/>
<path d="" fill="#2F2E33" transform="translate(0,0)"/>
<path d="" fill="#333238" transform="translate(0,0)"/>
<path d="" fill="#33343A" transform="translate(0,0)"/>
<path d="" fill="#333137" transform="translate(0,0)"/>
<path d="" fill="#2F2F32" transform="translate(0,0)"/>
<path d="" fill="#37393B" transform="translate(0,0)"/>
<path d="" fill="#313135" transform="translate(0,0)"/>
<path d="" fill="#2F3034" transform="translate(0,0)"/>
<path d="" fill="#313137" transform="translate(0,0)"/>
<path d="" fill="#34343B" transform="translate(0,0)"/>
<path d="" fill="#333236" transform="translate(0,0)"/>
<path d="" fill="#333539" transform="translate(0,0)"/>
<path d="" fill="#333339" transform="translate(0,0)"/>
<path d="" fill="#37363C" transform="translate(0,0)"/>
<path d="" fill="#343136" transform="translate(0,0)"/>
<path d="" fill="#37363B" transform="translate(0,0)"/>
<path d="" fill="#37353A" transform="translate(0,0)"/>
<path d="" fill="#35373B" transform="translate(0,0)"/>
<path d="" fill="#36363D" transform="translate(0,0)"/>
<path d="" fill="#39383D" transform="translate(0,0)"/>
<path d="" fill="#36373C" transform="translate(0,0)"/>
<path d="" fill="#36383F" transform="translate(0,0)"/>
<path d="" fill="#393A40" transform="translate(0,0)"/>
<path d="" fill="#38383C" transform="translate(0,0)"/>
<path d="" fill="#38393D" transform="translate(0,0)"/>
<path d="" fill="#38373C" transform="translate(0,0)"/>
<path d="" fill="#343239" transform="translate(0,0)"/>
<path d="" fill="#343438" transform="translate(0,0)"/>
<path d="" fill="#34323A" transform="translate(0,0)"/>
<path d="" fill="#36343A" transform="translate(0,0)"/>
<path d="" fill="#36353D" transform="translate(0,0)"/>
<path d="" fill="#363238" transform="translate(0,0)"/>
<path d="" fill="#3A383E" transform="translate(0,0)"/>
<path d="" fill="#3C3D42" transform="translate(0,0)"/>
<path d="" fill="#373740" transform="translate(0,0)"/>
<path d="" fill="#3E3D43" transform="translate(0,0)"/>
<path d="" fill="#393A40" transform="translate(0,0)"/>
<path d="" fill="#393B3E" transform="translate(0,0)"/>
<path d="" fill="#3B383E" transform="translate(0,0)"/>
<path d="" fill="#3B393F" transform="translate(0,0)"/>
<path d="" fill="#3A3C3F" transform="translate(0,0)"/>
<path d="" fill="#3B3941" transform="translate(0,0)"/>
<path d="" fill="#3A3A41" transform="translate(0,0)"/>
<path d="" fill="#3A3A40" transform="translate(0,0)"/>
<path d="" fill="#3D3D42" transform="translate(0,0)"/>
<path d="" fill="#3B383F" transform="translate(0,0)"/>
<path d="" fill="#3A3A41" transform="translate(0,0)"/>
<path d="" fill="#3C3B42" transform="translate(0,0)"/>
<path d="" fill="#3B3A42" transform="translate(0,0)"/>
<path d="" fill="#3A3A3F" transform="translate(0,0)"/>
<path d="" fill="#393940" transform="translate(0,0)"/>
<path d="" fill="#3C3A42" transform="translate(0,0)"/>
<path d="" fill="#3D3C42" transform="translate(0,0)"/>
<path d="" fill="#3B3C42" transform="translate(0,0)"/>
<path d="" fill="#403E47" transform="translate(0,0)"/>
<path d="" fill="#3A3C40" transform="translate(0,0)"/>
<path d="" fill="#3F3D43" transform="translate(0,0)"/>
<path d="" fill="#3F3C43" transform="translate(0,0)"/>
<path d="" fill="#3B3C40" transform="translate(0,0)"/>
<path d="" fill="#3C3A43" transform="translate(0,0)"/>
<path d="" fill="#433F45" transform="translate(0,0)"/>
<path d="" fill="#3D3A42" transform="translate(0,0)"/>
<path d="" fill="#423F45" transform="translate(0,0)"/>
<path d="" fill="#413E46" transform="translate(0,0)"/>
<path d="" fill="#47424A" transform="translate(0,0)"/>
<path d="" fill="#5C5D63" transform="translate(0,0)"/>
<path d="" fill="#635F64" transform="translate(0,0)"/>
<path d="" fill="#605C65" transform="translate(0,0)"/>
<path d="" fill="#666268" transform="translate(0,0)"/>
<path d="" fill="#68656F" transform="translate(0,0)"/>
<path d="" fill="#68676F" transform="translate(0,0)"/>
<path d="" fill="#65414A" transform="translate(0,0)"/>
<path d="" fill="#6A4149" transform="translate(0,0)"/>
<path d="" fill="#3A3C42" transform="translate(0,0)"/>
<path d="" fill="#8F4852" transform="translate(0,0)"/>
<path d="" fill="#8E5258" transform="translate(0,0)"/>
<path d="" fill="#8F4951" transform="translate(0,0)"/>
<path d="" fill="#96434C" transform="translate(0,0)"/>
<path d="" fill="#3C3D43" transform="translate(0,0)"/>
<path d="" fill="#766871" transform="translate(0,0)"/>
<path d="" fill="#756B71" transform="translate(0,0)"/>
<path d="" fill="#766A72" transform="translate(0,0)"/>
<path d="" fill="#93555C" transform="translate(0,0)"/>
<path d="" fill="#8F565C" transform="translate(0,0)"/>
<path d="" fill="#3C3B41" transform="translate(0,0)"/>
<path d="" fill="#3A3A40" transform="translate(0,0)"/>
<path d="" fill="#6A666C" transform="translate(0,0)"/>
<path d="" fill="#7B646B" transform="translate(0,0)"/>
<path d="" fill="#8E4B56" transform="translate(0,0)"/>
<path d="" fill="#404043" transform="translate(0,0)"/>
<path d="" fill="#404047" transform="translate(0,0)"/>
<path d="" fill="#6F6B6D" transform="translate(0,0)"/>
<path d="" fill="#403F45" transform="translate(0,0)"/>
<path d="" fill="#423D43" transform="translate(0,0)"/>
<path d="" fill="#3F3C43" transform="translate(0,0)"/>
<path d="" fill="#403E47" transform="translate(0,0)"/>
<path d="" fill="#433F45" transform="translate(0,0)"/>
<path d="" fill="#414045" transform="translate(0,0)"/>
<path d="" fill="#434146" transform="translate(0,0)"/>
<path d="" fill="#3F3D44" transform="translate(0,0)"/>
<path d="" fill="#6F6770" transform="translate(0,0)"/>
<path d="" fill="#453D43" transform="translate(0,0)"/>
<path d="" fill="#493F44" transform="translate(0,0)"/>
<path d="" fill="#473E45" transform="translate(0,0)"/>
<path d="" fill="#424147" transform="translate(0,0)"/>
<path d="" fill="#3F3D44" transform="translate(0,0)"/>
<path d="" fill="#6E676D" transform="translate(0,0)"/>
<path d="" fill="#3D3C43" transform="translate(0,0)"/>
<path d="" fill="#964A57" transform="translate(0,0)"/>
<path d="" fill="#564048" transform="translate(0,0)"/>
<path d="" fill="#9B4954" transform="translate(0,0)"/>
<path d="" fill="#613D48" transform="translate(0,0)"/>
<path d="" fill="#9C4954" transform="translate(0,0)"/>
<path d="" fill="#3C3D42" transform="translate(0,0)"/>
<path d="" fill="#69424A" transform="translate(0,0)"/>
<path d="" fill="#3B3842" transform="translate(0,0)"/>
<path d="" fill="#3D3B42" transform="translate(0,0)"/>
<path d="" fill="#3D3940" transform="translate(0,0)"/>
<path d="" fill="#823F4B" transform="translate(0,0)"/>
<path d="" fill="#853F4C" transform="translate(0,0)"/>
<path d="" fill="#943F4D" transform="translate(0,0)"/>
<path d="" fill="#944950" transform="translate(0,0)"/>
<path d="" fill="#A24E5A" transform="translate(0,0)"/>
<path d="" fill="#9B5057" transform="translate(0,0)"/>
</svg>
